DBRep_DrawableShape

CASCADE Topology V1, (c) Matra-Datavision
Locations 0
Curve2ds 62
1 4 0 0 1 
1 0 0 1 0 
1 -3.1415926535897931 0 1 0 
2 7 55 1 0 0 -1 3
1 0 0 1 0 
1 0 0 1 0 
1 0 0 1 0 
1 0 0 1 0 
1 2 58 1 0 
1 0 0 0 1 
1 0 0 1 0 
1 60 0 0 1 
1 0 0 1 0 
1 62 58 0 1 
1 0 0 1 0 
1 0 60 1 0 
1 0 0 1 0 
1 0 4 1 0 
1 2 62 1 0 
1 0 0 0 1 
1 0 0 1 0 
1 2 58 0 1 
1 4 0 0 1 
1 0 40 1 0 
1 0 0 0 1 
1 55 0 0 1 
1 4 0 0 -1 
1 0 0 0 1 
1 1.5707963267948966 0 0 1 
1 5 0 0 -1 
1 -3.1415926535897931 40 1 0 
2 7 55 1 0 0 -1 3
1 0 -40 1 0 
1 0 0 1 0 
1 0 0 0 -1 
1 0 0 0 1 
1 60 0 0 -1 
1 0 0 0 1 
1 0 -40 1 0 
1 0 0 1 0 
1 2 58 1 0 
1 0 0 0 1 
1 0 40 1 0 
1 0 0 0 -1 
1 60 0 0 1 
1 60 0 0 1 
1 0 40 1 0 
1 62 58 0 1 
1 60 0 0 -1 
1 4 0 0 1 
8 -40 0
1 2 0 0 1 
8 -40 0
1 2 0 0 -1 
1 0 -40 1 0 
1 0 60 1 0 
1 0 -40 1 0 
1 0 4 1 0 
1 2 62 1 0 
1 0 0 0 -1 
1 4 0 0 1 
1 0 0 0 1 
1 0 40 1 0 
1 2 58 0 1 
Curves 27
1 0 0 2 1 0 -0 
8 3.1415926535897931 4.7123889803846897
2 55 0 5 0 -1 -0 0 0 1 -1 -0 0 3
1 0 0 -2 0 0 1 
1 58 0 0 0 0 1 
1 0 0 -2 1 0 -0 
1 58 0 60 1 0 -0 
1 60 0 -2 0 0 1 
1 62 0 0 0 0 1 
1 58 0 0 1 0 -0 
1 0 40 2 1 0 -0 
1 55 0 2 -0 1 0 
1 0 0 2 -0 1 0 
1 58 0 5 -0 1 0 
8 3.1415926535897931 4.7123889803846897
2 55 40 5 0 -1 -0 0 0 1 -1 -0 0 3
1 0 40 -2 0 0 1 
1 0 0 -2 -0 1 0 
1 58 0 60 -0 1 0 
1 58 40 0 0 0 1 
1 0 40 -2 1 0 -0 
1 60 0 -2 -0 1 0 
1 58 40 60 1 0 -0 
1 62 0 60 -0 1 0 
1 60 0 0 0 -1 0 
1 60 40 -2 0 0 1 
1 62 40 0 0 0 1 
1 62 0 0 -0 1 0 
1 58 40 0 1 0 -0 
Polygon3D 0
PolygonOnTriangulations 0
Surfaces 15
1 0 0 -2 -0 1 0 0 0 1 1 0 -0 
1 0 0 -2 -0 1 0 0 0 1 1 0 -0 
1 0 0 2 0 0 1 1 0 -0 -0 1 0 
2 55 0 5 -0 1 0 -0 0 -1 1 0 -0 3
1 0 0 -2 1 0 -0 0 0 1 0 -1 0 
1 58 0 0 1 0 -0 0 0 1 0 -1 0 
1 58 0 0 -0 1 0 0 0 1 1 0 -0 
1 0 0 -2 0 0 1 1 0 -0 -0 1 0 
1 58 0 60 0 0 1 1 0 -0 -0 1 0 
1 60 0 -2 1 0 -0 0 0 1 0 -1 0 
1 62 0 0 1 0 -0 0 0 1 0 -1 0 
1 58 0 0 0 0 1 1 0 -0 -0 1 0 
1 0 40 -2 -0 1 0 0 0 1 1 0 -0 
1 0 40 -2 -0 1 0 0 0 1 1 0 -0 
1 58 40 0 -0 1 0 0 0 1 1 0 -0 
Triangulations 0

TShapes 70
Ve
1e-07
55 0 2
0 0

0101101
*
Ve
1e-07
0 0 2
0 0

0101101
*
Ed
 1e-07 1 1 0
1  1 0 0 55
2  1 2 0 0 55
2  2 3 0 0 55
0

0101000
-70 0 +69 0 *
Ve
1e-07
58 0 5
0 0

0101101
*
Ed
 1e-07 1 1 0
1  2 0 3.14159265358979 4.71238898038469
2  3 4 0 3.14159265358979 4.71238898038469
2  4 1 0 3.14159265358979 4.71238898038469
0

0101000
+70 0 -67 0 *
Ve
1e-07
0 0 -2
0 0

0101101
*
Ed
 1e-07 1 1 0
1  3 0 0 4
2  5 5 0 0 4
2  6 2 0 0 4
0

0101000
-69 0 +65 0 *
Ve
1e-07
58 0 60
0 0

0101101
*
Ed
 1e-07 1 1 0
1  4 0 5 60
2  7 6 0 5 60
2  8 7 0 5 60
2  9 2 0 5 60
0

0101000
+67 0 -63 0 *
Ve
1e-07
60 0 -2
0 0

0101101
*
Ed
 1e-07 1 1 0
1  5 0 0 60
2  10 2 0 0 60
2  11 8 0 0 60
0

0101000
-61 0 +65 0 *
Ve
1e-07
62 0 60
0 0

0101101
*
Ed
 1e-07 1 1 0
1  6 0 0 4
2  12 7 0 0 4
2  13 9 0 0 4
2  14 2 0 0 4
0

0101000
-59 0 +63 0 *
Ve
1.5e-07
60 0 0
0 0

0101101
*
Ed
 1e-07 1 1 0
1  7 0 0 2
2  15 10 0 0 2
2  16 2 0 0 2
0

0101000
+61 0 -57 0 *
Ve
1e-07
62 0 0
0 0

0101101
*
Ed
 1e-07 1 1 0
1  8 0 0 60
2  17 11 0 0 60
2  18 7 0 0 60
2  19 2 0 0 60
0

0101000
-59 0 +55 0 *
Ed
 1e-07 1 1 0
1  9 0 2 4
2  20 7 0 2 4
2  21 12 0 2 4
2  22 2 0 2 4
0

0101000
+57 0 -55 0 *
Wi

0101100
+68 0 +66 0 +64 0 +62 0 -60 0 +58 0 -56 0 -54 0 -53 0 *
Fa
0  0 1 0

0101000
+52 0 *
Ve
1e-07
55 40 2
0 0

0101101
*
Ve
1e-07
0 40 2
0 0

0101101
*
Ed
 1e-07 1 1 0
1  10 0 0 55
2  23 13 0 0 55
2  24 3 0 0 55
0

0101000
-50 0 +49 0 *
Ed
 1e-07 1 1 0
1  11 0 0 40
2  25 4 0 0 40
2  26 3 0 0 40
4 G1 4 0 3 0
0

0101000
+70 0 -50 0 *
Ed
 1e-07 1 1 0
1  12 0 0 40
2  27 5 0 0 40
2  28 3 0 0 40
0

0101000
-49 0 +69 0 *
Wi

0101100
-48 0 +47 0 -46 0 +68 0 *
Fa
0  1e-07 3 0

0101000
+45 0 *
Ve
1e-07
58 40 5
0 0

0101101
*
Ed
 1e-07 1 1 0
1  13 0 -0 40
2  29 4 0 -0 40
2  30 6 0 -0 40
4 G1 4 0 6 0
0

0101000
+67 0 -43 0 *
Ed
 1e-07 1 1 0
1  14 0 3.14159265358979 4.71238898038469
2  31 4 0 3.14159265358979 4.71238898038469
2  32 14 0 3.14159265358979 4.71238898038469
0

0101000
+50 0 -43 0 *
Wi

0101100
+66 0 -47 0 +42 0 -41 0 *
Fa
0  0 4 0

0101000
+40 0 *
Ve
1e-07
0 40 -2
0 0

0101101
*
Ed
 1e-07 1 1 0
1  15 0 0 4
2  33 5 0 0 4
2  34 13 0 0 4
0

0101000
-49 0 +38 0 *
Ed
 1e-07 1 1 0
1  16 0 0 40
2  35 5 0 0 40
2  36 8 0 0 40
0

0101000
-38 0 +65 0 *
Wi

0101100
-64 0 -46 0 +37 0 +36 0 *
Fa
0  1e-07 5 0

0111000
+35 0 *
Ve
1e-07
58 40 60
0 0

0101101
*
Ed
 1e-07 1 1 0
1  17 0 0 40
2  37 6 0 0 40
2  38 9 0 0 40
0

0101000
-33 0 +63 0 *
Ed
 1e-07 1 1 0
1  18 0 5 60
2  39 6 0 5 60
2  40 15 0 5 60
2  41 13 0 5 60
0

0101000
+43 0 -33 0 *
Wi

0101100
-62 0 +42 0 -32 0 +31 0 *
Fa
0  1e-07 6 0

0101000
+30 0 *
Ve
1e-07
60 40 -2
0 0

0101101
*
Ed
 1e-07 1 1 0
1  19 0 0 60
2  42 13 0 0 60
2  43 8 0 0 60
0

0101000
-28 0 +38 0 *
Ed
 1e-07 1 1 0
1  20 0 0 40
2  44 10 0 0 40
2  45 8 0 0 40
0

0101000
-28 0 +61 0 *
Wi

0101100
-36 0 -27 0 +26 0 +60 0 *
Fa
0  1e-07 8 0

0111000
+25 0 *
Ve
1e-07
62 40 60
0 0

0101101
*
Ed
 1e-07 1 1 0
1  21 0 0 4
2  46 15 0 0 4
2  47 9 0 0 4
2  48 13 0 0 4
0

0101000
-23 0 +33 0 *
Ed
 1e-07 1 1 0
1  22 0 0 40
2  49 11 0 0 40
2  50 9 0 0 40
0

0101000
-23 0 +59 0 *
Wi

0101100
-32 0 -22 0 +21 0 +58 0 *
Fa
0  1e-07 9 0

0111000
+20 0 *
Ve
1.5e-07
60 40 0
0 0

0101101
*
Ed
 1.5e-07 1 1 0
1  23 0 -40 0
2  51 10 0 -40 0
2  52 12 0 -40 0
0

0101000
+18 0 -57 0 *
Ed
 1e-07 1 1 0
1  24 0 0 2
2  53 10 0 0 2
2  54 13 0 0 2
0

0101000
+28 0 -18 0 *
Wi

0101100
-56 0 +17 0 +16 0 +26 0 *
Fa
0  1e-07 10 0

0101000
+15 0 *
Ve
1e-07
62 40 0
0 0

0101101
*
Ed
 1e-07 1 1 0
1  25 0 0 60
2  55 11 0 0 60
2  56 15 0 0 60
2  57 13 0 0 60
0

0101000
-23 0 +13 0 *
Ed
 1e-07 1 1 0
1  26 0 0 40
2  58 11 0 0 40
2  59 12 0 0 40
0

0101000
-13 0 +55 0 *
Wi

0101100
-54 0 -21 0 +12 0 +11 0 *
Fa
0  1e-07 11 0

0111000
+10 0 *
Ed
 1e-07 1 1 0
1  27 0 2 4
2  60 15 0 2 4
2  61 12 0 2 4
2  62 13 0 2 4
0

0101000
+18 0 -13 0 *
Wi

0101100
-8 0 +11 0 +53 0 +17 0 *
Fa
0  1e-07 12 0

0101000
+7 0 *
Wi

0101100
+48 0 +41 0 +37 0 +31 0 -27 0 +22 0 -16 0 -12 0 -8 0 *
Fa
0  0 14 0

0101000
+5 0 *
Sh

0101100
-51 0 +44 0 +39 0 -34 0 -29 0 -24 0 +19 0 +14 0 +9 0 -6 0 
+4 0 *
So

0100000
+3 0 *
Co

1100000
+2 0 *

+1 0 