DBRep_DrawableShape

CASCADE Topology V1, (c) Matra-Datavision
Locations 2
1
              1               0               0               0 
              0               1               0              40 
              0               0               1               0 
2  1 -1 0
Curve2ds 96
1 4 0 0 1 
1 0 0 1 0 
1 4 0 0 1 
1 0 0 1 0 
1 0 -40 1 0 
1 -12.714126367658082 7.2858736323419322 0.70710678118654757 -0.70710678118654757 
1 24 58 -0.70710678118654757 -0.70710678118654757 
1 24 58 -0.70710678118654757 -0.70710678118654757 
1 0 0 1 0 
1 0 0 1 0 
1 2 58 1 0 
1 2 58 1 0 
1 60 0 0 1 
1 0 0 1 0 
1 62 58 0 1 
1 62 58 0 1 
1 0 0 1 0 
1 0 4 1 0 
1 2 62 1 0 
1 2 62 1 0 
1 0 0 0 1 
1 0 0 1 0 
1 2 58 0 1 
1 2 58 0 1 
1 0 0 1 0 
1 0 60 1 0 
1 0 60 1 0 
1 0 0 0 1 
1 0 0 1 0 
1 0 0 0 1 
1 0 0 1 0 
1 0 0 1 0 
1 0 0 1 0 
1 -3.1415926535897931 0 1 0 
2 7 55 1 0 0 -1 3
1 0 0 1 0 
1 0 -40 1 0 
1 7.285873632341918 4.2858736323419322 -0.70710678118654757 0.70710678118654757 
1 4 55 0.70710678118654757 0.70710678118654757 
1 4 0 0 1 
1 0 40 1 0 
1 4 0 0 1 
1 0 0 0 -1 
1 28.284271247461902 0 0 -1 
1 38 0 0 1 
1 4 0 0 -1 
1 0 0 0 1 
1 0 0 0 1 
1 55 0 0 1 
1 0 0 0 -1 
1 1.5707963267948966 0 0 1 
1 5 0 0 -1 
1 4.2426406871192857 0 0 -1 
1 -3.1415926535897931 40 1 0 
2 7 55 1 0 0 -1 3
1 0 -40 1 0 
1 0 0 1 0 
1 0 0 1 0 
1 0 0 0 -1 
1 0 0 0 1 
1 60 0 0 -1 
1 0 0 0 1 
1 0 -40 1 0 
1 0 0 1 0 
1 2 58 1 0 
1 2 58 1 0 
1 0 0 0 -1 
1 17 0 0 -1 
1 22 0 0 -1 
1 0 0 0 1 
1 0 40 1 0 
1 0 0 0 1 
1 0 0 0 -1 
1 60 0 0 1 
1 60 0 0 1 
1 0 40 1 0 
1 62 58 0 1 
1 62 58 0 1 
1 60 0 0 -1 
1 4 0 0 1 
8 -40 0
1 2 0 0 1 
8 -40 0
1 2 0 0 -1 
1 0 -40 1 0 
1 0 60 1 0 
1 0 60 1 0 
1 0 -40 1 0 
1 0 4 1 0 
1 2 62 1 0 
1 2 62 1 0 
1 0 0 0 -1 
1 4 0 0 1 
1 0 0 0 1 
1 0 40 1 0 
1 2 58 0 1 
1 2 58 0 1 
1 4 55 0.70710678118654757 0.70710678118654757 
Curves 31
1 0 0 2 1 0 -0 
1 58 0 22 -0.70710678118654746 0 -0.70710678118654746 
1 58 0 0 0 0 1 
1 58 0 60 1 0 -0 
1 62 0 0 0 0 1 
1 58 0 0 1 0 -0 
1 60 0 -2 0 0 1 
1 0 0 -2 1 0 -0 
1 0 0 -2 0 0 1 
8 3.1415926535897931 4.7123889803846897
2 55 0 5 0 -1 -0 0 0 1 -1 -0 0 3
1 55 0 2 0.70710678118654757 0 0.70710678118654757 
1 0 40 2 1 0 -0 
1 38 0 2 0 1 0 
1 0 0 2 -0 1 0 
1 55 0 2 -0 1 0 
1 58 0 5 -0 1 0 
8 3.1415926535897931 4.7123889803846897
2 55 40 5 0 -1 -0 0 0 1 -1 -0 0 3
1 0 40 -2 0 0 1 
1 0 0 -2 -0 1 0 
1 58 0 60 -0 1 0 
1 58 40 0 0 0 1 
1 58 0 22 0 1 0 
1 0 40 -2 1 0 -0 
1 60 0 -2 -0 1 0 
1 58 40 60 1 0 -0 
1 62 0 60 -0 1 0 
1 60 0 0 0 -1 0 
1 60 40 -2 0 0 1 
1 62 40 0 0 0 1 
1 62 0 0 -0 1 0 
1 58 40 0 1 0 -0 
Polygon3D 0
PolygonOnTriangulations 0
Surfaces 22
1 0 0 -2 -0 1 0 0 0 1 1 0 -0 
1 0 0 -2 -0 1 0 0 0 1 1 0 -0 
1 0 0 2 0 0 1 1 0 -0 -0 1 0 
1 0 0 -2 -0 1 0 0 0 1 1 0 -0 
1 58 0 22 -0.70710678118654757 0 0.70710678118654757 -0.70710678118654757 0 -0.70710678118654757 -0 -1 0 
1 50.714126367658068 0 9.285873632341918 -0 -1 -0 0 0 -1 1 -0 0 
1 0 40 -2 -0 1 0 0 0 1 1 0 -0 
1 58 0 0 1 0 -0 0 0 1 0 -1 0 
1 58 0 0 -0 1 0 0 0 1 1 0 -0 
1 58 0 60 0 0 1 1 0 -0 -0 1 0 
1 62 0 0 1 0 -0 0 0 1 0 -1 0 
1 58 0 0 0 0 1 1 0 -0 -0 1 0 
1 60 0 -2 1 0 -0 0 0 1 0 -1 0 
1 0 0 -2 0 0 1 1 0 -0 -0 1 0 
1 0 0 -2 1 0 -0 0 0 1 0 -1 0 
2 55 0 5 -0 1 0 0 0 -1 1 -0 0 3
1 55 0 2 0.70710678118654757 0 -0.70710678118654757 0.70710678118654757 0 0.70710678118654757 0 -1 0 
1 0 40 -2 -0 1 0 0 0 1 1 0 -0 
1 38 0 2 0 0 -1 1 0 0 0 -1 0 
1 58 40 0 -0 1 0 0 0 1 1 0 -0 
1 58 0 5 1 0 0 0 0 1 0 -1 0 
1 0 40 -2 -0 1 0 0 0 1 1 0 -0 
Triangulations 0

TShapes 83
Ve
1e-07
0 0 2
0 0

0101101
*
Ve
1e-07
38 0 2
0 0

0101101
*
Ed
 1e-07 1 1 0
1  1 0 0 38
2  1 2 0 0 38
2  2 3 0 0 38
2  3 4 0 0 38
0

0101000
+83 0 -82 0 *
Ve
1e-07
58 0 22
0 0

0101101
*
Ed
 1e-07 1 1 0
1  2 0 0 28.2842712474619
2  4 5 0 0 28.2842712474619
2  5 5 2 0 28.2842712474619
2  6 6 0 0 28.2842712474619
2  7 4 0 0 28.2842712474619
2  8 7 2 0 28.2842712474619
0

0101000
+80 0 -82 0 *
Ve
1e-07
58 0 60
0 0

0101101
*
Ed
 1e-07 1 1 0
1  3 0 22 60
2  9 8 0 22 60
2  10 9 0 22 60
2  11 2 0 22 60
2  12 4 0 22 60
0

0101000
+80 0 -78 0 *
Ve
1e-07
62 0 60
0 0

0101101
*
Ed
 1e-07 1 1 0
1  4 0 0 4
2  13 9 0 0 4
2  14 10 0 0 4
2  15 2 0 0 4
2  16 4 0 0 4
0

0101000
-76 0 +78 0 *
Ve
1e-07
62 0 0
0 0

0101101
*
Ed
 1e-07 1 1 0
1  5 0 0 60
2  17 11 0 0 60
2  18 9 0 0 60
2  19 2 0 0 60
2  20 4 0 0 60
0

0101000
-76 0 +74 0 *
Ve
1.5e-07
60 0 0
0 0

0101101
*
Ed
 1e-07 1 1 0
1  6 0 2 4
2  21 9 0 2 4
2  22 12 0 2 4
2  23 2 0 2 4
2  24 4 0 2 4
0

0101000
+72 0 -74 0 *
Ve
1e-07
60 0 -2
0 0

0101101
*
Ed
 1e-07 1 1 0
1  7 0 0 2
2  25 13 0 0 2
2  26 2 0 0 2
2  27 4 0 0 2
0

0101000
+70 0 -72 0 *
Ve
1e-07
0 0 -2
0 0

0101101
*
Ed
 1e-07 1 1 0
1  8 0 0 60
2  28 2 0 0 60
2  29 14 0 0 60
2  30 4 0 0 60
0

0101000
-70 0 +68 0 *
Ed
 1e-07 1 1 0
1  9 0 0 4
2  31 15 0 0 4
2  32 2 0 0 4
2  33 4 0 0 4
0

0101000
-83 0 +68 0 *
Wi

0101100
+81 0 -79 0 +77 0 +75 0 -73 0 -71 0 -69 0 -67 0 +66 0 *
Ve
1e-07
55 0 2
0 0

0101101
*
Ve
1e-07
58 0 5
0 0

0101101
*
Ed
 1e-07 1 1 0
1  10 0 3.14159265358979 4.71238898038469
2  34 16 0 3.14159265358979 4.71238898038469
2  35 4 0 3.14159265358979 4.71238898038469
0

0101000
+64 0 -63 0 *
Ed
 1e-07 1 1 0
1  11 0 0 4.24264068711928
2  36 17 0 0 4.24264068711928
2  37 17 2 0 4.24264068711928
2  38 6 0 0 4.24264068711928
2  39 4 0 0 4.24264068711928
0

0101000
+64 0 -63 0 *
Wi

0101100
+62 0 -61 0 *
Fa
0  0 1 0

0101000
+65 0 +60 0 *
Ve
1e-07
0 40 2
0 0

0101101
*
Ed
 1e-07 1 1 0
1  12 0 0 38
2  40 18 0 0 38
2  41 3 0 0 38
2  42 7 0 0 38
0

0101000
+58 0 -82 1 *
Ed
 1e-07 1 1 0
1  13 0 0 40
2  43 19 0 0 40
2  44 5 0 0 40
2  45 3 0 0 40
0

0101000
+82 0 -82 1 *
Ed
 1e-07 1 1 0
1  14 0 0 40
2  46 15 0 0 40
2  47 3 0 0 40
0

0101000
-58 0 +83 0 *
Wi

0101100
-57 0 +56 0 +81 0 -55 0 *
Fa
0  1e-07 3 0

0101000
+54 0 *
Ve
1e-07
55 40 2
0 0

0101101
*
Ed
 1e-07 1 1 0
1  15 0 0 40
2  48 16 0 0 40
2  49 3 0 0 40
4 G1 16 0 3 0
2  50 17 0 0 40
0

0101000
+64 0 -52 0 *
Ve
1e-07
58 40 5
0 0

0101101
*
Ed
 1e-07 1 1 0
1  16 0 -0 40
2  51 16 0 -0 40
2  52 8 0 -0 40
4 G1 16 0 8 0
2  53 17 0 -0 40
0

0101000
+63 0 -50 0 *
Ed
 1e-07 1 1 0
1  17 0 3.14159265358979 4.71238898038469
2  54 16 0 3.14159265358979 4.71238898038469
2  55 7 0 3.14159265358979 4.71238898038469
0

0101000
+52 0 -50 0 *
Wi

0101100
+62 0 -51 0 +49 0 -48 0 *
Fa
0  1e-07 16 0

0101000
+47 0 *
Ve
1e-07
0 40 -2
0 0

0101101
*
Ed
 1e-07 1 1 0
1  18 0 0 4
2  56 15 0 0 4
2  57 18 0 0 4
2  58 7 0 0 4
0

0101000
-58 0 +45 0 *
Ed
 1e-07 1 1 0
1  19 0 0 40
2  59 15 0 0 40
2  60 14 0 0 40
0

0101000
-45 0 +68 0 *
Wi

0101100
-66 0 -55 0 +44 0 +43 0 *
Fa
0  1e-07 15 0

0111000
+42 0 *
Ve
1e-07
58 40 60
0 0

0101101
*
Ed
 1e-07 1 1 0
1  20 0 0 40
2  61 8 0 0 40
2  62 10 0 0 40
0

0101000
-40 0 +78 0 *
Ed
 1e-07 1 1 0
1  21 0 22 60
2  63 8 0 22 60
2  64 20 0 22 60
2  65 18 0 22 60
2  66 7 0 22 60
0

0101000
+80 1 -40 0 *
Ed
 1e-07 1 1 0
1  22 0 0 40
2  67 5 0 0 40
2  68 21 0 0 40
2  69 8 0 0 40
0

0101000
+80 0 -80 1 *
Wi

0101100
-77 0 -39 0 +38 0 +37 0 *
Fa
0  1e-07 8 0

0101000
+36 0 *
Ve
1e-07
60 40 -2
0 0

0101101
*
Ed
 1e-07 1 1 0
1  23 0 0 60
2  70 18 0 0 60
2  71 14 0 0 60
2  72 7 0 0 60
0

0101000
-34 0 +45 0 *
Ed
 1e-07 1 1 0
1  24 0 0 40
2  73 13 0 0 40
2  74 14 0 0 40
0

0101000
-34 0 +70 0 *
Wi

0101100
-43 0 -33 0 +32 0 +67 0 *
Fa
0  1e-07 14 0

0111000
+31 0 *
Ve
1e-07
62 40 60
0 0

0101101
*
Ed
 1e-07 1 1 0
1  25 0 0 4
2  75 20 0 0 4
2  76 10 0 0 4
2  77 18 0 0 4
2  78 7 0 0 4
0

0101000
-29 0 +40 0 *
Ed
 1e-07 1 1 0
1  26 0 0 40
2  79 11 0 0 40
2  80 10 0 0 40
0

0101000
-29 0 +76 0 *
Wi

0101100
-39 0 -28 0 +27 0 +75 0 *
Fa
0  1e-07 10 0

0111000
+26 0 *
Ve
1.5e-07
60 40 0
0 0

0101101
*
Ed
 1.5e-07 1 1 0
1  27 0 -40 0
2  81 13 0 -40 0
2  82 12 0 -40 0
0

0101000
+24 0 -72 0 *
Ed
 1e-07 1 1 0
1  28 0 0 2
2  83 13 0 0 2
2  84 18 0 0 2
2  85 7 0 0 2
0

0101000
+34 0 -24 0 *
Wi

0101100
-69 0 +23 0 +22 0 +32 0 *
Fa
0  1e-07 13 0

0111000
+21 0 *
Ve
1e-07
62 40 0
0 0

0101101
*
Ed
 1e-07 1 1 0
1  29 0 0 60
2  86 11 0 0 60
2  87 20 0 0 60
2  88 18 0 0 60
2  89 7 0 0 60
0

0101000
-29 0 +19 0 *
Ed
 1e-07 1 1 0
1  30 0 0 40
2  90 11 0 0 40
2  91 12 0 0 40
0

0101000
-19 0 +74 0 *
Wi

0101100
-73 0 -27 0 +18 0 +17 0 *
Fa
0  1e-07 11 0

0111000
+16 0 *
Ed
 1e-07 1 1 0
1  31 0 2 4
2  92 20 0 2 4
2  93 12 0 2 4
2  94 18 0 2 4
2  95 7 0 2 4
0

0101000
+24 0 -19 0 *
Wi

0101100
-14 0 +17 0 +71 0 +23 0 *
Fa
0  1e-07 12 0

0111000
+13 0 *
Wi

0101100
+57 0 -79 1 +38 0 +28 0 -18 0 -14 0 -22 0 -33 0 +44 0 *
Ed
 1e-07 1 1 0
1  11 0 0 4.24264068711928
2  36 17 0 0 4.24264068711928
2  37 17 2 0 4.24264068711928
2  38 6 0 0 4.24264068711928
2  96 7 2 0 4.24264068711928
0

0101000
+52 2 -50 2 *
Wi

0101100
+48 0 -10 1 *
Fa
0  0 22 0

0101000
+11 0 +9 0 *
Wi

0101100
+37 0 -56 0 -79 0 +79 1 *
Fa
0  1e-07 5 0

0101000
+7 0 *
Wi

0101100
+51 0 -49 0 -61 0 +10 1 *
Fa
0  1e-07 17 0

0101000
+5 0 *
Sh

0101100
-59 0 +53 0 +46 0 -41 0 -35 0 -30 0 +25 0 +20 0 +15 0 -12 0 
+8 0 +6 0 +4 0 *
So

0100000
+3 0 *
Co

1100000
+2 0 *

+1 0 