DBRep_DrawableShape

CASCADE Topology V1, (c) Matra-Datavision
Locations 2
1
              1               0               0               0 
              0               1               0              40 
              0               0               1               0 
2  1 -1 0
Curve2ds 101
1 4 0 0 1 
1 0 0 1 0 
1 4 0 0 1 
1 -3.1415926535897931 0 1 0 
2 4.9999999999999964 37.585786437626915 1 0 0 -1 1
1 0 0 1 0 
1 0 0 1 0 
1 0 0 1 0 
1 0 0 1 0 
1 0 -40 1 0 
1 -12.714126367658082 7.2858736323419322 0.70710678118654757 -0.70710678118654757 
1 24 58 -0.70710678118654757 -0.70710678118654757 
1 24 58 -0.70710678118654757 -0.70710678118654757 
1 0 0 0 1 
1 0 0 1 0 
1 0 0 0 1 
1 0 0 1 0 
1 0 0 1 0 
1 2 58 1 0 
1 2 58 1 0 
1 0 0 1 0 
1 0 60 1 0 
1 0 60 1 0 
1 60 0 0 1 
1 0 0 1 0 
1 62 58 0 1 
1 62 58 0 1 
1 0 0 0 1 
1 0 0 1 0 
1 2 58 0 1 
1 2 58 0 1 
1 0 0 1 0 
1 0 4 1 0 
1 2 62 1 0 
1 2 62 1 0 
1 -3.1415926535897931 0 1 0 
2 7 55 1 0 0 -1 3
1 0 0 1 0 
1 0 -40 1 0 
1 7.285873632341918 4.2858736323419322 -0.70710678118654757 0.70710678118654757 
1 4 55 0.70710678118654757 0.70710678118654757 
1 4 0 0 1 
1 0 40 1 0 
1 4 0 0 1 
1 0 0 0 1 
1 37.585786437626915 0 0 1 
1 4 0 0 -1 
1 0 0 0 1 
1 0.78539816339744828 0 0 1 
1 27.870057685088803 0 0 -1 
1 -3.1415926535897931 40 1 0 
2 4.9999999999999964 37.585786437626915 1 0 0 -1 1
1 0 -40 1 0 
1 0 0 1 0 
1 0 0 1 0 
1 0 0 0 -1 
1 0 0 0 1 
1 0 0 0 -1 
1 17 0 0 -1 
1 22 0 0 -1 
1 0 0 0 1 
1 0 40 1 0 
1 0 0 0 1 
1 0 0 0 -1 
1 60 0 0 1 
1 60 0 0 -1 
1 0 0 0 1 
1 0 -40 1 0 
1 0 0 1 0 
1 2 58 1 0 
1 2 58 1 0 
8 -40 0
1 2 0 0 1 
8 -40 0
1 2 0 0 -1 
1 0 -40 1 0 
1 0 60 1 0 
1 0 60 1 0 
1 60 0 0 1 
1 0 40 1 0 
1 62 58 0 1 
1 62 58 0 1 
1 60 0 0 -1 
1 4 0 0 1 
1 0 0 0 1 
1 0 40 1 0 
1 2 58 0 1 
1 2 58 0 1 
1 0 0 0 -1 
1 4 0 0 1 
1 0 -40 1 0 
1 0 4 1 0 
1 2 62 1 0 
1 2 62 1 0 
1 1.5707963267948966 0 0 1 
1 5 0 0 -1 
1 4.2426406871192857 0 0 -1 
1 -3.1415926535897931 40 1 0 
2 7 55 1 0 0 -1 3
1 0 0 0 1 
1 55 0 0 1 
1 0 0 0 -1 
1 4 55 0.70710678118654757 0.70710678118654757 
Curves 34
1 0 0 2 1 0 -0 
8 3.1415926535897931 3.9269908169872418
2 37.585786437626915 0 2.9999999999999964 -0 -1 -0 0 -0 1 -1 0 0 1
1 0 0 -2 0 0 1 
1 58 0 22 -0.70710678118654757 0 -0.70710678118654757 
1 0 0 -2 1 0 -0 
1 58 0 0 0 0 1 
1 60 0 -2 0 0 1 
1 58 0 60 1 0 -0 
1 58 0 0 1 0 -0 
1 62 0 0 0 0 1 
8 3.1415926535897931 4.7123889803846897
2 55 0 5 0 -1 -0 0 0 1 -1 -0 0 3
1 55 0 2 0.70710678118654757 0 0.70710678118654757 
1 0 40 2 1 0 -0 
1 37.585786437626915 0 1.9999999999999964 0 1 0 
1 0 0 2 -0 1 0 
1 38.292893218813461 0 2.292893218813449 0 1 0 
8 3.1415926535897931 3.9269908169872418
2 37.585786437626915 40 2.9999999999999964 -0 -1 -0 0 -0 1 -1 0 0 1
1 0 40 -2 0 0 1 
1 0 0 -2 -0 1 0 
1 58 0 22 0 1 0 
1 0 40 -2 1 0 -0 
1 60 0 -2 -0 1 0 
1 58 0 60 -0 1 0 
1 58 40 0 0 0 1 
1 60 0 0 0 -1 0 
1 60 40 -2 0 0 1 
1 58 40 60 1 0 -0 
1 62 0 60 -0 1 0 
1 58 40 0 1 0 -0 
1 62 0 0 -0 1 0 
1 62 40 0 0 0 1 
1 58 0 5 -0 1 0 
8 3.1415926535897931 4.7123889803846897
2 55 40 5 0 -1 -0 0 0 1 -1 -0 0 3
1 55 0 2 -0 1 0 
Polygon3D 0
PolygonOnTriangulations 0
Surfaces 22
1 0 0 -2 -0 1 0 0 0 1 1 0 -0 
1 0 0 -2 -0 1 0 0 0 1 1 0 -0 
1 0 0 2 0 0 1 1 0 -0 -0 1 0 
1 0 0 -2 -0 1 0 0 0 1 1 0 -0 
2 37.585786437626915 0 2.9999999999999964 0 1 0 0 0 -1 1 -0 -0 1
1 0 0 -2 1 0 -0 0 0 1 0 -1 0 
1 58 0 22 -0.70710678118654757 0 0.70710678118654757 -0.70710678118654757 0 -0.70710678118654757 -0 -1 0 
1 50.714126367658068 0 9.285873632341918 -0 -1 -0 0 0 -1 1 -0 0 
1 0 40 -2 -0 1 0 0 0 1 1 0 -0 
1 0 0 -2 0 0 1 1 0 -0 -0 1 0 
1 58 0 0 1 0 -0 0 0 1 0 -1 0 
1 58 0 0 -0 1 0 0 0 1 1 0 -0 
1 60 0 -2 1 0 -0 0 0 1 0 -1 0 
1 58 0 60 0 0 1 1 0 -0 -0 1 0 
1 58 0 0 0 0 1 1 0 -0 -0 1 0 
1 62 0 0 1 0 -0 0 0 1 0 -1 0 
2 55 0 5 -0 1 0 0 0 -1 1 -0 0 3
1 55 0 2 0.70710678118654757 0 -0.70710678118654757 0.70710678118654757 0 0.70710678118654757 0 -1 0 
1 0 40 -2 -0 1 0 0 0 1 1 0 -0 
1 0 40 -2 -0 1 0 0 0 1 1 0 -0 
1 58 0 5 1 0 0 0 0 1 0 -1 0 
1 58 40 0 -0 1 0 0 0 1 1 0 -0 
Triangulations 0

TShapes 92
Ve
1e-07
37.5857864376269 0 2
0 0

0101101
*
Ve
1e-07
0 0 2
0 0

0101101
*
Ed
 1e-07 1 1 0
1  1 0 0 37.5857864376269
2  1 2 0 0 37.5857864376269
2  2 3 0 0 37.5857864376269
2  3 4 0 0 37.5857864376269
0

0101000
-92 0 +91 0 *
Ve
1e-07
38.2928932188135 0 2.29289321881345
0 0

0101101
*
Ed
 1e-07 1 1 0
1  2 0 3.14159265358979 3.92699081698724
2  4 5 0 3.14159265358979 3.92699081698724
2  5 1 0 3.14159265358979 3.92699081698724
0

0101000
+92 0 -89 0 *
Ve
1e-07
0 0 -2
0 0

0101101
*
Ed
 1e-07 1 1 0
1  3 0 0 4
2  6 6 0 0 4
2  7 2 0 0 4
2  8 4 0 0 4
0

0101000
-91 0 +87 0 *
Ve
1e-07
58 0 22
0 0

0101101
*
Ed
 1e-07 1 1 0
1  4 0 0 27.8700576850888
2  9 7 0 0 27.8700576850888
2  10 7 2 0 27.8700576850888
2  11 8 0 0 27.8700576850888
2  12 4 0 0 27.8700576850888
2  13 9 2 0 27.8700576850888
0

0101000
-89 0 +85 0 *
Ve
1e-07
60 0 -2
0 0

0101101
*
Ed
 1e-07 1 1 0
1  5 0 0 60
2  14 2 0 0 60
2  15 10 0 0 60
2  16 4 0 0 60
0

0101000
-83 0 +87 0 *
Ve
1e-07
58 0 60
0 0

0101101
*
Ed
 1e-07 1 1 0
1  6 0 22 60
2  17 11 0 22 60
2  18 12 0 22 60
2  19 2 0 22 60
2  20 4 0 22 60
0

0101000
+85 0 -81 0 *
Ve
1.5e-07
60 0 0
0 0

0101101
*
Ed
 1e-07 1 1 0
1  7 0 0 2
2  21 13 0 0 2
2  22 2 0 0 2
2  23 4 0 0 2
0

0101000
+83 0 -79 0 *
Ve
1e-07
62 0 60
0 0

0101101
*
Ed
 1e-07 1 1 0
1  8 0 0 4
2  24 12 0 0 4
2  25 14 0 0 4
2  26 2 0 0 4
2  27 4 0 0 4
0

0101000
-77 0 +81 0 *
Ve
1e-07
62 0 0
0 0

0101101
*
Ed
 1e-07 1 1 0
1  9 0 2 4
2  28 12 0 2 4
2  29 15 0 2 4
2  30 2 0 2 4
2  31 4 0 2 4
0

0101000
+79 0 -75 0 *
Ed
 1e-07 1 1 0
1  10 0 0 60
2  32 16 0 0 60
2  33 12 0 0 60
2  34 2 0 0 60
2  35 4 0 0 60
0

0101000
-77 0 +75 0 *
Wi

0101100
+90 0 +88 0 +86 0 -84 0 -82 0 +80 0 -78 0 +76 0 -74 0 -73 0 
*
Ve
1e-07
55 0 2
0 0

0101101
*
Ve
1e-07
58 0 5
0 0

0101101
*
Ed
 1e-07 1 1 0
1  11 0 3.14159265358979 4.71238898038469
2  36 17 0 3.14159265358979 4.71238898038469
2  37 4 0 3.14159265358979 4.71238898038469
0

0101000
+71 0 -70 0 *
Ed
 1e-07 1 1 0
1  12 0 0 4.24264068711928
2  38 18 0 0 4.24264068711928
2  39 18 2 0 4.24264068711928
2  40 8 0 0 4.24264068711928
2  41 4 0 0 4.24264068711928
0

0101000
+71 0 -70 0 *
Wi

0101100
+69 0 -68 0 *
Fa
0  0 1 0

0101000
+72 0 +67 0 *
Ve
1e-07
37.5857864376269 40 2
0 0

0101101
*
Ve
1e-07
0 40 2
0 0

0101101
*
Ed
 1e-07 1 1 0
1  13 0 0 37.5857864376269
2  42 19 0 0 37.5857864376269
2  43 3 0 0 37.5857864376269
2  44 9 0 0 37.5857864376269
0

0101000
-65 0 +64 0 *
Ed
 1e-07 1 1 0
1  14 0 0 40
2  45 5 0 0 40
2  46 3 0 0 40
4 G1 5 0 3 0
0

0101000
+92 0 -65 0 *
Ed
 1e-07 1 1 0
1  15 0 0 40
2  47 6 0 0 40
2  48 3 0 0 40
0

0101000
-64 0 +91 0 *
Wi

0101100
-63 0 +62 0 -61 0 +90 0 *
Fa
0  1e-07 3 0

0101000
+60 0 *
Ve
1e-07
38.2928932188135 40 2.29289321881345
0 0

0101101
*
Ed
 1e-07 1 1 0
1  16 0 -0 40
2  49 5 0 -0 40
2  50 7 0 -0 40
4 G1 5 0 7 0
0

0101000
+89 0 -58 0 *
Ed
 1e-07 1 1 0
1  17 0 3.14159265358979 3.92699081698724
2  51 5 0 3.14159265358979 3.92699081698724
2  52 20 0 3.14159265358979 3.92699081698724
0

0101000
+65 0 -58 0 *
Wi

0101100
+88 0 -62 0 +57 0 -56 0 *
Fa
0  0 5 0

0101000
+55 0 *
Ve
1e-07
0 40 -2
0 0

0101101
*
Ed
 1e-07 1 1 0
1  18 0 0 4
2  53 6 0 0 4
2  54 19 0 0 4
2  55 9 0 0 4
0

0101000
-64 0 +53 0 *
Ed
 1e-07 1 1 0
1  19 0 0 40
2  56 6 0 0 40
2  57 10 0 0 40
0

0101000
-53 0 +87 0 *
Wi

0101100
-86 0 -61 0 +52 0 +51 0 *
Fa
0  1e-07 6 0

0111000
+50 0 *
Ed
 1e-07 1 1 0
1  4 0 0 27.8700576850888
2  9 7 0 0 27.8700576850888
2  10 7 2 0 27.8700576850888
2  11 8 0 0 27.8700576850888
2  12 4 0 0 27.8700576850888
2  13 9 2 0 27.8700576850888
0

0101000
-58 2 +85 0 *
Ed
 1e-07 1 1 0
1  20 0 0 40
2  58 7 0 0 40
2  59 21 0 0 40
2  60 11 0 0 40
0

0101000
+85 0 -85 1 *
Wi

0101100
+48 1 -57 0 +47 0 -84 0 *
Fa
0  1e-07 7 0

0101000
+46 0 *
Ve
1e-07
60 40 -2
0 0

0101101
*
Ed
 1e-07 1 1 0
1  21 0 0 60
2  61 19 0 0 60
2  62 10 0 0 60
2  63 9 0 0 60
0

0101000
-44 0 +53 0 *
Ed
 1e-07 1 1 0
1  22 0 0 40
2  64 13 0 0 40
2  65 10 0 0 40
0

0101000
-44 0 +83 0 *
Wi

0101100
-51 0 -43 0 +42 0 +82 0 *
Fa
0  1e-07 10 0

0111000
+41 0 *
Ve
1e-07
58 40 60
0 0

0101101
*
Ed
 1e-07 1 1 0
1  23 0 0 40
2  66 11 0 0 40
2  67 14 0 0 40
0

0101000
-39 0 +81 0 *
Ed
 1e-07 1 1 0
1  24 0 22 60
2  68 11 0 22 60
2  69 22 0 22 60
2  70 19 0 22 60
2  71 9 0 22 60
0

0101000
+85 1 -39 0 *
Wi

0101100
-80 0 -38 0 +37 0 +47 0 *
Fa
0  1e-07 11 0

0111000
+36 0 *
Ve
1.5e-07
60 40 0
0 0

0101101
*
Ed
 1.5e-07 1 1 0
1  25 0 -40 0
2  72 13 0 -40 0
2  73 15 0 -40 0
0

0101000
+34 0 -79 0 *
Ed
 1e-07 1 1 0
1  26 0 0 2
2  74 13 0 0 2
2  75 19 0 0 2
2  76 9 0 0 2
0

0101000
+44 0 -34 0 *
Wi

0101100
-78 0 +33 0 +32 0 +42 0 *
Fa
0  1e-07 13 0

0111000
+31 0 *
Ve
1e-07
62 40 60
0 0

0101101
*
Ed
 1e-07 1 1 0
1  27 0 0 4
2  77 22 0 0 4
2  78 14 0 0 4
2  79 19 0 0 4
2  80 9 0 0 4
0

0101000
-29 0 +39 0 *
Ed
 1e-07 1 1 0
1  28 0 0 40
2  81 16 0 0 40
2  82 14 0 0 40
0

0101000
-29 0 +77 0 *
Wi

0101100
-38 0 -28 0 +27 0 +76 0 *
Fa
0  1e-07 14 0

0111000
+26 0 *
Ve
1e-07
62 40 0
0 0

0101101
*
Ed
 1e-07 1 1 0
1  29 0 2 4
2  83 22 0 2 4
2  84 15 0 2 4
2  85 19 0 2 4
2  86 9 0 2 4
0

0101000
+34 0 -24 0 *
Ed
 1e-07 1 1 0
1  30 0 0 40
2  87 16 0 0 40
2  88 15 0 0 40
0

0101000
-24 0 +75 0 *
Wi

0101100
-23 0 +22 0 +74 0 +33 0 *
Fa
0  1e-07 15 0

0111000
+21 0 *
Ed
 1e-07 1 1 0
1  31 0 0 60
2  89 16 0 0 60
2  90 22 0 0 60
2  91 19 0 0 60
2  92 9 0 0 60
0

0101000
-29 0 +24 0 *
Wi

0101100
-73 0 -27 0 +19 0 +22 0 *
Fa
0  1e-07 16 0

0111000
+18 0 *
Ve
1e-07
58 40 5
0 0

0101101
*
Ed
 1e-07 1 1 0
1  32 0 -0 40
2  93 17 0 -0 40
2  94 11 0 -0 40
4 G1 17 0 11 0
2  95 18 0 -0 40
0

0101000
+70 0 -16 0 *
Ve
1e-07
55 40 2
0 0

0101101
*
Ed
 1e-07 1 1 0
1  33 0 3.14159265358979 4.71238898038469
2  96 17 0 3.14159265358979 4.71238898038469
2  97 9 0 3.14159265358979 4.71238898038469
0

0101000
+14 0 -16 0 *
Ed
 1e-07 1 1 0
1  34 0 0 40
2  98 17 0 0 40
2  99 3 0 0 40
4 G1 17 0 3 0
2  100 18 0 0 40
0

0101000
+71 0 -14 0 *
Wi

0101100
+69 0 +15 0 -13 0 -12 0 *
Fa
0  1e-07 17 0

0111000
+11 0 *
Ed
 1e-07 1 1 0
1  12 0 0 4.24264068711928
2  38 18 0 0 4.24264068711928
2  39 18 2 0 4.24264068711928
2  40 8 0 0 4.24264068711928
2  101 9 2 0 4.24264068711928
0

0101000
+14 2 -16 2 *
Wi

0101100
+12 0 +9 1 -15 0 -68 0 *
Fa
0  1e-07 18 0

0111000
+8 0 *
Wi

0101100
+63 0 +56 0 +52 0 -48 1 -43 0 +37 0 -32 0 +28 0 -23 0 -19 0 
*
Wi

0101100
+13 0 -9 1 *
Fa
0  0 20 0

0101000
+6 0 +5 0 *
Sh

0101100
-66 0 +59 0 +54 0 -49 0 +45 0 -40 0 -35 0 +30 0 +25 0 -20 0 
+17 0 +10 0 +7 0 +4 0 *
So

0100000
+3 0 *
Co

1100000
+2 0 *

+1 0 