DBRep_DrawableShape

CASCADE Topology V1, (c) Matra-Datavision
Locations 2
1
              1               0               0               0 
              0               1               0              40 
              0               0               1               0 
2  1 -1 0
Curve2ds 107
1 4 0 0 1 
1 0 0 1 0 
1 4 0 0 1 
1 -3.1415926535897931 0 1 0 
2 4.9999999999999964 37.585786437626915 1 0 0 -1 1
1 0 0 1 0 
1 0 0 1 0 
1 0 0 1 0 
1 0 0 1 0 
1 0 -40 1 0 
1 -12.714126367658082 7.2858736323419322 0.70710678118654757 -0.70710678118654757 
1 24 58 -0.70710678118654757 -0.70710678118654757 
1 24 58 -0.70710678118654757 -0.70710678118654757 
1 0 0 0 1 
1 0 0 1 0 
1 0 0 0 1 
1 0 0 1 0 
1 0 0 1 0 
1 2 58 1 0 
1 2 58 1 0 
1 0 0 1 0 
1 0 60 1 0 
1 0 60 1 0 
1 60 0 0 1 
1 0 0 1 0 
1 62 58 0 1 
1 62 58 0 1 
1 0 0 0 1 
1 0 0 1 0 
1 2 58 0 1 
1 2 58 0 1 
1 0 0 1 0 
1 0 4 1 0 
1 2 62 1 0 
1 2 62 1 0 
1 -3.1415926535897931 0 1 0 
2 7 55 1 0 0 -1 3
1 0 0 1 0 
1 0 -40 1 0 
1 7.285873632341918 4.2858736323419322 -0.70710678118654757 0.70710678118654757 
1 4 55 0.70710678118654757 0.70710678118654757 
1 4 0 0 1 
1 0 40 1 0 
1 4 0 0 1 
1 0 0 0 1 
1 37.585786437626915 0 0 1 
1 4 0 0 -1 
1 0 0 0 1 
2 20 20 1 0 -0 1 2.5
1 0 7 1 0 
1 0.78539816339744828 0 0 1 
1 27.870057685088803 0 0 -1 
1 -3.1415926535897931 40 1 0 
2 4.9999999999999964 37.585786437626915 1 0 0 -1 1
1 0 -40 1 0 
1 0 0 1 0 
1 0 0 1 0 
1 0 0 0 -1 
1 0 0 0 1 
1 0 0 0 -1 
1 17 0 0 -1 
1 22 0 0 -1 
1 0 0 0 1 
1 0 40 1 0 
1 0 0 0 1 
1 0 0 0 -1 
1 60 0 0 1 
2 20 20 1 0 -0 1 2.5
1 0 3 1 0 
1 60 0 0 -1 
1 0 0 0 1 
1 0 -40 1 0 
1 0 0 1 0 
1 2 58 1 0 
1 2 58 1 0 
8 -40 0
1 2 0 0 1 
8 -40 0
1 2 0 0 -1 
1 0 -40 1 0 
1 0 60 1 0 
1 0 60 1 0 
1 60 0 0 1 
1 0 40 1 0 
1 62 58 0 1 
1 62 58 0 1 
1 60 0 0 -1 
1 4 0 0 1 
1 0 0 0 1 
1 0 40 1 0 
1 2 58 0 1 
1 2 58 0 1 
1 0 0 0 -1 
1 4 0 0 1 
1 0 -40 1 0 
1 0 4 1 0 
1 2 62 1 0 
1 2 62 1 0 
1 1.5707963267948966 0 0 1 
1 5 0 0 -1 
1 4.2426406871192857 0 0 -1 
1 -3.1415926535897931 40 1 0 
2 7 55 1 0 0 -1 3
1 0 0 0 1 
1 55 0 0 1 
1 0 0 0 -1 
1 4 55 0.70710678118654757 0.70710678118654757 
1 6.2831853071795862 -0 0 1 
1 0 -0 0 1 
Curves 37
1 0 0 2 1 0 -0 
8 3.1415926535897931 3.9269908169872418
2 37.585786437626915 0 2.9999999999999964 -0 -1 -0 0 -0 1 -1 0 0 1
1 0 0 -2 0 0 1 
1 58 0 22 -0.70710678118654757 0 -0.70710678118654757 
1 0 0 -2 1 0 -0 
1 58 0 0 0 0 1 
1 60 0 -2 0 0 1 
1 58 0 60 1 0 -0 
1 58 0 0 1 0 -0 
1 62 0 0 0 0 1 
8 3.1415926535897931 4.7123889803846897
2 55 0 5 0 -1 -0 0 0 1 -1 -0 0 3
1 55 0 2 0.70710678118654757 0 0.70710678118654757 
1 0 40 2 1 0 -0 
1 37.585786437626915 0 1.9999999999999964 0 1 0 
1 0 0 2 -0 1 0 
2 20 20 2 0 0 1 1 0 -0 -0 1 0 2.5
1 38.292893218813461 0 2.292893218813449 0 1 0 
8 3.1415926535897931 3.9269908169872418
2 37.585786437626915 40 2.9999999999999964 -0 -1 -0 0 -0 1 -1 0 0 1
1 0 40 -2 0 0 1 
1 0 0 -2 -0 1 0 
1 58 0 22 0 1 0 
1 0 40 -2 1 0 -0 
1 60 0 -2 -0 1 0 
2 20 20 -2 0 0 1 1 0 -0 -0 1 0 2.5
1 58 0 60 -0 1 0 
1 58 40 0 0 0 1 
1 60 0 0 0 -1 0 
1 60 40 -2 0 0 1 
1 58 40 60 1 0 -0 
1 62 0 60 -0 1 0 
1 58 40 0 1 0 -0 
1 62 0 0 -0 1 0 
1 62 40 0 0 0 1 
1 58 0 5 -0 1 0 
8 3.1415926535897931 4.7123889803846897
2 55 40 5 0 -1 -0 0 0 1 -1 -0 0 3
1 55 0 2 -0 1 0 
1 22.5 19.999999999999996 -5 0 0 1 
Polygon3D 0
PolygonOnTriangulations 0
Surfaces 23
1 0 0 -2 -0 1 0 0 0 1 1 0 -0 
1 0 0 -2 -0 1 0 0 0 1 1 0 -0 
1 0 0 2 0 0 1 1 0 -0 -0 1 0 
1 0 0 -2 -0 1 0 0 0 1 1 0 -0 
2 37.585786437626915 0 2.9999999999999964 0 1 0 0 0 -1 1 -0 -0 1
1 0 0 -2 1 0 -0 0 0 1 0 -1 0 
1 58 0 22 -0.70710678118654757 0 0.70710678118654757 -0.70710678118654757 0 -0.70710678118654757 -0 -1 0 
1 50.714126367658068 0 9.285873632341918 -0 -1 -0 0 0 -1 1 -0 0 
1 0 40 -2 -0 1 0 0 0 1 1 0 -0 
1 0 0 -2 0 0 1 1 0 -0 -0 1 0 
1 58 0 0 1 0 -0 0 0 1 0 -1 0 
1 58 0 0 -0 1 0 0 0 1 1 0 -0 
1 60 0 -2 1 0 -0 0 0 1 0 -1 0 
1 58 0 60 0 0 1 1 0 -0 -0 1 0 
1 58 0 0 0 0 1 1 0 -0 -0 1 0 
1 62 0 0 1 0 -0 0 0 1 0 -1 0 
2 55 0 5 -0 1 0 0 0 -1 1 -0 0 3
1 55 0 2 0.70710678118654757 0 -0.70710678118654757 0.70710678118654757 0 0.70710678118654757 0 -1 0 
1 0 40 -2 -0 1 0 0 0 1 1 0 -0 
2 20 20 -5 0 0 1 1 0 -0 -0 1 0 2.5
1 0 40 -2 -0 1 0 0 0 1 1 0 -0 
1 58 0 5 1 0 0 0 0 1 0 -1 0 
1 58 40 0 -0 1 0 0 0 1 1 0 -0 
Triangulations 0

TShapes 101
Ve
1e-07
37.5857864376269 0 2
0 0

0101101
*
Ve
1e-07
0 0 2
0 0

0101101
*
Ed
 1e-07 1 1 0
1  1 0 0 37.5857864376269
2  1 2 0 0 37.5857864376269
2  2 3 0 0 37.5857864376269
2  3 4 0 0 37.5857864376269
0

0101000
-101 0 +100 0 *
Ve
1e-07
38.2928932188135 0 2.29289321881345
0 0

0101101
*
Ed
 1e-07 1 1 0
1  2 0 3.14159265358979 3.92699081698724
2  4 5 0 3.14159265358979 3.92699081698724
2  5 1 0 3.14159265358979 3.92699081698724
0

0101000
+101 0 -98 0 *
Ve
1e-07
0 0 -2
0 0

0101101
*
Ed
 1e-07 1 1 0
1  3 0 0 4
2  6 6 0 0 4
2  7 2 0 0 4
2  8 4 0 0 4
0

0101000
-100 0 +96 0 *
Ve
1e-07
58 0 22
0 0

0101101
*
Ed
 1e-07 1 1 0
1  4 0 0 27.8700576850888
2  9 7 0 0 27.8700576850888
2  10 7 2 0 27.8700576850888
2  11 8 0 0 27.8700576850888
2  12 4 0 0 27.8700576850888
2  13 9 2 0 27.8700576850888
0

0101000
-98 0 +94 0 *
Ve
1e-07
60 0 -2
0 0

0101101
*
Ed
 1e-07 1 1 0
1  5 0 0 60
2  14 2 0 0 60
2  15 10 0 0 60
2  16 4 0 0 60
0

0101000
-92 0 +96 0 *
Ve
1e-07
58 0 60
0 0

0101101
*
Ed
 1e-07 1 1 0
1  6 0 22 60
2  17 11 0 22 60
2  18 12 0 22 60
2  19 2 0 22 60
2  20 4 0 22 60
0

0101000
+94 0 -90 0 *
Ve
1.5e-07
60 0 0
0 0

0101101
*
Ed
 1e-07 1 1 0
1  7 0 0 2
2  21 13 0 0 2
2  22 2 0 0 2
2  23 4 0 0 2
0

0101000
+92 0 -88 0 *
Ve
1e-07
62 0 60
0 0

0101101
*
Ed
 1e-07 1 1 0
1  8 0 0 4
2  24 12 0 0 4
2  25 14 0 0 4
2  26 2 0 0 4
2  27 4 0 0 4
0

0101000
-86 0 +90 0 *
Ve
1e-07
62 0 0
0 0

0101101
*
Ed
 1e-07 1 1 0
1  9 0 2 4
2  28 12 0 2 4
2  29 15 0 2 4
2  30 2 0 2 4
2  31 4 0 2 4
0

0101000
+88 0 -84 0 *
Ed
 1e-07 1 1 0
1  10 0 0 60
2  32 16 0 0 60
2  33 12 0 0 60
2  34 2 0 0 60
2  35 4 0 0 60
0

0101000
-86 0 +84 0 *
Wi

0101100
+99 0 +97 0 +95 0 -93 0 -91 0 +89 0 -87 0 +85 0 -83 0 -82 0 
*
Ve
1e-07
55 0 2
0 0

0101101
*
Ve
1e-07
58 0 5
0 0

0101101
*
Ed
 1e-07 1 1 0
1  11 0 3.14159265358979 4.71238898038469
2  36 17 0 3.14159265358979 4.71238898038469
2  37 4 0 3.14159265358979 4.71238898038469
0

0101000
+80 0 -79 0 *
Ed
 1e-07 1 1 0
1  12 0 0 4.24264068711928
2  38 18 0 0 4.24264068711928
2  39 18 2 0 4.24264068711928
2  40 8 0 0 4.24264068711928
2  41 4 0 0 4.24264068711928
0

0101000
+80 0 -79 0 *
Wi

0101100
+78 0 -77 0 *
Fa
0  0 1 0

0111000
+81 0 +76 0 *
Ve
1e-07
37.5857864376269 40 2
0 0

0101101
*
Ve
1e-07
0 40 2
0 0

0101101
*
Ed
 1e-07 1 1 0
1  13 0 0 37.5857864376269
2  42 19 0 0 37.5857864376269
2  43 3 0 0 37.5857864376269
2  44 9 0 0 37.5857864376269
0

0101000
-74 0 +73 0 *
Ed
 1e-07 1 1 0
1  14 0 0 40
2  45 5 0 0 40
2  46 3 0 0 40
4 G1 5 0 3 0
0

0101000
+101 0 -74 0 *
Ed
 1e-07 1 1 0
1  15 0 0 40
2  47 6 0 0 40
2  48 3 0 0 40
0

0101000
-73 0 +100 0 *
Wi

0101100
-72 0 +71 0 -70 0 +99 0 *
Ve
1.00000003552714e-07
22.5 20 2
0 0

0101101
*
Ed
 1e-07 1 1 0
1  16 0 0 6.28318530717959
2  49 3 0 0 6.28318530717959
2  50 20 0 0 6.28318530717959
0

0101000
+68 0 -68 0 *
Wi

0101100
-67 0 *
Fa
0  1e-07 3 0

0101000
+69 0 +66 0 *
Ve
1e-07
38.2928932188135 40 2.29289321881345
0 0

0101101
*
Ed
 1e-07 1 1 0
1  17 0 -0 40
2  51 5 0 -0 40
2  52 7 0 -0 40
4 G1 5 0 7 0
0

0101000
+98 0 -64 0 *
Ed
 1e-07 1 1 0
1  18 0 3.14159265358979 3.92699081698724
2  53 5 0 3.14159265358979 3.92699081698724
2  54 21 0 3.14159265358979 3.92699081698724
0

0101000
+74 0 -64 0 *
Wi

0101100
+97 0 -71 0 +63 0 -62 0 *
Fa
0  0 5 0

0111000
+61 0 *
Ve
1e-07
0 40 -2
0 0

0101101
*
Ed
 1e-07 1 1 0
1  19 0 0 4
2  55 6 0 0 4
2  56 19 0 0 4
2  57 9 0 0 4
0

0101000
-73 0 +59 0 *
Ed
 1e-07 1 1 0
1  20 0 0 40
2  58 6 0 0 40
2  59 10 0 0 40
0

0101000
-59 0 +96 0 *
Wi

0101100
-95 0 -70 0 +58 0 +57 0 *
Fa
0  1e-07 6 0

0111000
+56 0 *
Ed
 1e-07 1 1 0
1  4 0 0 27.8700576850888
2  9 7 0 0 27.8700576850888
2  10 7 2 0 27.8700576850888
2  11 8 0 0 27.8700576850888
2  12 4 0 0 27.8700576850888
2  13 9 2 0 27.8700576850888
0

0101000
-64 2 +94 0 *
Ed
 1e-07 1 1 0
1  21 0 0 40
2  60 7 0 0 40
2  61 22 0 0 40
2  62 11 0 0 40
0

0101000
+94 0 -94 1 *
Wi

0101100
+54 1 -63 0 +53 0 -93 0 *
Fa
0  1e-07 7 0

0111000
+52 0 *
Ve
1e-07
60 40 -2
0 0

0101101
*
Ed
 1e-07 1 1 0
1  22 0 0 60
2  63 19 0 0 60
2  64 10 0 0 60
2  65 9 0 0 60
0

0101000
-50 0 +59 0 *
Ed
 1e-07 1 1 0
1  23 0 0 40
2  66 13 0 0 40
2  67 10 0 0 40
0

0101000
-50 0 +92 0 *
Wi

0101100
-57 0 -49 0 +91 0 +48 0 *
Ve
1.00000003552714e-07
22.5 20 -2
0 0

0101101
*
Ed
 1e-07 1 1 0
1  24 0 0 6.28318530717959
2  68 10 0 0 6.28318530717959
2  69 20 0 0 6.28318530717959
0

0101000
+46 0 -46 0 *
Wi

0101100
-45 0 *
Fa
0  1e-07 10 0

0101000
+47 0 +44 0 *
Ve
1e-07
58 40 60
0 0

0101101
*
Ed
 1e-07 1 1 0
1  25 0 0 40
2  70 11 0 0 40
2  71 14 0 0 40
0

0101000
-42 0 +90 0 *
Ed
 1e-07 1 1 0
1  26 0 22 60
2  72 11 0 22 60
2  73 23 0 22 60
2  74 19 0 22 60
2  75 9 0 22 60
0

0101000
+94 1 -42 0 *
Wi

0101100
-89 0 -41 0 +40 0 +53 0 *
Fa
0  1e-07 11 0

0111000
+39 0 *
Ve
1.5e-07
60 40 0
0 0

0101101
*
Ed
 1.5e-07 1 1 0
1  27 0 -40 0
2  76 13 0 -40 0
2  77 15 0 -40 0
0

0101000
+37 0 -88 0 *
Ed
 1e-07 1 1 0
1  28 0 0 2
2  78 13 0 0 2
2  79 19 0 0 2
2  80 9 0 0 2
0

0101000
+50 0 -37 0 *
Wi

0101100
-87 0 +36 0 +35 0 +48 0 *
Fa
0  1e-07 13 0

0111000
+34 0 *
Ve
1e-07
62 40 60
0 0

0101101
*
Ed
 1e-07 1 1 0
1  29 0 0 4
2  81 23 0 0 4
2  82 14 0 0 4
2  83 19 0 0 4
2  84 9 0 0 4
0

0101000
-32 0 +42 0 *
Ed
 1e-07 1 1 0
1  30 0 0 40
2  85 16 0 0 40
2  86 14 0 0 40
0

0101000
-32 0 +86 0 *
Wi

0101100
-41 0 -31 0 +30 0 +85 0 *
Fa
0  1e-07 14 0

0111000
+29 0 *
Ve
1e-07
62 40 0
0 0

0101101
*
Ed
 1e-07 1 1 0
1  31 0 2 4
2  87 23 0 2 4
2  88 15 0 2 4
2  89 19 0 2 4
2  90 9 0 2 4
0

0101000
+37 0 -27 0 *
Ed
 1e-07 1 1 0
1  32 0 0 40
2  91 16 0 0 40
2  92 15 0 0 40
0

0101000
-27 0 +84 0 *
Wi

0101100
-26 0 +25 0 +83 0 +36 0 *
Fa
0  1e-07 15 0

0111000
+24 0 *
Ed
 1e-07 1 1 0
1  33 0 0 60
2  93 16 0 0 60
2  94 23 0 0 60
2  95 19 0 0 60
2  96 9 0 0 60
0

0101000
-32 0 +27 0 *
Wi

0101100
-82 0 -30 0 +22 0 +25 0 *
Fa
0  1e-07 16 0

0111000
+21 0 *
Ve
1e-07
58 40 5
0 0

0101101
*
Ed
 1e-07 1 1 0
1  34 0 -0 40
2  97 17 0 -0 40
2  98 11 0 -0 40
4 G1 17 0 11 0
2  99 18 0 -0 40
0

0101000
+79 0 -19 0 *
Ve
1e-07
55 40 2
0 0

0101101
*
Ed
 1e-07 1 1 0
1  35 0 3.14159265358979 4.71238898038469
2  100 17 0 3.14159265358979 4.71238898038469
2  101 9 0 3.14159265358979 4.71238898038469
0

0101000
+17 0 -19 0 *
Ed
 1e-07 1 1 0
1  36 0 0 40
2  102 17 0 0 40
2  103 3 0 0 40
4 G1 17 0 3 0
2  104 18 0 0 40
0

0101000
+80 0 -17 0 *
Wi

0101100
+78 0 +18 0 -16 0 -15 0 *
Fa
0  1e-07 17 0

0111000
+14 0 *
Ed
 1e-07 1 1 0
1  12 0 0 4.24264068711928
2  38 18 0 0 4.24264068711928
2  39 18 2 0 4.24264068711928
2  40 8 0 0 4.24264068711928
2  105 9 2 0 4.24264068711928
0

0101000
+17 2 -19 2 *
Wi

0101100
+15 0 +12 1 -18 0 -77 0 *
Fa
0  1e-07 18 0

0111000
+11 0 *
Wi

0101100
+72 0 +62 0 +58 0 -54 1 -49 0 +40 0 -35 0 +31 0 -26 0 -22 0 
*
Wi

0101100
+16 0 -12 1 *
Fa
0  0 21 0

0111000
+9 0 +8 0 *
Ed
 1e-07 1 1 0
1  37 0 3 7
3  106 107CN 20 0 3 7
0

0101000
+46 0 -68 0 *
Wi

0101100
-67 0 +6 0 +45 0 -6 0 *
Fa
0  1e-07 20 0

0101000
+5 0 *
Sh

0101100
-75 0 +65 0 +60 0 -55 0 +51 0 -43 0 -38 0 +33 0 +28 0 -23 0 
+20 0 +13 0 +10 0 +7 0 -4 0 *
So

0100000
+3 0 *
Co

1100000
+2 0 *

+1 0 