DBRep_DrawableShape

CASCADE Topology V1, (c) Matra-Datavision
Locations 0
Curve2ds 160
1 0 0 1 0 
1 0 0 1 0 
1 0 0 1 0 
1 0 0 1 0 
1 0 -100 0 1 
1 0 100 0 -1 
1 0 -8.5 1 0 
1 0 0 1 0 
1 0 -100 1 0 
1 0 -100 1 0 
1 0 0 1 0 
1 100 0 0 -1 
1 0 0 0 1 
1 0 0 1 0 
1 0 0 0 1 
1 100 0 -1 0 
1 100 100 0 -1 
1 0 0 1 0 
1 0 8.5 1 0 
1 0 100 1 0 
1 0 100 1 0 
1 0 0 1 0 
1 100 0 0 1 
1 100 0 0 -1 
1 100 100 -1 0 
1 100 100 0 -1 
1 100 0 0 1 
1 0 8.5 1 0 
1 0 8.5 1 0 
1 100 0 0 -1 
1 2 0 0 1 
1 2 8.5 0 1 
1 2 8.5 0 1 
1 100 0 0 1 
1 0 0 1 0 
1 0 91.5 1 0 
1 0 91.5 1 0 
1 100 0 0 -1 
1 8.5 0 0 1 
1 8.5 91.5 0 1 
1 8.5 91.5 0 1 
1 100 0 0 1 
1 0 0 1 0 
1 8.5 98 1 0 
1 8.5 98 1 0 
1 100 0 0 -1 
1 0 0 0 1 
1 91.5 91.5 0 1 
1 91.5 91.5 0 1 
1 100 0 0 1 
1 0 0 1 0 
1 91.5 91.5 1 0 
1 91.5 91.5 1 0 
1 100 0 0 -1 
1 0 0 0 1 
1 98 8.5 0 1 
1 98 8.5 0 1 
1 100 0 0 1 
1 0 8.5 1 0 
1 91.5 8.5 1 0 
1 91.5 8.5 1 0 
1 100 0 0 -1 
1 0 0 0 1 
1 91.5 0 0 1 
1 91.5 0 0 1 
1 100 0 0 1 
1 0 2 1 0 
1 8.5 2 1 0 
1 8.5 2 1 0 
1 100 0 0 -1 
1 8.5 0 0 1 
1 8.5 0 0 1 
1 100 100 0 -1 
1 0 -100 0 1 
1 0 100 1 0 
1 0 0 0 1 
1 0 0 0 1 
1 0 8.5 1 0 
1 0 8.5 1 0 
1 0 0 0 -1 
1 2 0 0 1 
1 2 8.5 0 1 
1 2 8.5 0 1 
1 0 0 0 1 
1 0 0 1 0 
1 0 91.5 1 0 
1 0 91.5 1 0 
1 0 0 0 -1 
1 8.5 0 0 1 
1 8.5 91.5 0 1 
1 8.5 91.5 0 1 
1 0 0 0 1 
1 0 0 1 0 
1 8.5 98 1 0 
1 8.5 98 1 0 
1 0 0 0 -1 
1 0 0 0 1 
1 91.5 91.5 0 1 
1 91.5 91.5 0 1 
1 0 0 0 1 
1 0 0 1 0 
1 91.5 91.5 1 0 
1 91.5 91.5 1 0 
1 0 0 0 -1 
1 0 0 0 1 
1 98 8.5 0 1 
1 98 8.5 0 1 
1 0 0 0 1 
1 0 8.5 1 0 
1 91.5 8.5 1 0 
1 91.5 8.5 1 0 
1 0 0 0 -1 
1 0 0 0 1 
1 91.5 0 0 1 
1 91.5 0 0 1 
1 0 0 0 1 
1 0 2 1 0 
1 8.5 2 1 0 
1 8.5 2 1 0 
1 0 0 0 -1 
1 8.5 0 0 1 
1 8.5 0 0 1 
1 0 -8.5 1 0 
1 0 8.5 1 0 
1 0 0 1 0 
1 0 2 1 0 
1 0 2 1 0 
1 0 -2 1 0 
1 0 0 1 0 
1 0 -2 1 0 
1 0 -83 1 0 
1 0 2 1 0 
1 0 2 1 0 
1 0 -2 1 0 
1 0 83 1 0 
1 0 -2 1 0 
1 0 -8.5 1 0 
1 0 8.5 1 0 
1 0 100 1 0 
1 0 -100 1 0 
1 0 -100 1 0 
1 0 100 1 0 
1 0 0 1 0 
1 0 0 1 0 
1 0 -6.5 1 0 
1 0 0 1 0 
1 0 8.5 1 0 
1 0 -8.5 1 0 
1 0 0 1 0 
1 0 0 1 0 
1 0 0 1 0 
1 0 6.5 1 0 
1 0 0 1 0 
1 0 83 1 0 
1 0 -6.5 1 0 
1 0 -83 1 0 
1 0 0 1 0 
1 0 6.5 1 0 
1 0 0 1 0 
1 0 0 1 0 
Curves 48
1 -50 -50 0 0 0 1 
8 0 100
1 -50 50 0 0 -1 0 
1 -50 50 0 0 0 1 
8 0 100
1 -50 -50 100 0 1 0 
8 0 100
1 -50 -50 0 1 0 0 
8 0 100
1 50 -50 100 -1 0 0 
1 50 -50 0 0 0 1 
8 0 100
1 50 -50 100 0 1 0 
8 0 100
1 50 50 100 -1 0 0 
1 -50 -41.5 100 1 0 -0 
1 -48 -41.5 100 -0 1 0 
1 -50 41.5 100 1 0 -0 
1 -41.5 41.5 100 -0 1 0 
1 -41.5 48 100 1 0 -0 
1 41.5 41.5 100 -0 1 0 
1 41.5 41.5 100 1 0 -0 
1 48 -41.5 100 -0 1 0 
1 41.5 -41.5 100 1 0 -0 
1 41.5 -50 100 -0 1 0 
1 -41.5 -48 100 1 0 -0 
1 -41.5 -50 100 -0 1 0 
8 0 100
1 50 50 0 0 -1 0 
8 0 100
1 -50 50 0 1 0 0 
1 -50 -41.5 0 1 0 -0 
1 -48 -41.5 0 -0 1 0 
1 -50 41.5 0 1 0 -0 
1 -41.5 41.5 0 -0 1 0 
1 -41.5 48 0 1 0 -0 
1 41.5 41.5 0 -0 1 0 
1 41.5 41.5 0 1 0 -0 
1 48 -41.5 0 -0 1 0 
1 41.5 -41.5 0 1 0 -0 
1 41.5 -50 0 -0 1 0 
1 -41.5 -48 0 1 0 -0 
1 -41.5 -50 0 -0 1 0 
1 -41.5 -41.5 0 0 0 1 
1 -48 -41.5 0 0 0 1 
1 -41.5 -48 0 0 0 1 
1 -48 41.5 0 0 0 1 
1 41.5 -48 0 0 0 1 
1 50 50 0 0 0 1 
1 -41.5 48 0 0 0 1 
1 -41.5 41.5 0 0 0 1 
1 41.5 -41.5 0 0 0 1 
1 48 -41.5 0 0 0 1 
1 41.5 48 0 0 0 1 
1 48 41.5 0 0 0 1 
1 41.5 41.5 0 0 0 1 
Polygon3D 0
PolygonOnTriangulations 0
Surfaces 50
1 -50 -50 0 1 0 -0 0 0 1 0 -1 0 
1 -50 -50 0 1 0 -0 0 0 1 0 -1 0 
1 -50 -50 0 -0 1 0 0 0 1 1 0 -0 
1 -50 -50 0 -0 1 0 0 0 1 1 0 -0 
1 -50 -50 0 0 0 1 1 0 -0 -0 1 0 
1 -50 41.5 0 1 0 -0 0 0 1 0 -1 0 
1 -50 50 0 -0 1 0 0 0 1 1 0 -0 
1 -50 50 0 -0 1 0 0 0 1 1 0 -0 
1 -50 -50 100 0 0 1 1 0 -0 -0 1 0 
1 50 -50 0 1 0 -0 0 0 1 0 -1 0 
1 41.5 -50 0 -0 1 0 0 0 1 1 0 -0 
1 50 -50 0 1 0 -0 0 0 1 0 -1 0 
1 -50 -41.5 0 -0 1 0 0 0 1 1 0 -0 
1 -50 -50 100 0 0 1 1 0 -0 -0 1 0 
1 -48 -41.5 0 1 0 -0 0 0 1 0 -1 0 
1 -50 -41.5 100 0 0 1 1 0 -0 -0 1 0 
1 -50 41.5 0 -0 1 0 0 0 1 1 0 -0 
1 -50 41.5 100 0 0 1 1 0 -0 -0 1 0 
1 -41.5 41.5 0 1 0 -0 0 0 1 0 -1 0 
1 -41.5 48 0 -0 1 0 0 0 1 1 0 -0 
1 -41.5 48 100 0 0 1 1 0 -0 -0 1 0 
1 41.5 41.5 0 1 0 -0 0 0 1 0 -1 0 
1 41.5 41.5 100 0 0 1 1 0 -0 -0 1 0 
1 41.5 41.5 0 -0 1 0 0 0 1 1 0 -0 
1 48 -41.5 0 1 0 -0 0 0 1 0 -1 0 
1 48 -41.5 100 0 0 1 1 0 -0 -0 1 0 
1 41.5 -41.5 0 -0 1 0 0 0 1 1 0 -0 
1 41.5 -50 100 0 0 1 1 0 -0 -0 1 0 
1 41.5 -50 0 1 0 -0 0 0 1 0 -1 0 
1 -41.5 -48 0 -0 1 0 0 0 1 1 0 -0 
1 -41.5 -50 100 0 0 1 1 0 -0 -0 1 0 
1 -41.5 -50 0 1 0 -0 0 0 1 0 -1 0 
1 -50 -50 0 0 0 1 1 0 -0 -0 1 0 
1 -50 -41.5 0 0 0 1 1 0 -0 -0 1 0 
1 -50 41.5 0 0 0 1 1 0 -0 -0 1 0 
1 -41.5 48 0 0 0 1 1 0 -0 -0 1 0 
1 41.5 41.5 0 0 0 1 1 0 -0 -0 1 0 
1 48 -41.5 0 0 0 1 1 0 -0 -0 1 0 
1 41.5 -50 0 0 0 1 1 0 -0 -0 1 0 
1 -41.5 -50 0 0 0 1 1 0 -0 -0 1 0 
1 -50 -41.5 0 -0 1 0 0 0 1 1 0 -0 
1 -41.5 -50 0 1 0 -0 0 0 1 0 -1 0 
1 -50 41.5 0 -0 1 0 0 0 1 1 0 -0 
1 41.5 -50 0 1 0 -0 0 0 1 0 -1 0 
1 50 41.5 0 1 0 -0 0 0 1 0 -1 0 
1 41.5 50 0 -0 1 0 0 0 1 1 0 -0 
1 -41.5 48 0 1 0 -0 0 0 1 0 -1 0 
1 48 -41.5 0 -0 1 0 0 0 1 1 0 -0 
1 41.5 48 0 1 0 -0 0 0 1 0 -1 0 
1 48 41.5 0 -0 1 0 0 0 1 1 0 -0 
Triangulations 0

TShapes 121
Ve
1e-07
-50 -50 100
0 0

0101101
*
Ve
1e-07
-50 -50 0
0 0

0101101
*
Ed
 1e-07 1 1 0
1  1 0 0 100
2  1 2 0 0 100
2  2 3 0 0 100
2  3 1 0 0 100
2  4 4 0 0 100
0

0101000
-121 0 +120 0 *
Ve
1e-07
-50 50 0
0 0

0101101
*
Ed
 1e-07 1 1 0
1  2 0 0 100
2  5 1 0 0 100
2  6 5 0 0 100
0

0101000
+118 0 -120 0 *
Ve
1e-07
-50 50 100
0 0

0101101
*
Ed
 1e-07 1 1 0
1  3 0 0 100
2  7 6 0 0 100
2  8 7 0 0 100
2  9 2 0 0 100
2  10 1 0 0 100
2  11 8 0 0 100
0

0101000
-116 0 +118 0 *
Ed
 1e-07 1 1 0
1  4 0 0 100
2  12 1 0 0 100
2  13 9 0 0 100
0

0101000
+121 0 -116 0 *
Wi

0101100
-119 0 -117 0 +115 0 -114 0 *
Fa
0  0 1 0

0111000
+113 0 *
Ve
1e-07
50 -50 0
0 0

0101101
*
Ed
 1e-07 1 1 0
1  5 0 0 100
2  14 5 0 0 100
2  15 4 0 0 100
0

0101000
+120 0 -111 0 *
Ve
1e-07
50 -50 100
0 0

0101101
*
Ed
 1e-07 1 1 0
1  6 0 0 100
2  16 9 0 0 100
2  17 4 0 0 100
0

0101000
+109 0 -121 0 *
Ed
 1e-07 1 1 0
1  7 0 0 100
2  18 10 0 0 100
2  19 11 0 0 100
2  20 3 0 0 100
2  21 4 0 0 100
2  22 12 0 0 100
0

0101000
-109 0 +111 0 *
Wi

0101100
-110 0 +119 0 -108 0 -107 0 *
Fa
0  0 4 0

0111000
+106 0 *
Ve
1e-07
50 50 100
0 0

0101101
*
Ed
 1e-07 1 1 0
1  8 0 0 100
2  23 9 0 0 100
2  24 12 0 0 100
0

0101000
+109 0 -104 0 *
Ed
 1e-07 1 1 0
1  9 0 0 100
2  25 9 0 0 100
2  26 8 0 0 100
0

0101000
+104 0 -116 0 *
Wi

0101100
-114 0 -108 0 +103 0 +102 0 *
Ve
1e-07
-48 -41.5 100
0 0

0101101
*
Ve
1e-07
-41.5 -41.5 100
0 0

0101101
*
Ed
 1e-07 1 1 0
1  10 0 2 8.5
2  27 13 0 2 8.5
2  28 14 0 2 8.5
2  29 9 0 2 8.5
0

0101000
+100 0 -99 0 *
Ve
1e-07
-48 41.5 100
0 0

0101101
*
Ed
 1e-07 1 1 0
1  11 0 0 83
2  30 15 0 0 83
2  31 16 0 0 83
2  32 14 0 0 83
2  33 9 0 0 83
0

0101000
-97 0 +100 0 *
Ve
1e-07
-41.5 41.5 100
0 0

0101101
*
Ed
 1e-07 1 1 0
1  12 0 2 8.5
2  34 17 0 2 8.5
2  35 18 0 2 8.5
2  36 14 0 2 8.5
2  37 9 0 2 8.5
0

0101000
+97 0 -95 0 *
Ve
1e-07
-41.5 48 100
0 0

0101101
*
Ed
 1e-07 1 1 0
1  13 0 0 6.5
2  38 19 0 0 6.5
2  39 18 0 0 6.5
2  40 14 0 0 6.5
2  41 9 0 0 6.5
0

0101000
+95 0 -93 0 *
Ve
1e-07
41.5 48 100
0 0

0101101
*
Ed
 1e-07 1 1 0
1  14 0 0 83
2  42 20 0 0 83
2  43 21 0 0 83
2  44 14 0 0 83
2  45 9 0 0 83
0

0101000
-91 0 +93 0 *
Ve
1e-07
41.5 41.5 100
0 0

0101101
*
Ed
 1e-07 1 1 0
1  15 0 0 6.5
2  46 22 0 0 6.5
2  47 23 0 0 6.5
2  48 14 0 0 6.5
2  49 9 0 0 6.5
0

0101000
+89 0 -91 0 *
Ve
1e-07
48 41.5 100
0 0

0101101
*
Ed
 1e-07 1 1 0
1  16 0 0 6.5
2  50 24 0 0 6.5
2  51 23 0 0 6.5
2  52 14 0 0 6.5
2  53 9 0 0 6.5
0

0101000
+89 0 -87 0 *
Ve
1e-07
48 -41.5 100
0 0

0101101
*
Ed
 1e-07 1 1 0
1  17 0 0 83
2  54 25 0 0 83
2  55 26 0 0 83
2  56 14 0 0 83
2  57 9 0 0 83
0

0101000
-87 0 +85 0 *
Ve
1e-07
41.5 -41.5 100
0 0

0101101
*
Ed
 1e-07 1 1 0
1  18 0 0 6.5
2  58 27 0 0 6.5
2  59 28 0 0 6.5
2  60 14 0 0 6.5
2  61 9 0 0 6.5
0

0101000
+83 0 -85 0 *
Ve
1e-07
41.5 -48 100
0 0

0101101
*
Ed
 1e-07 1 1 0
1  19 0 2 8.5
2  62 29 0 2 8.5
2  63 28 0 2 8.5
2  64 14 0 2 8.5
2  65 9 0 2 8.5
0

0101000
+81 0 -83 0 *
Ve
1e-07
-41.5 -48 100
0 0

0101101
*
Ed
 1e-07 1 1 0
1  20 0 0 83
2  66 30 0 0 83
2  67 31 0 0 83
2  68 14 0 0 83
2  69 9 0 0 83
0

0101000
-81 0 +79 0 *
Ed
 1e-07 1 1 0
1  21 0 2 8.5
2  70 32 0 2 8.5
2  71 14 0 2 8.5
2  72 9 0 2 8.5
0

0101000
+79 0 -99 0 *
Wi

0101100
-98 0 +96 0 +94 0 +92 0 +90 0 -88 0 +86 0 -84 0 -82 0 -80 0 
-78 0 +77 0 *
Fa
0  0 9 0

0111000
+101 0 +76 0 *
Ve
1e-07
50 50 0
0 0

0101101
*
Ed
 1e-07 1 1 0
1  22 0 0 100
2  73 5 0 0 100
2  74 12 0 0 100
0

0101000
+74 0 -111 0 *
Ed
 1e-07 1 1 0
1  23 0 0 100
2  75 5 0 0 100
2  76 8 0 0 100
0

0101000
+118 0 -74 0 *
Wi

0101100
+110 0 -73 0 -72 0 +117 0 *
Ve
1e-07
-48 -41.5 0
0 0

0101101
*
Ve
1e-07
-41.5 -41.5 0
0 0

0101101
*
Ed
 1e-07 1 1 0
1  24 0 2 8.5
2  77 13 0 2 8.5
2  78 33 0 2 8.5
2  79 5 0 2 8.5
0

0101000
+70 0 -69 0 *
Ve
1e-07
-48 41.5 0
0 0

0101101
*
Ed
 1e-07 1 1 0
1  25 0 0 83
2  80 15 0 0 83
2  81 34 0 0 83
2  82 33 0 0 83
2  83 5 0 0 83
0

0101000
-67 0 +70 0 *
Ve
1e-07
-41.5 41.5 0
0 0

0101101
*
Ed
 1e-07 1 1 0
1  26 0 2 8.5
2  84 17 0 2 8.5
2  85 35 0 2 8.5
2  86 33 0 2 8.5
2  87 5 0 2 8.5
0

0101000
+67 0 -65 0 *
Ve
1e-07
-41.5 48 0
0 0

0101101
*
Ed
 1e-07 1 1 0
1  27 0 0 6.5
2  88 19 0 0 6.5
2  89 35 0 0 6.5
2  90 33 0 0 6.5
2  91 5 0 0 6.5
0

0101000
+65 0 -63 0 *
Ve
1e-07
41.5 48 0
0 0

0101101
*
Ed
 1e-07 1 1 0
1  28 0 0 83
2  92 20 0 0 83
2  93 36 0 0 83
2  94 33 0 0 83
2  95 5 0 0 83
0

0101000
-61 0 +63 0 *
Ve
1e-07
41.5 41.5 0
0 0

0101101
*
Ed
 1e-07 1 1 0
1  29 0 0 6.5
2  96 22 0 0 6.5
2  97 37 0 0 6.5
2  98 33 0 0 6.5
2  99 5 0 0 6.5
0

0101000
+59 0 -61 0 *
Ve
1e-07
48 41.5 0
0 0

0101101
*
Ed
 1e-07 1 1 0
1  30 0 0 6.5
2  100 24 0 0 6.5
2  101 37 0 0 6.5
2  102 33 0 0 6.5
2  103 5 0 0 6.5
0

0101000
+59 0 -57 0 *
Ve
1e-07
48 -41.5 0
0 0

0101101
*
Ed
 1e-07 1 1 0
1  31 0 0 83
2  104 25 0 0 83
2  105 38 0 0 83
2  106 33 0 0 83
2  107 5 0 0 83
0

0101000
-57 0 +55 0 *
Ve
1e-07
41.5 -41.5 0
0 0

0101101
*
Ed
 1e-07 1 1 0
1  32 0 0 6.5
2  108 27 0 0 6.5
2  109 39 0 0 6.5
2  110 33 0 0 6.5
2  111 5 0 0 6.5
0

0101000
+53 0 -55 0 *
Ve
1e-07
41.5 -48 0
0 0

0101101
*
Ed
 1e-07 1 1 0
1  33 0 2 8.5
2  112 29 0 2 8.5
2  113 39 0 2 8.5
2  114 33 0 2 8.5
2  115 5 0 2 8.5
0

0101000
+51 0 -53 0 *
Ve
1e-07
-41.5 -48 0
0 0

0101101
*
Ed
 1e-07 1 1 0
1  34 0 0 83
2  116 30 0 0 83
2  117 40 0 0 83
2  118 33 0 0 83
2  119 5 0 0 83
0

0101000
-51 0 +49 0 *
Ed
 1e-07 1 1 0
1  35 0 2 8.5
2  120 32 0 2 8.5
2  121 33 0 2 8.5
2  122 5 0 2 8.5
0

0101000
+49 0 -69 0 *
Wi

0101100
-68 0 +66 0 +64 0 +62 0 +60 0 -58 0 +56 0 -54 0 -52 0 -50 0 
-48 0 +47 0 *
Fa
0  0 5 0

0111000
+71 0 +46 0 *
Ed
 1e-07 1 1 0
1  36 0 0 100
2  123 32 0 0 100
2  124 13 0 0 100
0

0101000
-99 0 +69 0 *
Ed
 1e-07 1 1 0
1  37 0 0 100
2  125 15 0 0 100
2  126 41 0 0 100
2  127 13 0 0 100
0

0101000
-100 0 +70 0 *
Wi

0101100
-68 0 -44 0 +98 0 +43 0 *
Fa
0  1e-07 13 0

0101000
+42 0 *
Ed
 1e-07 1 1 0
1  38 0 0 100
2  128 42 0 0 100
2  129 30 0 0 100
2  130 32 0 0 100
0

0101000
-79 0 +49 0 *
Wi

0101100
-40 0 -77 0 +44 0 +47 0 *
Fa
0  1e-07 32 0

0101000
+39 0 *
Ed
 1e-07 1 1 0
1  39 0 0 100
2  131 15 0 0 100
2  132 43 0 0 100
2  133 17 0 0 100
0

0101000
-97 0 +67 0 *
Wi

0101100
-43 0 -96 0 +37 0 +66 0 *
Fa
0  1e-07 15 0

0111000
+36 0 *
Ed
 1e-07 1 1 0
1  40 0 0 100
2  134 44 0 0 100
2  135 30 0 0 100
2  136 29 0 0 100
0

0101000
-81 0 +51 0 *
Wi

0101100
-48 0 -34 0 +78 0 +40 0 *
Fa
0  1e-07 30 0

0111000
+33 0 *
Ed
 1e-07 1 1 0
1  41 0 0 100
2  137 45 0 0 100
2  138 46 0 0 100
2  139 7 0 0 100
2  140 10 0 0 100
2  141 12 0 0 100
2  142 8 0 0 100
0

0101000
-104 0 +74 0 *
Wi

0101100
-72 0 +115 0 -102 0 -31 0 *
Fa
0  0 8 0

0111000
+30 0 *
Wi

0101100
-107 0 -73 0 +31 0 -103 0 *
Fa
0  0 12 0

0111000
+28 0 *
Ed
 1e-07 1 1 0
1  42 0 0 100
2  143 47 0 0 100
2  144 20 0 0 100
2  145 19 0 0 100
0

0101000
-93 0 +63 0 *
Ed
 1e-07 1 1 0
1  43 0 0 100
2  146 19 0 0 100
2  147 17 0 0 100
0

0101000
-95 0 +65 0 *
Wi

0101100
-92 0 +26 0 +62 0 -25 0 *
Fa
0  1e-07 19 0

0101000
+24 0 *
Wi

0101100
-64 0 -25 0 +94 0 +37 0 *
Fa
0  1e-07 17 0

0101000
+22 0 *
Ed
 1e-07 1 1 0
1  44 0 0 100
2  148 29 0 0 100
2  149 27 0 0 100
0

0101000
-83 0 +53 0 *
Wi

0101100
-34 0 -80 0 +20 0 +50 0 *
Fa
0  1e-07 29 0

0101000
+19 0 *
Ed
 1e-07 1 1 0
1  45 0 0 100
2  150 25 0 0 100
2  151 48 0 0 100
2  152 27 0 0 100
0

0101000
-85 0 +55 0 *
Wi

0101100
-52 0 -17 0 +82 0 +20 0 *
Fa
0  1e-07 27 0

0101000
+16 0 *
Ed
 1e-07 1 1 0
1  46 0 0 100
2  153 49 0 0 100
2  154 20 0 0 100
2  155 22 0 0 100
0

0101000
-91 0 +61 0 *
Wi

0101100
-60 0 -14 0 +90 0 +26 0 *
Fa
0  1e-07 20 0

0111000
+13 0 *
Ed
 1e-07 1 1 0
1  47 0 0 100
2  156 25 0 0 100
2  157 50 0 0 100
2  158 24 0 0 100
0

0101000
-87 0 +57 0 *
Wi

0101100
-17 0 -84 0 +11 0 +54 0 *
Fa
0  1e-07 25 0

0111000
+10 0 *
Ed
 1e-07 1 1 0
1  48 0 0 100
2  159 22 0 0 100
2  160 24 0 0 100
0

0101000
-89 0 +59 0 *
Wi

0101100
-88 0 +14 0 +58 0 -8 0 *
Fa
0  1e-07 22 0

0101000
+7 0 *
Wi

0101100
-56 0 -11 0 +86 0 +8 0 *
Fa
0  1e-07 24 0

0101000
+5 0 *
Sh

0101100
-112 0 -105 0 +75 0 -45 0 +41 0 +38 0 +35 0 +32 0 +29 0 +27 0 
+23 0 -21 0 -18 0 +15 0 -12 0 -9 0 -6 0 -4 0 *
So

0100000
+3 0 *
Co

1100000
+2 0 *

+1 0 