DBRep_DrawableShape

CASCADE Topology V1, (c) Matra-Datavision
Locations 0
Curve2ds 352
1 0 0 1 0 
1 0 0 1 0 
1 0 0 1 0 
1 0 0 1 0 
1 0 -100 0 1 
1 0 100 0 -1 
1 0 -8.5 1 0 
1 0 0 1 0 
1 0 -100 1 0 
1 0 -100 1 0 
1 0 0 1 0 
1 100 0 0 -1 
1 0 0 0 1 
8 -24.776383288778426 -4.7534836712964932
1 66.137261839766339 -18.663893708642448 -0.093661795823549082 0.99560407190966627 
8 -24.776383288778426 -4.7534836712964932
1 24.776383288778426 -4.9999999999999973 1 1.1053425640446715e-16 
1 66.137261839766339 -27.163893708642448 -0.093661795823549082 0.99560407190966627 
1 66.137261839766339 -27.163893708642448 -0.093661795823549082 0.99560407190966627 
8 -25.645851995404243 -18.282251597580785
1 68.298055346373843 -25.04980865884021 -0.0087411031064256288 0.99996179582846212 
8 -25.645851995404243 -18.282251597580785
1 25.645851995404243 -4.9999999999999973 1 1.1101806094742785e-16 
1 68.298055346373843 -33.549808658840206 -0.0087411031064256288 0.99996179582846212 
1 68.298055346373843 -33.549808658840206 -0.0087411031064256288 0.99996179582846212 
8 14.324361960913251 52.670475266132314
1 15.874737595058763 -52.250533858022408 0.99956361741265609 0.029539376176984208 
8 14.324361960913251 52.670475266132314
1 -14.324361960913251 -5 1 3.27952955647517e-18 
1 15.874737595058763 -60.750533858022408 0.99956361741265609 0.029539376176984208 
1 15.874737595058763 -60.750533858022408 0.99956361741265609 0.029539376176984208 
8 15.842355298272354 31.822390580698098
1 34.155090174385599 -20.2526456491874 -0.1245111208883042 -0.99221821227748996 
8 15.842355298272354 31.822390580698098
1 -15.842355298272354 -4.9999999999999982 1 -1.1015835047228805e-16 
1 34.155090174385599 -28.7526456491874 -0.1245111208883042 -0.99221821227748996 
1 34.155090174385599 -28.7526456491874 -0.1245111208883042 -0.99221821227748996 
8 -11.008035257519282 1.250627456312003
1 33.263923126525761 -35.34348251469239 -0.86467185921835765 -0.50233711377507118 
8 -11.008035257519282 1.250627456312003
1 11.008035257519282 -5.0000000000000009 1 -5.5770622983683091e-17 
1 33.263923126525761 -43.84348251469239 -0.86467185921835765 -0.50233711377507118 
1 33.263923126525761 -43.84348251469239 -0.86467185921835765 -0.50233711377507118 
8 -29.097884156034585 -4.4476983001040438
1 38.487924689408572 -30.971620426851608 -0.96551889535249324 -0.26033298430529545 
8 -29.097884156034585 -4.4476983001040438
1 29.097884156034585 -5.0000000000000009 1 -2.8902767324511852e-17 
1 38.487924689408572 -39.471620426851608 -0.96551889535249324 -0.26033298430529545 
1 38.487924689408572 -39.471620426851608 -0.96551889535249324 -0.26033298430529545 
1 0 0 1 0 
1 0 0 0 1 
1 100 0 -1 0 
1 100 100 0 -1 
1 0 0 1 0 
1 0 8.5 1 0 
1 0 100 1 0 
1 0 100 1 0 
1 0 0 1 0 
8 -1.250627456312003 11.008035257519282
1 33.263923126525761 35.34348251469239 0.86467185921835765 -0.50233711377507118 
8 -1.250627456312003 11.008035257519282
1 11.008035257519282 -3 -1 0 
1 33.263923126525761 43.84348251469239 0.86467185921835765 -0.50233711377507118 
1 33.263923126525761 43.84348251469239 0.86467185921835765 -0.50233711377507118 
8 -31.822390580698098 -15.842355298272354
1 34.155090174385599 20.2526456491874 0.1245111208883042 -0.99221821227748996 
8 -31.822390580698098 -15.842355298272354
1 -15.842355298272354 -3 -1 0 
1 34.155090174385599 28.7526456491874 0.1245111208883042 -0.99221821227748996 
1 34.155090174385599 28.7526456491874 0.1245111208883042 -0.99221821227748996 
8 -52.670475266132314 -14.324361960913251
1 15.874737595058763 52.250533858022408 -0.99956361741265609 0.029539376176984208 
8 -52.670475266132314 -14.324361960913251
1 -14.324361960913251 -3 -1 -0 
1 15.874737595058763 60.750533858022408 -0.99956361741265609 0.029539376176984208 
1 15.874737595058763 60.750533858022408 -0.99956361741265609 0.029539376176984208 
8 18.282251597580785 25.645851995404243
1 68.298055346373843 25.04980865884021 0.0087411031064256288 0.99996179582846212 
8 18.282251597580785 25.645851995404243
1 25.645851995404243 -3 -1 0 
1 68.298055346373843 33.549808658840206 0.0087411031064256288 0.99996179582846212 
1 68.298055346373843 33.549808658840206 0.0087411031064256288 0.99996179582846212 
8 4.7534836712964932 24.776383288778426
1 66.137261839766339 18.663893708642448 0.093661795823549082 0.99560407190966627 
8 4.7534836712964932 24.776383288778426
1 24.776383288778426 -3 -1 0 
1 66.137261839766339 27.163893708642448 0.093661795823549082 0.99560407190966627 
1 66.137261839766339 27.163893708642448 0.093661795823549082 0.99560407190966627 
8 4.4476983001040438 29.097884156034585
1 38.487924689408572 30.971620426851608 0.96551889535249324 -0.26033298430529545 
8 4.4476983001040438 29.097884156034585
1 29.097884156034585 -3 -1 0 
1 38.487924689408572 39.471620426851608 0.96551889535249324 -0.26033298430529545 
1 38.487924689408572 39.471620426851608 0.96551889535249324 -0.26033298430529545 
1 100 0 0 1 
1 100 0 0 -1 
1 100 100 -1 0 
1 100 100 0 -1 
1 100 0 0 1 
1 0 8.5 1 0 
1 0 8.5 1 0 
1 100 0 0 -1 
1 2 0 0 1 
1 2 8.5 0 1 
1 2 8.5 0 1 
1 100 0 0 1 
1 0 0 1 0 
1 0 91.5 1 0 
1 0 91.5 1 0 
1 100 0 0 -1 
1 8.5 0 0 1 
1 8.5 91.5 0 1 
1 8.5 91.5 0 1 
1 100 0 0 1 
1 0 0 1 0 
1 8.5 98 1 0 
1 8.5 98 1 0 
1 100 0 0 -1 
1 0 0 0 1 
1 91.5 91.5 0 1 
1 91.5 91.5 0 1 
1 100 0 0 1 
1 0 0 1 0 
1 91.5 91.5 1 0 
1 91.5 91.5 1 0 
1 100 0 0 -1 
1 0 0 0 1 
1 98 8.5 0 1 
1 98 8.5 0 1 
1 100 0 0 1 
1 0 8.5 1 0 
1 91.5 8.5 1 0 
1 91.5 8.5 1 0 
1 100 0 0 -1 
1 0 0 0 1 
1 91.5 0 0 1 
1 91.5 0 0 1 
1 100 0 0 1 
1 0 2 1 0 
1 8.5 2 1 0 
1 8.5 2 1 0 
1 100 0 0 -1 
1 8.5 0 0 1 
1 8.5 0 0 1 
1 100 100 0 -1 
1 0 -100 0 1 
1 0 100 1 0 
1 0 0 0 1 
1 0 0 0 1 
1 0 8.5 1 0 
1 0 8.5 1 0 
1 0 0 0 -1 
1 2 0 0 1 
1 2 8.5 0 1 
1 2 8.5 0 1 
1 0 0 0 1 
1 0 0 1 0 
1 0 91.5 1 0 
1 0 91.5 1 0 
1 0 0 0 -1 
1 8.5 0 0 1 
1 8.5 91.5 0 1 
1 8.5 91.5 0 1 
1 0 0 0 1 
1 0 0 1 0 
1 8.5 98 1 0 
1 8.5 98 1 0 
1 0 0 0 -1 
1 0 0 0 1 
1 91.5 91.5 0 1 
1 91.5 91.5 0 1 
1 0 0 0 1 
1 0 0 1 0 
1 91.5 91.5 1 0 
1 91.5 91.5 1 0 
1 0 0 0 -1 
1 0 0 0 1 
1 98 8.5 0 1 
1 98 8.5 0 1 
1 0 0 0 1 
1 0 8.5 1 0 
1 91.5 8.5 1 0 
1 91.5 8.5 1 0 
1 0 0 0 -1 
1 0 0 0 1 
1 91.5 0 0 1 
1 91.5 0 0 1 
1 0 0 0 1 
1 0 2 1 0 
1 8.5 2 1 0 
1 8.5 2 1 0 
1 0 0 0 -1 
1 8.5 0 0 1 
1 8.5 0 0 1 
1 0 -8.5 1 0 
1 0 8.5 1 0 
1 0 0 1 0 
1 0 2 1 0 
1 0 2 1 0 
1 0 -2 1 0 
1 0 0 1 0 
1 0 -2 1 0 
8 -29.097884156034585 -4.4476983001040438
1 38.487924689408572 -30.971620426851608 -0.96551889535249324 -0.26033298430529545 
8 -29.097884156034585 -4.4476983001040438
1 29.097884156034585 -3.0000000000000009 1 -2.8902767324511852e-17 
1 24.650185855930541 -7.1245858629993352e-16 0 -1 
1 0 0 0 -1 
1 0 0 0 -1 
1 20.022899617481929 2.2132163202796547e-15 0 -1 
8 -11.008035257519282 1.250627456312003
1 33.263923126525761 -35.34348251469239 -0.86467185921835765 -0.50233711377507118 
8 -11.008035257519282 1.250627456312003
1 11.008035257519282 -3.0000000000000004 1 -5.5770622983683091e-17 
1 12.25866271383128 -6.836732564972176e-16 0 -1 
1 0 0 0 -1 
8 15.842355298272354 31.822390580698098
1 34.155090174385599 -20.2526456491874 -0.1245111208883042 -0.99221821227748996 
8 15.842355298272354 31.822390580698098
1 -15.842355298272354 -2.9999999999999982 1 -1.1015835047228805e-16 
1 15.980035282425744 -1.7603343272009838e-15 0 -1 
1 0 0 0 -1 
8 14.324361960913251 52.670475266132314
1 15.874737595058763 -52.250533858022408 0.99956361741265609 0.029539376176984208 
8 14.324361960913251 52.670475266132314
1 -14.324361960913251 -3 1 3.27952955647517e-18 
1 38.346113305219063 1.2575721196041165e-16 0 -1 
1 -0 0 0 -1 
8 -25.645851995404243 -18.282251597580785
1 68.298055346373843 -25.04980865884021 -0.0087411031064256288 0.99996179582846212 
8 -25.645851995404243 -18.282251597580785
1 25.645851995404243 -2.9999999999999973 1 1.1101806094742785e-16 
1 7.3636003978234577 8.1749263775806847e-16 0 -1 
1 -0 0 0 -1 
8 -24.776383288778426 -4.7534836712964932
1 66.137261839766339 -18.663893708642448 -0.093661795823549082 0.99560407190966627 
8 -24.776383288778426 -4.7534836712964932
1 24.776383288778426 -2.9999999999999973 1 1.1053425640446715e-16 
1 24.650185855930541 0 0 -1 
1 0 0 0 -1 
8 4.4476983001040438 29.097884156034585
1 38.487924689408572 30.971620426851608 0.96551889535249324 -0.26033298430529545 
8 4.4476983001040438 29.097884156034585
1 29.097884156034585 -5 -1 0 
1 0 0 0 -1 
1 20.022899617481933 0 0 -1 
8 4.7534836712964932 24.776383288778426
1 66.137261839766339 18.663893708642448 0.093661795823549082 0.99560407190966627 
8 4.7534836712964932 24.776383288778426
1 24.776383288778426 -5 -1 0 
1 7.3636003978234577 0 0 -1 
1 0 0 0 -1 
8 18.282251597580785 25.645851995404243
1 68.298055346373843 25.04980865884021 0.0087411031064256288 0.99996179582846212 
8 18.282251597580785 25.645851995404243
1 25.645851995404243 -5 -1 0 
1 38.346113305219063 0 0 -1 
1 0 0 0 -1 
8 -52.670475266132314 -14.324361960913251
1 15.874737595058763 52.250533858022408 -0.99956361741265609 0.029539376176984208 
8 -52.670475266132314 -14.324361960913251
1 -14.324361960913251 -5 -1 -0 
1 15.980035282425744 0 0 -1 
1 0 0 0 -1 
8 -31.822390580698098 -15.842355298272354
1 34.155090174385599 20.2526456491874 0.1245111208883042 -0.99221821227748996 
8 -31.822390580698098 -15.842355298272354
1 -15.842355298272354 -5 -1 0 
1 12.25866271383128 0 0 -1 
1 0 0 0 -1 
8 -1.250627456312003 11.008035257519282
1 33.263923126525761 35.34348251469239 0.86467185921835765 -0.50233711377507118 
8 -1.250627456312003 11.008035257519282
1 11.008035257519282 -5 -1 0 
1 0 -83 1 0 
1 0 2 1 0 
1 0 2 1 0 
1 0 -2 1 0 
1 0 83 1 0 
1 0 -2 1 0 
1 0 -8.5 1 0 
1 0 8.5 1 0 
1 0 100 1 0 
1 0 -100 1 0 
1 0 -100 1 0 
1 0 100 1 0 
8 -1.250627456312003 11.008035257519282
1 33.263923126525761 35.34348251469239 0.86467185921835765 -0.50233711377507118 
8 -1.250627456312003 11.008035257519282
1 11.008035257519282 -5 -1 0 
1 33.263923126525761 43.84348251469239 0.86467185921835765 -0.50233711377507118 
1 33.263923126525761 43.84348251469239 0.86467185921835765 -0.50233711377507118 
8 -31.822390580698098 -15.842355298272354
1 34.155090174385599 20.2526456491874 0.1245111208883042 -0.99221821227748996 
8 -31.822390580698098 -15.842355298272354
1 -15.842355298272354 -5 -1 0 
1 34.155090174385599 28.7526456491874 0.1245111208883042 -0.99221821227748996 
1 34.155090174385599 28.7526456491874 0.1245111208883042 -0.99221821227748996 
8 -52.670475266132314 -14.324361960913251
1 15.874737595058763 52.250533858022408 -0.99956361741265609 0.029539376176984208 
8 -52.670475266132314 -14.324361960913251
1 -14.324361960913251 -5 -1 -0 
1 15.874737595058763 60.750533858022408 -0.99956361741265609 0.029539376176984208 
1 15.874737595058763 60.750533858022408 -0.99956361741265609 0.029539376176984208 
8 18.282251597580785 25.645851995404243
1 68.298055346373843 25.04980865884021 0.0087411031064256288 0.99996179582846212 
8 18.282251597580785 25.645851995404243
1 25.645851995404243 -5 -1 0 
1 68.298055346373843 33.549808658840206 0.0087411031064256288 0.99996179582846212 
1 68.298055346373843 33.549808658840206 0.0087411031064256288 0.99996179582846212 
8 4.7534836712964932 24.776383288778426
1 66.137261839766339 18.663893708642448 0.093661795823549082 0.99560407190966627 
8 4.7534836712964932 24.776383288778426
1 24.776383288778426 -5 -1 0 
1 66.137261839766339 27.163893708642448 0.093661795823549082 0.99560407190966627 
1 66.137261839766339 27.163893708642448 0.093661795823549082 0.99560407190966627 
8 4.4476983001040438 29.097884156034585
1 38.487924689408572 30.971620426851608 0.96551889535249324 -0.26033298430529545 
8 4.4476983001040438 29.097884156034585
1 29.097884156034585 -5 -1 0 
1 38.487924689408572 39.471620426851608 0.96551889535249324 -0.26033298430529545 
1 38.487924689408572 39.471620426851608 0.96551889535249324 -0.26033298430529545 
8 -24.776383288778426 -4.7534836712964932
1 66.137261839766339 -18.663893708642448 -0.093661795823549082 0.99560407190966627 
8 -24.776383288778426 -4.7534836712964932
1 24.776383288778426 -2.9999999999999973 1 1.1053425640446715e-16 
1 66.137261839766339 -27.163893708642448 -0.093661795823549082 0.99560407190966627 
1 66.137261839766339 -27.163893708642448 -0.093661795823549082 0.99560407190966627 
8 -25.645851995404243 -18.282251597580785
1 68.298055346373843 -25.04980865884021 -0.0087411031064256288 0.99996179582846212 
8 -25.645851995404243 -18.282251597580785
1 25.645851995404243 -2.9999999999999973 1 1.1101806094742785e-16 
1 68.298055346373843 -33.549808658840206 -0.0087411031064256288 0.99996179582846212 
1 68.298055346373843 -33.549808658840206 -0.0087411031064256288 0.99996179582846212 
8 14.324361960913251 52.670475266132314
1 15.874737595058763 -52.250533858022408 0.99956361741265609 0.029539376176984208 
8 14.324361960913251 52.670475266132314
1 -14.324361960913251 -3 1 3.27952955647517e-18 
1 15.874737595058763 -60.750533858022408 0.99956361741265609 0.029539376176984208 
1 15.874737595058763 -60.750533858022408 0.99956361741265609 0.029539376176984208 
8 15.842355298272354 31.822390580698098
1 34.155090174385599 -20.2526456491874 -0.1245111208883042 -0.99221821227748996 
8 15.842355298272354 31.822390580698098
1 -15.842355298272354 -2.9999999999999982 1 -1.1015835047228805e-16 
1 34.155090174385599 -28.7526456491874 -0.1245111208883042 -0.99221821227748996 
1 34.155090174385599 -28.7526456491874 -0.1245111208883042 -0.99221821227748996 
8 -11.008035257519282 1.250627456312003
1 33.263923126525761 -35.34348251469239 -0.86467185921835765 -0.50233711377507118 
8 -11.008035257519282 1.250627456312003
1 11.008035257519282 -3.0000000000000004 1 -5.5770622983683091e-17 
1 33.263923126525761 -43.84348251469239 -0.86467185921835765 -0.50233711377507118 
1 33.263923126525761 -43.84348251469239 -0.86467185921835765 -0.50233711377507118 
8 -29.097884156034585 -4.4476983001040438
1 38.487924689408572 -30.971620426851608 -0.96551889535249324 -0.26033298430529545 
8 -29.097884156034585 -4.4476983001040438
1 29.097884156034585 -3.0000000000000009 1 -2.8902767324511852e-17 
1 38.487924689408572 -39.471620426851608 -0.96551889535249324 -0.26033298430529545 
1 38.487924689408572 -39.471620426851608 -0.96551889535249324 -0.26033298430529545 
1 0 0 1 0 
1 0 0 1 0 
1 0 -6.5 1 0 
1 0 0 1 0 
1 0 8.5 1 0 
1 0 -8.5 1 0 
1 0 0 1 0 
1 0 0 1 0 
1 0 0 1 0 
1 0 6.5 1 0 
1 0 0 1 0 
1 0 83 1 0 
1 0 -6.5 1 0 
8 4.4476983001040438 29.097884156034585
1 38.487924689408572 30.971620426851608 0.96551889535249324 -0.26033298430529545 
8 4.4476983001040438 29.097884156034585
1 29.097884156034585 -3 -1 0 
8 4.7534836712964932 24.776383288778426
1 66.137261839766339 18.663893708642448 0.093661795823549082 0.99560407190966627 
8 4.7534836712964932 24.776383288778426
1 24.776383288778426 -3 -1 0 
8 18.282251597580785 25.645851995404243
1 68.298055346373843 25.04980865884021 0.0087411031064256288 0.99996179582846212 
8 18.282251597580785 25.645851995404243
1 25.645851995404243 -3 -1 0 
8 -52.670475266132314 -14.324361960913251
1 15.874737595058763 52.250533858022408 -0.99956361741265609 0.029539376176984208 
8 -52.670475266132314 -14.324361960913251
1 -14.324361960913251 -3 -1 -0 
8 -31.822390580698098 -15.842355298272354
1 34.155090174385599 20.2526456491874 0.1245111208883042 -0.99221821227748996 
8 -31.822390580698098 -15.842355298272354
1 -15.842355298272354 -3 -1 0 
8 -1.250627456312003 11.008035257519282
1 33.263923126525761 35.34348251469239 0.86467185921835765 -0.50233711377507118 
8 -1.250627456312003 11.008035257519282
1 11.008035257519282 -3 -1 0 
1 0 -83 1 0 
1 0 0 1 0 
1 0 6.5 1 0 
8 -29.097884156034585 -4.4476983001040438
1 38.487924689408572 -30.971620426851608 -0.96551889535249324 -0.26033298430529545 
8 -29.097884156034585 -4.4476983001040438
1 29.097884156034585 -5.0000000000000009 1 -2.8902767324511852e-17 
8 -11.008035257519282 1.250627456312003
1 33.263923126525761 -35.34348251469239 -0.86467185921835765 -0.50233711377507118 
8 -11.008035257519282 1.250627456312003
1 11.008035257519282 -5.0000000000000009 1 -5.5770622983683091e-17 
8 15.842355298272354 31.822390580698098
1 34.155090174385599 -20.2526456491874 -0.1245111208883042 -0.99221821227748996 
8 15.842355298272354 31.822390580698098
1 -15.842355298272354 -4.9999999999999982 1 -1.1015835047228805e-16 
8 14.324361960913251 52.670475266132314
1 15.874737595058763 -52.250533858022408 0.99956361741265609 0.029539376176984208 
8 14.324361960913251 52.670475266132314
1 -14.324361960913251 -5 1 3.27952955647517e-18 
8 -25.645851995404243 -18.282251597580785
1 68.298055346373843 -25.04980865884021 -0.0087411031064256288 0.99996179582846212 
8 -25.645851995404243 -18.282251597580785
1 25.645851995404243 -4.9999999999999973 1 1.1101806094742785e-16 
8 -24.776383288778426 -4.7534836712964932
1 66.137261839766339 -18.663893708642448 -0.093661795823549082 0.99560407190966627 
8 -24.776383288778426 -4.7534836712964932
1 24.776383288778426 -4.9999999999999973 1 1.1053425640446715e-16 
1 24.650185855930541 0 0 -1 
1 0 0 0 -1 
1 0 0 0 -1 
1 20.022899617481933 0 0 -1 
1 7.3636003978234577 0 0 -1 
1 0 0 0 -1 
1 38.346113305219063 0 0 -1 
1 0 0 0 -1 
1 15.980035282425744 0 0 -1 
1 0 0 0 -1 
1 12.25866271383128 0 0 -1 
1 0 0 0 -1 
1 24.650185855930541 -7.1245858629993352e-16 0 -1 
1 0 0 0 -1 
1 0 0 0 -1 
1 20.022899617481929 2.2132163202796547e-15 0 -1 
1 12.25866271383128 -6.836732564972176e-16 0 -1 
1 0 0 0 -1 
1 15.980035282425744 -1.7603343272009838e-15 0 -1 
1 0 0 0 -1 
1 38.346113305219063 1.2575721196041165e-16 0 -1 
1 -0 0 0 -1 
1 7.3636003978234577 8.1749263775806847e-16 0 -1 
1 -0 0 0 -1 
1 0 0 1 0 
1 0 0 1 0 
Curves 120
1 -50 -50 0 0 0 1 
8 0 100
1 -50 50 0 0 -1 0 
1 -50 50 0 0 0 1 
8 0 100
1 -50 -50 100 0 1 0 
1 -50 -22.836106291357552 66.137261839766339 0 -0.99560407190966627 -0.093661795823549082 
1 -50 -16.45019134115979 68.298055346373843 0 -0.99996179582846212 -0.0087411031064256288 
1 -50 10.750533858022411 15.874737595058763 0 -0.029539376176984208 0.99956361741265609 
1 -50 -21.2473543508126 34.155090174385599 -0 0.99221821227748996 -0.1245111208883042 
1 -50 -6.156517485307611 33.263923126525761 -0 0.50233711377507118 -0.86467185921835765 
1 -50 -10.528379573148394 38.487924689408572 -0 0.26033298430529545 -0.96551889535249324 
8 0 100
1 -50 -50 0 1 0 0 
8 0 100
1 50 -50 100 -1 0 0 
1 50 -50 0 0 0 1 
1 -6.156517485307611 -50 33.263923126525761 -0.50233711377507118 -0 0.86467185921835765 
1 -21.2473543508126 -50 34.155090174385599 -0.99221821227748996 -0 0.1245111208883042 
1 10.750533858022411 -50 15.874737595058763 0.029539376176984208 0 -0.99956361741265609 
1 -16.45019134115979 -50 68.298055346373843 0.99996179582846212 0 0.0087411031064256288 
1 -22.836106291357552 -50 66.137261839766339 0.99560407190966627 0 0.093661795823549082 
1 -10.528379573148394 -50 38.487924689408572 -0.26033298430529545 -0 0.96551889535249324 
8 0 100
1 50 -50 100 0 1 0 
8 0 100
1 50 50 100 -1 0 0 
1 -50 -41.5 100 1 0 -0 
1 -48 -41.5 100 -0 1 0 
1 -50 41.5 100 1 0 -0 
1 -41.5 41.5 100 -0 1 0 
1 -41.5 48 100 1 0 -0 
1 41.5 41.5 100 -0 1 0 
1 41.5 41.5 100 1 0 -0 
1 48 -41.5 100 -0 1 0 
1 41.5 -41.5 100 1 0 -0 
1 41.5 -50 100 -0 1 0 
1 -41.5 -48 100 1 0 -0 
1 -41.5 -50 100 -0 1 0 
8 0 100
1 50 50 0 0 -1 0 
8 0 100
1 -50 50 0 1 0 0 
1 -50 -41.5 0 1 0 -0 
1 -48 -41.5 0 -0 1 0 
1 -50 41.5 0 1 0 -0 
1 -41.5 41.5 0 -0 1 0 
1 -41.5 48 0 1 0 -0 
1 41.5 41.5 0 -0 1 0 
1 41.5 41.5 0 1 0 -0 
1 48 -41.5 0 -0 1 0 
1 41.5 -41.5 0 1 0 -0 
1 41.5 -50 0 -0 1 0 
1 -41.5 -48 0 1 0 -0 
1 -41.5 -50 0 -0 1 0 
1 -41.5 -41.5 0 0 0 1 
1 -48 -41.5 0 0 0 1 
1 -41.5 -48 0 0 0 1 
1 -48 -10.528379573148394 38.487924689408572 -0 0.26033298430529545 -0.96551889535249324 
1 -45 -11.686262144904072 42.78226143898619 -1 1.1102230246251565e-16 0 
1 -45 -18.103518592458652 66.582481656837899 -1 1.1102230246251565e-16 0 
1 -48 -6.156517485307611 33.263923126525761 -0 0.50233711377507118 -0.86467185921835765 
1 -45 -5.5282808984959839 32.18254075868694 -1 1.1102230246251565e-16 0 
1 -48 -21.2473543508126 34.155090174385599 -0 0.99221821227748996 -0.1245111208883042 
1 -45 10.327401141563703 30.192848653837459 -1 1.1102230246251565e-16 0 
1 -48 10.750533858022411 15.874737595058763 0 -0.029539376176984208 0.99956361741265609 
1 -45 9.1946808757155782 68.522228382917802 -1 1.1102230246251565e-16 0 
1 -48 -16.45019134115979 68.298055346373843 0 -0.99996179582846212 -0.0087411031064256288 
1 -45 1.8313617981448558 68.457862392605904 -1 1.1102230246251565e-16 0 
1 -48 -22.836106291357552 66.137261839766339 0 -0.99560407190966627 -0.093661795823549082 
1 -11.686262144904072 -53 42.78226143898619 0 1 0 
1 -10.528379573148394 -48 38.487924689408572 -0.26033298430529545 -0 0.96551889535249324 
1 -18.103518592458652 -53 66.582481656837899 0 1 0 
1 -22.836106291357552 -48 66.137261839766339 0.99560407190966627 0 0.093661795823549082 
1 1.8313617981448562 -53 68.457862392605904 0 1 0 
1 -16.45019134115979 -48 68.298055346373843 0.99996179582846212 0 0.0087411031064256288 
1 9.1946808757155782 -53 68.522228382917802 0 1 0 
1 10.750533858022411 -48 15.874737595058763 0.029539376176984208 0 -0.99956361741265609 
1 10.327401141563703 -53 30.192848653837459 0 1 0 
1 -21.2473543508126 -48 34.155090174385599 -0.99221821227748996 -0 0.1245111208883042 
1 -5.5282808984959839 -53 32.18254075868694 0 1 0 
1 -6.156517485307611 -48 33.263923126525761 -0.50233711377507118 -0 0.86467185921835765 
1 -48 41.5 0 0 0 1 
1 41.5 -48 0 0 0 1 
1 50 50 0 0 0 1 
1 -6.156517485307611 50 33.263923126525761 -0.50233711377507118 -0 0.86467185921835765 
1 -21.2473543508126 50 34.155090174385599 -0.99221821227748996 -0 0.1245111208883042 
1 10.750533858022411 50 15.874737595058763 0.029539376176984208 0 -0.99956361741265609 
1 -16.45019134115979 50 68.298055346373843 0.99996179582846212 0 0.0087411031064256288 
1 -22.836106291357552 50 66.137261839766339 0.99560407190966627 0 0.093661795823549082 
1 -10.528379573148394 50 38.487924689408572 -0.26033298430529545 -0 0.96551889535249324 
1 50 -22.836106291357552 66.137261839766339 0 -0.99560407190966627 -0.093661795823549082 
1 50 -16.45019134115979 68.298055346373843 0 -0.99996179582846212 -0.0087411031064256288 
1 50 10.750533858022408 15.874737595058763 0 -0.029539376176984208 0.99956361741265609 
1 50 -21.2473543508126 34.155090174385599 -0 0.99221821227748996 -0.1245111208883042 
1 50 -6.156517485307611 33.263923126525761 -0 0.50233711377507118 -0.86467185921835765 
1 50 -10.528379573148394 38.487924689408572 -0 0.26033298430529545 -0.96551889535249324 
1 -41.5 48 0 0 0 1 
1 -41.5 41.5 0 0 0 1 
1 41.5 -41.5 0 0 0 1 
1 48 -41.5 0 0 0 1 
1 41.5 48 0 0 0 1 
1 -10.528379573148394 48 38.487924689408572 -0.26033298430529545 -0 0.96551889535249324 
1 -22.836106291357552 48 66.137261839766339 0.99560407190966627 0 0.093661795823549082 
1 -16.45019134115979 48 68.298055346373843 0.99996179582846212 0 0.0087411031064256288 
1 10.750533858022411 48 15.874737595058763 0.029539376176984208 0 -0.99956361741265609 
1 -21.2473543508126 48 34.155090174385599 -0.99221821227748996 -0 0.1245111208883042 
1 -6.156517485307611 48 33.263923126525761 -0.50233711377507118 -0 0.86467185921835765 
1 48 41.5 0 0 0 1 
1 48 -10.528379573148394 38.487924689408572 -0 0.26033298430529545 -0.96551889535249324 
1 48 -6.156517485307611 33.263923126525761 -0 0.50233711377507118 -0.86467185921835765 
1 48 -21.2473543508126 34.155090174385599 -0 0.99221821227748996 -0.1245111208883042 
1 48 10.750533858022408 15.874737595058763 0 -0.029539376176984208 0.99956361741265609 
1 48 -16.45019134115979 68.298055346373843 0 -0.99996179582846212 -0.0087411031064256288 
1 48 -22.836106291357552 66.137261839766339 0 -0.99560407190966627 -0.093661795823549082 
1 -11.686262144904072 45 42.78226143898619 0 1 0 
1 -18.103518592458652 45 66.582481656837899 0 1 0 
1 1.8313617981448562 45 68.457862392605904 0 1 0 
1 9.1946808757155782 45 68.522228382917802 0 1 0 
1 10.327401141563703 45 30.192848653837459 0 1 0 
1 -5.5282808984959839 45 32.18254075868694 0 1 0 
1 53 -11.686262144904072 42.78226143898619 -1 1.1102230246251565e-16 0 
1 53 -18.103518592458652 66.582481656837899 -1 1.1102230246251565e-16 0 
1 53 -5.5282808984959839 32.18254075868694 -1 1.1102230246251565e-16 0 
1 53 10.327401141563703 30.192848653837459 -1 1.1102230246251565e-16 0 
1 53 9.1946808757155782 68.522228382917802 -1 1.1102230246251565e-16 0 
1 53 1.8313617981448558 68.457862392605904 -1 1.1102230246251565e-16 0 
1 41.5 41.5 0 0 0 1 
Polygon3D 0
PolygonOnTriangulations 0
Surfaces 78
1 -50 -50 0 1 0 -0 0 0 1 0 -1 0 
1 -50 -50 0 1 0 -0 0 0 1 0 -1 0 
1 -50 -50 0 -0 1 0 0 0 1 1 0 -0 
1 -50 -50 0 -0 1 0 0 0 1 1 0 -0 
1 -50 -50 0 0 0 1 1 0 -0 -0 1 0 
1 -50 41.5 0 1 0 -0 0 0 1 0 -1 0 
1 -50 50 0 -0 1 0 0 0 1 1 0 -0 
1 -50 50 0 -0 1 0 0 0 1 1 0 -0 
1 -50 -50 100 0 0 1 1 0 -0 -0 1 0 
1 -50 -41.5 0 1 0 -0 0 0 1 0 -1 0 
1 -45 1.8313617981448558 68.457862392605904 -1.0398548225104452e-17 -0.093661795823549082 0.99560407190966627 -1.1053425640446715e-16 -0.99560407190966627 -0.093661795823549082 1 -1.1102230246251565e-16 0 
1 -45 9.1946808757155782 68.522228382917802 -9.7045739293762132e-19 -0.0087411031064256288 0.99996179582846212 -1.1101806094742785e-16 -0.99996179582846212 -0.0087411031064256288 1 -1.1102230246251565e-16 0 
1 -45 10.327401141563703 30.192848653837459 1.1097385426291418e-16 0.99956361741265609 0.029539376176984208 -3.27952955647517e-18 -0.029539376176984208 0.99956361741265609 1 -1.1102230246251565e-16 0 
1 -45 -5.5282808984959839 32.18254075868694 -1.3823511323208159e-17 -0.1245111208883042 -0.99221821227748996 1.1015835047228805e-16 0.99221821227748996 -0.1245111208883042 1 -1.1102230246251565e-16 0 
1 -45 -11.686262144904072 42.78226143898619 -9.5997860684966258e-17 -0.86467185921835765 -0.50233711377507118 5.5770622983683091e-17 0.50233711377507118 -0.86467185921835765 1 -1.1102230246251565e-16 0 
1 -45 -18.103518592458652 66.582481656837899 -1.071941308330985e-16 -0.96551889535249324 -0.26033298430529545 2.8902767324511852e-17 0.26033298430529545 -0.96551889535249324 1 -1.1102230246251565e-16 0 
1 50 -50 0 1 0 -0 0 0 1 0 -1 0 
1 41.5 -50 0 -0 1 0 0 0 1 1 0 -0 
1 50 -50 0 1 0 -0 0 0 1 0 -1 0 
1 -41.5 -50 0 -0 1 0 0 0 1 1 0 -0 
1 -11.686262144904072 -53 42.78226143898619 -0.86467185921835765 0 -0.50233711377507118 0.50233711377507118 0 -0.86467185921835765 0 -1 -0 
1 -5.5282808984959839 -53 32.18254075868694 -0.1245111208883042 0 -0.99221821227748996 0.99221821227748996 0 -0.1245111208883042 0 -1 -0 
1 10.327401141563703 -53 30.192848653837459 0.99956361741265609 -0 0.029539376176984208 -0.029539376176984208 0 0.99956361741265609 -0 -1 0 
1 9.1946808757155782 -53 68.522228382917802 -0.0087411031064256288 0 0.99996179582846212 -0.99996179582846212 0 -0.0087411031064256288 -0 -1 0 
1 1.8313617981448562 -53 68.457862392605904 -0.093661795823549082 0 0.99560407190966627 -0.99560407190966627 0 -0.093661795823549082 -0 -1 0 
1 -18.103518592458652 -53 66.582481656837899 -0.96551889535249324 0 -0.26033298430529545 0.26033298430529545 0 -0.96551889535249324 0 -1 -0 
1 -50 -41.5 0 -0 1 0 0 0 1 1 0 -0 
1 -50 -50 100 0 0 1 1 0 -0 -0 1 0 
1 -48 -41.5 0 1 0 -0 0 0 1 0 -1 0 
1 -50 -41.5 100 0 0 1 1 0 -0 -0 1 0 
1 -50 41.5 0 -0 1 0 0 0 1 1 0 -0 
1 -50 41.5 100 0 0 1 1 0 -0 -0 1 0 
1 -41.5 41.5 0 1 0 -0 0 0 1 0 -1 0 
1 -41.5 48 0 -0 1 0 0 0 1 1 0 -0 
1 -41.5 48 100 0 0 1 1 0 -0 -0 1 0 
1 41.5 41.5 0 1 0 -0 0 0 1 0 -1 0 
1 41.5 41.5 100 0 0 1 1 0 -0 -0 1 0 
1 41.5 41.5 0 -0 1 0 0 0 1 1 0 -0 
1 48 -41.5 0 1 0 -0 0 0 1 0 -1 0 
1 48 -41.5 100 0 0 1 1 0 -0 -0 1 0 
1 41.5 -41.5 0 -0 1 0 0 0 1 1 0 -0 
1 41.5 -50 100 0 0 1 1 0 -0 -0 1 0 
1 41.5 -50 0 1 0 -0 0 0 1 0 -1 0 
1 -41.5 -48 0 -0 1 0 0 0 1 1 0 -0 
1 -41.5 -50 100 0 0 1 1 0 -0 -0 1 0 
1 -41.5 -50 0 1 0 -0 0 0 1 0 -1 0 
1 -50 -50 0 0 0 1 1 0 -0 -0 1 0 
1 -50 -41.5 0 0 0 1 1 0 -0 -0 1 0 
1 -50 41.5 0 0 0 1 1 0 -0 -0 1 0 
1 -41.5 48 0 0 0 1 1 0 -0 -0 1 0 
1 41.5 41.5 0 0 0 1 1 0 -0 -0 1 0 
1 48 -41.5 0 0 0 1 1 0 -0 -0 1 0 
1 41.5 -50 0 0 0 1 1 0 -0 -0 1 0 
1 -41.5 -50 0 0 0 1 1 0 -0 -0 1 0 
1 -50 -41.5 0 -0 1 0 0 0 1 1 0 -0 
1 -41.5 -50 0 1 0 -0 0 0 1 0 -1 0 
1 -50 41.5 0 -0 1 0 0 0 1 1 0 -0 
1 41.5 -50 0 1 0 -0 0 0 1 0 -1 0 
1 50 41.5 0 1 0 -0 0 0 1 0 -1 0 
1 41.5 50 0 -0 1 0 0 0 1 1 0 -0 
1 -41.5 50 0 -0 1 0 0 0 1 1 0 -0 
1 -11.686262144904072 45 42.78226143898619 -0.86467185921835765 0 -0.50233711377507118 0.50233711377507118 0 -0.86467185921835765 0 -1 -0 
1 -5.5282808984959839 45 32.18254075868694 -0.1245111208883042 0 -0.99221821227748996 0.99221821227748996 0 -0.1245111208883042 0 -1 -0 
1 10.327401141563703 45 30.192848653837459 0.99956361741265609 -0 0.029539376176984208 -0.029539376176984208 0 0.99956361741265609 -0 -1 0 
1 9.1946808757155782 45 68.522228382917802 -0.0087411031064256288 0 0.99996179582846212 -0.99996179582846212 0 -0.0087411031064256288 -0 -1 0 
1 1.8313617981448562 45 68.457862392605904 -0.093661795823549082 0 0.99560407190966627 -0.99560407190966627 0 -0.093661795823549082 -0 -1 0 
1 -18.103518592458652 45 66.582481656837899 -0.96551889535249324 0 -0.26033298430529545 0.26033298430529545 0 -0.96551889535249324 0 -1 -0 
1 50 -41.5 0 1 0 -0 0 0 1 0 -1 0 
1 53 1.8313617981448558 68.457862392605904 -1.0398548225104452e-17 -0.093661795823549082 0.99560407190966627 -1.1053425640446715e-16 -0.99560407190966627 -0.093661795823549082 1 -1.1102230246251565e-16 0 
1 53 9.1946808757155782 68.522228382917802 -9.7045739293762132e-19 -0.0087411031064256288 0.99996179582846212 -1.1101806094742785e-16 -0.99996179582846212 -0.0087411031064256288 1 -1.1102230246251565e-16 0 
1 53 10.327401141563703 30.192848653837459 1.1097385426291418e-16 0.99956361741265609 0.029539376176984208 -3.27952955647517e-18 -0.029539376176984208 0.99956361741265609 1 -1.1102230246251565e-16 0 
1 53 -5.5282808984959839 32.18254075868694 -1.3823511323208159e-17 -0.1245111208883042 -0.99221821227748996 1.1015835047228805e-16 0.99221821227748996 -0.1245111208883042 1 -1.1102230246251565e-16 0 
1 53 -11.686262144904072 42.78226143898619 -9.5997860684966258e-17 -0.86467185921835765 -0.50233711377507118 5.5770622983683091e-17 0.50233711377507118 -0.86467185921835765 1 -1.1102230246251565e-16 0 
1 53 -18.103518592458652 66.582481656837899 -1.071941308330985e-16 -0.96551889535249324 -0.26033298430529545 2.8902767324511852e-17 0.26033298430529545 -0.96551889535249324 1 -1.1102230246251565e-16 0 
1 -41.5 48 0 1 0 -0 0 0 1 0 -1 0 
1 48 -41.5 0 -0 1 0 0 0 1 1 0 -0 
1 41.5 48 0 1 0 -0 0 0 1 0 -1 0 
1 48 41.5 0 -0 1 0 0 0 1 1 0 -0 
Triangulations 0

TShapes 297
Ve
1e-07
-50 -50 100
0 0

0101101
*
Ve
1e-07
-50 -50 0
0 0

0101101
*
Ed
 1e-07 1 1 0
1  1 0 0 100
2  1 2 0 0 100
2  2 3 0 0 100
2  3 1 0 0 100
2  4 4 0 0 100
0

0101000
-297 0 +296 0 *
Ve
1e-07
-50 50 0
0 0

0101101
*
Ed
 1e-07 1 1 0
1  2 0 0 100
2  5 1 0 0 100
2  6 5 0 0 100
0

0101000
+294 0 -296 0 *
Ve
1e-07
-50 50 100
0 0

0101101
*
Ed
 1e-07 1 1 0
1  3 0 0 100
2  7 6 0 0 100
2  8 7 0 0 100
2  9 2 0 0 100
2  10 1 0 0 100
2  11 8 0 0 100
0

0101000
-292 0 +294 0 *
Ed
 1e-07 1 1 0
1  4 0 0 100
2  12 1 0 0 100
2  13 9 0 0 100
0

0101000
+297 0 -292 0 *
Wi

0101100
-295 0 -293 0 +291 0 -290 0 *
Ve
1.50000015177199e-07
-50 1.83136179814486 68.4578623926059
0 0

0101101
*
Ve
1.50000014648214e-07
-50 -18.1035185924587 66.5824816568379
0 0

0101101
*
Ed
 1.5e-07 1 1 0
1  5 0 -24.7763832887784 -4.75348367129649
2  14 10 0 -24.7763832887784 -4.75348367129649
2  15 11 0 -24.7763832887784 -4.75348367129649
2  16 2 0 -24.7763832887784 -4.75348367129649
2  17 1 0 -24.7763832887784 -4.75348367129649
0

0101000
+288 0 -287 0 *
Ve
1.50000016758117e-07
-50 9.19468087571558 68.5222283829178
0 0

0101101
*
Ed
 1.5e-07 1 1 0
1  6 0 -25.6458519954042 -18.2822515975808
2  18 10 0 -25.6458519954042 -18.2822515975808
2  19 12 0 -25.6458519954042 -18.2822515975808
2  20 2 0 -25.6458519954042 -18.2822515975808
2  21 1 0 -25.6458519954042 -18.2822515975808
0

0101000
+285 0 -288 0 *
Ve
1.50000008881784e-07
-50 10.3274011415637 30.1928486538375
0 0

0101101
*
Ed
 1.5e-07 1 1 0
1  7 0 14.3243619609133 52.6704752661323
2  22 10 0 14.3243619609133 52.6704752661323
2  23 13 0 14.3243619609133 52.6704752661323
2  24 2 0 14.3243619609133 52.6704752661323
2  25 1 0 14.3243619609133 52.6704752661323
0

0101000
+283 0 -285 0 *
Ve
1.500000075886e-07
-50 -5.52828089849598 32.1825407586869
0 0

0101101
*
Ed
 1.5e-07 1 1 0
1  8 0 15.8423552982724 31.8223905806981
2  26 10 0 15.8423552982724 31.8223905806981
2  27 14 0 15.8423552982724 31.8223905806981
2  28 2 0 15.8423552982724 31.8223905806981
2  29 1 0 15.8423552982724 31.8223905806981
0

0101000
+281 0 -283 0 *
Ve
1.50000003552714e-07
-50 -11.6862621449041 42.7822614389862
0 0

0101101
*
Ed
 1.5e-07 1 1 0
1  9 0 -11.0080352575193 1.250627456312
2  30 10 0 -11.0080352575193 1.250627456312
2  31 15 0 -11.0080352575193 1.250627456312
2  32 2 0 -11.0080352575193 1.250627456312
2  33 1 0 -11.0080352575193 1.250627456312
0

0101000
+279 0 -281 0 *
Ed
 1.5e-07 1 1 0
1  10 0 -29.0978841560346 -4.44769830010404
2  34 10 0 -29.0978841560346 -4.44769830010404
2  35 16 0 -29.0978841560346 -4.44769830010404
2  36 2 0 -29.0978841560346 -4.44769830010404
2  37 1 0 -29.0978841560346 -4.44769830010404
0

0101000
+287 0 -279 0 *
Wi

0101100
-286 0 -284 0 -282 0 -280 0 -278 0 -277 0 *
Fa
0  0 1 0

0111000
+289 0 +276 0 *
Ve
1e-07
50 -50 0
0 0

0101101
*
Ed
 1e-07 1 1 0
1  11 0 0 100
2  38 5 0 0 100
2  39 4 0 0 100
0

0101000
+296 0 -274 0 *
Ve
1e-07
50 -50 100
0 0

0101101
*
Ed
 1e-07 1 1 0
1  12 0 0 100
2  40 9 0 0 100
2  41 4 0 0 100
0

0101000
+272 0 -297 0 *
Ed
 1e-07 1 1 0
1  13 0 0 100
2  42 17 0 0 100
2  43 18 0 0 100
2  44 3 0 0 100
2  45 4 0 0 100
2  46 19 0 0 100
0

0101000
-272 0 +274 0 *
Wi

0101100
-273 0 +295 0 -271 0 -270 0 *
Ve
1.50000007944109e-07
-5.52828089849598 -50 32.1825407586869
0 0

0101101
*
Ve
1.50000003552714e-07
-11.6862621449041 -50 42.7822614389862
0 0

0101101
*
Ed
 1.5e-07 1 1 0
1  14 0 -1.250627456312 11.0080352575193
2  47 20 0 -1.250627456312 11.0080352575193
2  48 21 0 -1.250627456312 11.0080352575193
2  49 3 0 -1.250627456312 11.0080352575193
2  50 4 0 -1.250627456312 11.0080352575193
0

0101000
+268 0 -267 0 *
Ve
1.50000008881784e-07
10.3274011415637 -50 30.1928486538375
0 0

0101101
*
Ed
 1.5e-07 1 1 0
1  15 0 -31.8223905806981 -15.8423552982724
2  51 20 0 -31.8223905806981 -15.8423552982724
2  52 22 0 -31.8223905806981 -15.8423552982724
2  53 3 0 -31.8223905806981 -15.8423552982724
2  54 4 0 -31.8223905806981 -15.8423552982724
0

0101000
+265 0 -268 0 *
Ve
1.50000016758117e-07
9.19468087571558 -50 68.5222283829178
0 0

0101101
*
Ed
 1.5e-07 1 1 0
1  16 0 -52.6704752661323 -14.3243619609133
2  55 20 0 -52.6704752661323 -14.3243619609133
2  56 23 0 -52.6704752661323 -14.3243619609133
2  57 3 0 -52.6704752661323 -14.3243619609133
2  58 4 0 -52.6704752661323 -14.3243619609133
0

0101000
+263 0 -265 0 *
Ve
1.50000015177199e-07
1.83136179814486 -50 68.4578623926059
0 0

0101101
*
Ed
 1.5e-07 1 1 0
1  17 0 18.2822515975808 25.6458519954042
2  59 20 0 18.2822515975808 25.6458519954042
2  60 24 0 18.2822515975808 25.6458519954042
2  61 3 0 18.2822515975808 25.6458519954042
2  62 4 0 18.2822515975808 25.6458519954042
0

0101000
+261 0 -263 0 *
Ve
1.50000014648214e-07
-18.1035185924587 -50 66.5824816568379
0 0

0101101
*
Ed
 1.5e-07 1 1 0
1  18 0 4.75348367129649 24.7763832887784
2  63 20 0 4.75348367129649 24.7763832887784
2  64 25 0 4.75348367129649 24.7763832887784
2  65 3 0 4.75348367129649 24.7763832887784
2  66 4 0 4.75348367129649 24.7763832887784
0

0101000
+259 0 -261 0 *
Ed
 1.5e-07 1 1 0
1  19 0 4.44769830010404 29.0978841560346
2  67 20 0 4.44769830010404 29.0978841560346
2  68 26 0 4.44769830010404 29.0978841560346
2  69 3 0 4.44769830010404 29.0978841560346
2  70 4 0 4.44769830010404 29.0978841560346
0

0101000
+267 0 -259 0 *
Wi

0101100
-266 0 -264 0 -262 0 -260 0 -258 0 -257 0 *
Fa
0  0 4 0

0111000
+269 0 +256 0 *
Ve
1e-07
50 50 100
0 0

0101101
*
Ed
 1e-07 1 1 0
1  20 0 0 100
2  71 9 0 0 100
2  72 19 0 0 100
0

0101000
+272 0 -254 0 *
Ed
 1e-07 1 1 0
1  21 0 0 100
2  73 9 0 0 100
2  74 8 0 0 100
0

0101000
+254 0 -292 0 *
Wi

0101100
-290 0 -271 0 +253 0 +252 0 *
Ve
1e-07
-48 -41.5 100
0 0

0101101
*
Ve
1e-07
-41.5 -41.5 100
0 0

0101101
*
Ed
 1e-07 1 1 0
1  22 0 2 8.5
2  75 27 0 2 8.5
2  76 28 0 2 8.5
2  77 9 0 2 8.5
0

0101000
+250 0 -249 0 *
Ve
1e-07
-48 41.5 100
0 0

0101101
*
Ed
 1e-07 1 1 0
1  23 0 0 83
2  78 29 0 0 83
2  79 30 0 0 83
2  80 28 0 0 83
2  81 9 0 0 83
0

0101000
-247 0 +250 0 *
Ve
1e-07
-41.5 41.5 100
0 0

0101101
*
Ed
 1e-07 1 1 0
1  24 0 2 8.5
2  82 31 0 2 8.5
2  83 32 0 2 8.5
2  84 28 0 2 8.5
2  85 9 0 2 8.5
0

0101000
+247 0 -245 0 *
Ve
1e-07
-41.5 48 100
0 0

0101101
*
Ed
 1e-07 1 1 0
1  25 0 0 6.5
2  86 33 0 0 6.5
2  87 32 0 0 6.5
2  88 28 0 0 6.5
2  89 9 0 0 6.5
0

0101000
+245 0 -243 0 *
Ve
1e-07
41.5 48 100
0 0

0101101
*
Ed
 1e-07 1 1 0
1  26 0 0 83
2  90 34 0 0 83
2  91 35 0 0 83
2  92 28 0 0 83
2  93 9 0 0 83
0

0101000
-241 0 +243 0 *
Ve
1e-07
41.5 41.5 100
0 0

0101101
*
Ed
 1e-07 1 1 0
1  27 0 0 6.5
2  94 36 0 0 6.5
2  95 37 0 0 6.5
2  96 28 0 0 6.5
2  97 9 0 0 6.5
0

0101000
+239 0 -241 0 *
Ve
1e-07
48 41.5 100
0 0

0101101
*
Ed
 1e-07 1 1 0
1  28 0 0 6.5
2  98 38 0 0 6.5
2  99 37 0 0 6.5
2  100 28 0 0 6.5
2  101 9 0 0 6.5
0

0101000
+239 0 -237 0 *
Ve
1e-07
48 -41.5 100
0 0

0101101
*
Ed
 1e-07 1 1 0
1  29 0 0 83
2  102 39 0 0 83
2  103 40 0 0 83
2  104 28 0 0 83
2  105 9 0 0 83
0

0101000
-237 0 +235 0 *
Ve
1e-07
41.5 -41.5 100
0 0

0101101
*
Ed
 1e-07 1 1 0
1  30 0 0 6.5
2  106 41 0 0 6.5
2  107 42 0 0 6.5
2  108 28 0 0 6.5
2  109 9 0 0 6.5
0

0101000
+233 0 -235 0 *
Ve
1e-07
41.5 -48 100
0 0

0101101
*
Ed
 1e-07 1 1 0
1  31 0 2 8.5
2  110 43 0 2 8.5
2  111 42 0 2 8.5
2  112 28 0 2 8.5
2  113 9 0 2 8.5
0

0101000
+231 0 -233 0 *
Ve
1e-07
-41.5 -48 100
0 0

0101101
*
Ed
 1e-07 1 1 0
1  32 0 0 83
2  114 44 0 0 83
2  115 45 0 0 83
2  116 28 0 0 83
2  117 9 0 0 83
0

0101000
-231 0 +229 0 *
Ed
 1e-07 1 1 0
1  33 0 2 8.5
2  118 46 0 2 8.5
2  119 28 0 2 8.5
2  120 9 0 2 8.5
0

0101000
+229 0 -249 0 *
Wi

0101100
-248 0 +246 0 +244 0 +242 0 +240 0 -238 0 +236 0 -234 0 -232 0 -230 0 
-228 0 +227 0 *
Fa
0  0 9 0

0111000
+251 0 +226 0 *
Ve
1e-07
50 50 0
0 0

0101101
*
Ed
 1e-07 1 1 0
1  34 0 0 100
2  121 5 0 0 100
2  122 19 0 0 100
0

0101000
+224 0 -274 0 *
Ed
 1e-07 1 1 0
1  35 0 0 100
2  123 5 0 0 100
2  124 8 0 0 100
0

0101000
+294 0 -224 0 *
Wi

0101100
+273 0 -223 0 -222 0 +293 0 *
Ve
1e-07
-48 -41.5 0
0 0

0101101
*
Ve
1e-07
-41.5 -41.5 0
0 0

0101101
*
Ed
 1e-07 1 1 0
1  36 0 2 8.5
2  125 27 0 2 8.5
2  126 47 0 2 8.5
2  127 5 0 2 8.5
0

0101000
+220 0 -219 0 *
Ve
1e-07
-48 41.5 0
0 0

0101101
*
Ed
 1e-07 1 1 0
1  37 0 0 83
2  128 29 0 0 83
2  129 48 0 0 83
2  130 47 0 0 83
2  131 5 0 0 83
0

0101000
-217 0 +220 0 *
Ve
1e-07
-41.5 41.5 0
0 0

0101101
*
Ed
 1e-07 1 1 0
1  38 0 2 8.5
2  132 31 0 2 8.5
2  133 49 0 2 8.5
2  134 47 0 2 8.5
2  135 5 0 2 8.5
0

0101000
+217 0 -215 0 *
Ve
1e-07
-41.5 48 0
0 0

0101101
*
Ed
 1e-07 1 1 0
1  39 0 0 6.5
2  136 33 0 0 6.5
2  137 49 0 0 6.5
2  138 47 0 0 6.5
2  139 5 0 0 6.5
0

0101000
+215 0 -213 0 *
Ve
1e-07
41.5 48 0
0 0

0101101
*
Ed
 1e-07 1 1 0
1  40 0 0 83
2  140 34 0 0 83
2  141 50 0 0 83
2  142 47 0 0 83
2  143 5 0 0 83
0

0101000
-211 0 +213 0 *
Ve
1e-07
41.5 41.5 0
0 0

0101101
*
Ed
 1e-07 1 1 0
1  41 0 0 6.5
2  144 36 0 0 6.5
2  145 51 0 0 6.5
2  146 47 0 0 6.5
2  147 5 0 0 6.5
0

0101000
+209 0 -211 0 *
Ve
1e-07
48 41.5 0
0 0

0101101
*
Ed
 1e-07 1 1 0
1  42 0 0 6.5
2  148 38 0 0 6.5
2  149 51 0 0 6.5
2  150 47 0 0 6.5
2  151 5 0 0 6.5
0

0101000
+209 0 -207 0 *
Ve
1e-07
48 -41.5 0
0 0

0101101
*
Ed
 1e-07 1 1 0
1  43 0 0 83
2  152 39 0 0 83
2  153 52 0 0 83
2  154 47 0 0 83
2  155 5 0 0 83
0

0101000
-207 0 +205 0 *
Ve
1e-07
41.5 -41.5 0
0 0

0101101
*
Ed
 1e-07 1 1 0
1  44 0 0 6.5
2  156 41 0 0 6.5
2  157 53 0 0 6.5
2  158 47 0 0 6.5
2  159 5 0 0 6.5
0

0101000
+203 0 -205 0 *
Ve
1e-07
41.5 -48 0
0 0

0101101
*
Ed
 1e-07 1 1 0
1  45 0 2 8.5
2  160 43 0 2 8.5
2  161 53 0 2 8.5
2  162 47 0 2 8.5
2  163 5 0 2 8.5
0

0101000
+201 0 -203 0 *
Ve
1e-07
-41.5 -48 0
0 0

0101101
*
Ed
 1e-07 1 1 0
1  46 0 0 83
2  164 44 0 0 83
2  165 54 0 0 83
2  166 47 0 0 83
2  167 5 0 0 83
0

0101000
-201 0 +199 0 *
Ed
 1e-07 1 1 0
1  47 0 2 8.5
2  168 46 0 2 8.5
2  169 47 0 2 8.5
2  170 5 0 2 8.5
0

0101000
+199 0 -219 0 *
Wi

0101100
-218 0 +216 0 +214 0 +212 0 +210 0 -208 0 +206 0 -204 0 -202 0 -200 0 
-198 0 +197 0 *
Fa
0  0 5 0

0111000
+221 0 +196 0 *
Ed
 1e-07 1 1 0
1  48 0 0 100
2  171 46 0 0 100
2  172 27 0 0 100
0

0101000
-249 0 +219 0 *
Ed
 1e-07 1 1 0
1  49 0 0 100
2  173 29 0 0 100
2  174 55 0 0 100
2  175 27 0 0 100
0

0101000
-250 0 +220 0 *
Wi

0101100
-218 0 -194 0 +248 0 +193 0 *
Fa
0  1e-07 27 0

0101000
+192 0 *
Ed
 1e-07 1 1 0
1  50 0 0 100
2  176 56 0 0 100
2  177 44 0 0 100
2  178 46 0 0 100
0

0101000
-229 0 +199 0 *
Wi

0101100
-190 0 -227 0 +194 0 +197 0 *
Fa
0  1e-07 46 0

0101000
+189 0 *
Ve
1.50000014648214e-07
-48 -18.1035185924587 66.5824816568379
0 0

0101101
*
Ve
1.50000003552714e-07
-48 -11.6862621449041 42.7822614389862
0 0

0101101
*
Ed
 1.5e-07 1 1 0
1  51 0 -29.0978841560346 -4.44769830010404
2  179 29 0 -29.0978841560346 -4.44769830010404
2  180 16 0 -29.0978841560346 -4.44769830010404
0

0101000
+187 0 -186 0 *
Ed
 1e-07 1 1 0
1  52 0 3 5
2  181 16 0 3 5
2  182 15 0 3 5
0

0101000
+186 0 -279 0 *
Ed
 1e-07 1 1 0
1  53 0 3 5
2  183 16 0 3 5
2  184 11 0 3 5
0

0101000
+187 0 -287 0 *
Wi

0101100
-185 0 -184 0 +277 0 +183 0 *
Fa
0  1e-07 16 0

0101000
+182 0 *
Ve
1.50000007944109e-07
-48 -5.52828089849598 32.1825407586869
0 0

0101101
*
Ed
 1.5e-07 1 1 0
1  54 0 -11.0080352575193 1.250627456312
2  185 29 0 -11.0080352575193 1.250627456312
2  186 15 0 -11.0080352575193 1.250627456312
0

0101000
+186 0 -180 0 *
Ed
 1e-07 1 1 0
1  55 0 3 5
2  187 15 0 3 5
2  188 14 0 3 5
0

0101000
+180 0 -281 0 *
Wi

0101100
-179 0 -178 0 +278 0 +184 0 *
Fa
0  1e-07 15 0

0101000
+177 0 *
Ve
1.50000008881784e-07
-48 10.3274011415637 30.1928486538375
0 0

0101101
*
Ed
 1.5e-07 1 1 0
1  56 0 15.8423552982724 31.8223905806981
2  189 29 0 15.8423552982724 31.8223905806981
2  190 14 0 15.8423552982724 31.8223905806981
0

0101000
+180 0 -175 0 *
Ed
 1e-07 1 1 0
1  57 0 3 5
2  191 14 0 3 5
2  192 13 0 3 5
0

0101000
+175 0 -283 0 *
Wi

0101100
-174 0 -173 0 +280 0 +178 0 *
Fa
0  1e-07 14 0

0101000
+172 0 *
Ve
1.50000016758117e-07
-48 9.19468087571558 68.5222283829178
0 0

0101101
*
Ed
 1.5e-07 1 1 0
1  58 0 14.3243619609133 52.6704752661323
2  193 29 0 14.3243619609133 52.6704752661323
2  194 13 0 14.3243619609133 52.6704752661323
0

0101000
+175 0 -170 0 *
Ed
 1e-07 1 1 0
1  59 0 3 5
2  195 13 0 3 5
2  196 12 0 3 5
0

0101000
+170 0 -285 0 *
Wi

0101100
-169 0 -168 0 +282 0 +173 0 *
Fa
0  1e-07 13 0

0101000
+167 0 *
Ve
1.50000015177199e-07
-48 1.83136179814486 68.4578623926059
0 0

0101101
*
Ed
 1.5e-07 1 1 0
1  60 0 -25.6458519954042 -18.2822515975808
2  197 29 0 -25.6458519954042 -18.2822515975808
2  198 12 0 -25.6458519954042 -18.2822515975808
0

0101000
+170 0 -165 0 *
Ed
 1e-07 1 1 0
1  61 0 3 5
2  199 12 0 3 5
2  200 11 0 3 5
0

0101000
+165 0 -288 0 *
Wi

0101100
-164 0 -163 0 +284 0 +168 0 *
Fa
0  1e-07 12 0

0101000
+162 0 *
Ed
 1.5e-07 1 1 0
1  62 0 -24.7763832887784 -4.75348367129649
2  201 29 0 -24.7763832887784 -4.75348367129649
2  202 11 0 -24.7763832887784 -4.75348367129649
0

0101000
+165 0 -187 0 *
Wi

0101100
-160 0 -183 0 +286 0 +163 0 *
Fa
0  1e-07 11 0

0101000
+159 0 *
Ve
1.50000003552714e-07
-11.6862621449041 -48 42.7822614389862
0 0

0101101
*
Ed
 1e-07 1 1 0
1  63 0 3 5
2  203 26 0 3 5
2  204 21 0 3 5
0

0101000
+267 0 -157 0 *
Ve
1.50000014648214e-07
-18.1035185924587 -48 66.5824816568379
0 0

0101101
*
Ed
 1.5e-07 1 1 0
1  64 0 4.44769830010404 29.0978841560346
2  205 44 0 4.44769830010404 29.0978841560346
2  206 26 0 4.44769830010404 29.0978841560346
0

0101000
+157 0 -155 0 *
Ed
 1e-07 1 1 0
1  65 0 3 5
2  207 26 0 3 5
2  208 25 0 3 5
0

0101000
+259 0 -155 0 *
Wi

0101100
+257 0 -156 0 -154 0 +153 0 *
Fa
0  1e-07 26 0

0101000
+152 0 *
Ve
1.50000015177199e-07
1.83136179814486 -48 68.4578623926059
0 0

0101101
*
Ed
 1.5e-07 1 1 0
1  66 0 4.75348367129649 24.7763832887784
2  209 44 0 4.75348367129649 24.7763832887784
2  210 25 0 4.75348367129649 24.7763832887784
0

0101000
+155 0 -150 0 *
Ed
 1e-07 1 1 0
1  67 0 3 5
2  211 24 0 3 5
2  212 25 0 3 5
0

0101000
+261 0 -150 0 *
Wi

0101100
+258 0 -153 0 -149 0 +148 0 *
Fa
0  1e-07 25 0

0101000
+147 0 *
Ve
1.50000016758117e-07
9.19468087571558 -48 68.5222283829178
0 0

0101101
*
Ed
 1.5e-07 1 1 0
1  68 0 18.2822515975808 25.6458519954042
2  213 44 0 18.2822515975808 25.6458519954042
2  214 24 0 18.2822515975808 25.6458519954042
0

0101000
+150 0 -145 0 *
Ed
 1e-07 1 1 0
1  69 0 3 5
2  215 23 0 3 5
2  216 24 0 3 5
0

0101000
+263 0 -145 0 *
Wi

0101100
+260 0 -148 0 -144 0 +143 0 *
Fa
0  1e-07 24 0

0101000
+142 0 *
Ve
1.50000008881784e-07
10.3274011415637 -48 30.1928486538375
0 0

0101101
*
Ed
 1.5e-07 1 1 0
1  70 0 -52.6704752661323 -14.3243619609133
2  217 44 0 -52.6704752661323 -14.3243619609133
2  218 23 0 -52.6704752661323 -14.3243619609133
0

0101000
+145 0 -140 0 *
Ed
 1e-07 1 1 0
1  71 0 3 5
2  219 22 0 3 5
2  220 23 0 3 5
0

0101000
+265 0 -140 0 *
Wi

0101100
+262 0 -143 0 -139 0 +138 0 *
Fa
0  1e-07 23 0

0101000
+137 0 *
Ve
1.50000007944109e-07
-5.52828089849598 -48 32.1825407586869
0 0

0101101
*
Ed
 1.5e-07 1 1 0
1  72 0 -31.8223905806981 -15.8423552982724
2  221 44 0 -31.8223905806981 -15.8423552982724
2  222 22 0 -31.8223905806981 -15.8423552982724
0

0101000
+140 0 -135 0 *
Ed
 1e-07 1 1 0
1  73 0 3 5
2  223 21 0 3 5
2  224 22 0 3 5
0

0101000
+268 0 -135 0 *
Wi

0101100
+264 0 -138 0 -134 0 +133 0 *
Fa
0  1e-07 22 0

0101000
+132 0 *
Ed
 1.5e-07 1 1 0
1  74 0 -1.250627456312 11.0080352575193
2  225 44 0 -1.250627456312 11.0080352575193
2  226 21 0 -1.250627456312 11.0080352575193
0

0101000
+135 0 -157 0 *
Wi

0101100
+266 0 -133 0 -130 0 +156 0 *
Fa
0  1e-07 21 0

0101000
+129 0 *
Ed
 1e-07 1 1 0
1  75 0 0 100
2  227 29 0 0 100
2  228 57 0 0 100
2  229 31 0 0 100
0

0101000
-247 0 +217 0 *
Wi

0101100
-193 0 -246 0 +216 0 +127 0 *
Wi

0101100
-185 0 -179 0 -174 0 -169 0 -164 0 -160 0 *
Fa
0  1e-07 29 0

0101000
+126 0 +125 0 *
Ed
 1e-07 1 1 0
1  76 0 0 100
2  230 58 0 0 100
2  231 44 0 0 100
2  232 43 0 0 100
0

0101000
-231 0 +201 0 *
Wi

0101100
-198 0 -123 0 +190 0 +228 0 *
Wi

0101100
-154 0 -149 0 -144 0 -139 0 -134 0 -130 0 *
Fa
0  1e-07 44 0

0101000
+122 0 +121 0 *
Ed
 1e-07 1 1 0
1  77 0 0 100
2  233 59 0 0 100
2  234 60 0 0 100
2  235 7 0 0 100
2  236 17 0 0 100
2  237 19 0 0 100
2  238 8 0 0 100
0

0101000
-254 0 +224 0 *
Wi

0101100
-222 0 +291 0 -252 0 -119 0 *
Ve
1.50000007944109e-07
-5.52828089849598 50 32.1825407586869
0 0

0101101
*
Ve
1.50000003552714e-07
-11.6862621449041 50 42.7822614389862
0 0

0101101
*
Ed
 1.5e-07 1 1 0
1  78 0 -1.250627456312 11.0080352575193
2  239 61 0 -1.250627456312 11.0080352575193
2  240 62 0 -1.250627456312 11.0080352575193
2  241 7 0 -1.250627456312 11.0080352575193
2  242 8 0 -1.250627456312 11.0080352575193
0

0101000
+117 0 -116 0 *
Ve
1.50000008881784e-07
10.3274011415637 50 30.1928486538375
0 0

0101101
*
Ed
 1.5e-07 1 1 0
1  79 0 -31.8223905806981 -15.8423552982724
2  243 61 0 -31.8223905806981 -15.8423552982724
2  244 63 0 -31.8223905806981 -15.8423552982724
2  245 7 0 -31.8223905806981 -15.8423552982724
2  246 8 0 -31.8223905806981 -15.8423552982724
0

0101000
+114 0 -117 0 *
Ve
1.50000016758117e-07
9.19468087571558 50 68.5222283829178
0 0

0101101
*
Ed
 1.5e-07 1 1 0
1  80 0 -52.6704752661323 -14.3243619609133
2  247 61 0 -52.6704752661323 -14.3243619609133
2  248 64 0 -52.6704752661323 -14.3243619609133
2  249 7 0 -52.6704752661323 -14.3243619609133
2  250 8 0 -52.6704752661323 -14.3243619609133
0

0101000
+112 0 -114 0 *
Ve
1.50000015177199e-07
1.83136179814486 50 68.4578623926059
0 0

0101101
*
Ed
 1.5e-07 1 1 0
1  81 0 18.2822515975808 25.6458519954042
2  251 61 0 18.2822515975808 25.6458519954042
2  252 65 0 18.2822515975808 25.6458519954042
2  253 7 0 18.2822515975808 25.6458519954042
2  254 8 0 18.2822515975808 25.6458519954042
0

0101000
+110 0 -112 0 *
Ve
1.50000014648214e-07
-18.1035185924587 50 66.5824816568379
0 0

0101101
*
Ed
 1.5e-07 1 1 0
1  82 0 4.75348367129649 24.7763832887784
2  255 61 0 4.75348367129649 24.7763832887784
2  256 66 0 4.75348367129649 24.7763832887784
2  257 7 0 4.75348367129649 24.7763832887784
2  258 8 0 4.75348367129649 24.7763832887784
0

0101000
+108 0 -110 0 *
Ed
 1.5e-07 1 1 0
1  83 0 4.44769830010404 29.0978841560346
2  259 61 0 4.44769830010404 29.0978841560346
2  260 67 0 4.44769830010404 29.0978841560346
2  261 7 0 4.44769830010404 29.0978841560346
2  262 8 0 4.44769830010404 29.0978841560346
0

0101000
+116 0 -108 0 *
Wi

0101100
-115 0 -113 0 -111 0 -109 0 -107 0 -106 0 *
Fa
0  0 8 0

0111000
+118 0 +105 0 *
Wi

0101100
-270 0 -223 0 +119 0 -253 0 *
Ve
1.50000015177199e-07
50 1.83136179814486 68.4578623926059
0 0

0101101
*
Ve
1.50000014648214e-07
50 -18.1035185924587 66.5824816568379
0 0

0101101
*
Ed
 1.5e-07 1 1 0
1  84 0 -24.7763832887784 -4.75348367129649
2  263 68 0 -24.7763832887784 -4.75348367129649
2  264 69 0 -24.7763832887784 -4.75348367129649
2  265 17 0 -24.7763832887784 -4.75348367129649
2  266 19 0 -24.7763832887784 -4.75348367129649
0

0101000
+102 0 -101 0 *
Ve
1.50000015177199e-07
50 9.19468087571558 68.5222283829178
0 0

0101101
*
Ed
 1.5e-07 1 1 0
1  85 0 -25.6458519954042 -18.2822515975808
2  267 68 0 -25.6458519954042 -18.2822515975808
2  268 70 0 -25.6458519954042 -18.2822515975808
2  269 17 0 -25.6458519954042 -18.2822515975808
2  270 19 0 -25.6458519954042 -18.2822515975808
0

0101000
+99 0 -102 0 *
Ve
1.50000007324107e-07
50 10.3274011415637 30.1928486538375
0 0

0101101
*
Ed
 1.5e-07 1 1 0
1  86 0 14.3243619609133 52.6704752661323
2  271 68 0 14.3243619609133 52.6704752661323
2  272 71 0 14.3243619609133 52.6704752661323
2  273 17 0 14.3243619609133 52.6704752661323
2  274 19 0 14.3243619609133 52.6704752661323
0

0101000
+97 0 -99 0 *
Ve
1.50000007944109e-07
50 -5.52828089849598 32.1825407586869
0 0

0101101
*
Ed
 1.5e-07 1 1 0
1  87 0 15.8423552982724 31.8223905806981
2  275 68 0 15.8423552982724 31.8223905806981
2  276 72 0 15.8423552982724 31.8223905806981
2  277 17 0 15.8423552982724 31.8223905806981
2  278 19 0 15.8423552982724 31.8223905806981
0

0101000
+95 0 -97 0 *
Ve
1.50000003552714e-07
50 -11.6862621449041 42.7822614389862
0 0

0101101
*
Ed
 1.5e-07 1 1 0
1  88 0 -11.0080352575193 1.250627456312
2  279 68 0 -11.0080352575193 1.250627456312
2  280 73 0 -11.0080352575193 1.250627456312
2  281 17 0 -11.0080352575193 1.250627456312
2  282 19 0 -11.0080352575193 1.250627456312
0

0101000
+93 0 -95 0 *
Ed
 1.5e-07 1 1 0
1  89 0 -29.0978841560346 -4.44769830010404
2  283 68 0 -29.0978841560346 -4.44769830010404
2  284 74 0 -29.0978841560346 -4.44769830010404
2  285 17 0 -29.0978841560346 -4.44769830010404
2  286 19 0 -29.0978841560346 -4.44769830010404
0

0101000
+101 0 -93 0 *
Wi

0101100
-100 0 -98 0 -96 0 -94 0 -92 0 -91 0 *
Fa
0  0 19 0

0111000
+103 0 +90 0 *
Ed
 1e-07 1 1 0
1  90 0 0 100
2  287 75 0 0 100
2  288 34 0 0 100
2  289 33 0 0 100
0

0101000
-243 0 +213 0 *
Ed
 1e-07 1 1 0
1  91 0 0 100
2  290 33 0 0 100
2  291 31 0 0 100
0

0101000
-245 0 +215 0 *
Wi

0101100
-242 0 +88 0 +212 0 -87 0 *
Fa
0  1e-07 33 0

0101000
+86 0 *
Wi

0101100
-214 0 -87 0 +244 0 +127 0 *
Fa
0  1e-07 31 0

0101000
+84 0 *
Ed
 1e-07 1 1 0
1  92 0 0 100
2  292 43 0 0 100
2  293 41 0 0 100
0

0101000
-233 0 +203 0 *
Wi

0101100
-123 0 -230 0 +82 0 +200 0 *
Fa
0  1e-07 43 0

0101000
+81 0 *
Ed
 1e-07 1 1 0
1  93 0 0 100
2  294 39 0 0 100
2  295 76 0 0 100
2  296 41 0 0 100
0

0101000
-235 0 +205 0 *
Wi

0101100
-202 0 -79 0 +232 0 +82 0 *
Fa
0  1e-07 41 0

0101000
+78 0 *
Ed
 1e-07 1 1 0
1  94 0 0 100
2  297 77 0 0 100
2  298 34 0 0 100
2  299 36 0 0 100
0

0101000
-241 0 +211 0 *
Wi

0101100
-210 0 -76 0 +88 0 +240 0 *
Ve
1.50000003552714e-07
-11.6862621449041 48 42.7822614389862
0 0

0101101
*
Ve
1.50000014648214e-07
-18.1035185924587 48 66.5824816568379
0 0

0101101
*
Ed
 1.5e-07 1 1 0
1  95 0 4.44769830010404 29.0978841560346
2  300 34 0 4.44769830010404 29.0978841560346
2  301 67 0 4.44769830010404 29.0978841560346
0

0101000
+74 0 -73 0 *
Ve
1.50000015177199e-07
1.83136179814486 48 68.4578623926059
0 0

0101101
*
Ed
 1.5e-07 1 1 0
1  96 0 4.75348367129649 24.7763832887784
2  302 34 0 4.75348367129649 24.7763832887784
2  303 66 0 4.75348367129649 24.7763832887784
0

0101000
+73 0 -71 0 *
Ve
1.50000016758117e-07
9.19468087571558 48 68.5222283829178
0 0

0101101
*
Ed
 1.5e-07 1 1 0
1  97 0 18.2822515975808 25.6458519954042
2  304 34 0 18.2822515975808 25.6458519954042
2  305 65 0 18.2822515975808 25.6458519954042
0

0101000
+71 0 -69 0 *
Ve
1.50000008881784e-07
10.3274011415637 48 30.1928486538375
0 0

0101101
*
Ed
 1.5e-07 1 1 0
1  98 0 -52.6704752661323 -14.3243619609133
2  306 34 0 -52.6704752661323 -14.3243619609133
2  307 64 0 -52.6704752661323 -14.3243619609133
0

0101000
+69 0 -67 0 *
Ve
1.50000007944109e-07
-5.52828089849598 48 32.1825407586869
0 0

0101101
*
Ed
 1.5e-07 1 1 0
1  99 0 -31.8223905806981 -15.8423552982724
2  308 34 0 -31.8223905806981 -15.8423552982724
2  309 63 0 -31.8223905806981 -15.8423552982724
0

0101000
+67 0 -65 0 *
Ed
 1.5e-07 1 1 0
1  100 0 -1.250627456312 11.0080352575193
2  310 34 0 -1.250627456312 11.0080352575193
2  311 62 0 -1.250627456312 11.0080352575193
0

0101000
+65 0 -74 0 *
Wi

0101100
-72 0 -70 0 -68 0 -66 0 -64 0 -63 0 *
Fa
0  1e-07 34 0

0101000
+75 0 +62 0 *
Ed
 1e-07 1 1 0
1  101 0 0 100
2  312 39 0 0 100
2  313 78 0 0 100
2  314 38 0 0 100
0

0101000
-237 0 +207 0 *
Wi

0101100
-79 0 -234 0 +204 0 +60 0 *
Ve
1.50000014648214e-07
48 -18.1035185924587 66.5824816568379
0 0

0101101
*
Ve
1.50000003552714e-07
48 -11.6862621449041 42.7822614389862
0 0

0101101
*
Ed
 1.5e-07 1 1 0
1  102 0 -29.0978841560346 -4.44769830010404
2  315 39 0 -29.0978841560346 -4.44769830010404
2  316 74 0 -29.0978841560346 -4.44769830010404
0

0101000
+58 0 -57 0 *
Ve
1.500000075886e-07
48 -5.52828089849598 32.1825407586869
0 0

0101101
*
Ed
 1.5e-07 1 1 0
1  103 0 -11.0080352575193 1.250627456312
2  317 39 0 -11.0080352575193 1.250627456312
2  318 73 0 -11.0080352575193 1.250627456312
0

0101000
+57 0 -55 0 *
Ve
1.50000007324107e-07
48 10.3274011415637 30.1928486538375
0 0

0101101
*
Ed
 1.5e-07 1 1 0
1  104 0 15.8423552982724 31.8223905806981
2  319 39 0 15.8423552982724 31.8223905806981
2  320 72 0 15.8423552982724 31.8223905806981
0

0101000
+55 0 -53 0 *
Ve
1.50000015177199e-07
48 9.19468087571558 68.5222283829178
0 0

0101101
*
Ed
 1.5e-07 1 1 0
1  105 0 14.3243619609133 52.6704752661323
2  321 39 0 14.3243619609133 52.6704752661323
2  322 71 0 14.3243619609133 52.6704752661323
0

0101000
+53 0 -51 0 *
Ve
1.50000015177199e-07
48 1.83136179814486 68.4578623926059
0 0

0101101
*
Ed
 1.5e-07 1 1 0
1  106 0 -25.6458519954042 -18.2822515975808
2  323 39 0 -25.6458519954042 -18.2822515975808
2  324 70 0 -25.6458519954042 -18.2822515975808
0

0101000
+51 0 -49 0 *
Ed
 1.5e-07 1 1 0
1  107 0 -24.7763832887784 -4.75348367129649
2  325 39 0 -24.7763832887784 -4.75348367129649
2  326 69 0 -24.7763832887784 -4.75348367129649
0

0101000
+49 0 -58 0 *
Wi

0101100
-56 0 -54 0 -52 0 -50 0 -48 0 -47 0 *
Fa
0  1e-07 39 0

0101000
+59 0 +46 0 *
Ed
 1e-07 1 1 0
1  108 0 3 5
2  327 67 0 3 5
2  328 62 0 3 5
0

0101000
+74 0 -116 0 *
Ed
 1e-07 1 1 0
1  109 0 3 5
2  329 67 0 3 5
2  330 66 0 3 5
0

0101000
+73 0 -108 0 *
Wi

0101100
+72 0 -44 0 -106 0 +43 0 *
Fa
0  1e-07 67 0

0101000
+42 0 *
Ed
 1e-07 1 1 0
1  110 0 3 5
2  331 65 0 3 5
2  332 66 0 3 5
0

0101000
+71 0 -110 0 *
Wi

0101100
+70 0 -43 0 -107 0 +40 0 *
Fa
0  1e-07 66 0

0101000
+39 0 *
Ed
 1e-07 1 1 0
1  111 0 3 5
2  333 64 0 3 5
2  334 65 0 3 5
0

0101000
+69 0 -112 0 *
Wi

0101100
+68 0 -40 0 -109 0 +37 0 *
Fa
0  1e-07 65 0

0101000
+36 0 *
Ed
 1e-07 1 1 0
1  112 0 3 5
2  335 63 0 3 5
2  336 64 0 3 5
0

0101000
+67 0 -114 0 *
Wi

0101100
+66 0 -37 0 -111 0 +34 0 *
Fa
0  1e-07 64 0

0101000
+33 0 *
Ed
 1e-07 1 1 0
1  113 0 3 5
2  337 62 0 3 5
2  338 63 0 3 5
0

0101000
+65 0 -117 0 *
Wi

0101100
+64 0 -34 0 -113 0 +31 0 *
Fa
0  1e-07 63 0

0101000
+30 0 *
Wi

0101100
+63 0 -31 0 -115 0 +44 0 *
Fa
0  1e-07 62 0

0101000
+28 0 *
Ed
 1e-07 1 1 0
1  114 0 3 5
2  339 74 0 3 5
2  340 73 0 3 5
0

0101000
+93 0 -57 0 *
Ed
 1e-07 1 1 0
1  115 0 3 5
2  341 74 0 3 5
2  342 69 0 3 5
0

0101000
+101 0 -58 0 *
Wi

0101100
-91 0 -26 0 +56 0 +25 0 *
Fa
0  1e-07 74 0

0101000
+24 0 *
Ed
 1e-07 1 1 0
1  116 0 3 5
2  343 73 0 3 5
2  344 72 0 3 5
0

0101000
+95 0 -55 0 *
Wi

0101100
-92 0 -22 0 +54 0 +26 0 *
Fa
0  1e-07 73 0

0101000
+21 0 *
Ed
 1e-07 1 1 0
1  117 0 3 5
2  345 72 0 3 5
2  346 71 0 3 5
0

0101000
+97 0 -53 0 *
Wi

0101100
-94 0 -19 0 +52 0 +22 0 *
Fa
0  1e-07 72 0

0101000
+18 0 *
Ed
 1e-07 1 1 0
1  118 0 3 5
2  347 71 0 3 5
2  348 70 0 3 5
0

0101000
+99 0 -51 0 *
Wi

0101100
-96 0 -16 0 +50 0 +19 0 *
Fa
0  1e-07 71 0

0101000
+15 0 *
Ed
 1e-07 1 1 0
1  119 0 3 5
2  349 70 0 3 5
2  350 69 0 3 5
0

0101000
+102 0 -49 0 *
Wi

0101100
-98 0 -13 0 +48 0 +16 0 *
Fa
0  1e-07 70 0

0101000
+12 0 *
Wi

0101100
-100 0 -25 0 +47 0 +13 0 *
Fa
0  1e-07 69 0

0101000
+10 0 *
Ed
 1e-07 1 1 0
1  120 0 0 100
2  351 36 0 0 100
2  352 38 0 0 100
0

0101000
-239 0 +209 0 *
Wi

0101100
-238 0 +76 0 +208 0 -8 0 *
Fa
0  1e-07 36 0

0101000
+7 0 *
Wi

0101100
-206 0 -60 0 +236 0 +8 0 *
Fa
0  1e-07 38 0

0101000
+5 0 *
Sh

0101100
-275 0 -255 0 +225 0 -195 0 +191 0 +188 0 -181 0 -176 0 -171 0 -166 0 
-161 0 -158 0 -151 0 -146 0 -141 0 -136 0 -131 0 -128 0 +124 0 +120 0 
+104 0 +89 0 +85 0 -83 0 -80 0 +77 0 -61 0 -45 0 -41 0 -38 0 
-35 0 -32 0 -29 0 -27 0 -23 0 -20 0 -17 0 -14 0 -11 0 -9 0 
-6 0 -4 0 *
So

0100000
+3 0 *
Co

1100000
+2 0 *

+1 0 