DBRep_DrawableShape

CASCADE Topology V1, (c) Matra-Datavision
Locations 0
Curve2ds 384
1 0 0 1 0 
1 0 0 1 0 
1 0 0 1 0 
1 0 0 1 0 
1 0 -100 0 1 
1 0 100 0 -1 
1 0 -8.5 1 0 
1 0 0 1 0 
1 0 -100 1 0 
1 0 -100 1 0 
1 0 0 1 0 
1 100 0 0 -1 
1 0 0 0 1 
8 -27.860574685333141 -14.230329800225215
1 22.878209095589597 -28.190680842403449 -0.98143280401225452 0.19180628563382293 
8 -27.860574685333141 -14.230329800225215
1 27.860574685333141 -4.9999999999999991 1 2.1294775457849961e-17 
1 22.878209095589597 -36.690680842403452 -0.98143280401225452 0.19180628563382293 
1 22.878209095589597 -36.690680842403452 -0.98143280401225452 0.19180628563382293 
8 -41.054832214586902 -16.562420183424472
1 34.325403733806255 -28.883904444409573 -0.95976838653757557 0.28079288488681303 
8 -41.054832214586902 -16.562420183424472
1 41.054832214586902 -4.9999999999999991 1 3.1174272595226097e-17 
1 34.325403733806255 -37.383904444409573 -0.95976838653757557 0.28079288488681303 
1 34.325403733806255 -37.383904444409573 -0.95976838653757557 0.28079288488681303 
8 -28.28781803858751 -10.580329191186497
1 73.948798421964511 -29.833773046712352 0.020818313874087651 0.99978327541894807 
8 -28.28781803858751 -10.580329191186497
1 28.28781803858751 -4.9999999999999964 1 1.1099824120052702e-16 
1 73.948798421964511 -38.333773046712352 0.020818313874087651 0.99978327541894807 
1 73.948798421964511 -38.333773046712352 0.020818313874087651 0.99978327541894807 
8 27.320420181776459 33.611480675736239
1 40.365157581326656 -64.524751999845137 0.98165077832218173 0.19068757017554894 
8 27.320420181776459 33.611480675736239
1 -27.320420181776459 -5.0000000000000009 1 2.1170573091871973e-17 
1 40.365157581326656 -73.024751999845137 0.98165077832218173 0.19068757017554894 
1 40.365157581326656 -73.024751999845137 0.98165077832218173 0.19068757017554894 
8 29.790214869468954 39.919374346244368
1 27.302950499539794 -57.572429263481851 0.99904669024625681 -0.043654446600545245 
8 29.790214869468954 39.919374346244368
1 -29.790214869468954 -5 1 -4.8466171743194725e-18 
1 27.302950499539794 -66.072429263481851 0.99904669024625681 -0.043654446600545245 
1 27.302950499539794 -66.072429263481851 0.99904669024625681 -0.043654446600545245 
8 22.936649478414651 43.03438497641028
1 14.616498868328136 -51.794564254122768 0.9863802450423742 -0.16448103899886443 
8 22.936649478414651 43.03438497641028
1 -22.936649478414651 -5 1 -1.8261063661080757e-17 
1 14.616498868328136 -60.294564254122768 0.9863802450423742 -0.16448103899886443 
1 14.616498868328136 -60.294564254122768 0.9863802450423742 -0.16448103899886443 
8 15.754346927843368 40.404595596259739
1 36.590953820523964 -15.167838129769244 0.016082402785736992 -0.99987066979716799 
8 15.754346927843368 40.404595596259739
1 -15.754346927843368 -4.9999999999999982 1 -1.110079439256193e-16 
1 36.590953820523964 -23.667838129769244 0.016082402785736992 -0.99987066979716799 
1 36.590953820523964 -23.667838129769244 0.016082402785736992 -0.99987066979716799 
1 0 0 1 0 
1 0 0 0 1 
1 100 0 -1 0 
1 100 100 0 -1 
1 0 0 1 0 
1 0 8.5 1 0 
1 0 100 1 0 
1 0 100 1 0 
1 0 0 1 0 
8 -43.03438497641028 -22.936649478414651
1 14.616498868328136 51.794564254122768 -0.9863802450423742 -0.16448103899886443 
8 -43.03438497641028 -22.936649478414651
1 -22.936649478414651 -3 -1 -0 
1 14.616498868328136 60.294564254122768 -0.9863802450423742 -0.16448103899886443 
1 14.616498868328136 60.294564254122768 -0.9863802450423742 -0.16448103899886443 
8 -39.919374346244368 -29.790214869468954
1 27.302950499539794 57.572429263481851 -0.99904669024625681 -0.043654446600545245 
8 -39.919374346244368 -29.790214869468954
1 -29.790214869468954 -3 -1 -0 
1 27.302950499539794 66.072429263481851 -0.99904669024625681 -0.043654446600545245 
1 27.302950499539794 66.072429263481851 -0.99904669024625681 -0.043654446600545245 
8 -33.611480675736239 -27.320420181776459
1 40.365157581326656 64.524751999845137 -0.98165077832218173 0.19068757017554894 
8 -33.611480675736239 -27.320420181776459
1 -27.320420181776459 -3 -1 -0 
1 40.365157581326656 73.024751999845137 -0.98165077832218173 0.19068757017554894 
1 40.365157581326656 73.024751999845137 -0.98165077832218173 0.19068757017554894 
8 10.580329191186497 28.28781803858751
1 73.948798421964511 29.833773046712352 -0.020818313874087651 0.99978327541894807 
8 10.580329191186497 28.28781803858751
1 28.28781803858751 -3 -1 -0 
1 73.948798421964511 38.333773046712352 -0.020818313874087651 0.99978327541894807 
1 73.948798421964511 38.333773046712352 -0.020818313874087651 0.99978327541894807 
8 16.562420183424472 41.054832214586902
1 34.325403733806255 28.883904444409573 0.95976838653757557 0.28079288488681303 
8 16.562420183424472 41.054832214586902
1 41.054832214586902 -3 -1 0 
1 34.325403733806255 37.383904444409573 0.95976838653757557 0.28079288488681303 
1 34.325403733806255 37.383904444409573 0.95976838653757557 0.28079288488681303 
8 14.230329800225215 27.860574685333141
1 22.878209095589597 28.190680842403449 0.98143280401225452 0.19180628563382293 
8 14.230329800225215 27.860574685333141
1 27.860574685333141 -3 -1 0 
1 22.878209095589597 36.690680842403452 0.98143280401225452 0.19180628563382293 
1 22.878209095589597 36.690680842403452 0.98143280401225452 0.19180628563382293 
8 -40.404595596259739 -15.754346927843368
1 36.590953820523964 15.167838129769244 -0.016082402785736992 -0.99987066979716799 
8 -40.404595596259739 -15.754346927843368
1 -15.754346927843368 -3 -1 -0 
1 36.590953820523964 23.667838129769244 -0.016082402785736992 -0.99987066979716799 
1 36.590953820523964 23.667838129769244 -0.016082402785736992 -0.99987066979716799 
1 100 0 0 1 
1 100 0 0 -1 
1 100 100 -1 0 
1 100 100 0 -1 
1 100 0 0 1 
1 0 8.5 1 0 
1 0 8.5 1 0 
1 100 0 0 -1 
1 2 0 0 1 
1 2 8.5 0 1 
1 2 8.5 0 1 
1 100 0 0 1 
1 0 0 1 0 
1 0 91.5 1 0 
1 0 91.5 1 0 
1 100 0 0 -1 
1 8.5 0 0 1 
1 8.5 91.5 0 1 
1 8.5 91.5 0 1 
1 100 0 0 1 
1 0 0 1 0 
1 8.5 98 1 0 
1 8.5 98 1 0 
1 100 0 0 -1 
1 0 0 0 1 
1 91.5 91.5 0 1 
1 91.5 91.5 0 1 
1 100 0 0 1 
1 0 0 1 0 
1 91.5 91.5 1 0 
1 91.5 91.5 1 0 
1 100 0 0 -1 
1 0 0 0 1 
1 98 8.5 0 1 
1 98 8.5 0 1 
1 100 0 0 1 
1 0 8.5 1 0 
1 91.5 8.5 1 0 
1 91.5 8.5 1 0 
1 100 0 0 -1 
1 0 0 0 1 
1 91.5 0 0 1 
1 91.5 0 0 1 
1 100 0 0 1 
1 0 2 1 0 
1 8.5 2 1 0 
1 8.5 2 1 0 
1 100 0 0 -1 
1 8.5 0 0 1 
1 8.5 0 0 1 
1 100 100 0 -1 
1 0 -100 0 1 
1 0 100 1 0 
1 0 0 0 1 
1 0 0 0 1 
1 0 8.5 1 0 
1 0 8.5 1 0 
1 0 0 0 -1 
1 2 0 0 1 
1 2 8.5 0 1 
1 2 8.5 0 1 
1 0 0 0 1 
1 0 0 1 0 
1 0 91.5 1 0 
1 0 91.5 1 0 
1 0 0 0 -1 
1 8.5 0 0 1 
1 8.5 91.5 0 1 
1 8.5 91.5 0 1 
1 0 0 0 1 
1 0 0 1 0 
1 8.5 98 1 0 
1 8.5 98 1 0 
1 0 0 0 -1 
1 0 0 0 1 
1 91.5 91.5 0 1 
1 91.5 91.5 0 1 
1 0 0 0 1 
1 0 0 1 0 
1 91.5 91.5 1 0 
1 91.5 91.5 1 0 
1 0 0 0 -1 
1 0 0 0 1 
1 98 8.5 0 1 
1 98 8.5 0 1 
1 0 0 0 1 
1 0 8.5 1 0 
1 91.5 8.5 1 0 
1 91.5 8.5 1 0 
1 0 0 0 -1 
1 0 0 0 1 
1 91.5 0 0 1 
1 91.5 0 0 1 
1 0 0 0 1 
1 0 2 1 0 
1 8.5 2 1 0 
1 8.5 2 1 0 
1 0 0 0 -1 
1 8.5 0 0 1 
1 8.5 0 0 1 
1 0 -8.5 1 0 
1 0 8.5 1 0 
1 0 0 1 0 
1 0 2 1 0 
1 0 2 1 0 
1 0 -2 1 0 
1 0 0 1 0 
1 0 -2 1 0 
8 15.754346927843368 40.404595596259739
1 36.590953820523964 -15.167838129769244 0.016082402785736992 -0.99987066979716799 
8 15.754346927843368 40.404595596259739
1 -15.754346927843368 -2.9999999999999982 1 -1.110079439256193e-16 
1 24.650248668416367 -2.7363734219361357e-15 0 -1 
1 0 0 0 -1 
1 0 0 0 -1 
1 13.630244885107921 2.9025300426388114e-16 0 -1 
8 22.936649478414651 43.03438497641028
1 14.616498868328136 -51.794564254122768 0.9863802450423742 -0.16448103899886443 
8 22.936649478414651 43.03438497641028
1 -22.936649478414651 -2.9999999999999996 1 -1.8261063661080757e-17 
1 20.097735497995632 -3.6700602737246086e-16 0 -1 
1 0 0 0 -1 
8 29.790214869468954 39.919374346244368
1 27.302950499539794 -57.572429263481851 0.99904669024625681 -0.043654446600545245 
8 29.790214869468954 39.919374346244368
1 -29.790214869468954 -3 1 -4.8466171743194725e-18 
1 10.129159476775413 -4.909215828156057e-17 0 -1 
1 0 0 0 -1 
8 27.320420181776459 33.611480675736239
1 40.365157581326656 -64.524751999845137 0.98165077832218173 0.19068757017554894 
8 27.320420181776459 33.611480675736239
1 -27.320420181776459 -3.0000000000000004 1 2.1170573091871973e-17 
1 6.2910604939597823 1.3318535601276384e-16 0 -1 
1 0 0 0 -1 
8 -28.28781803858751 -10.580329191186497
1 73.948798421964511 -29.833773046712352 0.020818313874087651 0.99978327541894807 
8 -28.28781803858751 -10.580329191186497
1 28.28781803858751 -2.9999999999999969 1 1.1099824120052702e-16 
1 17.707488847401013 1.9655001181394598e-15 0 -1 
1 -0 0 0 -1 
8 -41.054832214586902 -16.562420183424472
1 34.325403733806255 -28.883904444409573 -0.95976838653757557 0.28079288488681303 
8 -41.054832214586902 -16.562420183424472
1 41.054832214586902 -2.9999999999999987 1 3.1174272595226097e-17 
1 24.492412031162431 7.63533129174053e-16 0 -1 
1 -0 0 0 -1 
8 -27.860574685333141 -14.230329800225215
1 22.878209095589597 -28.190680842403449 -0.98143280401225452 0.19180628563382293 
8 -27.860574685333141 -14.230329800225215
1 27.860574685333141 -2.9999999999999996 1 2.1294775457849961e-17 
1 24.650248668416367 0 0 -1 
1 0 0 0 -1 
8 -40.404595596259739 -15.754346927843368
1 36.590953820523964 15.167838129769244 -0.016082402785736992 -0.99987066979716799 
8 -40.404595596259739 -15.754346927843368
1 -15.754346927843368 -5 -1 -0 
1 0 0 0 -1 
1 13.630244885107921 0 0 -1 
8 14.230329800225215 27.860574685333141
1 22.878209095589597 28.190680842403449 0.98143280401225452 0.19180628563382293 
8 14.230329800225215 27.860574685333141
1 27.860574685333141 -5 -1 0 
1 24.492412031162431 0 0 -1 
1 0 0 0 -1 
8 16.562420183424472 41.054832214586902
1 34.325403733806255 28.883904444409573 0.95976838653757557 0.28079288488681303 
8 16.562420183424472 41.054832214586902
1 41.054832214586902 -5 -1 0 
1 17.707488847401013 0 0 -1 
1 0 0 0 -1 
8 10.580329191186497 28.28781803858751
1 73.948798421964511 29.833773046712352 -0.020818313874087651 0.99978327541894807 
8 10.580329191186497 28.28781803858751
1 28.28781803858751 -5 -1 -0 
1 6.2910604939597823 0 0 -1 
1 0 0 0 -1 
8 -33.611480675736239 -27.320420181776459
1 40.365157581326656 64.524751999845137 -0.98165077832218173 0.19068757017554894 
8 -33.611480675736239 -27.320420181776459
1 -27.320420181776459 -5 -1 -0 
1 10.129159476775413 0 0 -1 
1 0 0 0 -1 
8 -39.919374346244368 -29.790214869468954
1 27.302950499539794 57.572429263481851 -0.99904669024625681 -0.043654446600545245 
8 -39.919374346244368 -29.790214869468954
1 -29.790214869468954 -5 -1 -0 
1 20.097735497995632 0 0 -1 
1 0 0 0 -1 
8 -43.03438497641028 -22.936649478414651
1 14.616498868328136 51.794564254122768 -0.9863802450423742 -0.16448103899886443 
8 -43.03438497641028 -22.936649478414651
1 -22.936649478414651 -5 -1 -0 
1 0 -83 1 0 
1 0 2 1 0 
1 0 2 1 0 
1 0 -2 1 0 
1 0 83 1 0 
1 0 -2 1 0 
1 0 -8.5 1 0 
1 0 8.5 1 0 
1 0 100 1 0 
1 0 -100 1 0 
1 0 -100 1 0 
1 0 100 1 0 
8 -43.03438497641028 -22.936649478414651
1 14.616498868328136 51.794564254122768 -0.9863802450423742 -0.16448103899886443 
8 -43.03438497641028 -22.936649478414651
1 -22.936649478414651 -5 -1 -0 
1 14.616498868328136 60.294564254122768 -0.9863802450423742 -0.16448103899886443 
1 14.616498868328136 60.294564254122768 -0.9863802450423742 -0.16448103899886443 
8 -39.919374346244368 -29.790214869468954
1 27.302950499539794 57.572429263481851 -0.99904669024625681 -0.043654446600545245 
8 -39.919374346244368 -29.790214869468954
1 -29.790214869468954 -5 -1 -0 
1 27.302950499539794 66.072429263481851 -0.99904669024625681 -0.043654446600545245 
1 27.302950499539794 66.072429263481851 -0.99904669024625681 -0.043654446600545245 
8 -33.611480675736239 -27.320420181776459
1 40.365157581326656 64.524751999845137 -0.98165077832218173 0.19068757017554894 
8 -33.611480675736239 -27.320420181776459
1 -27.320420181776459 -5 -1 -0 
1 40.365157581326656 73.024751999845137 -0.98165077832218173 0.19068757017554894 
1 40.365157581326656 73.024751999845137 -0.98165077832218173 0.19068757017554894 
8 10.580329191186497 28.28781803858751
1 73.948798421964511 29.833773046712352 -0.020818313874087651 0.99978327541894807 
8 10.580329191186497 28.28781803858751
1 28.28781803858751 -5 -1 -0 
1 73.948798421964511 38.333773046712352 -0.020818313874087651 0.99978327541894807 
1 73.948798421964511 38.333773046712352 -0.020818313874087651 0.99978327541894807 
8 16.562420183424472 41.054832214586902
1 34.325403733806255 28.883904444409573 0.95976838653757557 0.28079288488681303 
8 16.562420183424472 41.054832214586902
1 41.054832214586902 -5 -1 0 
1 34.325403733806255 37.383904444409573 0.95976838653757557 0.28079288488681303 
1 34.325403733806255 37.383904444409573 0.95976838653757557 0.28079288488681303 
8 14.230329800225215 27.860574685333141
1 22.878209095589597 28.190680842403449 0.98143280401225452 0.19180628563382293 
8 14.230329800225215 27.860574685333141
1 27.860574685333141 -5 -1 0 
1 22.878209095589597 36.690680842403452 0.98143280401225452 0.19180628563382293 
1 22.878209095589597 36.690680842403452 0.98143280401225452 0.19180628563382293 
8 -40.404595596259739 -15.754346927843368
1 36.590953820523964 15.167838129769244 -0.016082402785736992 -0.99987066979716799 
8 -40.404595596259739 -15.754346927843368
1 -15.754346927843368 -5 -1 -0 
1 36.590953820523964 23.667838129769244 -0.016082402785736992 -0.99987066979716799 
1 36.590953820523964 23.667838129769244 -0.016082402785736992 -0.99987066979716799 
8 -27.860574685333141 -14.230329800225215
1 22.878209095589597 -28.190680842403445 -0.98143280401225452 0.19180628563382293 
8 -27.860574685333141 -14.230329800225215
1 27.860574685333141 -2.9999999999999996 1 2.1294775457849961e-17 
1 22.878209095589597 -36.690680842403445 -0.98143280401225452 0.19180628563382293 
1 22.878209095589597 -36.690680842403445 -0.98143280401225452 0.19180628563382293 
8 -41.054832214586902 -16.562420183424472
1 34.325403733806255 -28.883904444409573 -0.95976838653757557 0.28079288488681303 
8 -41.054832214586902 -16.562420183424472
1 41.054832214586902 -2.9999999999999987 1 3.1174272595226097e-17 
1 34.325403733806255 -37.383904444409573 -0.95976838653757557 0.28079288488681303 
1 34.325403733806255 -37.383904444409573 -0.95976838653757557 0.28079288488681303 
8 -28.28781803858751 -10.580329191186497
1 73.948798421964511 -29.833773046712352 0.020818313874087651 0.99978327541894807 
8 -28.28781803858751 -10.580329191186497
1 28.28781803858751 -2.9999999999999969 1 1.1099824120052702e-16 
1 73.948798421964511 -38.333773046712352 0.020818313874087651 0.99978327541894807 
1 73.948798421964511 -38.333773046712352 0.020818313874087651 0.99978327541894807 
8 27.320420181776459 33.611480675736239
1 40.365157581326656 -64.524751999845137 0.98165077832218173 0.19068757017554894 
8 27.320420181776459 33.611480675736239
1 -27.320420181776459 -3.0000000000000004 1 2.1170573091871973e-17 
1 40.365157581326656 -73.024751999845137 0.98165077832218173 0.19068757017554894 
1 40.365157581326656 -73.024751999845137 0.98165077832218173 0.19068757017554894 
8 29.790214869468954 39.919374346244368
1 27.302950499539794 -57.572429263481851 0.99904669024625681 -0.043654446600545245 
8 29.790214869468954 39.919374346244368
1 -29.790214869468954 -3 1 -4.8466171743194725e-18 
1 27.302950499539794 -66.072429263481851 0.99904669024625681 -0.043654446600545245 
1 27.302950499539794 -66.072429263481851 0.99904669024625681 -0.043654446600545245 
8 22.936649478414651 43.03438497641028
1 14.616498868328136 -51.794564254122768 0.9863802450423742 -0.16448103899886443 
8 22.936649478414651 43.03438497641028
1 -22.936649478414651 -2.9999999999999996 1 -1.8261063661080757e-17 
1 14.616498868328136 -60.294564254122768 0.9863802450423742 -0.16448103899886443 
1 14.616498868328136 -60.294564254122768 0.9863802450423742 -0.16448103899886443 
8 15.754346927843368 40.404595596259739
1 36.590953820523964 -15.167838129769244 0.016082402785736992 -0.99987066979716799 
8 15.754346927843368 40.404595596259739
1 -15.754346927843368 -2.9999999999999982 1 -1.110079439256193e-16 
1 36.590953820523964 -23.667838129769244 0.016082402785736992 -0.99987066979716799 
1 36.590953820523964 -23.667838129769244 0.016082402785736992 -0.99987066979716799 
1 0 0 1 0 
1 0 0 1 0 
1 0 -6.5 1 0 
1 0 0 1 0 
1 0 8.5 1 0 
1 0 -8.5 1 0 
1 0 0 1 0 
1 0 0 1 0 
1 0 0 1 0 
1 0 6.5 1 0 
1 0 0 1 0 
1 0 83 1 0 
1 0 -6.5 1 0 
8 -40.404595596259739 -15.754346927843368
1 36.590953820523964 15.167838129769244 -0.016082402785736992 -0.99987066979716799 
8 -40.404595596259739 -15.754346927843368
1 -15.754346927843368 -3 -1 -0 
8 14.230329800225215 27.860574685333141
1 22.878209095589597 28.190680842403449 0.98143280401225452 0.19180628563382293 
8 14.230329800225215 27.860574685333141
1 27.860574685333141 -3 -1 0 
8 16.562420183424472 41.054832214586902
1 34.325403733806255 28.883904444409573 0.95976838653757557 0.28079288488681303 
8 16.562420183424472 41.054832214586902
1 41.054832214586902 -3 -1 0 
8 10.580329191186497 28.28781803858751
1 73.948798421964511 29.833773046712352 -0.020818313874087651 0.99978327541894807 
8 10.580329191186497 28.28781803858751
1 28.28781803858751 -3 -1 -0 
8 -33.611480675736239 -27.320420181776459
1 40.365157581326656 64.524751999845137 -0.98165077832218173 0.19068757017554894 
8 -33.611480675736239 -27.320420181776459
1 -27.320420181776459 -3 -1 -0 
8 -39.919374346244368 -29.790214869468954
1 27.302950499539794 57.572429263481851 -0.99904669024625681 -0.043654446600545245 
8 -39.919374346244368 -29.790214869468954
1 -29.790214869468954 -3 -1 -0 
8 -43.03438497641028 -22.936649478414651
1 14.616498868328136 51.794564254122768 -0.9863802450423742 -0.16448103899886443 
8 -43.03438497641028 -22.936649478414651
1 -22.936649478414651 -3 -1 -0 
1 0 -83 1 0 
1 0 0 1 0 
1 0 6.5 1 0 
8 15.754346927843368 40.404595596259739
1 36.590953820523964 -15.167838129769244 0.016082402785736992 -0.99987066979716799 
8 15.754346927843368 40.404595596259739
1 -15.754346927843368 -4.9999999999999982 1 -1.110079439256193e-16 
8 22.936649478414651 43.03438497641028
1 14.616498868328136 -51.794564254122768 0.9863802450423742 -0.16448103899886443 
8 22.936649478414651 43.03438497641028
1 -22.936649478414651 -5 1 -1.8261063661080757e-17 
8 29.790214869468954 39.919374346244368
1 27.302950499539794 -57.572429263481851 0.99904669024625681 -0.043654446600545245 
8 29.790214869468954 39.919374346244368
1 -29.790214869468954 -5 1 -4.8466171743194725e-18 
8 27.320420181776459 33.611480675736239
1 40.365157581326656 -64.524751999845137 0.98165077832218173 0.19068757017554894 
8 27.320420181776459 33.611480675736239
1 -27.320420181776459 -5.0000000000000009 1 2.1170573091871973e-17 
8 -28.28781803858751 -10.580329191186497
1 73.948798421964511 -29.833773046712352 0.020818313874087651 0.99978327541894807 
8 -28.28781803858751 -10.580329191186497
1 28.28781803858751 -4.9999999999999964 1 1.1099824120052702e-16 
8 -41.054832214586902 -16.562420183424472
1 34.325403733806255 -28.883904444409573 -0.95976838653757557 0.28079288488681303 
8 -41.054832214586902 -16.562420183424472
1 41.054832214586902 -4.9999999999999991 1 3.1174272595226097e-17 
8 -27.860574685333141 -14.230329800225215
1 22.878209095589597 -28.190680842403445 -0.98143280401225452 0.19180628563382293 
8 -27.860574685333141 -14.230329800225215
1 27.860574685333141 -4.9999999999999991 1 2.1294775457849961e-17 
1 24.650248668416367 0 0 -1 
1 0 0 0 -1 
1 0 0 0 -1 
1 13.630244885107921 0 0 -1 
1 24.492412031162431 0 0 -1 
1 0 0 0 -1 
1 17.707488847401013 0 0 -1 
1 0 0 0 -1 
1 6.2910604939597823 0 0 -1 
1 0 0 0 -1 
1 10.129159476775413 0 0 -1 
1 0 0 0 -1 
1 20.097735497995632 0 0 -1 
1 0 0 0 -1 
1 24.650248668416367 -2.7363734219361357e-15 0 -1 
1 0 0 0 -1 
1 0 0 0 -1 
1 13.630244885107921 2.9025300426388114e-16 0 -1 
1 20.097735497995632 -3.6700602737246086e-16 0 -1 
1 0 0 0 -1 
1 10.129159476775413 -4.909215828156057e-17 0 -1 
1 0 0 0 -1 
1 6.2910604939597823 1.3318535601276384e-16 0 -1 
1 0 0 0 -1 
1 17.707488847401013 1.9655001181394598e-15 0 -1 
1 -0 0 0 -1 
1 24.492412031162431 7.63533129174053e-16 0 -1 
1 -0 0 0 -1 
1 0 0 1 0 
1 0 0 1 0 
Curves 132
1 -50 -50 0 0 0 1 
8 0 100
1 -50 50 0 0 -1 0 
1 -50 50 0 0 0 1 
8 0 100
1 -50 -50 100 0 1 0 
1 -50 -13.309319157596551 22.878209095589597 0 -0.19180628563382293 -0.98143280401225452 
1 -50 -12.616095555590425 34.325403733806255 0 -0.28079288488681303 -0.95976838653757557 
1 -50 -11.666226953287648 73.948798421964511 0 -0.99978327541894807 0.020818313874087651 
1 -50 23.024751999845144 40.365157581326656 0 -0.19068757017554894 0.98165077832218173 
1 -50 16.072429263481851 27.302950499539794 0 0.043654446600545245 0.99904669024625681 
1 -50 10.29456425412277 14.616498868328136 0 0.16448103899886443 0.9863802450423742 
1 -50 -26.332161870230756 36.590953820523964 0 0.99987066979716799 0.016082402785736992 
8 0 100
1 -50 -50 0 1 0 0 
8 0 100
1 50 -50 100 -1 0 0 
1 50 -50 0 0 0 1 
1 10.29456425412277 -50 14.616498868328136 -0.16448103899886443 0 -0.9863802450423742 
1 16.072429263481851 -50 27.302950499539794 -0.043654446600545245 0 -0.99904669024625681 
1 23.024751999845137 -50 40.365157581326656 0.19068757017554894 0 -0.98165077832218173 
1 -11.666226953287648 -50 73.948798421964511 0.99978327541894807 0 -0.020818313874087651 
1 -12.616095555590425 -50 34.325403733806255 0.28079288488681303 0 0.95976838653757557 
1 -13.309319157596551 -50 22.878209095589597 0.19180628563382293 0 0.98143280401225452 
1 -26.332161870230756 -50 36.590953820523964 -0.99987066979716799 0 -0.016082402785736992 
8 0 100
1 50 -50 100 0 1 0 
8 0 100
1 50 50 100 -1 0 0 
1 -50 -41.5 100 1 0 -0 
1 -48 -41.5 100 -0 1 0 
1 -50 41.5 100 1 0 -0 
1 -41.5 41.5 100 -0 1 0 
1 -41.5 48 100 1 0 -0 
1 41.5 41.5 100 -0 1 0 
1 41.5 41.5 100 1 0 -0 
1 48 -41.5 100 -0 1 0 
1 41.5 -41.5 100 1 0 -0 
1 41.5 -50 100 -0 1 0 
1 -41.5 -48 100 1 0 -0 
1 -41.5 -50 100 -0 1 0 
8 0 100
1 50 50 0 0 -1 0 
8 0 100
1 -50 50 0 1 0 0 
1 -50 -41.5 0 1 0 -0 
1 -48 -41.5 0 -0 1 0 
1 -50 41.5 0 1 0 -0 
1 -41.5 41.5 0 -0 1 0 
1 -41.5 48 0 1 0 -0 
1 41.5 41.5 0 -0 1 0 
1 41.5 41.5 0 1 0 -0 
1 48 -41.5 0 -0 1 0 
1 41.5 -41.5 0 1 0 -0 
1 41.5 -50 0 -0 1 0 
1 -41.5 -48 0 1 0 -0 
1 -41.5 -50 0 -0 1 0 
1 -41.5 -41.5 0 0 0 1 
1 -48 -41.5 0 0 0 1 
1 -41.5 -48 0 0 0 1 
1 -48 -26.332161870230756 36.590953820523964 0 0.99987066979716799 0.016082402785736992 
1 -45 14.067208191485168 37.24075680129782 -1 1.1102230246251565e-16 0 
1 -45 -10.579852455271052 36.844321573443779 -1 1.1102230246251565e-16 0 
1 -48 10.29456425412277 14.616498868328136 0 0.16448103899886443 0.9863802450423742 
1 -45 17.37290460771985 57.064766066607575 -1 1.1102230246251565e-16 0 
1 -48 16.072429263481851 27.302950499539794 0 0.043654446600545245 0.99904669024625681 
1 -45 17.815087459207149 67.184269316856557 -1 1.1102230246251565e-16 0 
1 -48 23.024751999845144 40.365157581326656 0 -0.19068757017554894 0.98165077832218173 
1 -45 16.615460419786572 73.359893747224106 -1 1.1102230246251565e-16 0 
1 -48 -11.666226953287648 73.948798421964511 0 -0.99978327541894807 0.020818313874087651 
1 -45 -1.088190779512503 73.728533807971203 -1 1.1102230246251565e-16 0 
1 -48 -12.616095555590425 34.325403733806255 0 -0.28079288488681303 -0.95976838653757557 
1 -45 -7.9654858115790876 50.221491030408934 -1 1.1102230246251565e-16 0 
1 -48 -13.309319157596551 22.878209095589597 0 -0.19180628563382293 -0.98143280401225452 
1 14.067208191485168 -53 37.24075680129782 0 1 0 
1 -26.332161870230756 -48 36.590953820523964 -0.99987066979716799 0 -0.016082402785736992 
1 -10.579852455271052 -53 36.844321573443779 0 1 0 
1 -13.309319157596551 -48 22.878209095589597 0.19180628563382293 0 0.98143280401225452 
1 -7.9654858115790868 -53 50.221491030408934 0 1 0 
1 -12.616095555590425 -48 34.325403733806255 0.28079288488681303 0 0.95976838653757557 
1 -1.0881907795125025 -53 73.728533807971203 0 1 0 
1 -11.666226953287648 -48 73.948798421964511 0.99978327541894807 0 -0.020818313874087651 
1 16.615460419786572 -53 73.359893747224106 0 1 0 
1 23.024751999845137 -48 40.365157581326656 0.19068757017554894 0 -0.98165077832218173 
1 17.815087459207149 -53 67.184269316856557 0 1 0 
1 16.072429263481851 -48 27.302950499539794 -0.043654446600545245 0 -0.99904669024625681 
1 17.37290460771985 -53 57.064766066607575 0 1 0 
1 10.29456425412277 -48 14.616498868328136 -0.16448103899886443 0 -0.9863802450423742 
1 -48 41.5 0 0 0 1 
1 41.5 -48 0 0 0 1 
1 50 50 0 0 0 1 
1 10.29456425412277 50 14.616498868328136 -0.16448103899886443 0 -0.9863802450423742 
1 16.072429263481851 50 27.302950499539794 -0.043654446600545245 0 -0.99904669024625681 
1 23.024751999845137 50 40.365157581326656 0.19068757017554894 0 -0.98165077832218173 
1 -11.666226953287648 50 73.948798421964511 0.99978327541894807 0 -0.020818313874087651 
1 -12.616095555590425 50 34.325403733806255 0.28079288488681303 0 0.95976838653757557 
1 -13.309319157596551 50 22.878209095589597 0.19180628563382293 0 0.98143280401225452 
1 -26.332161870230756 50 36.590953820523964 -0.99987066979716799 0 -0.016082402785736992 
1 50 -13.309319157596555 22.878209095589597 0 -0.19180628563382293 -0.98143280401225452 
1 50 -12.616095555590427 34.325403733806255 0 -0.28079288488681303 -0.95976838653757557 
1 50 -11.666226953287648 73.948798421964511 0 -0.99978327541894807 0.020818313874087651 
1 50 23.024751999845137 40.365157581326656 0 -0.19068757017554894 0.98165077832218173 
1 50 16.072429263481851 27.302950499539794 0 0.043654446600545245 0.99904669024625681 
1 50 10.29456425412277 14.616498868328136 0 0.16448103899886443 0.9863802450423742 
1 50 -26.332161870230756 36.590953820523964 0 0.99987066979716799 0.016082402785736992 
1 -41.5 48 0 0 0 1 
1 -41.5 41.5 0 0 0 1 
1 41.5 -41.5 0 0 0 1 
1 48 -41.5 0 0 0 1 
1 41.5 48 0 0 0 1 
1 -26.332161870230756 48 36.590953820523964 -0.99987066979716799 0 -0.016082402785736992 
1 -13.309319157596551 48 22.878209095589597 0.19180628563382293 0 0.98143280401225452 
1 -12.616095555590425 48 34.325403733806255 0.28079288488681303 0 0.95976838653757557 
1 -11.666226953287648 48 73.948798421964511 0.99978327541894807 0 -0.020818313874087651 
1 23.024751999845137 48 40.365157581326656 0.19068757017554894 0 -0.98165077832218173 
1 16.072429263481851 48 27.302950499539794 -0.043654446600545245 0 -0.99904669024625681 
1 10.29456425412277 48 14.616498868328136 -0.16448103899886443 0 -0.9863802450423742 
1 48 41.5 0 0 0 1 
1 48 -26.332161870230756 36.590953820523964 0 0.99987066979716799 0.016082402785736992 
1 48 10.29456425412277 14.616498868328136 0 0.16448103899886443 0.9863802450423742 
1 48 16.072429263481851 27.302950499539794 0 0.043654446600545245 0.99904669024625681 
1 48 23.024751999845137 40.365157581326656 0 -0.19068757017554894 0.98165077832218173 
1 48 -11.666226953287648 73.948798421964511 0 -0.99978327541894807 0.020818313874087651 
1 48 -12.616095555590427 34.325403733806255 0 -0.28079288488681303 -0.95976838653757557 
1 48 -13.309319157596553 22.878209095589597 0 -0.19180628563382293 -0.98143280401225452 
1 14.067208191485168 45 37.24075680129782 0 1 0 
1 -10.579852455271052 45 36.844321573443779 0 1 0 
1 -7.9654858115790868 45 50.221491030408934 0 1 0 
1 -1.0881907795125025 45 73.728533807971203 0 1 0 
1 16.615460419786572 45 73.359893747224106 0 1 0 
1 17.815087459207149 45 67.184269316856557 0 1 0 
1 17.37290460771985 45 57.064766066607575 0 1 0 
1 53 14.067208191485168 37.24075680129782 -1 1.1102230246251565e-16 0 
1 53 -10.579852455271052 36.844321573443779 -1 1.1102230246251565e-16 0 
1 53 17.37290460771985 57.064766066607575 -1 1.1102230246251565e-16 0 
1 53 17.815087459207149 67.184269316856557 -1 1.1102230246251565e-16 0 
1 53 16.615460419786572 73.359893747224106 -1 1.1102230246251565e-16 0 
1 53 -1.088190779512503 73.728533807971203 -1 1.1102230246251565e-16 0 
1 53 -7.9654858115790876 50.221491030408934 -1 1.1102230246251565e-16 0 
1 41.5 41.5 0 0 0 1 
Polygon3D 0
PolygonOnTriangulations 0
Surfaces 82
1 -50 -50 0 1 0 -0 0 0 1 0 -1 0 
1 -50 -50 0 1 0 -0 0 0 1 0 -1 0 
1 -50 -50 0 -0 1 0 0 0 1 1 0 -0 
1 -50 -50 0 -0 1 0 0 0 1 1 0 -0 
1 -50 -50 0 0 0 1 1 0 -0 -0 1 0 
1 -50 41.5 0 1 0 -0 0 0 1 0 -1 0 
1 -50 50 0 -0 1 0 0 0 1 1 0 -0 
1 -50 50 0 -0 1 0 0 0 1 1 0 -0 
1 -50 -50 100 0 0 1 1 0 -0 -0 1 0 
1 -50 -41.5 0 1 0 -0 0 0 1 0 -1 0 
1 -45 -7.9654858115790876 50.221491030408934 -1.0896092961368337e-16 -0.98143280401225452 0.19180628563382293 -2.1294775457849961e-17 -0.19180628563382293 -0.98143280401225452 1 -1.1102230246251565e-16 0 
1 -45 -1.088190779512503 73.728533807971203 -1.0655569610413535e-16 -0.95976838653757557 0.28079288488681303 -3.1174272595226097e-17 -0.28079288488681303 -0.95976838653757557 1 -1.1102230246251565e-16 0 
1 -45 16.615460419786572 73.359893747224106 2.3112971396885452e-18 0.020818313874087651 0.99978327541894807 -1.1099824120052704e-16 -0.99978327541894807 0.020818313874087651 1 -1.1102230246251565e-16 0 
1 -45 17.815087459207149 67.184269316856557 1.0898512962344916e-16 0.98165077832218173 0.19068757017554894 -2.1170573091871973e-17 -0.19068757017554894 0.98165077832218173 1 -1.1102230246251565e-16 0 
1 -45 17.37290460771985 57.064766066607575 1.1091646381869511e-16 0.99904669024625681 -0.043654446600545245 4.8466171743194725e-18 0.043654446600545245 0.99904669024625681 1 -1.1102230246251565e-16 0 
1 -45 14.067208191485168 37.24075680129782 1.0951020590814478e-16 0.9863802450423742 -0.16448103899886443 1.826106366108076e-17 0.16448103899886443 0.9863802450423742 1 -1.1102230246251565e-16 0 
1 -45 -10.579852455271052 36.844321573443779 1.7855053864020967e-18 0.016082402785736992 -0.99987066979716799 1.110079439256193e-16 0.99987066979716799 0.016082402785736992 1 -1.1102230246251565e-16 0 
1 50 -50 0 1 0 -0 0 0 1 0 -1 0 
1 41.5 -50 0 -0 1 0 0 0 1 1 0 -0 
1 50 -50 0 1 0 -0 0 0 1 0 -1 0 
1 -41.5 -50 0 -0 1 0 0 0 1 1 0 -0 
1 14.067208191485168 -53 37.24075680129782 0.9863802450423742 0 -0.16448103899886443 0.16448103899886443 0 0.9863802450423742 0 -1 0 
1 17.37290460771985 -53 57.064766066607575 0.99904669024625681 0 -0.043654446600545245 0.043654446600545245 0 0.99904669024625681 0 -1 0 
1 17.815087459207149 -53 67.184269316856557 0.98165077832218173 -0 0.19068757017554894 -0.19068757017554894 0 0.98165077832218173 -0 -1 0 
1 16.615460419786572 -53 73.359893747224106 0.020818313874087651 -0 0.99978327541894807 -0.99978327541894807 0 0.020818313874087651 -0 -1 0 
1 -1.0881907795125025 -53 73.728533807971203 -0.95976838653757557 0 0.28079288488681303 -0.28079288488681303 0 -0.95976838653757557 -0 -1 0 
1 -7.9654858115790868 -53 50.221491030408934 -0.98143280401225452 0 0.19180628563382293 -0.19180628563382293 0 -0.98143280401225452 -0 -1 0 
1 -10.579852455271052 -53 36.844321573443779 0.016082402785736992 0 -0.99987066979716799 0.99987066979716799 0 0.016082402785736992 0 -1 0 
1 -50 -41.5 0 -0 1 0 0 0 1 1 0 -0 
1 -50 -50 100 0 0 1 1 0 -0 -0 1 0 
1 -48 -41.5 0 1 0 -0 0 0 1 0 -1 0 
1 -50 -41.5 100 0 0 1 1 0 -0 -0 1 0 
1 -50 41.5 0 -0 1 0 0 0 1 1 0 -0 
1 -50 41.5 100 0 0 1 1 0 -0 -0 1 0 
1 -41.5 41.5 0 1 0 -0 0 0 1 0 -1 0 
1 -41.5 48 0 -0 1 0 0 0 1 1 0 -0 
1 -41.5 48 100 0 0 1 1 0 -0 -0 1 0 
1 41.5 41.5 0 1 0 -0 0 0 1 0 -1 0 
1 41.5 41.5 100 0 0 1 1 0 -0 -0 1 0 
1 41.5 41.5 0 -0 1 0 0 0 1 1 0 -0 
1 48 -41.5 0 1 0 -0 0 0 1 0 -1 0 
1 48 -41.5 100 0 0 1 1 0 -0 -0 1 0 
1 41.5 -41.5 0 -0 1 0 0 0 1 1 0 -0 
1 41.5 -50 100 0 0 1 1 0 -0 -0 1 0 
1 41.5 -50 0 1 0 -0 0 0 1 0 -1 0 
1 -41.5 -48 0 -0 1 0 0 0 1 1 0 -0 
1 -41.5 -50 100 0 0 1 1 0 -0 -0 1 0 
1 -41.5 -50 0 1 0 -0 0 0 1 0 -1 0 
1 -50 -50 0 0 0 1 1 0 -0 -0 1 0 
1 -50 -41.5 0 0 0 1 1 0 -0 -0 1 0 
1 -50 41.5 0 0 0 1 1 0 -0 -0 1 0 
1 -41.5 48 0 0 0 1 1 0 -0 -0 1 0 
1 41.5 41.5 0 0 0 1 1 0 -0 -0 1 0 
1 48 -41.5 0 0 0 1 1 0 -0 -0 1 0 
1 41.5 -50 0 0 0 1 1 0 -0 -0 1 0 
1 -41.5 -50 0 0 0 1 1 0 -0 -0 1 0 
1 -50 -41.5 0 -0 1 0 0 0 1 1 0 -0 
1 -41.5 -50 0 1 0 -0 0 0 1 0 -1 0 
1 -50 41.5 0 -0 1 0 0 0 1 1 0 -0 
1 41.5 -50 0 1 0 -0 0 0 1 0 -1 0 
1 50 41.5 0 1 0 -0 0 0 1 0 -1 0 
1 41.5 50 0 -0 1 0 0 0 1 1 0 -0 
1 -41.5 50 0 -0 1 0 0 0 1 1 0 -0 
1 14.067208191485168 45 37.24075680129782 0.9863802450423742 0 -0.16448103899886443 0.16448103899886443 0 0.9863802450423742 0 -1 0 
1 17.37290460771985 45 57.064766066607575 0.99904669024625681 0 -0.043654446600545245 0.043654446600545245 0 0.99904669024625681 0 -1 0 
1 17.815087459207149 45 67.184269316856557 0.98165077832218173 -0 0.19068757017554894 -0.19068757017554894 0 0.98165077832218173 -0 -1 0 
1 16.615460419786572 45 73.359893747224106 0.020818313874087651 -0 0.99978327541894807 -0.99978327541894807 0 0.020818313874087651 -0 -1 0 
1 -1.0881907795125025 45 73.728533807971203 -0.95976838653757557 0 0.28079288488681303 -0.28079288488681303 0 -0.95976838653757557 -0 -1 0 
1 -7.9654858115790868 45 50.221491030408934 -0.98143280401225452 0 0.19180628563382293 -0.19180628563382293 0 -0.98143280401225452 -0 -1 0 
1 -10.579852455271052 45 36.844321573443779 0.016082402785736992 0 -0.99987066979716799 0.99987066979716799 0 0.016082402785736992 0 -1 0 
1 50 -41.5 0 1 0 -0 0 0 1 0 -1 0 
1 53 -7.9654858115790876 50.221491030408934 -1.0896092961368337e-16 -0.98143280401225452 0.19180628563382293 -2.1294775457849961e-17 -0.19180628563382293 -0.98143280401225452 1 -1.1102230246251565e-16 0 
1 53 -1.088190779512503 73.728533807971203 -1.0655569610413535e-16 -0.95976838653757557 0.28079288488681303 -3.1174272595226097e-17 -0.28079288488681303 -0.95976838653757557 1 -1.1102230246251565e-16 0 
1 53 16.615460419786572 73.359893747224106 2.3112971396885452e-18 0.020818313874087651 0.99978327541894807 -1.1099824120052704e-16 -0.99978327541894807 0.020818313874087651 1 -1.1102230246251565e-16 0 
1 53 17.815087459207149 67.184269316856557 1.0898512962344916e-16 0.98165077832218173 0.19068757017554894 -2.1170573091871973e-17 -0.19068757017554894 0.98165077832218173 1 -1.1102230246251565e-16 0 
1 53 17.37290460771985 57.064766066607575 1.1091646381869511e-16 0.99904669024625681 -0.043654446600545245 4.8466171743194725e-18 0.043654446600545245 0.99904669024625681 1 -1.1102230246251565e-16 0 
1 53 14.067208191485168 37.24075680129782 1.0951020590814478e-16 0.9863802450423742 -0.16448103899886443 1.826106366108076e-17 0.16448103899886443 0.9863802450423742 1 -1.1102230246251565e-16 0 
1 53 -10.579852455271052 36.844321573443779 1.7855053864020967e-18 0.016082402785736992 -0.99987066979716799 1.110079439256193e-16 0.99987066979716799 0.016082402785736992 1 -1.1102230246251565e-16 0 
1 -41.5 48 0 1 0 -0 0 0 1 0 -1 0 
1 48 -41.5 0 -0 1 0 0 0 1 1 0 -0 
1 41.5 48 0 1 0 -0 0 0 1 0 -1 0 
1 48 41.5 0 -0 1 0 0 0 1 1 0 -0 
Triangulations 0

TShapes 325
Ve
1e-07
-50 -50 100
0 0

0101101
*
Ve
1e-07
-50 -50 0
0 0

0101101
*
Ed
 1e-07 1 1 0
1  1 0 0 100
2  1 2 0 0 100
2  2 3 0 0 100
2  3 1 0 0 100
2  4 4 0 0 100
0

0101000
-325 0 +324 0 *
Ve
1e-07
-50 50 0
0 0

0101101
*
Ed
 1e-07 1 1 0
1  2 0 0 100
2  5 1 0 0 100
2  6 5 0 0 100
0

0101000
+322 0 -324 0 *
Ve
1e-07
-50 50 100
0 0

0101101
*
Ed
 1e-07 1 1 0
1  3 0 0 100
2  7 6 0 0 100
2  8 7 0 0 100
2  9 2 0 0 100
2  10 1 0 0 100
2  11 8 0 0 100
0

0101000
-320 0 +322 0 *
Ed
 1e-07 1 1 0
1  4 0 0 100
2  12 1 0 0 100
2  13 9 0 0 100
0

0101000
+325 0 -320 0 *
Wi

0101100
-323 0 -321 0 +319 0 -318 0 *
Ve
1.50000007105427e-07
-50 -7.96548581157909 50.2214910304089
0 0

0101101
*
Ve
1.5e-07
-50 -10.5798524552711 36.8443215734438
0 0

0101101
*
Ed
 1.5e-07 1 1 0
1  5 0 -27.8605746853331 -14.2303298002252
2  14 10 0 -27.8605746853331 -14.2303298002252
2  15 11 0 -27.8605746853331 -14.2303298002252
2  16 2 0 -27.8605746853331 -14.2303298002252
2  17 1 0 -27.8605746853331 -14.2303298002252
0

0101000
+316 0 -315 0 *
Ve
1.50000014238583e-07
-50 -1.0881907795125 73.7285338079712
0 0

0101101
*
Ed
 1.5e-07 1 1 0
1  6 0 -41.0548322145869 -16.5624201834245
2  18 10 0 -41.0548322145869 -16.5624201834245
2  19 12 0 -41.0548322145869 -16.5624201834245
2  20 2 0 -41.0548322145869 -16.5624201834245
2  21 1 0 -41.0548322145869 -16.5624201834245
0

0101000
+313 0 -316 0 *
Ve
1.50000014648214e-07
-50 16.6154604197866 73.3598937472241
0 0

0101101
*
Ed
 1.5e-07 1 1 0
1  7 0 -28.2878180385875 -10.5803291911865
2  22 10 0 -28.2878180385875 -10.5803291911865
2  23 13 0 -28.2878180385875 -10.5803291911865
2  24 2 0 -28.2878180385875 -10.5803291911865
2  25 1 0 -28.2878180385875 -10.5803291911865
0

0101000
+311 0 -313 0 *
Ve
1.50000014210855e-07
-50 17.8150874592071 67.1842693168566
0 0

0101101
*
Ed
 1.5e-07 1 1 0
1  8 0 27.3204201817765 33.6114806757362
2  26 10 0 27.3204201817765 33.6114806757362
2  27 14 0 27.3204201817765 33.6114806757362
2  28 2 0 27.3204201817765 33.6114806757362
2  29 1 0 27.3204201817765 33.6114806757362
0

0101000
+309 0 -311 0 *
Ve
1.50000003552714e-07
-50 17.3729046077198 57.0647660666076
0 0

0101101
*
Ed
 1.5e-07 1 1 0
1  9 0 29.790214869469 39.9193743462444
2  30 10 0 29.790214869469 39.9193743462444
2  31 15 0 29.790214869469 39.9193743462444
2  32 2 0 29.790214869469 39.9193743462444
2  33 1 0 29.790214869469 39.9193743462444
0

0101000
+307 0 -309 0 *
Ve
1.50000007944109e-07
-50 14.0672081914852 37.2407568012978
0 0

0101101
*
Ed
 1.5e-07 1 1 0
1  10 0 22.9366494784147 43.0343849764103
2  34 10 0 22.9366494784147 43.0343849764103
2  35 16 0 22.9366494784147 43.0343849764103
2  36 2 0 22.9366494784147 43.0343849764103
2  37 1 0 22.9366494784147 43.0343849764103
0

0101000
+305 0 -307 0 *
Ed
 1.5e-07 1 1 0
1  11 0 15.7543469278434 40.4045955962597
2  38 10 0 15.7543469278434 40.4045955962597
2  39 17 0 15.7543469278434 40.4045955962597
2  40 2 0 15.7543469278434 40.4045955962597
2  41 1 0 15.7543469278434 40.4045955962597
0

0101000
+315 0 -305 0 *
Wi

0101100
-314 0 -312 0 -310 0 -308 0 -306 0 -304 0 -303 0 *
Fa
0  0 1 0

0111000
+317 0 +302 0 *
Ve
1e-07
50 -50 0
0 0

0101101
*
Ed
 1e-07 1 1 0
1  12 0 0 100
2  42 5 0 0 100
2  43 4 0 0 100
0

0101000
+324 0 -300 0 *
Ve
1e-07
50 -50 100
0 0

0101101
*
Ed
 1e-07 1 1 0
1  13 0 0 100
2  44 9 0 0 100
2  45 4 0 0 100
0

0101000
+298 0 -325 0 *
Ed
 1e-07 1 1 0
1  14 0 0 100
2  46 18 0 0 100
2  47 19 0 0 100
2  48 3 0 0 100
2  49 4 0 0 100
2  50 20 0 0 100
0

0101000
-298 0 +300 0 *
Wi

0101100
-299 0 +323 0 -297 0 -296 0 *
Ve
1.50000003552714e-07
17.3729046077198 -50 57.0647660666076
0 0

0101101
*
Ve
1.50000007944109e-07
14.0672081914852 -50 37.2407568012978
0 0

0101101
*
Ed
 1.5e-07 1 1 0
1  15 0 -43.0343849764103 -22.9366494784147
2  51 21 0 -43.0343849764103 -22.9366494784147
2  52 22 0 -43.0343849764103 -22.9366494784147
2  53 3 0 -43.0343849764103 -22.9366494784147
2  54 4 0 -43.0343849764103 -22.9366494784147
0

0101000
+294 0 -293 0 *
Ve
1.50000007105427e-07
17.8150874592071 -50 67.1842693168566
0 0

0101101
*
Ed
 1.5e-07 1 1 0
1  16 0 -39.9193743462444 -29.790214869469
2  55 21 0 -39.9193743462444 -29.790214869469
2  56 23 0 -39.9193743462444 -29.790214869469
2  57 3 0 -39.9193743462444 -29.790214869469
2  58 4 0 -39.9193743462444 -29.790214869469
0

0101000
+291 0 -294 0 *
Ve
1.50000014648214e-07
16.6154604197866 -50 73.3598937472241
0 0

0101101
*
Ed
 1.5e-07 1 1 0
1  17 0 -33.6114806757362 -27.3204201817765
2  59 21 0 -33.6114806757362 -27.3204201817765
2  60 24 0 -33.6114806757362 -27.3204201817765
2  61 3 0 -33.6114806757362 -27.3204201817765
2  62 4 0 -33.6114806757362 -27.3204201817765
0

0101000
+289 0 -291 0 *
Ve
1.50000014238583e-07
-1.0881907795125 -50 73.7285338079712
0 0

0101101
*
Ed
 1.5e-07 1 1 0
1  18 0 10.5803291911865 28.2878180385875
2  63 21 0 10.5803291911865 28.2878180385875
2  64 25 0 10.5803291911865 28.2878180385875
2  65 3 0 10.5803291911865 28.2878180385875
2  66 4 0 10.5803291911865 28.2878180385875
0

0101000
+287 0 -289 0 *
Ve
1.50000007105427e-07
-7.96548581157909 -50 50.2214910304089
0 0

0101101
*
Ed
 1.5e-07 1 1 0
1  19 0 16.5624201834245 41.0548322145869
2  67 21 0 16.5624201834245 41.0548322145869
2  68 26 0 16.5624201834245 41.0548322145869
2  69 3 0 16.5624201834245 41.0548322145869
2  70 4 0 16.5624201834245 41.0548322145869
0

0101000
+285 0 -287 0 *
Ve
1.5e-07
-10.5798524552711 -50 36.8443215734438
0 0

0101101
*
Ed
 1.5e-07 1 1 0
1  20 0 14.2303298002252 27.8605746853331
2  71 21 0 14.2303298002252 27.8605746853331
2  72 27 0 14.2303298002252 27.8605746853331
2  73 3 0 14.2303298002252 27.8605746853331
2  74 4 0 14.2303298002252 27.8605746853331
0

0101000
+283 0 -285 0 *
Ed
 1.5e-07 1 1 0
1  21 0 -40.4045955962597 -15.7543469278434
2  75 21 0 -40.4045955962597 -15.7543469278434
2  76 28 0 -40.4045955962597 -15.7543469278434
2  77 3 0 -40.4045955962597 -15.7543469278434
2  78 4 0 -40.4045955962597 -15.7543469278434
0

0101000
+293 0 -283 0 *
Wi

0101100
-292 0 -290 0 -288 0 -286 0 -284 0 -282 0 -281 0 *
Fa
0  0 4 0

0111000
+295 0 +280 0 *
Ve
1e-07
50 50 100
0 0

0101101
*
Ed
 1e-07 1 1 0
1  22 0 0 100
2  79 9 0 0 100
2  80 20 0 0 100
0

0101000
+298 0 -278 0 *
Ed
 1e-07 1 1 0
1  23 0 0 100
2  81 9 0 0 100
2  82 8 0 0 100
0

0101000
+278 0 -320 0 *
Wi

0101100
-318 0 -297 0 +277 0 +276 0 *
Ve
1e-07
-48 -41.5 100
0 0

0101101
*
Ve
1e-07
-41.5 -41.5 100
0 0

0101101
*
Ed
 1e-07 1 1 0
1  24 0 2 8.5
2  83 29 0 2 8.5
2  84 30 0 2 8.5
2  85 9 0 2 8.5
0

0101000
+274 0 -273 0 *
Ve
1e-07
-48 41.5 100
0 0

0101101
*
Ed
 1e-07 1 1 0
1  25 0 0 83
2  86 31 0 0 83
2  87 32 0 0 83
2  88 30 0 0 83
2  89 9 0 0 83
0

0101000
-271 0 +274 0 *
Ve
1e-07
-41.5 41.5 100
0 0

0101101
*
Ed
 1e-07 1 1 0
1  26 0 2 8.5
2  90 33 0 2 8.5
2  91 34 0 2 8.5
2  92 30 0 2 8.5
2  93 9 0 2 8.5
0

0101000
+271 0 -269 0 *
Ve
1e-07
-41.5 48 100
0 0

0101101
*
Ed
 1e-07 1 1 0
1  27 0 0 6.5
2  94 35 0 0 6.5
2  95 34 0 0 6.5
2  96 30 0 0 6.5
2  97 9 0 0 6.5
0

0101000
+269 0 -267 0 *
Ve
1e-07
41.5 48 100
0 0

0101101
*
Ed
 1e-07 1 1 0
1  28 0 0 83
2  98 36 0 0 83
2  99 37 0 0 83
2  100 30 0 0 83
2  101 9 0 0 83
0

0101000
-265 0 +267 0 *
Ve
1e-07
41.5 41.5 100
0 0

0101101
*
Ed
 1e-07 1 1 0
1  29 0 0 6.5
2  102 38 0 0 6.5
2  103 39 0 0 6.5
2  104 30 0 0 6.5
2  105 9 0 0 6.5
0

0101000
+263 0 -265 0 *
Ve
1e-07
48 41.5 100
0 0

0101101
*
Ed
 1e-07 1 1 0
1  30 0 0 6.5
2  106 40 0 0 6.5
2  107 39 0 0 6.5
2  108 30 0 0 6.5
2  109 9 0 0 6.5
0

0101000
+263 0 -261 0 *
Ve
1e-07
48 -41.5 100
0 0

0101101
*
Ed
 1e-07 1 1 0
1  31 0 0 83
2  110 41 0 0 83
2  111 42 0 0 83
2  112 30 0 0 83
2  113 9 0 0 83
0

0101000
-261 0 +259 0 *
Ve
1e-07
41.5 -41.5 100
0 0

0101101
*
Ed
 1e-07 1 1 0
1  32 0 0 6.5
2  114 43 0 0 6.5
2  115 44 0 0 6.5
2  116 30 0 0 6.5
2  117 9 0 0 6.5
0

0101000
+257 0 -259 0 *
Ve
1e-07
41.5 -48 100
0 0

0101101
*
Ed
 1e-07 1 1 0
1  33 0 2 8.5
2  118 45 0 2 8.5
2  119 44 0 2 8.5
2  120 30 0 2 8.5
2  121 9 0 2 8.5
0

0101000
+255 0 -257 0 *
Ve
1e-07
-41.5 -48 100
0 0

0101101
*
Ed
 1e-07 1 1 0
1  34 0 0 83
2  122 46 0 0 83
2  123 47 0 0 83
2  124 30 0 0 83
2  125 9 0 0 83
0

0101000
-255 0 +253 0 *
Ed
 1e-07 1 1 0
1  35 0 2 8.5
2  126 48 0 2 8.5
2  127 30 0 2 8.5
2  128 9 0 2 8.5
0

0101000
+253 0 -273 0 *
Wi

0101100
-272 0 +270 0 +268 0 +266 0 +264 0 -262 0 +260 0 -258 0 -256 0 -254 0 
-252 0 +251 0 *
Fa
0  0 9 0

0111000
+275 0 +250 0 *
Ve
1e-07
50 50 0
0 0

0101101
*
Ed
 1e-07 1 1 0
1  36 0 0 100
2  129 5 0 0 100
2  130 20 0 0 100
0

0101000
+248 0 -300 0 *
Ed
 1e-07 1 1 0
1  37 0 0 100
2  131 5 0 0 100
2  132 8 0 0 100
0

0101000
+322 0 -248 0 *
Wi

0101100
+299 0 -247 0 -246 0 +321 0 *
Ve
1e-07
-48 -41.5 0
0 0

0101101
*
Ve
1e-07
-41.5 -41.5 0
0 0

0101101
*
Ed
 1e-07 1 1 0
1  38 0 2 8.5
2  133 29 0 2 8.5
2  134 49 0 2 8.5
2  135 5 0 2 8.5
0

0101000
+244 0 -243 0 *
Ve
1e-07
-48 41.5 0
0 0

0101101
*
Ed
 1e-07 1 1 0
1  39 0 0 83
2  136 31 0 0 83
2  137 50 0 0 83
2  138 49 0 0 83
2  139 5 0 0 83
0

0101000
-241 0 +244 0 *
Ve
1e-07
-41.5 41.5 0
0 0

0101101
*
Ed
 1e-07 1 1 0
1  40 0 2 8.5
2  140 33 0 2 8.5
2  141 51 0 2 8.5
2  142 49 0 2 8.5
2  143 5 0 2 8.5
0

0101000
+241 0 -239 0 *
Ve
1e-07
-41.5 48 0
0 0

0101101
*
Ed
 1e-07 1 1 0
1  41 0 0 6.5
2  144 35 0 0 6.5
2  145 51 0 0 6.5
2  146 49 0 0 6.5
2  147 5 0 0 6.5
0

0101000
+239 0 -237 0 *
Ve
1e-07
41.5 48 0
0 0

0101101
*
Ed
 1e-07 1 1 0
1  42 0 0 83
2  148 36 0 0 83
2  149 52 0 0 83
2  150 49 0 0 83
2  151 5 0 0 83
0

0101000
-235 0 +237 0 *
Ve
1e-07
41.5 41.5 0
0 0

0101101
*
Ed
 1e-07 1 1 0
1  43 0 0 6.5
2  152 38 0 0 6.5
2  153 53 0 0 6.5
2  154 49 0 0 6.5
2  155 5 0 0 6.5
0

0101000
+233 0 -235 0 *
Ve
1e-07
48 41.5 0
0 0

0101101
*
Ed
 1e-07 1 1 0
1  44 0 0 6.5
2  156 40 0 0 6.5
2  157 53 0 0 6.5
2  158 49 0 0 6.5
2  159 5 0 0 6.5
0

0101000
+233 0 -231 0 *
Ve
1e-07
48 -41.5 0
0 0

0101101
*
Ed
 1e-07 1 1 0
1  45 0 0 83
2  160 41 0 0 83
2  161 54 0 0 83
2  162 49 0 0 83
2  163 5 0 0 83
0

0101000
-231 0 +229 0 *
Ve
1e-07
41.5 -41.5 0
0 0

0101101
*
Ed
 1e-07 1 1 0
1  46 0 0 6.5
2  164 43 0 0 6.5
2  165 55 0 0 6.5
2  166 49 0 0 6.5
2  167 5 0 0 6.5
0

0101000
+227 0 -229 0 *
Ve
1e-07
41.5 -48 0
0 0

0101101
*
Ed
 1e-07 1 1 0
1  47 0 2 8.5
2  168 45 0 2 8.5
2  169 55 0 2 8.5
2  170 49 0 2 8.5
2  171 5 0 2 8.5
0

0101000
+225 0 -227 0 *
Ve
1e-07
-41.5 -48 0
0 0

0101101
*
Ed
 1e-07 1 1 0
1  48 0 0 83
2  172 46 0 0 83
2  173 56 0 0 83
2  174 49 0 0 83
2  175 5 0 0 83
0

0101000
-225 0 +223 0 *
Ed
 1e-07 1 1 0
1  49 0 2 8.5
2  176 48 0 2 8.5
2  177 49 0 2 8.5
2  178 5 0 2 8.5
0

0101000
+223 0 -243 0 *
Wi

0101100
-242 0 +240 0 +238 0 +236 0 +234 0 -232 0 +230 0 -228 0 -226 0 -224 0 
-222 0 +221 0 *
Fa
0  0 5 0

0111000
+245 0 +220 0 *
Ed
 1e-07 1 1 0
1  50 0 0 100
2  179 48 0 0 100
2  180 29 0 0 100
0

0101000
-273 0 +243 0 *
Ed
 1e-07 1 1 0
1  51 0 0 100
2  181 31 0 0 100
2  182 57 0 0 100
2  183 29 0 0 100
0

0101000
-274 0 +244 0 *
Wi

0101100
-242 0 -218 0 +272 0 +217 0 *
Fa
0  1e-07 29 0

0101000
+216 0 *
Ed
 1e-07 1 1 0
1  52 0 0 100
2  184 58 0 0 100
2  185 46 0 0 100
2  186 48 0 0 100
0

0101000
-253 0 +223 0 *
Wi

0101100
-214 0 -251 0 +218 0 +221 0 *
Fa
0  1e-07 48 0

0101000
+213 0 *
Ve
1.5e-07
-48 -10.5798524552711 36.8443215734438
0 0

0101101
*
Ve
1.50000007944109e-07
-48 14.0672081914852 37.2407568012978
0 0

0101101
*
Ed
 1.5e-07 1 1 0
1  53 0 15.7543469278434 40.4045955962597
2  187 31 0 15.7543469278434 40.4045955962597
2  188 17 0 15.7543469278434 40.4045955962597
0

0101000
+211 0 -210 0 *
Ed
 1e-07 1 1 0
1  54 0 3 5
2  189 17 0 3 5
2  190 16 0 3 5
0

0101000
+210 0 -305 0 *
Ed
 1e-07 1 1 0
1  55 0 3 5
2  191 17 0 3 5
2  192 11 0 3 5
0

0101000
+211 0 -315 0 *
Wi

0101100
-209 0 -208 0 +303 0 +207 0 *
Fa
0  1e-07 17 0

0101000
+206 0 *
Ve
1.50000003552714e-07
-48 17.3729046077198 57.0647660666076
0 0

0101101
*
Ed
 1.5e-07 1 1 0
1  56 0 22.9366494784147 43.0343849764103
2  193 31 0 22.9366494784147 43.0343849764103
2  194 16 0 22.9366494784147 43.0343849764103
0

0101000
+210 0 -204 0 *
Ed
 1e-07 1 1 0
1  57 0 3 5
2  195 16 0 3 5
2  196 15 0 3 5
0

0101000
+204 0 -307 0 *
Wi

0101100
-203 0 -202 0 +304 0 +208 0 *
Fa
0  1e-07 16 0

0101000
+201 0 *
Ve
1.50000014210855e-07
-48 17.8150874592071 67.1842693168566
0 0

0101101
*
Ed
 1.5e-07 1 1 0
1  58 0 29.790214869469 39.9193743462444
2  197 31 0 29.790214869469 39.9193743462444
2  198 15 0 29.790214869469 39.9193743462444
0

0101000
+204 0 -199 0 *
Ed
 1e-07 1 1 0
1  59 0 3 5
2  199 15 0 3 5
2  200 14 0 3 5
0

0101000
+199 0 -309 0 *
Wi

0101100
-198 0 -197 0 +306 0 +202 0 *
Fa
0  1e-07 15 0

0101000
+196 0 *
Ve
1.50000014648214e-07
-48 16.6154604197866 73.3598937472241
0 0

0101101
*
Ed
 1.5e-07 1 1 0
1  60 0 27.3204201817765 33.6114806757362
2  201 31 0 27.3204201817765 33.6114806757362
2  202 14 0 27.3204201817765 33.6114806757362
0

0101000
+199 0 -194 0 *
Ed
 1e-07 1 1 0
1  61 0 3 5
2  203 14 0 3 5
2  204 13 0 3 5
0

0101000
+194 0 -311 0 *
Wi

0101100
-193 0 -192 0 +308 0 +197 0 *
Fa
0  1e-07 14 0

0101000
+191 0 *
Ve
1.50000014238583e-07
-48 -1.0881907795125 73.7285338079712
0 0

0101101
*
Ed
 1.5e-07 1 1 0
1  62 0 -28.2878180385875 -10.5803291911865
2  205 31 0 -28.2878180385875 -10.5803291911865
2  206 13 0 -28.2878180385875 -10.5803291911865
0

0101000
+194 0 -189 0 *
Ed
 1e-07 1 1 0
1  63 0 3 5
2  207 13 0 3 5
2  208 12 0 3 5
0

0101000
+189 0 -313 0 *
Wi

0101100
-188 0 -187 0 +310 0 +192 0 *
Fa
0  1e-07 13 0

0101000
+186 0 *
Ve
1.50000007160723e-07
-48 -7.96548581157909 50.2214910304089
0 0

0101101
*
Ed
 1.5e-07 1 1 0
1  64 0 -41.0548322145869 -16.5624201834245
2  209 31 0 -41.0548322145869 -16.5624201834245
2  210 12 0 -41.0548322145869 -16.5624201834245
0

0101000
+189 0 -184 0 *
Ed
 1e-07 1 1 0
1  65 0 3 5
2  211 12 0 3 5
2  212 11 0 3 5
0

0101000
+184 0 -316 0 *
Wi

0101100
-183 0 -182 0 +312 0 +187 0 *
Fa
0  1e-07 12 0

0101000
+181 0 *
Ed
 1.5e-07 1 1 0
1  66 0 -27.8605746853331 -14.2303298002252
2  213 31 0 -27.8605746853331 -14.2303298002252
2  214 11 0 -27.8605746853331 -14.2303298002252
0

0101000
+184 0 -211 0 *
Wi

0101100
-179 0 -207 0 +314 0 +182 0 *
Fa
0  1e-07 11 0

0101000
+178 0 *
Ve
1.50000007944109e-07
14.0672081914852 -48 37.2407568012978
0 0

0101101
*
Ed
 1e-07 1 1 0
1  67 0 3 5
2  215 28 0 3 5
2  216 22 0 3 5
0

0101000
+293 0 -176 0 *
Ve
1.5e-07
-10.5798524552711 -48 36.8443215734438
0 0

0101101
*
Ed
 1.5e-07 1 1 0
1  68 0 -40.4045955962597 -15.7543469278434
2  217 46 0 -40.4045955962597 -15.7543469278434
2  218 28 0 -40.4045955962597 -15.7543469278434
0

0101000
+176 0 -174 0 *
Ed
 1e-07 1 1 0
1  69 0 3 5
2  219 28 0 3 5
2  220 27 0 3 5
0

0101000
+283 0 -174 0 *
Wi

0101100
+281 0 -175 0 -173 0 +172 0 *
Fa
0  1e-07 28 0

0101000
+171 0 *
Ve
1.50000007105427e-07
-7.96548581157909 -48 50.2214910304089
0 0

0101101
*
Ed
 1.5e-07 1 1 0
1  70 0 14.2303298002252 27.8605746853331
2  221 46 0 14.2303298002252 27.8605746853331
2  222 27 0 14.2303298002252 27.8605746853331
0

0101000
+174 0 -169 0 *
Ed
 1e-07 1 1 0
1  71 0 3 5
2  223 26 0 3 5
2  224 27 0 3 5
0

0101000
+285 0 -169 0 *
Wi

0101100
+282 0 -172 0 -168 0 +167 0 *
Fa
0  1e-07 27 0

0101000
+166 0 *
Ve
1.50000014238583e-07
-1.0881907795125 -48 73.7285338079712
0 0

0101101
*
Ed
 1.5e-07 1 1 0
1  72 0 16.5624201834245 41.0548322145869
2  225 46 0 16.5624201834245 41.0548322145869
2  226 26 0 16.5624201834245 41.0548322145869
0

0101000
+169 0 -164 0 *
Ed
 1e-07 1 1 0
1  73 0 3 5
2  227 25 0 3 5
2  228 26 0 3 5
0

0101000
+287 0 -164 0 *
Wi

0101100
+284 0 -167 0 -163 0 +162 0 *
Fa
0  1e-07 26 0

0101000
+161 0 *
Ve
1.50000014648214e-07
16.6154604197866 -48 73.3598937472241
0 0

0101101
*
Ed
 1.5e-07 1 1 0
1  74 0 10.5803291911865 28.2878180385875
2  229 46 0 10.5803291911865 28.2878180385875
2  230 25 0 10.5803291911865 28.2878180385875
0

0101000
+164 0 -159 0 *
Ed
 1e-07 1 1 0
1  75 0 3 5
2  231 24 0 3 5
2  232 25 0 3 5
0

0101000
+289 0 -159 0 *
Wi

0101100
+286 0 -162 0 -158 0 +157 0 *
Fa
0  1e-07 25 0

0101000
+156 0 *
Ve
1.50000007105427e-07
17.8150874592071 -48 67.1842693168566
0 0

0101101
*
Ed
 1.5e-07 1 1 0
1  76 0 -33.6114806757362 -27.3204201817765
2  233 46 0 -33.6114806757362 -27.3204201817765
2  234 24 0 -33.6114806757362 -27.3204201817765
0

0101000
+159 0 -154 0 *
Ed
 1e-07 1 1 0
1  77 0 3 5
2  235 23 0 3 5
2  236 24 0 3 5
0

0101000
+291 0 -154 0 *
Wi

0101100
+288 0 -157 0 -153 0 +152 0 *
Fa
0  1e-07 24 0

0101000
+151 0 *
Ve
1.50000003552714e-07
17.3729046077198 -48 57.0647660666076
0 0

0101101
*
Ed
 1.5e-07 1 1 0
1  78 0 -39.9193743462444 -29.790214869469
2  237 46 0 -39.9193743462444 -29.790214869469
2  238 23 0 -39.9193743462444 -29.790214869469
0

0101000
+154 0 -149 0 *
Ed
 1e-07 1 1 0
1  79 0 3 5
2  239 22 0 3 5
2  240 23 0 3 5
0

0101000
+294 0 -149 0 *
Wi

0101100
+290 0 -152 0 -148 0 +147 0 *
Fa
0  1e-07 23 0

0101000
+146 0 *
Ed
 1.5e-07 1 1 0
1  80 0 -43.0343849764103 -22.9366494784147
2  241 46 0 -43.0343849764103 -22.9366494784147
2  242 22 0 -43.0343849764103 -22.9366494784147
0

0101000
+149 0 -176 0 *
Wi

0101100
+292 0 -147 0 -144 0 +175 0 *
Fa
0  1e-07 22 0

0101000
+143 0 *
Ed
 1e-07 1 1 0
1  81 0 0 100
2  243 31 0 0 100
2  244 59 0 0 100
2  245 33 0 0 100
0

0101000
-271 0 +241 0 *
Wi

0101100
-217 0 -270 0 +240 0 +141 0 *
Wi

0101100
-209 0 -203 0 -198 0 -193 0 -188 0 -183 0 -179 0 *
Fa
0  1e-07 31 0

0101000
+140 0 +139 0 *
Ed
 1e-07 1 1 0
1  82 0 0 100
2  246 60 0 0 100
2  247 46 0 0 100
2  248 45 0 0 100
0

0101000
-255 0 +225 0 *
Wi

0101100
-222 0 -137 0 +214 0 +252 0 *
Wi

0101100
-173 0 -168 0 -163 0 -158 0 -153 0 -148 0 -144 0 *
Fa
0  1e-07 46 0

0101000
+136 0 +135 0 *
Ed
 1e-07 1 1 0
1  83 0 0 100
2  249 61 0 0 100
2  250 62 0 0 100
2  251 7 0 0 100
2  252 18 0 0 100
2  253 20 0 0 100
2  254 8 0 0 100
0

0101000
-278 0 +248 0 *
Wi

0101100
-246 0 +319 0 -276 0 -133 0 *
Ve
1.50000003552714e-07
17.3729046077198 50 57.0647660666076
0 0

0101101
*
Ve
1.50000007944109e-07
14.0672081914852 50 37.2407568012978
0 0

0101101
*
Ed
 1.5e-07 1 1 0
1  84 0 -43.0343849764103 -22.9366494784147
2  255 63 0 -43.0343849764103 -22.9366494784147
2  256 64 0 -43.0343849764103 -22.9366494784147
2  257 7 0 -43.0343849764103 -22.9366494784147
2  258 8 0 -43.0343849764103 -22.9366494784147
0

0101000
+131 0 -130 0 *
Ve
1.50000007105427e-07
17.8150874592071 50 67.1842693168566
0 0

0101101
*
Ed
 1.5e-07 1 1 0
1  85 0 -39.9193743462444 -29.790214869469
2  259 63 0 -39.9193743462444 -29.790214869469
2  260 65 0 -39.9193743462444 -29.790214869469
2  261 7 0 -39.9193743462444 -29.790214869469
2  262 8 0 -39.9193743462444 -29.790214869469
0

0101000
+128 0 -131 0 *
Ve
1.50000014648214e-07
16.6154604197866 50 73.3598937472241
0 0

0101101
*
Ed
 1.5e-07 1 1 0
1  86 0 -33.6114806757362 -27.3204201817765
2  263 63 0 -33.6114806757362 -27.3204201817765
2  264 66 0 -33.6114806757362 -27.3204201817765
2  265 7 0 -33.6114806757362 -27.3204201817765
2  266 8 0 -33.6114806757362 -27.3204201817765
0

0101000
+126 0 -128 0 *
Ve
1.50000014238583e-07
-1.0881907795125 50 73.7285338079712
0 0

0101101
*
Ed
 1.5e-07 1 1 0
1  87 0 10.5803291911865 28.2878180385875
2  267 63 0 10.5803291911865 28.2878180385875
2  268 67 0 10.5803291911865 28.2878180385875
2  269 7 0 10.5803291911865 28.2878180385875
2  270 8 0 10.5803291911865 28.2878180385875
0

0101000
+124 0 -126 0 *
Ve
1.50000007105427e-07
-7.96548581157909 50 50.2214910304089
0 0

0101101
*
Ed
 1.5e-07 1 1 0
1  88 0 16.5624201834245 41.0548322145869
2  271 63 0 16.5624201834245 41.0548322145869
2  272 68 0 16.5624201834245 41.0548322145869
2  273 7 0 16.5624201834245 41.0548322145869
2  274 8 0 16.5624201834245 41.0548322145869
0

0101000
+122 0 -124 0 *
Ve
1.5e-07
-10.5798524552711 50 36.8443215734438
0 0

0101101
*
Ed
 1.5e-07 1 1 0
1  89 0 14.2303298002252 27.8605746853331
2  275 63 0 14.2303298002252 27.8605746853331
2  276 69 0 14.2303298002252 27.8605746853331
2  277 7 0 14.2303298002252 27.8605746853331
2  278 8 0 14.2303298002252 27.8605746853331
0

0101000
+120 0 -122 0 *
Ed
 1.5e-07 1 1 0
1  90 0 -40.4045955962597 -15.7543469278434
2  279 63 0 -40.4045955962597 -15.7543469278434
2  280 70 0 -40.4045955962597 -15.7543469278434
2  281 7 0 -40.4045955962597 -15.7543469278434
2  282 8 0 -40.4045955962597 -15.7543469278434
0

0101000
+130 0 -120 0 *
Wi

0101100
-129 0 -127 0 -125 0 -123 0 -121 0 -119 0 -118 0 *
Fa
0  0 8 0

0111000
+132 0 +117 0 *
Wi

0101100
-296 0 -247 0 +133 0 -277 0 *
Ve
1.500000075886e-07
50 -7.96548581157909 50.2214910304089
0 0

0101101
*
Ve
1.50000003552714e-07
50 -10.5798524552711 36.8443215734438
0 0

0101101
*
Ed
 1.5e-07 1 1 0
1  91 0 -27.8605746853331 -14.2303298002252
2  283 71 0 -27.8605746853331 -14.2303298002252
2  284 72 0 -27.8605746853331 -14.2303298002252
2  285 18 0 -27.8605746853331 -14.2303298002252
2  286 20 0 -27.8605746853331 -14.2303298002252
0

0101000
+114 0 -113 0 *
Ve
1.50000014238583e-07
50 -1.0881907795125 73.7285338079712
0 0

0101101
*
Ed
 1.5e-07 1 1 0
1  92 0 -41.0548322145869 -16.5624201834245
2  287 71 0 -41.0548322145869 -16.5624201834245
2  288 73 0 -41.0548322145869 -16.5624201834245
2  289 18 0 -41.0548322145869 -16.5624201834245
2  290 20 0 -41.0548322145869 -16.5624201834245
0

0101000
+111 0 -114 0 *
Ve
1.50000014648214e-07
50 16.6154604197866 73.3598937472241
0 0

0101101
*
Ed
 1.5e-07 1 1 0
1  93 0 -28.2878180385875 -10.5803291911865
2  291 71 0 -28.2878180385875 -10.5803291911865
2  292 74 0 -28.2878180385875 -10.5803291911865
2  293 18 0 -28.2878180385875 -10.5803291911865
2  294 20 0 -28.2878180385875 -10.5803291911865
0

0101000
+109 0 -111 0 *
Ve
1.50000007105427e-07
50 17.8150874592071 67.1842693168566
0 0

0101101
*
Ed
 1.5e-07 1 1 0
1  94 0 27.3204201817765 33.6114806757362
2  295 71 0 27.3204201817765 33.6114806757362
2  296 75 0 27.3204201817765 33.6114806757362
2  297 18 0 27.3204201817765 33.6114806757362
2  298 20 0 27.3204201817765 33.6114806757362
0

0101000
+107 0 -109 0 *
Ve
1.50000003552714e-07
50 17.3729046077198 57.0647660666076
0 0

0101101
*
Ed
 1.5e-07 1 1 0
1  95 0 29.790214869469 39.9193743462444
2  299 71 0 29.790214869469 39.9193743462444
2  300 76 0 29.790214869469 39.9193743462444
2  301 18 0 29.790214869469 39.9193743462444
2  302 20 0 29.790214869469 39.9193743462444
0

0101000
+105 0 -107 0 *
Ve
1.50000007944109e-07
50 14.0672081914852 37.2407568012978
0 0

0101101
*
Ed
 1.5e-07 1 1 0
1  96 0 22.9366494784147 43.0343849764103
2  303 71 0 22.9366494784147 43.0343849764103
2  304 77 0 22.9366494784147 43.0343849764103
2  305 18 0 22.9366494784147 43.0343849764103
2  306 20 0 22.9366494784147 43.0343849764103
0

0101000
+103 0 -105 0 *
Ed
 1.5e-07 1 1 0
1  97 0 15.7543469278434 40.4045955962597
2  307 71 0 15.7543469278434 40.4045955962597
2  308 78 0 15.7543469278434 40.4045955962597
2  309 18 0 15.7543469278434 40.4045955962597
2  310 20 0 15.7543469278434 40.4045955962597
0

0101000
+113 0 -103 0 *
Wi

0101100
-112 0 -110 0 -108 0 -106 0 -104 0 -102 0 -101 0 *
Fa
0  0 20 0

0111000
+115 0 +100 0 *
Ed
 1e-07 1 1 0
1  98 0 0 100
2  311 79 0 0 100
2  312 36 0 0 100
2  313 35 0 0 100
0

0101000
-267 0 +237 0 *
Ed
 1e-07 1 1 0
1  99 0 0 100
2  314 35 0 0 100
2  315 33 0 0 100
0

0101000
-269 0 +239 0 *
Wi

0101100
-266 0 +98 0 +236 0 -97 0 *
Fa
0  1e-07 35 0

0101000
+96 0 *
Wi

0101100
-238 0 -97 0 +268 0 +141 0 *
Fa
0  1e-07 33 0

0101000
+94 0 *
Ed
 1e-07 1 1 0
1  100 0 0 100
2  316 45 0 0 100
2  317 43 0 0 100
0

0101000
-257 0 +227 0 *
Wi

0101100
-137 0 -254 0 +92 0 +224 0 *
Fa
0  1e-07 45 0

0101000
+91 0 *
Ed
 1e-07 1 1 0
1  101 0 0 100
2  318 41 0 0 100
2  319 80 0 0 100
2  320 43 0 0 100
0

0101000
-259 0 +229 0 *
Wi

0101100
-226 0 -89 0 +256 0 +92 0 *
Fa
0  1e-07 43 0

0101000
+88 0 *
Ed
 1e-07 1 1 0
1  102 0 0 100
2  321 81 0 0 100
2  322 36 0 0 100
2  323 38 0 0 100
0

0101000
-265 0 +235 0 *
Wi

0101100
-234 0 -86 0 +98 0 +264 0 *
Ve
1.50000007944109e-07
14.0672081914852 48 37.2407568012978
0 0

0101101
*
Ve
1.5e-07
-10.5798524552711 48 36.8443215734438
0 0

0101101
*
Ed
 1.5e-07 1 1 0
1  103 0 -40.4045955962597 -15.7543469278434
2  324 36 0 -40.4045955962597 -15.7543469278434
2  325 70 0 -40.4045955962597 -15.7543469278434
0

0101000
+84 0 -83 0 *
Ve
1.50000007105427e-07
-7.96548581157909 48 50.2214910304089
0 0

0101101
*
Ed
 1.5e-07 1 1 0
1  104 0 14.2303298002252 27.8605746853331
2  326 36 0 14.2303298002252 27.8605746853331
2  327 69 0 14.2303298002252 27.8605746853331
0

0101000
+83 0 -81 0 *
Ve
1.50000014238583e-07
-1.0881907795125 48 73.7285338079712
0 0

0101101
*
Ed
 1.5e-07 1 1 0
1  105 0 16.5624201834245 41.0548322145869
2  328 36 0 16.5624201834245 41.0548322145869
2  329 68 0 16.5624201834245 41.0548322145869
0

0101000
+81 0 -79 0 *
Ve
1.50000014648214e-07
16.6154604197866 48 73.3598937472241
0 0

0101101
*
Ed
 1.5e-07 1 1 0
1  106 0 10.5803291911865 28.2878180385875
2  330 36 0 10.5803291911865 28.2878180385875
2  331 67 0 10.5803291911865 28.2878180385875
0

0101000
+79 0 -77 0 *
Ve
1.50000007105427e-07
17.8150874592071 48 67.1842693168566
0 0

0101101
*
Ed
 1.5e-07 1 1 0
1  107 0 -33.6114806757362 -27.3204201817765
2  332 36 0 -33.6114806757362 -27.3204201817765
2  333 66 0 -33.6114806757362 -27.3204201817765
0

0101000
+77 0 -75 0 *
Ve
1.50000003552714e-07
17.3729046077198 48 57.0647660666076
0 0

0101101
*
Ed
 1.5e-07 1 1 0
1  108 0 -39.9193743462444 -29.790214869469
2  334 36 0 -39.9193743462444 -29.790214869469
2  335 65 0 -39.9193743462444 -29.790214869469
0

0101000
+75 0 -73 0 *
Ed
 1.5e-07 1 1 0
1  109 0 -43.0343849764103 -22.9366494784147
2  336 36 0 -43.0343849764103 -22.9366494784147
2  337 64 0 -43.0343849764103 -22.9366494784147
0

0101000
+73 0 -84 0 *
Wi

0101100
-82 0 -80 0 -78 0 -76 0 -74 0 -72 0 -71 0 *
Fa
0  1e-07 36 0

0101000
+85 0 +70 0 *
Ed
 1e-07 1 1 0
1  110 0 0 100
2  338 41 0 0 100
2  339 82 0 0 100
2  340 40 0 0 100
0

0101000
-261 0 +231 0 *
Wi

0101100
-89 0 -258 0 +228 0 +68 0 *
Ve
1.50000001776357e-07
48 -10.5798524552711 36.8443215734438
0 0

0101101
*
Ve
1.50000007944109e-07
48 14.0672081914852 37.2407568012978
0 0

0101101
*
Ed
 1.5e-07 1 1 0
1  111 0 15.7543469278434 40.4045955962597
2  341 41 0 15.7543469278434 40.4045955962597
2  342 78 0 15.7543469278434 40.4045955962597
0

0101000
+66 0 -65 0 *
Ve
1.50000003552714e-07
48 17.3729046077198 57.0647660666076
0 0

0101101
*
Ed
 1.5e-07 1 1 0
1  112 0 22.9366494784147 43.0343849764103
2  343 41 0 22.9366494784147 43.0343849764103
2  344 77 0 22.9366494784147 43.0343849764103
0

0101000
+65 0 -63 0 *
Ve
1.50000007105427e-07
48 17.8150874592071 67.1842693168566
0 0

0101101
*
Ed
 1.5e-07 1 1 0
1  113 0 29.790214869469 39.9193743462444
2  345 41 0 29.790214869469 39.9193743462444
2  346 76 0 29.790214869469 39.9193743462444
0

0101000
+63 0 -61 0 *
Ve
1.50000014648214e-07
48 16.6154604197866 73.3598937472241
0 0

0101101
*
Ed
 1.5e-07 1 1 0
1  114 0 27.3204201817765 33.6114806757362
2  347 41 0 27.3204201817765 33.6114806757362
2  348 75 0 27.3204201817765 33.6114806757362
0

0101000
+61 0 -59 0 *
Ve
1.50000014238583e-07
48 -1.0881907795125 73.7285338079712
0 0

0101101
*
Ed
 1.5e-07 1 1 0
1  115 0 -28.2878180385875 -10.5803291911865
2  349 41 0 -28.2878180385875 -10.5803291911865
2  350 74 0 -28.2878180385875 -10.5803291911865
0

0101000
+59 0 -57 0 *
Ve
1.50000007324107e-07
48 -7.96548581157909 50.2214910304089
0 0

0101101
*
Ed
 1.5e-07 1 1 0
1  116 0 -41.0548322145869 -16.5624201834245
2  351 41 0 -41.0548322145869 -16.5624201834245
2  352 73 0 -41.0548322145869 -16.5624201834245
0

0101000
+57 0 -55 0 *
Ed
 1.5e-07 1 1 0
1  117 0 -27.8605746853331 -14.2303298002252
2  353 41 0 -27.8605746853331 -14.2303298002252
2  354 72 0 -27.8605746853331 -14.2303298002252
0

0101000
+55 0 -66 0 *
Wi

0101100
-64 0 -62 0 -60 0 -58 0 -56 0 -54 0 -53 0 *
Fa
0  1e-07 41 0

0101000
+67 0 +52 0 *
Ed
 1e-07 1 1 0
1  118 0 3 5
2  355 70 0 3 5
2  356 64 0 3 5
0

0101000
+84 0 -130 0 *
Ed
 1e-07 1 1 0
1  119 0 3 5
2  357 70 0 3 5
2  358 69 0 3 5
0

0101000
+83 0 -120 0 *
Wi

0101100
+82 0 -50 0 -118 0 +49 0 *
Fa
0  1e-07 70 0

0101000
+48 0 *
Ed
 1e-07 1 1 0
1  120 0 3 5
2  359 68 0 3 5
2  360 69 0 3 5
0

0101000
+81 0 -122 0 *
Wi

0101100
+80 0 -49 0 -119 0 +46 0 *
Fa
0  1e-07 69 0

0101000
+45 0 *
Ed
 1e-07 1 1 0
1  121 0 3 5
2  361 67 0 3 5
2  362 68 0 3 5
0

0101000
+79 0 -124 0 *
Wi

0101100
+78 0 -46 0 -121 0 +43 0 *
Fa
0  1e-07 68 0

0101000
+42 0 *
Ed
 1e-07 1 1 0
1  122 0 3 5
2  363 66 0 3 5
2  364 67 0 3 5
0

0101000
+77 0 -126 0 *
Wi

0101100
+76 0 -43 0 -123 0 +40 0 *
Fa
0  1e-07 67 0

0101000
+39 0 *
Ed
 1e-07 1 1 0
1  123 0 3 5
2  365 65 0 3 5
2  366 66 0 3 5
0

0101000
+75 0 -128 0 *
Wi

0101100
+74 0 -40 0 -125 0 +37 0 *
Fa
0  1e-07 66 0

0101000
+36 0 *
Ed
 1e-07 1 1 0
1  124 0 3 5
2  367 64 0 3 5
2  368 65 0 3 5
0

0101000
+73 0 -131 0 *
Wi

0101100
+72 0 -37 0 -127 0 +34 0 *
Fa
0  1e-07 65 0

0101000
+33 0 *
Wi

0101100
+71 0 -34 0 -129 0 +50 0 *
Fa
0  1e-07 64 0

0101000
+31 0 *
Ed
 1e-07 1 1 0
1  125 0 3 5
2  369 78 0 3 5
2  370 77 0 3 5
0

0101000
+103 0 -65 0 *
Ed
 1e-07 1 1 0
1  126 0 3 5
2  371 78 0 3 5
2  372 72 0 3 5
0

0101000
+113 0 -66 0 *
Wi

0101100
-101 0 -29 0 +64 0 +28 0 *
Fa
0  1e-07 78 0

0101000
+27 0 *
Ed
 1e-07 1 1 0
1  127 0 3 5
2  373 77 0 3 5
2  374 76 0 3 5
0

0101000
+105 0 -63 0 *
Wi

0101100
-102 0 -25 0 +62 0 +29 0 *
Fa
0  1e-07 77 0

0101000
+24 0 *
Ed
 1e-07 1 1 0
1  128 0 3 5
2  375 76 0 3 5
2  376 75 0 3 5
0

0101000
+107 0 -61 0 *
Wi

0101100
-104 0 -22 0 +60 0 +25 0 *
Fa
0  1e-07 76 0

0101000
+21 0 *
Ed
 1e-07 1 1 0
1  129 0 3 5
2  377 75 0 3 5
2  378 74 0 3 5
0

0101000
+109 0 -59 0 *
Wi

0101100
-106 0 -19 0 +58 0 +22 0 *
Fa
0  1e-07 75 0

0101000
+18 0 *
Ed
 1e-07 1 1 0
1  130 0 3 5
2  379 74 0 3 5
2  380 73 0 3 5
0

0101000
+111 0 -57 0 *
Wi

0101100
-108 0 -16 0 +56 0 +19 0 *
Fa
0  1e-07 74 0

0101000
+15 0 *
Ed
 1e-07 1 1 0
1  131 0 3 5
2  381 73 0 3 5
2  382 72 0 3 5
0

0101000
+114 0 -55 0 *
Wi

0101100
-110 0 -13 0 +54 0 +16 0 *
Fa
0  1e-07 73 0

0101000
+12 0 *
Wi

0101100
-112 0 -28 0 +53 0 +13 0 *
Fa
0  1e-07 72 0

0101000
+10 0 *
Ed
 1e-07 1 1 0
1  132 0 0 100
2  383 38 0 0 100
2  384 40 0 0 100
0

0101000
-263 0 +233 0 *
Wi

0101100
-262 0 +86 0 +232 0 -8 0 *
Fa
0  1e-07 38 0

0101000
+7 0 *
Wi

0101100
-230 0 -68 0 +260 0 +8 0 *
Fa
0  1e-07 40 0

0101000
+5 0 *
Sh

0101100
-301 0 -279 0 +249 0 -219 0 +215 0 +212 0 -205 0 -200 0 -195 0 -190 0 
-185 0 -180 0 -177 0 -170 0 -165 0 -160 0 -155 0 -150 0 -145 0 -142 0 
+138 0 +134 0 +116 0 +99 0 +95 0 -93 0 -90 0 +87 0 -69 0 -51 0 
-47 0 -44 0 -41 0 -38 0 -35 0 -32 0 -30 0 -26 0 -23 0 -20 0 
-17 0 -14 0 -11 0 -9 0 -6 0 -4 0 *
So

0100000
+3 0 *
Co

1100000
+2 0 *

+1 0 