DBRep_DrawableShape

CASCADE Topology V1, (c) Matra-Datavision
Locations 0
Curve2ds 352
1 0 0 1 0 
1 0 0 1 0 
1 0 0 1 0 
1 0 0 1 0 
1 0 -100 0 1 
1 0 100 0 -1 
1 0 -8.5 1 0 
1 0 0 1 0 
1 0 -100 1 0 
1 0 -100 1 0 
1 0 0 1 0 
1 100 0 0 -1 
1 0 0 0 1 
8 -31.436786141266772 -12.480568662618492
1 61.508495175403745 -17.508990915408752 -0.23436509332312008 0.97214865274383078 
8 -31.436786141266772 -12.480568662618492
1 31.436786141266772 -4.9999999999999964 1 1.0793018176345268e-16 
1 61.508495175403745 -26.008990915408752 -0.23436509332312008 0.97214865274383078 
1 61.508495175403745 -26.008990915408752 -0.23436509332312008 0.97214865274383078 
8 -8.614491795766293 3.4696917609418509
1 67.068422782961107 -51.031769293262187 0.521013921342935 0.85354817893711066 
8 -8.614491795766293 3.4696917609418509
1 8.614491795766293 -4.9999999999999991 1 9.4762884088285333e-17 
1 67.068422782961107 -59.531769293262187 0.521013921342935 0.85354817893711066 
1 67.068422782961107 -59.531769293262187 0.521013921342935 0.85354817893711066 
8 26.014042899972996 48.31510342963314
1 15.559890532998605 -47.274109817187075 0.97320007122730889 -0.22996004297086275 
8 26.014042899972996 48.31510342963314
1 -26.014042899972996 -4.9999999999999991 1 -2.5530693445004215e-17 
1 15.559890532998605 -55.774109817187075 0.97320007122730889 -0.22996004297086275 
1 15.559890532998605 -55.774109817187075 0.97320007122730889 -0.22996004297086275 
8 22.87449874364594 33.372637813327351
1 9.3994081696917284 -42.169851604968443 0.94320835357822375 -0.33220174855087176 
8 22.87449874364594 33.372637813327351
1 -22.87449874364594 -4.9999999999999991 1 -3.6881803006191449e-17 
1 9.3994081696917284 -50.669851604968443 0.94320835357822375 -0.33220174855087176 
1 9.3994081696917284 -50.669851604968443 0.94320835357822375 -0.33220174855087176 
8 11.586477390558278 30.766304938069233
1 37.28874566103655 -19.65734140256637 -0.2052218882031149 -0.97871547275106896 
8 11.586477390558278 30.766304938069233
1 -11.586477390558278 -4.9999999999999991 1 -1.0865924524051315e-16 
1 37.28874566103655 -28.15734140256637 -0.2052218882031149 -0.97871547275106896 
1 37.28874566103655 -28.15734140256637 -0.2052218882031149 -0.97871547275106896 
8 -31.503212144735571 -1.9495639583623934
1 32.963433864837 -31.086607618506818 -0.99894800585170873 -0.045857187058242009 
8 -31.503212144735571 -1.9495639583623934
1 31.503212144735571 -5 1 -5.091170491660302e-18 
1 32.963433864837 -39.586607618506818 -0.99894800585170873 -0.045857187058242009 
1 32.963433864837 -39.586607618506818 -0.99894800585170873 -0.045857187058242009 
1 0 0 1 0 
1 0 0 0 1 
1 100 0 -1 0 
1 100 100 0 -1 
1 0 0 1 0 
1 0 8.5 1 0 
1 0 100 1 0 
1 0 100 1 0 
1 0 0 1 0 
8 -30.766304938069233 -11.586477390558278
1 37.28874566103655 19.65734140256637 0.2052218882031149 -0.97871547275106896 
8 -30.766304938069233 -11.586477390558278
1 -11.586477390558278 -3 -1 0 
1 37.28874566103655 28.15734140256637 0.2052218882031149 -0.97871547275106896 
1 37.28874566103655 28.15734140256637 0.2052218882031149 -0.97871547275106896 
8 -33.372637813327351 -22.874498743645944
1 9.3994081696917284 42.169851604968443 -0.94320835357822375 -0.33220174855087176 
8 -33.372637813327351 -22.874498743645944
1 -22.874498743645944 -3 -1 -0 
1 9.3994081696917284 50.669851604968443 -0.94320835357822375 -0.33220174855087176 
1 9.3994081696917284 50.669851604968443 -0.94320835357822375 -0.33220174855087176 
8 -48.31510342963314 -26.014042899972996
1 15.559890532998605 47.274109817187075 -0.97320007122730889 -0.22996004297086275 
8 -48.31510342963314 -26.014042899972996
1 -26.014042899972996 -3 -1 -0 
1 15.559890532998605 55.774109817187075 -0.97320007122730889 -0.22996004297086275 
1 15.559890532998605 55.774109817187075 -0.97320007122730889 -0.22996004297086275 
8 -3.4696917609418509 8.614491795766293
1 67.068422782961107 51.031769293262187 -0.521013921342935 0.85354817893711066 
8 -3.4696917609418509 8.614491795766293
1 8.614491795766293 -3 -1 -0 
1 67.068422782961107 59.531769293262187 -0.521013921342935 0.85354817893711066 
1 67.068422782961107 59.531769293262187 -0.521013921342935 0.85354817893711066 
8 12.480568662618492 31.436786141266772
1 61.508495175403745 17.508990915408752 0.23436509332312008 0.97214865274383078 
8 12.480568662618492 31.436786141266772
1 31.436786141266772 -3 -1 0 
1 61.508495175403745 26.008990915408752 0.23436509332312008 0.97214865274383078 
1 61.508495175403745 26.008990915408752 0.23436509332312008 0.97214865274383078 
8 1.9495639583623934 31.503212144735571
1 32.963433864837 31.086607618506811 0.99894800585170873 -0.045857187058242009 
8 1.9495639583623934 31.503212144735571
1 31.503212144735571 -3 -1 0 
1 32.963433864837 39.586607618506811 0.99894800585170873 -0.045857187058242009 
1 32.963433864837 39.586607618506811 0.99894800585170873 -0.045857187058242009 
1 100 0 0 1 
1 100 0 0 -1 
1 100 100 -1 0 
1 100 100 0 -1 
1 100 0 0 1 
1 0 8.5 1 0 
1 0 8.5 1 0 
1 100 0 0 -1 
1 2 0 0 1 
1 2 8.5 0 1 
1 2 8.5 0 1 
1 100 0 0 1 
1 0 0 1 0 
1 0 91.5 1 0 
1 0 91.5 1 0 
1 100 0 0 -1 
1 8.5 0 0 1 
1 8.5 91.5 0 1 
1 8.5 91.5 0 1 
1 100 0 0 1 
1 0 0 1 0 
1 8.5 98 1 0 
1 8.5 98 1 0 
1 100 0 0 -1 
1 0 0 0 1 
1 91.5 91.5 0 1 
1 91.5 91.5 0 1 
1 100 0 0 1 
1 0 0 1 0 
1 91.5 91.5 1 0 
1 91.5 91.5 1 0 
1 100 0 0 -1 
1 0 0 0 1 
1 98 8.5 0 1 
1 98 8.5 0 1 
1 100 0 0 1 
1 0 8.5 1 0 
1 91.5 8.5 1 0 
1 91.5 8.5 1 0 
1 100 0 0 -1 
1 0 0 0 1 
1 91.5 0 0 1 
1 91.5 0 0 1 
1 100 0 0 1 
1 0 2 1 0 
1 8.5 2 1 0 
1 8.5 2 1 0 
1 100 0 0 -1 
1 8.5 0 0 1 
1 8.5 0 0 1 
1 100 100 0 -1 
1 0 -100 0 1 
1 0 100 1 0 
1 0 0 0 1 
1 0 0 0 1 
1 0 8.5 1 0 
1 0 8.5 1 0 
1 0 0 0 -1 
1 2 0 0 1 
1 2 8.5 0 1 
1 2 8.5 0 1 
1 0 0 0 1 
1 0 0 1 0 
1 0 91.5 1 0 
1 0 91.5 1 0 
1 0 0 0 -1 
1 8.5 0 0 1 
1 8.5 91.5 0 1 
1 8.5 91.5 0 1 
1 0 0 0 1 
1 0 0 1 0 
1 8.5 98 1 0 
1 8.5 98 1 0 
1 0 0 0 -1 
1 0 0 0 1 
1 91.5 91.5 0 1 
1 91.5 91.5 0 1 
1 0 0 0 1 
1 0 0 1 0 
1 91.5 91.5 1 0 
1 91.5 91.5 1 0 
1 0 0 0 -1 
1 0 0 0 1 
1 98 8.5 0 1 
1 98 8.5 0 1 
1 0 0 0 1 
1 0 8.5 1 0 
1 91.5 8.5 1 0 
1 91.5 8.5 1 0 
1 0 0 0 -1 
1 0 0 0 1 
1 91.5 0 0 1 
1 91.5 0 0 1 
1 0 0 0 1 
1 0 2 1 0 
1 8.5 2 1 0 
1 8.5 2 1 0 
1 0 0 0 -1 
1 8.5 0 0 1 
1 8.5 0 0 1 
1 0 -8.5 1 0 
1 0 8.5 1 0 
1 0 0 1 0 
1 0 2 1 0 
1 0 2 1 0 
1 0 -2 1 0 
1 0 0 1 0 
1 0 -2 1 0 
8 -31.503212144735571 -1.9495639583623934
1 32.963433864837 -31.086607618506818 -0.99894800585170873 -0.045857187058242009 
8 -31.503212144735571 -1.9495639583623934
1 31.503212144735571 -3 1 -5.091170491660302e-18 
1 29.553648186373177 -1.5046266156737314e-16 0 -1 
1 0 0 0 -1 
1 0 0 0 -1 
1 18.956217478648281 2.0459479980180473e-15 0 -1 
8 11.586477390558278 30.766304938069233
1 37.28874566103655 -19.65734140256637 -0.2052218882031149 -0.97871547275106896 
8 11.586477390558278 30.766304938069233
1 -11.586477390558278 -2.9999999999999987 1 -1.0865924524051315e-16 
1 19.179827547510953 -2.0840655851557428e-15 0 -1 
1 0 0 0 -1 
8 22.87449874364594 33.372637813327351
1 9.3994081696917284 -42.169851604968443 0.94320835357822375 -0.33220174855087176 
8 22.87449874364594 33.372637813327351
1 -22.87449874364594 -2.9999999999999991 1 -3.6881803006191449e-17 
1 10.498139069681409 -3.8719029709959179e-16 0 -1 
1 0 0 0 -1 
8 26.014042899972996 48.31510342963314
1 15.559890532998605 -47.274109817187075 0.97320007122730889 -0.22996004297086275 
8 26.014042899972996 48.31510342963314
1 -26.014042899972996 -2.9999999999999996 1 -2.5530693445004215e-17 
1 22.301060529660148 -5.6936153988123656e-16 0 -1 
1 0 0 0 -1 
8 -8.614491795766293 3.4696917609418509
1 67.068422782961107 -51.031769293262187 0.521013921342935 0.85354817893711066 
8 -8.614491795766293 3.4696917609418509
1 8.614491795766293 -2.9999999999999991 1 9.4762884088285333e-17 
1 12.084183556708144 1.1451320856858974e-15 0 -1 
1 -0 0 0 -1 
8 -31.436786141266772 -12.480568662618492
1 61.508495175403745 -17.508990915408752 -0.23436509332312008 0.97214865274383078 
8 -31.436786141266772 -12.480568662618492
1 31.436786141266772 -2.9999999999999964 1 1.0793018176345268e-16 
1 29.553648186373177 0 0 -1 
1 0 0 0 -1 
8 1.9495639583623934 31.503212144735571
1 32.963433864837 31.086607618506811 0.99894800585170873 -0.045857187058242009 
8 1.9495639583623934 31.503212144735571
1 31.503212144735571 -5 -1 0 
1 0 0 0 -1 
1 18.956217478648281 0 0 -1 
8 12.480568662618492 31.436786141266772
1 61.508495175403745 17.508990915408752 0.23436509332312008 0.97214865274383078 
8 12.480568662618492 31.436786141266772
1 31.436786141266772 -5 -1 0 
1 12.084183556708144 0 0 -1 
1 0 0 0 -1 
8 -3.4696917609418509 8.614491795766293
1 67.068422782961107 51.031769293262187 -0.521013921342935 0.85354817893711066 
8 -3.4696917609418509 8.614491795766293
1 8.614491795766293 -5 -1 -0 
1 22.301060529660148 0 0 -1 
1 0 0 0 -1 
8 -48.31510342963314 -26.014042899972996
1 15.559890532998605 47.274109817187075 -0.97320007122730889 -0.22996004297086275 
8 -48.31510342963314 -26.014042899972996
1 -26.014042899972996 -5 -1 -0 
1 10.498139069681409 0 0 -1 
1 0 0 0 -1 
8 -33.372637813327351 -22.874498743645944
1 9.3994081696917284 42.169851604968443 -0.94320835357822375 -0.33220174855087176 
8 -33.372637813327351 -22.874498743645944
1 -22.874498743645944 -5 -1 -0 
1 19.179827547510953 0 0 -1 
1 0 0 0 -1 
8 -30.766304938069233 -11.586477390558278
1 37.28874566103655 19.65734140256637 0.2052218882031149 -0.97871547275106896 
8 -30.766304938069233 -11.586477390558278
1 -11.586477390558278 -5 -1 0 
1 0 -83 1 0 
1 0 2 1 0 
1 0 2 1 0 
1 0 -2 1 0 
1 0 83 1 0 
1 0 -2 1 0 
1 0 -8.5 1 0 
1 0 8.5 1 0 
1 0 100 1 0 
1 0 -100 1 0 
1 0 -100 1 0 
1 0 100 1 0 
8 -30.766304938069233 -11.586477390558278
1 37.28874566103655 19.65734140256637 0.2052218882031149 -0.97871547275106896 
8 -30.766304938069233 -11.586477390558278
1 -11.586477390558278 -5 -1 0 
1 37.28874566103655 28.15734140256637 0.2052218882031149 -0.97871547275106896 
1 37.28874566103655 28.15734140256637 0.2052218882031149 -0.97871547275106896 
8 -33.372637813327351 -22.874498743645944
1 9.3994081696917284 42.169851604968443 -0.94320835357822375 -0.33220174855087176 
8 -33.372637813327351 -22.874498743645944
1 -22.874498743645944 -5 -1 -0 
1 9.3994081696917284 50.669851604968443 -0.94320835357822375 -0.33220174855087176 
1 9.3994081696917284 50.669851604968443 -0.94320835357822375 -0.33220174855087176 
8 -48.31510342963314 -26.014042899972996
1 15.559890532998605 47.274109817187075 -0.97320007122730889 -0.22996004297086275 
8 -48.31510342963314 -26.014042899972996
1 -26.014042899972996 -5 -1 -0 
1 15.559890532998605 55.774109817187075 -0.97320007122730889 -0.22996004297086275 
1 15.559890532998605 55.774109817187075 -0.97320007122730889 -0.22996004297086275 
8 -3.4696917609418509 8.614491795766293
1 67.068422782961107 51.031769293262187 -0.521013921342935 0.85354817893711066 
8 -3.4696917609418509 8.614491795766293
1 8.614491795766293 -5 -1 -0 
1 67.068422782961107 59.531769293262187 -0.521013921342935 0.85354817893711066 
1 67.068422782961107 59.531769293262187 -0.521013921342935 0.85354817893711066 
8 12.480568662618492 31.436786141266772
1 61.508495175403745 17.508990915408752 0.23436509332312008 0.97214865274383078 
8 12.480568662618492 31.436786141266772
1 31.436786141266772 -5 -1 0 
1 61.508495175403745 26.008990915408752 0.23436509332312008 0.97214865274383078 
1 61.508495175403745 26.008990915408752 0.23436509332312008 0.97214865274383078 
8 1.9495639583623934 31.503212144735571
1 32.963433864837 31.086607618506811 0.99894800585170873 -0.045857187058242009 
8 1.9495639583623934 31.503212144735571
1 31.503212144735571 -5 -1 0 
1 32.963433864837 39.586607618506811 0.99894800585170873 -0.045857187058242009 
1 32.963433864837 39.586607618506811 0.99894800585170873 -0.045857187058242009 
8 -31.436786141266772 -12.480568662618492
1 61.508495175403745 -17.508990915408752 -0.23436509332312008 0.97214865274383078 
8 -31.436786141266772 -12.480568662618492
1 31.436786141266772 -2.9999999999999964 1 1.0793018176345268e-16 
1 61.508495175403745 -26.008990915408752 -0.23436509332312008 0.97214865274383078 
1 61.508495175403745 -26.008990915408752 -0.23436509332312008 0.97214865274383078 
8 -8.614491795766293 3.4696917609418509
1 67.068422782961107 -51.031769293262187 0.521013921342935 0.85354817893711066 
8 -8.614491795766293 3.4696917609418509
1 8.614491795766293 -2.9999999999999991 1 9.4762884088285333e-17 
1 67.068422782961107 -59.531769293262187 0.521013921342935 0.85354817893711066 
1 67.068422782961107 -59.531769293262187 0.521013921342935 0.85354817893711066 
8 26.014042899972996 48.31510342963314
1 15.559890532998605 -47.274109817187068 0.97320007122730889 -0.22996004297086275 
8 26.014042899972996 48.31510342963314
1 -26.014042899972996 -2.9999999999999996 1 -2.5530693445004215e-17 
1 15.559890532998605 -55.774109817187068 0.97320007122730889 -0.22996004297086275 
1 15.559890532998605 -55.774109817187068 0.97320007122730889 -0.22996004297086275 
8 22.874498743645944 33.372637813327351
1 9.3994081696917284 -42.169851604968443 0.94320835357822375 -0.33220174855087176 
8 22.874498743645944 33.372637813327351
1 -22.874498743645944 -2.9999999999999991 1 -3.6881803006191449e-17 
1 9.3994081696917284 -50.669851604968443 0.94320835357822375 -0.33220174855087176 
1 9.3994081696917284 -50.669851604968443 0.94320835357822375 -0.33220174855087176 
8 11.586477390558278 30.766304938069233
1 37.28874566103655 -19.65734140256637 -0.2052218882031149 -0.97871547275106896 
8 11.586477390558278 30.766304938069233
1 -11.586477390558278 -2.9999999999999987 1 -1.0865924524051315e-16 
1 37.28874566103655 -28.15734140256637 -0.2052218882031149 -0.97871547275106896 
1 37.28874566103655 -28.15734140256637 -0.2052218882031149 -0.97871547275106896 
8 -31.503212144735571 -1.9495639583623934
1 32.963433864837 -31.086607618506811 -0.99894800585170873 -0.045857187058242009 
8 -31.503212144735571 -1.9495639583623934
1 31.503212144735571 -3 1 -5.091170491660302e-18 
1 32.963433864837 -39.586607618506811 -0.99894800585170873 -0.045857187058242009 
1 32.963433864837 -39.586607618506811 -0.99894800585170873 -0.045857187058242009 
1 0 0 1 0 
1 0 0 1 0 
1 0 -6.5 1 0 
1 0 0 1 0 
1 0 8.5 1 0 
1 0 -8.5 1 0 
1 0 0 1 0 
1 0 0 1 0 
1 0 0 1 0 
1 0 6.5 1 0 
1 0 0 1 0 
1 0 83 1 0 
1 0 -6.5 1 0 
8 1.9495639583623934 31.503212144735571
1 32.963433864837 31.086607618506811 0.99894800585170873 -0.045857187058242009 
8 1.9495639583623934 31.503212144735571
1 31.503212144735571 -3 -1 0 
8 12.480568662618492 31.436786141266772
1 61.508495175403745 17.508990915408752 0.23436509332312008 0.97214865274383078 
8 12.480568662618492 31.436786141266772
1 31.436786141266772 -3 -1 0 
8 -3.4696917609418509 8.614491795766293
1 67.068422782961107 51.031769293262187 -0.521013921342935 0.85354817893711066 
8 -3.4696917609418509 8.614491795766293
1 8.614491795766293 -3 -1 -0 
8 -48.31510342963314 -26.014042899972996
1 15.559890532998605 47.274109817187075 -0.97320007122730889 -0.22996004297086275 
8 -48.31510342963314 -26.014042899972996
1 -26.014042899972996 -3 -1 -0 
8 -33.372637813327351 -22.874498743645944
1 9.3994081696917284 42.169851604968443 -0.94320835357822375 -0.33220174855087176 
8 -33.372637813327351 -22.874498743645944
1 -22.874498743645944 -3 -1 -0 
8 -30.766304938069233 -11.586477390558278
1 37.28874566103655 19.65734140256637 0.2052218882031149 -0.97871547275106896 
8 -30.766304938069233 -11.586477390558278
1 -11.586477390558278 -3 -1 0 
1 0 -83 1 0 
1 0 0 1 0 
1 0 6.5 1 0 
8 -31.503212144735571 -1.9495639583623934
1 32.963433864837 -31.086607618506811 -0.99894800585170873 -0.045857187058242009 
8 -31.503212144735571 -1.9495639583623934
1 31.503212144735571 -5 1 -5.091170491660302e-18 
8 11.586477390558278 30.766304938069233
1 37.28874566103655 -19.65734140256637 -0.2052218882031149 -0.97871547275106896 
8 11.586477390558278 30.766304938069233
1 -11.586477390558278 -4.9999999999999991 1 -1.0865924524051315e-16 
8 22.874498743645944 33.372637813327351
1 9.3994081696917284 -42.169851604968443 0.94320835357822375 -0.33220174855087176 
8 22.874498743645944 33.372637813327351
1 -22.874498743645944 -4.9999999999999991 1 -3.6881803006191449e-17 
8 26.014042899972996 48.31510342963314
1 15.559890532998605 -47.274109817187068 0.97320007122730889 -0.22996004297086275 
8 26.014042899972996 48.31510342963314
1 -26.014042899972996 -4.9999999999999991 1 -2.5530693445004215e-17 
8 -8.614491795766293 3.4696917609418509
1 67.068422782961107 -51.031769293262187 0.521013921342935 0.85354817893711066 
8 -8.614491795766293 3.4696917609418509
1 8.614491795766293 -4.9999999999999991 1 9.4762884088285333e-17 
8 -31.436786141266772 -12.480568662618492
1 61.508495175403745 -17.508990915408752 -0.23436509332312008 0.97214865274383078 
8 -31.436786141266772 -12.480568662618492
1 31.436786141266772 -4.9999999999999964 1 1.0793018176345268e-16 
1 29.553648186373177 0 0 -1 
1 0 0 0 -1 
1 0 0 0 -1 
1 18.956217478648281 0 0 -1 
1 12.084183556708144 0 0 -1 
1 0 0 0 -1 
1 22.301060529660148 0 0 -1 
1 0 0 0 -1 
1 10.498139069681409 0 0 -1 
1 0 0 0 -1 
1 19.179827547510953 0 0 -1 
1 0 0 0 -1 
1 29.553648186373177 -1.5046266156737314e-16 0 -1 
1 0 0 0 -1 
1 0 0 0 -1 
1 18.956217478648281 2.0459479980180473e-15 0 -1 
1 19.179827547510953 -2.0840655851557428e-15 0 -1 
1 0 0 0 -1 
1 10.498139069681409 -3.8719029709959179e-16 0 -1 
1 0 0 0 -1 
1 22.301060529660148 -5.6936153988123656e-16 0 -1 
1 0 0 0 -1 
1 12.084183556708144 1.1451320856858974e-15 0 -1 
1 -0 0 0 -1 
1 0 0 1 0 
1 0 0 1 0 
Curves 120
1 -50 -50 0 0 0 1 
8 0 100
1 -50 50 0 0 -1 0 
1 -50 50 0 0 0 1 
8 0 100
1 -50 -50 100 0 1 0 
1 -50 -23.991009084591248 61.508495175403745 0 -0.97214865274383078 -0.23436509332312008 
1 -50 9.5317692932621831 67.068422782961107 0 -0.85354817893711066 0.521013921342935 
1 -50 5.7741098171870728 15.559890532998605 0 0.22996004297086275 0.97320007122730889 
1 -50 0.66985160496844465 9.3994081696917284 0 0.33220174855087176 0.94320835357822375 
1 -50 -21.84265859743363 37.28874566103655 -0 0.97871547275106896 -0.2052218882031149 
1 -50 -10.413392381493184 32.963433864837 -0 0.045857187058242009 -0.99894800585170873 
8 0 100
1 -50 -50 0 1 0 0 
8 0 100
1 50 -50 100 -1 0 0 
1 50 -50 0 0 0 1 
1 -21.84265859743363 -50 37.28874566103655 -0.97871547275106896 -0 0.2052218882031149 
1 0.66985160496844109 -50 9.3994081696917284 -0.33220174855087176 0 -0.94320835357822375 
1 5.7741098171870728 -50 15.559890532998605 -0.22996004297086275 0 -0.97320007122730889 
1 9.5317692932621831 -50 67.068422782961107 0.85354817893711066 0 -0.521013921342935 
1 -23.991009084591248 -50 61.508495175403745 0.97214865274383078 0 0.23436509332312008 
1 -10.413392381493187 -50 32.963433864837 -0.045857187058242009 -0 0.99894800585170873 
8 0 100
1 50 -50 100 0 1 0 
8 0 100
1 50 50 100 -1 0 0 
1 -50 -41.5 100 1 0 -0 
1 -48 -41.5 100 -0 1 0 
1 -50 41.5 100 1 0 -0 
1 -41.5 41.5 100 -0 1 0 
1 -41.5 48 100 1 0 -0 
1 41.5 41.5 100 -0 1 0 
1 41.5 41.5 100 1 0 -0 
1 48 -41.5 100 -0 1 0 
1 41.5 -41.5 100 1 0 -0 
1 41.5 -50 100 -0 1 0 
1 -41.5 -48 100 1 0 -0 
1 -41.5 -50 100 -0 1 0 
8 0 100
1 50 50 0 0 -1 0 
8 0 100
1 -50 50 0 1 0 0 
1 -50 -41.5 0 1 0 -0 
1 -48 -41.5 0 -0 1 0 
1 -50 41.5 0 1 0 -0 
1 -41.5 41.5 0 -0 1 0 
1 -41.5 48 0 1 0 -0 
1 41.5 41.5 0 -0 1 0 
1 41.5 41.5 0 1 0 -0 
1 48 -41.5 0 -0 1 0 
1 41.5 -41.5 0 1 0 -0 
1 41.5 -50 0 -0 1 0 
1 -41.5 -48 0 1 0 -0 
1 -41.5 -50 0 -0 1 0 
1 -41.5 -41.5 0 0 0 1 
1 -48 -41.5 0 0 0 1 
1 -41.5 -48 0 0 0 1 
1 -48 -10.413392381493184 32.963433864837 -0 0.045857187058242009 -0.99894800585170873 
1 -45 -10.502793900613817 34.910946893323477 -1 1.1102230246251565e-16 0 
1 -45 -11.858041073749806 64.433504814743927 -1 1.1102230246251565e-16 0 
1 -48 -21.84265859743363 37.28874566103655 -0 0.97871547275106896 -0.2052218882031149 
1 -45 8.2688000848323391 30.974826468613163 -1 1.1102230246251565e-16 0 
1 -48 0.66985160496844465 9.3994081696917284 0 0.33220174855087176 0.94320835357822375 
1 -45 11.756300240310726 40.876758936162588 -1 1.1102230246251565e-16 0 
1 -48 5.7741098171870728 15.559890532998605 0 0.22996004297086275 0.97320007122730889 
1 -45 16.884653078007183 62.58015263207237 -1 1.1102230246251565e-16 0 
1 -48 9.5317692932621831 67.068422782961107 0 -0.85354817893711066 0.521013921342935 
1 -45 6.5702202092371742 68.876180493180698 -1 1.1102230246251565e-16 0 
1 -48 -23.991009084591248 61.508495175403745 0 -0.97214865274383078 -0.23436509332312008 
1 -10.502793900613817 -53 34.910946893323477 0 1 0 
1 -10.413392381493187 -48 32.963433864837 -0.045857187058242009 -0 0.99894800585170873 
1 -11.858041073749806 -53 64.433504814743927 0 1 0 
1 -23.991009084591248 -48 61.508495175403745 0.97214865274383078 0 0.23436509332312008 
1 6.5702202092371742 -53 68.876180493180698 0 1 0 
1 9.5317692932621831 -48 67.068422782961107 0.85354817893711066 0 -0.521013921342935 
1 16.884653078007183 -53 62.58015263207237 0 1 0 
1 5.7741098171870728 -48 15.559890532998605 -0.22996004297086275 0 -0.97320007122730889 
1 11.756300240310726 -53 40.876758936162588 0 1 0 
1 0.66985160496844109 -48 9.3994081696917284 -0.33220174855087176 0 -0.94320835357822375 
1 8.2688000848323391 -53 30.974826468613163 0 1 0 
1 -21.84265859743363 -48 37.28874566103655 -0.97871547275106896 -0 0.2052218882031149 
1 -48 41.5 0 0 0 1 
1 41.5 -48 0 0 0 1 
1 50 50 0 0 0 1 
1 -21.84265859743363 50 37.28874566103655 -0.97871547275106896 -0 0.2052218882031149 
1 0.66985160496844109 50 9.3994081696917284 -0.33220174855087176 0 -0.94320835357822375 
1 5.7741098171870728 50 15.559890532998605 -0.22996004297086275 0 -0.97320007122730889 
1 9.5317692932621831 50 67.068422782961107 0.85354817893711066 0 -0.521013921342935 
1 -23.991009084591248 50 61.508495175403745 0.97214865274383078 0 0.23436509332312008 
1 -10.413392381493187 50 32.963433864837 -0.045857187058242009 -0 0.99894800585170873 
1 50 -23.991009084591248 61.508495175403745 0 -0.97214865274383078 -0.23436509332312008 
1 50 9.5317692932621831 67.068422782961107 0 -0.85354817893711066 0.521013921342935 
1 50 5.7741098171870693 15.559890532998605 0 0.22996004297086275 0.97320007122730889 
1 50 0.66985160496844109 9.3994081696917284 0 0.33220174855087176 0.94320835357822375 
1 50 -21.84265859743363 37.28874566103655 -0 0.97871547275106896 -0.2052218882031149 
1 50 -10.413392381493187 32.963433864837 -0 0.045857187058242009 -0.99894800585170873 
1 -41.5 48 0 0 0 1 
1 -41.5 41.5 0 0 0 1 
1 41.5 -41.5 0 0 0 1 
1 48 -41.5 0 0 0 1 
1 41.5 48 0 0 0 1 
1 -10.413392381493187 48 32.963433864837 -0.045857187058242009 -0 0.99894800585170873 
1 -23.991009084591248 48 61.508495175403745 0.97214865274383078 0 0.23436509332312008 
1 9.5317692932621831 48 67.068422782961107 0.85354817893711066 0 -0.521013921342935 
1 5.7741098171870728 48 15.559890532998605 -0.22996004297086275 0 -0.97320007122730889 
1 0.66985160496844109 48 9.3994081696917284 -0.33220174855087176 0 -0.94320835357822375 
1 -21.84265859743363 48 37.28874566103655 -0.97871547275106896 -0 0.2052218882031149 
1 48 41.5 0 0 0 1 
1 48 -10.413392381493187 32.963433864837 -0 0.045857187058242009 -0.99894800585170873 
1 48 -21.84265859743363 37.28874566103655 -0 0.97871547275106896 -0.2052218882031149 
1 48 0.66985160496844109 9.3994081696917284 0 0.33220174855087176 0.94320835357822375 
1 48 5.7741098171870693 15.559890532998605 0 0.22996004297086275 0.97320007122730889 
1 48 9.5317692932621831 67.068422782961107 0 -0.85354817893711066 0.521013921342935 
1 48 -23.991009084591248 61.508495175403745 0 -0.97214865274383078 -0.23436509332312008 
1 -10.502793900613817 45 34.910946893323477 0 1 0 
1 -11.858041073749806 45 64.433504814743927 0 1 0 
1 6.5702202092371742 45 68.876180493180698 0 1 0 
1 16.884653078007183 45 62.58015263207237 0 1 0 
1 11.756300240310726 45 40.876758936162588 0 1 0 
1 8.2688000848323391 45 30.974826468613163 0 1 0 
1 53 -10.502793900613817 34.910946893323477 -1 1.1102230246251565e-16 0 
1 53 -11.858041073749806 64.433504814743927 -1 1.1102230246251565e-16 0 
1 53 8.2688000848323391 30.974826468613163 -1 1.1102230246251565e-16 0 
1 53 11.756300240310726 40.876758936162588 -1 1.1102230246251565e-16 0 
1 53 16.884653078007183 62.58015263207237 -1 1.1102230246251565e-16 0 
1 53 6.5702202092371742 68.876180493180698 -1 1.1102230246251565e-16 0 
1 41.5 41.5 0 0 0 1 
Polygon3D 0
PolygonOnTriangulations 0
Surfaces 78
1 -50 -50 0 1 0 -0 0 0 1 0 -1 0 
1 -50 -50 0 1 0 -0 0 0 1 0 -1 0 
1 -50 -50 0 -0 1 0 0 0 1 1 0 -0 
1 -50 -50 0 -0 1 0 0 0 1 1 0 -0 
1 -50 -50 0 0 0 1 1 0 -0 -0 1 0 
1 -50 41.5 0 1 0 -0 0 0 1 0 -1 0 
1 -50 50 0 -0 1 0 0 0 1 1 0 -0 
1 -50 50 0 -0 1 0 0 0 1 1 0 -0 
1 -50 -50 100 0 0 1 1 0 -0 -0 1 0 
1 -50 -41.5 0 1 0 -0 0 0 1 0 -1 0 
1 -45 6.5702202092371742 68.876180493180698 -2.6019752277575146e-17 -0.23436509332312008 0.97214865274383078 -1.0793018176345268e-16 -0.97214865274383078 -0.23436509332312008 1 -1.1102230246251565e-16 0 
1 -45 16.884653078007183 62.58015263207237 5.784416516251667e-17 0.521013921342935 0.85354817893711066 -9.4762884088285333e-17 -0.85354817893711066 0.521013921342935 1 -1.1102230246251565e-16 0 
1 -45 11.756300240310726 40.876758936162588 1.0804691266434007e-16 0.97320007122730889 -0.22996004297086275 2.5530693445004222e-17 0.22996004297086275 0.97320007122730889 1 -1.1102230246251565e-16 0 
1 -45 8.2688000848323391 30.974826468613163 1.0471716311613297e-16 0.94320835357822375 -0.33220174855087176 3.6881803006191455e-17 0.33220174855087176 0.94320835357822375 1 -1.1102230246251565e-16 0 
1 -45 -10.502793900613817 34.910946893323477 -2.2784206544014796e-17 -0.2052218882031149 -0.97871547275106896 1.0865924524051318e-16 0.97871547275106896 -0.2052218882031149 1 -1.1102230246251565e-16 0 
1 -45 -11.858041073749806 64.433504814743927 -1.1090550764999526e-16 -0.99894800585170873 -0.045857187058242009 5.0911704916603028e-18 0.045857187058242009 -0.99894800585170873 1 -1.1102230246251565e-16 0 
1 50 -50 0 1 0 -0 0 0 1 0 -1 0 
1 41.5 -50 0 -0 1 0 0 0 1 1 0 -0 
1 50 -50 0 1 0 -0 0 0 1 0 -1 0 
1 -41.5 -50 0 -0 1 0 0 0 1 1 0 -0 
1 -10.502793900613817 -53 34.910946893323477 -0.2052218882031149 0 -0.97871547275106896 0.97871547275106896 0 -0.2052218882031149 0 -1 -0 
1 8.2688000848323391 -53 30.974826468613163 0.94320835357822375 0 -0.33220174855087176 0.33220174855087176 0 0.94320835357822375 0 -1 0 
1 11.756300240310726 -53 40.876758936162588 0.97320007122730889 0 -0.22996004297086275 0.22996004297086275 0 0.97320007122730889 0 -1 0 
1 16.884653078007183 -53 62.58015263207237 0.521013921342935 -0 0.85354817893711066 -0.85354817893711066 0 0.521013921342935 -0 -1 0 
1 6.5702202092371742 -53 68.876180493180698 -0.23436509332312008 0 0.97214865274383078 -0.97214865274383078 0 -0.23436509332312008 -0 -1 0 
1 -11.858041073749806 -53 64.433504814743927 -0.99894800585170873 0 -0.045857187058242009 0.045857187058242009 0 -0.99894800585170873 0 -1 -0 
1 -50 -41.5 0 -0 1 0 0 0 1 1 0 -0 
1 -50 -50 100 0 0 1 1 0 -0 -0 1 0 
1 -48 -41.5 0 1 0 -0 0 0 1 0 -1 0 
1 -50 -41.5 100 0 0 1 1 0 -0 -0 1 0 
1 -50 41.5 0 -0 1 0 0 0 1 1 0 -0 
1 -50 41.5 100 0 0 1 1 0 -0 -0 1 0 
1 -41.5 41.5 0 1 0 -0 0 0 1 0 -1 0 
1 -41.5 48 0 -0 1 0 0 0 1 1 0 -0 
1 -41.5 48 100 0 0 1 1 0 -0 -0 1 0 
1 41.5 41.5 0 1 0 -0 0 0 1 0 -1 0 
1 41.5 41.5 100 0 0 1 1 0 -0 -0 1 0 
1 41.5 41.5 0 -0 1 0 0 0 1 1 0 -0 
1 48 -41.5 0 1 0 -0 0 0 1 0 -1 0 
1 48 -41.5 100 0 0 1 1 0 -0 -0 1 0 
1 41.5 -41.5 0 -0 1 0 0 0 1 1 0 -0 
1 41.5 -50 100 0 0 1 1 0 -0 -0 1 0 
1 41.5 -50 0 1 0 -0 0 0 1 0 -1 0 
1 -41.5 -48 0 -0 1 0 0 0 1 1 0 -0 
1 -41.5 -50 100 0 0 1 1 0 -0 -0 1 0 
1 -41.5 -50 0 1 0 -0 0 0 1 0 -1 0 
1 -50 -50 0 0 0 1 1 0 -0 -0 1 0 
1 -50 -41.5 0 0 0 1 1 0 -0 -0 1 0 
1 -50 41.5 0 0 0 1 1 0 -0 -0 1 0 
1 -41.5 48 0 0 0 1 1 0 -0 -0 1 0 
1 41.5 41.5 0 0 0 1 1 0 -0 -0 1 0 
1 48 -41.5 0 0 0 1 1 0 -0 -0 1 0 
1 41.5 -50 0 0 0 1 1 0 -0 -0 1 0 
1 -41.5 -50 0 0 0 1 1 0 -0 -0 1 0 
1 -50 -41.5 0 -0 1 0 0 0 1 1 0 -0 
1 -41.5 -50 0 1 0 -0 0 0 1 0 -1 0 
1 -50 41.5 0 -0 1 0 0 0 1 1 0 -0 
1 41.5 -50 0 1 0 -0 0 0 1 0 -1 0 
1 50 41.5 0 1 0 -0 0 0 1 0 -1 0 
1 41.5 50 0 -0 1 0 0 0 1 1 0 -0 
1 -41.5 50 0 -0 1 0 0 0 1 1 0 -0 
1 -10.502793900613817 45 34.910946893323477 -0.2052218882031149 0 -0.97871547275106896 0.97871547275106896 0 -0.2052218882031149 0 -1 -0 
1 8.2688000848323391 45 30.974826468613163 0.94320835357822375 0 -0.33220174855087176 0.33220174855087176 0 0.94320835357822375 0 -1 0 
1 11.756300240310726 45 40.876758936162588 0.97320007122730889 0 -0.22996004297086275 0.22996004297086275 0 0.97320007122730889 0 -1 0 
1 16.884653078007183 45 62.58015263207237 0.521013921342935 -0 0.85354817893711066 -0.85354817893711066 0 0.521013921342935 -0 -1 0 
1 6.5702202092371742 45 68.876180493180698 -0.23436509332312008 0 0.97214865274383078 -0.97214865274383078 0 -0.23436509332312008 -0 -1 0 
1 -11.858041073749806 45 64.433504814743927 -0.99894800585170873 0 -0.045857187058242009 0.045857187058242009 0 -0.99894800585170873 0 -1 -0 
1 50 -41.5 0 1 0 -0 0 0 1 0 -1 0 
1 53 6.5702202092371742 68.876180493180698 -2.6019752277575146e-17 -0.23436509332312008 0.97214865274383078 -1.0793018176345268e-16 -0.97214865274383078 -0.23436509332312008 1 -1.1102230246251565e-16 0 
1 53 16.884653078007183 62.58015263207237 5.784416516251667e-17 0.521013921342935 0.85354817893711066 -9.4762884088285333e-17 -0.85354817893711066 0.521013921342935 1 -1.1102230246251565e-16 0 
1 53 11.756300240310726 40.876758936162588 1.0804691266434007e-16 0.97320007122730889 -0.22996004297086275 2.5530693445004222e-17 0.22996004297086275 0.97320007122730889 1 -1.1102230246251565e-16 0 
1 53 8.2688000848323391 30.974826468613163 1.0471716311613297e-16 0.94320835357822375 -0.33220174855087176 3.6881803006191455e-17 0.33220174855087176 0.94320835357822375 1 -1.1102230246251565e-16 0 
1 53 -10.502793900613817 34.910946893323477 -2.2784206544014796e-17 -0.2052218882031149 -0.97871547275106896 1.0865924524051318e-16 0.97871547275106896 -0.2052218882031149 1 -1.1102230246251565e-16 0 
1 53 -11.858041073749806 64.433504814743927 -1.1090550764999526e-16 -0.99894800585170873 -0.045857187058242009 5.0911704916603028e-18 0.045857187058242009 -0.99894800585170873 1 -1.1102230246251565e-16 0 
1 -41.5 48 0 1 0 -0 0 0 1 0 -1 0 
1 48 -41.5 0 -0 1 0 0 0 1 1 0 -0 
1 41.5 48 0 1 0 -0 0 0 1 0 -1 0 
1 48 41.5 0 -0 1 0 0 0 1 1 0 -0 
Triangulations 0

TShapes 297
Ve
1e-07
-50 -50 100
0 0

0101101
*
Ve
1e-07
-50 -50 0
0 0

0101101
*
Ed
 1e-07 1 1 0
1  1 0 0 100
2  1 2 0 0 100
2  2 3 0 0 100
2  3 1 0 0 100
2  4 4 0 0 100
0

0101000
-297 0 +296 0 *
Ve
1e-07
-50 50 0
0 0

0101101
*
Ed
 1e-07 1 1 0
1  2 0 0 100
2  5 1 0 0 100
2  6 5 0 0 100
0

0101000
+294 0 -296 0 *
Ve
1e-07
-50 50 100
0 0

0101101
*
Ed
 1e-07 1 1 0
1  3 0 0 100
2  7 6 0 0 100
2  8 7 0 0 100
2  9 2 0 0 100
2  10 1 0 0 100
2  11 8 0 0 100
0

0101000
-292 0 +294 0 *
Ed
 1e-07 1 1 0
1  4 0 0 100
2  12 1 0 0 100
2  13 9 0 0 100
0

0101000
+297 0 -292 0 *
Wi

0101100
-295 0 -293 0 +291 0 -290 0 *
Ve
1.50000005329071e-07
-50 6.57022020923718 68.8761804931807
0 0

0101101
*
Ve
1.50000014321447e-07
-50 -11.8580410737498 64.4335048147439
0 0

0101101
*
Ed
 1.5e-07 1 1 0
1  5 0 -31.4367861412668 -12.4805686626185
2  14 10 0 -31.4367861412668 -12.4805686626185
2  15 11 0 -31.4367861412668 -12.4805686626185
2  16 2 0 -31.4367861412668 -12.4805686626185
2  17 1 0 -31.4367861412668 -12.4805686626185
0

0101000
+288 0 -287 0 *
Ve
1.50000007105427e-07
-50 16.8846530780072 62.5801526320724
0 0

0101101
*
Ed
 1.5e-07 1 1 0
1  6 0 -8.61449179576629 3.46969176094185
2  18 10 0 -8.61449179576629 3.46969176094185
2  19 12 0 -8.61449179576629 3.46969176094185
2  20 2 0 -8.61449179576629 3.46969176094185
2  21 1 0 -8.61449179576629 3.46969176094185
0

0101000
+285 0 -288 0 *
Ve
1.50000007105427e-07
-50 11.7563002403107 40.8767589361626
0 0

0101101
*
Ed
 1.5e-07 1 1 0
1  7 0 26.014042899973 48.3151034296331
2  22 10 0 26.014042899973 48.3151034296331
2  23 13 0 26.014042899973 48.3151034296331
2  24 2 0 26.014042899973 48.3151034296331
2  25 1 0 26.014042899973 48.3151034296331
0

0101000
+283 0 -285 0 *
Ve
1.50000007944109e-07
-50 8.26880008483234 30.9748264686132
0 0

0101101
*
Ed
 1.5e-07 1 1 0
1  8 0 22.8744987436459 33.3726378133274
2  26 10 0 22.8744987436459 33.3726378133274
2  27 14 0 22.8744987436459 33.3726378133274
2  28 2 0 22.8744987436459 33.3726378133274
2  29 1 0 22.8744987436459 33.3726378133274
0

0101000
+281 0 -283 0 *
Ve
1.50000007944109e-07
-50 -10.5027939006138 34.9109468933235
0 0

0101101
*
Ed
 1.5e-07 1 1 0
1  9 0 11.5864773905583 30.7663049380692
2  30 10 0 11.5864773905583 30.7663049380692
2  31 15 0 11.5864773905583 30.7663049380692
2  32 2 0 11.5864773905583 30.7663049380692
2  33 1 0 11.5864773905583 30.7663049380692
0

0101000
+279 0 -281 0 *
Ed
 1.5e-07 1 1 0
1  10 0 -31.5032121447356 -1.94956395836239
2  34 10 0 -31.5032121447356 -1.94956395836239
2  35 16 0 -31.5032121447356 -1.94956395836239
2  36 2 0 -31.5032121447356 -1.94956395836239
2  37 1 0 -31.5032121447356 -1.94956395836239
0

0101000
+287 0 -279 0 *
Wi

0101100
-286 0 -284 0 -282 0 -280 0 -278 0 -277 0 *
Fa
0  0 1 0

0111000
+289 0 +276 0 *
Ve
1e-07
50 -50 0
0 0

0101101
*
Ed
 1e-07 1 1 0
1  11 0 0 100
2  38 5 0 0 100
2  39 4 0 0 100
0

0101000
+296 0 -274 0 *
Ve
1e-07
50 -50 100
0 0

0101101
*
Ed
 1e-07 1 1 0
1  12 0 0 100
2  40 9 0 0 100
2  41 4 0 0 100
0

0101000
+272 0 -297 0 *
Ed
 1e-07 1 1 0
1  13 0 0 100
2  42 17 0 0 100
2  43 18 0 0 100
2  44 3 0 0 100
2  45 4 0 0 100
2  46 19 0 0 100
0

0101000
-272 0 +274 0 *
Wi

0101100
-273 0 +295 0 -271 0 -270 0 *
Ve
1.50000007944109e-07
8.26880008483234 -50 30.9748264686132
0 0

0101101
*
Ve
1.50000007944109e-07
-10.5027939006138 -50 34.9109468933235
0 0

0101101
*
Ed
 1.5e-07 1 1 0
1  14 0 -30.7663049380692 -11.5864773905583
2  47 20 0 -30.7663049380692 -11.5864773905583
2  48 21 0 -30.7663049380692 -11.5864773905583
2  49 3 0 -30.7663049380692 -11.5864773905583
2  50 4 0 -30.7663049380692 -11.5864773905583
0

0101000
+268 0 -267 0 *
Ve
1.50000003552714e-07
11.7563002403107 -50 40.8767589361626
0 0

0101101
*
Ed
 1.5e-07 1 1 0
1  15 0 -33.3726378133274 -22.8744987436459
2  51 20 0 -33.3726378133274 -22.8744987436459
2  52 22 0 -33.3726378133274 -22.8744987436459
2  53 3 0 -33.3726378133274 -22.8744987436459
2  54 4 0 -33.3726378133274 -22.8744987436459
0

0101000
+265 0 -268 0 *
Ve
1.50000007105427e-07
16.8846530780072 -50 62.5801526320724
0 0

0101101
*
Ed
 1.5e-07 1 1 0
1  16 0 -48.3151034296331 -26.014042899973
2  55 20 0 -48.3151034296331 -26.014042899973
2  56 23 0 -48.3151034296331 -26.014042899973
2  57 3 0 -48.3151034296331 -26.014042899973
2  58 4 0 -48.3151034296331 -26.014042899973
0

0101000
+263 0 -265 0 *
Ve
1.50000004440892e-07
6.57022020923717 -50 68.8761804931807
0 0

0101101
*
Ed
 1.5e-07 1 1 0
1  17 0 -3.46969176094185 8.61449179576629
2  59 20 0 -3.46969176094185 8.61449179576629
2  60 24 0 -3.46969176094185 8.61449179576629
2  61 3 0 -3.46969176094185 8.61449179576629
2  62 4 0 -3.46969176094185 8.61449179576629
0

0101000
+261 0 -263 0 *
Ve
1.50000014321447e-07
-11.8580410737498 -50 64.4335048147439
0 0

0101101
*
Ed
 1.5e-07 1 1 0
1  18 0 12.4805686626185 31.4367861412668
2  63 20 0 12.4805686626185 31.4367861412668
2  64 25 0 12.4805686626185 31.4367861412668
2  65 3 0 12.4805686626185 31.4367861412668
2  66 4 0 12.4805686626185 31.4367861412668
0

0101000
+259 0 -261 0 *
Ed
 1.5e-07 1 1 0
1  19 0 1.94956395836239 31.5032121447356
2  67 20 0 1.94956395836239 31.5032121447356
2  68 26 0 1.94956395836239 31.5032121447356
2  69 3 0 1.94956395836239 31.5032121447356
2  70 4 0 1.94956395836239 31.5032121447356
0

0101000
+267 0 -259 0 *
Wi

0101100
-266 0 -264 0 -262 0 -260 0 -258 0 -257 0 *
Fa
0  0 4 0

0111000
+269 0 +256 0 *
Ve
1e-07
50 50 100
0 0

0101101
*
Ed
 1e-07 1 1 0
1  20 0 0 100
2  71 9 0 0 100
2  72 19 0 0 100
0

0101000
+272 0 -254 0 *
Ed
 1e-07 1 1 0
1  21 0 0 100
2  73 9 0 0 100
2  74 8 0 0 100
0

0101000
+254 0 -292 0 *
Wi

0101100
-290 0 -271 0 +253 0 +252 0 *
Ve
1e-07
-48 -41.5 100
0 0

0101101
*
Ve
1e-07
-41.5 -41.5 100
0 0

0101101
*
Ed
 1e-07 1 1 0
1  22 0 2 8.5
2  75 27 0 2 8.5
2  76 28 0 2 8.5
2  77 9 0 2 8.5
0

0101000
+250 0 -249 0 *
Ve
1e-07
-48 41.5 100
0 0

0101101
*
Ed
 1e-07 1 1 0
1  23 0 0 83
2  78 29 0 0 83
2  79 30 0 0 83
2  80 28 0 0 83
2  81 9 0 0 83
0

0101000
-247 0 +250 0 *
Ve
1e-07
-41.5 41.5 100
0 0

0101101
*
Ed
 1e-07 1 1 0
1  24 0 2 8.5
2  82 31 0 2 8.5
2  83 32 0 2 8.5
2  84 28 0 2 8.5
2  85 9 0 2 8.5
0

0101000
+247 0 -245 0 *
Ve
1e-07
-41.5 48 100
0 0

0101101
*
Ed
 1e-07 1 1 0
1  25 0 0 6.5
2  86 33 0 0 6.5
2  87 32 0 0 6.5
2  88 28 0 0 6.5
2  89 9 0 0 6.5
0

0101000
+245 0 -243 0 *
Ve
1e-07
41.5 48 100
0 0

0101101
*
Ed
 1e-07 1 1 0
1  26 0 0 83
2  90 34 0 0 83
2  91 35 0 0 83
2  92 28 0 0 83
2  93 9 0 0 83
0

0101000
-241 0 +243 0 *
Ve
1e-07
41.5 41.5 100
0 0

0101101
*
Ed
 1e-07 1 1 0
1  27 0 0 6.5
2  94 36 0 0 6.5
2  95 37 0 0 6.5
2  96 28 0 0 6.5
2  97 9 0 0 6.5
0

0101000
+239 0 -241 0 *
Ve
1e-07
48 41.5 100
0 0

0101101
*
Ed
 1e-07 1 1 0
1  28 0 0 6.5
2  98 38 0 0 6.5
2  99 37 0 0 6.5
2  100 28 0 0 6.5
2  101 9 0 0 6.5
0

0101000
+239 0 -237 0 *
Ve
1e-07
48 -41.5 100
0 0

0101101
*
Ed
 1e-07 1 1 0
1  29 0 0 83
2  102 39 0 0 83
2  103 40 0 0 83
2  104 28 0 0 83
2  105 9 0 0 83
0

0101000
-237 0 +235 0 *
Ve
1e-07
41.5 -41.5 100
0 0

0101101
*
Ed
 1e-07 1 1 0
1  30 0 0 6.5
2  106 41 0 0 6.5
2  107 42 0 0 6.5
2  108 28 0 0 6.5
2  109 9 0 0 6.5
0

0101000
+233 0 -235 0 *
Ve
1e-07
41.5 -48 100
0 0

0101101
*
Ed
 1e-07 1 1 0
1  31 0 2 8.5
2  110 43 0 2 8.5
2  111 42 0 2 8.5
2  112 28 0 2 8.5
2  113 9 0 2 8.5
0

0101000
+231 0 -233 0 *
Ve
1e-07
-41.5 -48 100
0 0

0101101
*
Ed
 1e-07 1 1 0
1  32 0 0 83
2  114 44 0 0 83
2  115 45 0 0 83
2  116 28 0 0 83
2  117 9 0 0 83
0

0101000
-231 0 +229 0 *
Ed
 1e-07 1 1 0
1  33 0 2 8.5
2  118 46 0 2 8.5
2  119 28 0 2 8.5
2  120 9 0 2 8.5
0

0101000
+229 0 -249 0 *
Wi

0101100
-248 0 +246 0 +244 0 +242 0 +240 0 -238 0 +236 0 -234 0 -232 0 -230 0 
-228 0 +227 0 *
Fa
0  0 9 0

0111000
+251 0 +226 0 *
Ve
1e-07
50 50 0
0 0

0101101
*
Ed
 1e-07 1 1 0
1  34 0 0 100
2  121 5 0 0 100
2  122 19 0 0 100
0

0101000
+224 0 -274 0 *
Ed
 1e-07 1 1 0
1  35 0 0 100
2  123 5 0 0 100
2  124 8 0 0 100
0

0101000
+294 0 -224 0 *
Wi

0101100
+273 0 -223 0 -222 0 +293 0 *
Ve
1e-07
-48 -41.5 0
0 0

0101101
*
Ve
1e-07
-41.5 -41.5 0
0 0

0101101
*
Ed
 1e-07 1 1 0
1  36 0 2 8.5
2  125 27 0 2 8.5
2  126 47 0 2 8.5
2  127 5 0 2 8.5
0

0101000
+220 0 -219 0 *
Ve
1e-07
-48 41.5 0
0 0

0101101
*
Ed
 1e-07 1 1 0
1  37 0 0 83
2  128 29 0 0 83
2  129 48 0 0 83
2  130 47 0 0 83
2  131 5 0 0 83
0

0101000
-217 0 +220 0 *
Ve
1e-07
-41.5 41.5 0
0 0

0101101
*
Ed
 1e-07 1 1 0
1  38 0 2 8.5
2  132 31 0 2 8.5
2  133 49 0 2 8.5
2  134 47 0 2 8.5
2  135 5 0 2 8.5
0

0101000
+217 0 -215 0 *
Ve
1e-07
-41.5 48 0
0 0

0101101
*
Ed
 1e-07 1 1 0
1  39 0 0 6.5
2  136 33 0 0 6.5
2  137 49 0 0 6.5
2  138 47 0 0 6.5
2  139 5 0 0 6.5
0

0101000
+215 0 -213 0 *
Ve
1e-07
41.5 48 0
0 0

0101101
*
Ed
 1e-07 1 1 0
1  40 0 0 83
2  140 34 0 0 83
2  141 50 0 0 83
2  142 47 0 0 83
2  143 5 0 0 83
0

0101000
-211 0 +213 0 *
Ve
1e-07
41.5 41.5 0
0 0

0101101
*
Ed
 1e-07 1 1 0
1  41 0 0 6.5
2  144 36 0 0 6.5
2  145 51 0 0 6.5
2  146 47 0 0 6.5
2  147 5 0 0 6.5
0

0101000
+209 0 -211 0 *
Ve
1e-07
48 41.5 0
0 0

0101101
*
Ed
 1e-07 1 1 0
1  42 0 0 6.5
2  148 38 0 0 6.5
2  149 51 0 0 6.5
2  150 47 0 0 6.5
2  151 5 0 0 6.5
0

0101000
+209 0 -207 0 *
Ve
1e-07
48 -41.5 0
0 0

0101101
*
Ed
 1e-07 1 1 0
1  43 0 0 83
2  152 39 0 0 83
2  153 52 0 0 83
2  154 47 0 0 83
2  155 5 0 0 83
0

0101000
-207 0 +205 0 *
Ve
1e-07
41.5 -41.5 0
0 0

0101101
*
Ed
 1e-07 1 1 0
1  44 0 0 6.5
2  156 41 0 0 6.5
2  157 53 0 0 6.5
2  158 47 0 0 6.5
2  159 5 0 0 6.5
0

0101000
+203 0 -205 0 *
Ve
1e-07
41.5 -48 0
0 0

0101101
*
Ed
 1e-07 1 1 0
1  45 0 2 8.5
2  160 43 0 2 8.5
2  161 53 0 2 8.5
2  162 47 0 2 8.5
2  163 5 0 2 8.5
0

0101000
+201 0 -203 0 *
Ve
1e-07
-41.5 -48 0
0 0

0101101
*
Ed
 1e-07 1 1 0
1  46 0 0 83
2  164 44 0 0 83
2  165 54 0 0 83
2  166 47 0 0 83
2  167 5 0 0 83
0

0101000
-201 0 +199 0 *
Ed
 1e-07 1 1 0
1  47 0 2 8.5
2  168 46 0 2 8.5
2  169 47 0 2 8.5
2  170 5 0 2 8.5
0

0101000
+199 0 -219 0 *
Wi

0101100
-218 0 +216 0 +214 0 +212 0 +210 0 -208 0 +206 0 -204 0 -202 0 -200 0 
-198 0 +197 0 *
Fa
0  0 5 0

0111000
+221 0 +196 0 *
Ed
 1e-07 1 1 0
1  48 0 0 100
2  171 46 0 0 100
2  172 27 0 0 100
0

0101000
-249 0 +219 0 *
Ed
 1e-07 1 1 0
1  49 0 0 100
2  173 29 0 0 100
2  174 55 0 0 100
2  175 27 0 0 100
0

0101000
-250 0 +220 0 *
Wi

0101100
-218 0 -194 0 +248 0 +193 0 *
Fa
0  1e-07 27 0

0101000
+192 0 *
Ed
 1e-07 1 1 0
1  50 0 0 100
2  176 56 0 0 100
2  177 44 0 0 100
2  178 46 0 0 100
0

0101000
-229 0 +199 0 *
Wi

0101100
-190 0 -227 0 +194 0 +197 0 *
Fa
0  1e-07 46 0

0101000
+189 0 *
Ve
1.50000014321447e-07
-48 -11.8580410737498 64.4335048147439
0 0

0101101
*
Ve
1.50000007944109e-07
-48 -10.5027939006138 34.9109468933235
0 0

0101101
*
Ed
 1.5e-07 1 1 0
1  51 0 -31.5032121447356 -1.94956395836239
2  179 29 0 -31.5032121447356 -1.94956395836239
2  180 16 0 -31.5032121447356 -1.94956395836239
0

0101000
+187 0 -186 0 *
Ed
 1e-07 1 1 0
1  52 0 3 5
2  181 16 0 3 5
2  182 15 0 3 5
0

0101000
+186 0 -279 0 *
Ed
 1e-07 1 1 0
1  53 0 3 5
2  183 16 0 3 5
2  184 11 0 3 5
0

0101000
+187 0 -287 0 *
Wi

0101100
-185 0 -184 0 +277 0 +183 0 *
Fa
0  1e-07 16 0

0101000
+182 0 *
Ve
1.50000007944109e-07
-48 8.26880008483234 30.9748264686132
0 0

0101101
*
Ed
 1.5e-07 1 1 0
1  54 0 11.5864773905583 30.7663049380692
2  185 29 0 11.5864773905583 30.7663049380692
2  186 15 0 11.5864773905583 30.7663049380692
0

0101000
+186 0 -180 0 *
Ed
 1e-07 1 1 0
1  55 0 3 5
2  187 15 0 3 5
2  188 14 0 3 5
0

0101000
+180 0 -281 0 *
Wi

0101100
-179 0 -178 0 +278 0 +184 0 *
Fa
0  1e-07 15 0

0101000
+177 0 *
Ve
1.50000007105427e-07
-48 11.7563002403107 40.8767589361626
0 0

0101101
*
Ed
 1.5e-07 1 1 0
1  56 0 22.8744987436459 33.3726378133274
2  189 29 0 22.8744987436459 33.3726378133274
2  190 14 0 22.8744987436459 33.3726378133274
0

0101000
+180 0 -175 0 *
Ed
 1e-07 1 1 0
1  57 0 3 5
2  191 14 0 3 5
2  192 13 0 3 5
0

0101000
+175 0 -283 0 *
Wi

0101100
-174 0 -173 0 +280 0 +178 0 *
Fa
0  1e-07 14 0

0101000
+172 0 *
Ve
1.50000007105427e-07
-48 16.8846530780072 62.5801526320724
0 0

0101101
*
Ed
 1.5e-07 1 1 0
1  58 0 26.014042899973 48.3151034296331
2  193 29 0 26.014042899973 48.3151034296331
2  194 13 0 26.014042899973 48.3151034296331
0

0101000
+175 0 -170 0 *
Ed
 1e-07 1 1 0
1  59 0 3 5
2  195 13 0 3 5
2  196 12 0 3 5
0

0101000
+170 0 -285 0 *
Wi

0101100
-169 0 -168 0 +282 0 +173 0 *
Fa
0  1e-07 13 0

0101000
+167 0 *
Ve
1.50000004440892e-07
-48 6.57022020923717 68.8761804931807
0 0

0101101
*
Ed
 1.5e-07 1 1 0
1  60 0 -8.61449179576629 3.46969176094185
2  197 29 0 -8.61449179576629 3.46969176094185
2  198 12 0 -8.61449179576629 3.46969176094185
0

0101000
+170 0 -165 0 *
Ed
 1e-07 1 1 0
1  61 0 3 5
2  199 12 0 3 5
2  200 11 0 3 5
0

0101000
+165 0 -288 0 *
Wi

0101100
-164 0 -163 0 +284 0 +168 0 *
Fa
0  1e-07 12 0

0101000
+162 0 *
Ed
 1.5e-07 1 1 0
1  62 0 -31.4367861412668 -12.4805686626185
2  201 29 0 -31.4367861412668 -12.4805686626185
2  202 11 0 -31.4367861412668 -12.4805686626185
0

0101000
+165 0 -187 0 *
Wi

0101100
-160 0 -183 0 +286 0 +163 0 *
Fa
0  1e-07 11 0

0101000
+159 0 *
Ve
1.50000007944109e-07
-10.5027939006138 -48 34.9109468933235
0 0

0101101
*
Ed
 1e-07 1 1 0
1  63 0 3 5
2  203 26 0 3 5
2  204 21 0 3 5
0

0101000
+267 0 -157 0 *
Ve
1.50000014321447e-07
-11.8580410737498 -48 64.4335048147439
0 0

0101101
*
Ed
 1.5e-07 1 1 0
1  64 0 1.94956395836239 31.5032121447356
2  205 44 0 1.94956395836239 31.5032121447356
2  206 26 0 1.94956395836239 31.5032121447356
0

0101000
+157 0 -155 0 *
Ed
 1e-07 1 1 0
1  65 0 3 5
2  207 26 0 3 5
2  208 25 0 3 5
0

0101000
+259 0 -155 0 *
Wi

0101100
+257 0 -156 0 -154 0 +153 0 *
Fa
0  1e-07 26 0

0101000
+152 0 *
Ve
1.50000004440892e-07
6.57022020923717 -48 68.8761804931807
0 0

0101101
*
Ed
 1.5e-07 1 1 0
1  66 0 12.4805686626185 31.4367861412668
2  209 44 0 12.4805686626185 31.4367861412668
2  210 25 0 12.4805686626185 31.4367861412668
0

0101000
+155 0 -150 0 *
Ed
 1e-07 1 1 0
1  67 0 3 5
2  211 24 0 3 5
2  212 25 0 3 5
0

0101000
+261 0 -150 0 *
Wi

0101100
+258 0 -153 0 -149 0 +148 0 *
Fa
0  1e-07 25 0

0101000
+147 0 *
Ve
1.50000007105427e-07
16.8846530780072 -48 62.5801526320724
0 0

0101101
*
Ed
 1.5e-07 1 1 0
1  68 0 -3.46969176094185 8.61449179576629
2  213 44 0 -3.46969176094185 8.61449179576629
2  214 24 0 -3.46969176094185 8.61449179576629
0

0101000
+150 0 -145 0 *
Ed
 1e-07 1 1 0
1  69 0 3 5
2  215 23 0 3 5
2  216 24 0 3 5
0

0101000
+263 0 -145 0 *
Wi

0101100
+260 0 -148 0 -144 0 +143 0 *
Fa
0  1e-07 24 0

0101000
+142 0 *
Ve
1.50000003552714e-07
11.7563002403107 -48 40.8767589361626
0 0

0101101
*
Ed
 1.5e-07 1 1 0
1  70 0 -48.3151034296331 -26.014042899973
2  217 44 0 -48.3151034296331 -26.014042899973
2  218 23 0 -48.3151034296331 -26.014042899973
0

0101000
+145 0 -140 0 *
Ed
 1e-07 1 1 0
1  71 0 3 5
2  219 22 0 3 5
2  220 23 0 3 5
0

0101000
+265 0 -140 0 *
Wi

0101100
+262 0 -143 0 -139 0 +138 0 *
Fa
0  1e-07 23 0

0101000
+137 0 *
Ve
1.50000007944109e-07
8.26880008483234 -48 30.9748264686132
0 0

0101101
*
Ed
 1.5e-07 1 1 0
1  72 0 -33.3726378133274 -22.8744987436459
2  221 44 0 -33.3726378133274 -22.8744987436459
2  222 22 0 -33.3726378133274 -22.8744987436459
0

0101000
+140 0 -135 0 *
Ed
 1e-07 1 1 0
1  73 0 3 5
2  223 21 0 3 5
2  224 22 0 3 5
0

0101000
+268 0 -135 0 *
Wi

0101100
+264 0 -138 0 -134 0 +133 0 *
Fa
0  1e-07 22 0

0101000
+132 0 *
Ed
 1.5e-07 1 1 0
1  74 0 -30.7663049380692 -11.5864773905583
2  225 44 0 -30.7663049380692 -11.5864773905583
2  226 21 0 -30.7663049380692 -11.5864773905583
0

0101000
+135 0 -157 0 *
Wi

0101100
+266 0 -133 0 -130 0 +156 0 *
Fa
0  1e-07 21 0

0101000
+129 0 *
Ed
 1e-07 1 1 0
1  75 0 0 100
2  227 29 0 0 100
2  228 57 0 0 100
2  229 31 0 0 100
0

0101000
-247 0 +217 0 *
Wi

0101100
-193 0 -246 0 +216 0 +127 0 *
Wi

0101100
-185 0 -179 0 -174 0 -169 0 -164 0 -160 0 *
Fa
0  1e-07 29 0

0101000
+126 0 +125 0 *
Ed
 1e-07 1 1 0
1  76 0 0 100
2  230 58 0 0 100
2  231 44 0 0 100
2  232 43 0 0 100
0

0101000
-231 0 +201 0 *
Wi

0101100
-198 0 -123 0 +190 0 +228 0 *
Wi

0101100
-154 0 -149 0 -144 0 -139 0 -134 0 -130 0 *
Fa
0  1e-07 44 0

0101000
+122 0 +121 0 *
Ed
 1e-07 1 1 0
1  77 0 0 100
2  233 59 0 0 100
2  234 60 0 0 100
2  235 7 0 0 100
2  236 17 0 0 100
2  237 19 0 0 100
2  238 8 0 0 100
0

0101000
-254 0 +224 0 *
Wi

0101100
-222 0 +291 0 -252 0 -119 0 *
Ve
1.50000007944109e-07
8.26880008483234 50 30.9748264686132
0 0

0101101
*
Ve
1.50000007944109e-07
-10.5027939006138 50 34.9109468933235
0 0

0101101
*
Ed
 1.5e-07 1 1 0
1  78 0 -30.7663049380692 -11.5864773905583
2  239 61 0 -30.7663049380692 -11.5864773905583
2  240 62 0 -30.7663049380692 -11.5864773905583
2  241 7 0 -30.7663049380692 -11.5864773905583
2  242 8 0 -30.7663049380692 -11.5864773905583
0

0101000
+117 0 -116 0 *
Ve
1.50000003552714e-07
11.7563002403107 50 40.8767589361626
0 0

0101101
*
Ed
 1.5e-07 1 1 0
1  79 0 -33.3726378133274 -22.8744987436459
2  243 61 0 -33.3726378133274 -22.8744987436459
2  244 63 0 -33.3726378133274 -22.8744987436459
2  245 7 0 -33.3726378133274 -22.8744987436459
2  246 8 0 -33.3726378133274 -22.8744987436459
0

0101000
+114 0 -117 0 *
Ve
1.50000007105427e-07
16.8846530780072 50 62.5801526320724
0 0

0101101
*
Ed
 1.5e-07 1 1 0
1  80 0 -48.3151034296331 -26.014042899973
2  247 61 0 -48.3151034296331 -26.014042899973
2  248 64 0 -48.3151034296331 -26.014042899973
2  249 7 0 -48.3151034296331 -26.014042899973
2  250 8 0 -48.3151034296331 -26.014042899973
0

0101000
+112 0 -114 0 *
Ve
1.50000004440892e-07
6.57022020923717 50 68.8761804931807
0 0

0101101
*
Ed
 1.5e-07 1 1 0
1  81 0 -3.46969176094185 8.61449179576629
2  251 61 0 -3.46969176094185 8.61449179576629
2  252 65 0 -3.46969176094185 8.61449179576629
2  253 7 0 -3.46969176094185 8.61449179576629
2  254 8 0 -3.46969176094185 8.61449179576629
0

0101000
+110 0 -112 0 *
Ve
1.50000014321447e-07
-11.8580410737498 50 64.4335048147439
0 0

0101101
*
Ed
 1.5e-07 1 1 0
1  82 0 12.4805686626185 31.4367861412668
2  255 61 0 12.4805686626185 31.4367861412668
2  256 66 0 12.4805686626185 31.4367861412668
2  257 7 0 12.4805686626185 31.4367861412668
2  258 8 0 12.4805686626185 31.4367861412668
0

0101000
+108 0 -110 0 *
Ed
 1.5e-07 1 1 0
1  83 0 1.94956395836239 31.5032121447356
2  259 61 0 1.94956395836239 31.5032121447356
2  260 67 0 1.94956395836239 31.5032121447356
2  261 7 0 1.94956395836239 31.5032121447356
2  262 8 0 1.94956395836239 31.5032121447356
0

0101000
+116 0 -108 0 *
Wi

0101100
-115 0 -113 0 -111 0 -109 0 -107 0 -106 0 *
Fa
0  0 8 0

0111000
+118 0 +105 0 *
Wi

0101100
-270 0 -223 0 +119 0 -253 0 *
Ve
1.50000004440892e-07
50 6.57022020923717 68.8761804931807
0 0

0101101
*
Ve
1.50000014321447e-07
50 -11.8580410737498 64.4335048147439
0 0

0101101
*
Ed
 1.5e-07 1 1 0
1  84 0 -31.4367861412668 -12.4805686626185
2  263 68 0 -31.4367861412668 -12.4805686626185
2  264 69 0 -31.4367861412668 -12.4805686626185
2  265 17 0 -31.4367861412668 -12.4805686626185
2  266 19 0 -31.4367861412668 -12.4805686626185
0

0101000
+102 0 -101 0 *
Ve
1.5e-07
50 16.8846530780072 62.5801526320724
0 0

0101101
*
Ed
 1.5e-07 1 1 0
1  85 0 -8.61449179576629 3.46969176094185
2  267 68 0 -8.61449179576629 3.46969176094185
2  268 70 0 -8.61449179576629 3.46969176094185
2  269 17 0 -8.61449179576629 3.46969176094185
2  270 19 0 -8.61449179576629 3.46969176094185
0

0101000
+99 0 -102 0 *
Ve
1.50000003552714e-07
50 11.7563002403107 40.8767589361626
0 0

0101101
*
Ed
 1.5e-07 1 1 0
1  86 0 26.014042899973 48.3151034296331
2  271 68 0 26.014042899973 48.3151034296331
2  272 71 0 26.014042899973 48.3151034296331
2  273 17 0 26.014042899973 48.3151034296331
2  274 19 0 26.014042899973 48.3151034296331
0

0101000
+97 0 -99 0 *
Ve
1.50000007944109e-07
50 8.26880008483234 30.9748264686132
0 0

0101101
*
Ed
 1.5e-07 1 1 0
1  87 0 22.8744987436459 33.3726378133274
2  275 68 0 22.8744987436459 33.3726378133274
2  276 72 0 22.8744987436459 33.3726378133274
2  277 17 0 22.8744987436459 33.3726378133274
2  278 19 0 22.8744987436459 33.3726378133274
0

0101000
+95 0 -97 0 *
Ve
1.50000007944109e-07
50 -10.5027939006138 34.9109468933235
0 0

0101101
*
Ed
 1.5e-07 1 1 0
1  88 0 11.5864773905583 30.7663049380692
2  279 68 0 11.5864773905583 30.7663049380692
2  280 73 0 11.5864773905583 30.7663049380692
2  281 17 0 11.5864773905583 30.7663049380692
2  282 19 0 11.5864773905583 30.7663049380692
0

0101000
+93 0 -95 0 *
Ed
 1.5e-07 1 1 0
1  89 0 -31.5032121447356 -1.94956395836239
2  283 68 0 -31.5032121447356 -1.94956395836239
2  284 74 0 -31.5032121447356 -1.94956395836239
2  285 17 0 -31.5032121447356 -1.94956395836239
2  286 19 0 -31.5032121447356 -1.94956395836239
0

0101000
+101 0 -93 0 *
Wi

0101100
-100 0 -98 0 -96 0 -94 0 -92 0 -91 0 *
Fa
0  0 19 0

0111000
+103 0 +90 0 *
Ed
 1e-07 1 1 0
1  90 0 0 100
2  287 75 0 0 100
2  288 34 0 0 100
2  289 33 0 0 100
0

0101000
-243 0 +213 0 *
Ed
 1e-07 1 1 0
1  91 0 0 100
2  290 33 0 0 100
2  291 31 0 0 100
0

0101000
-245 0 +215 0 *
Wi

0101100
-242 0 +88 0 +212 0 -87 0 *
Fa
0  1e-07 33 0

0101000
+86 0 *
Wi

0101100
-214 0 -87 0 +244 0 +127 0 *
Fa
0  1e-07 31 0

0101000
+84 0 *
Ed
 1e-07 1 1 0
1  92 0 0 100
2  292 43 0 0 100
2  293 41 0 0 100
0

0101000
-233 0 +203 0 *
Wi

0101100
-123 0 -230 0 +82 0 +200 0 *
Fa
0  1e-07 43 0

0101000
+81 0 *
Ed
 1e-07 1 1 0
1  93 0 0 100
2  294 39 0 0 100
2  295 76 0 0 100
2  296 41 0 0 100
0

0101000
-235 0 +205 0 *
Wi

0101100
-202 0 -79 0 +232 0 +82 0 *
Fa
0  1e-07 41 0

0101000
+78 0 *
Ed
 1e-07 1 1 0
1  94 0 0 100
2  297 77 0 0 100
2  298 34 0 0 100
2  299 36 0 0 100
0

0101000
-241 0 +211 0 *
Wi

0101100
-210 0 -76 0 +88 0 +240 0 *
Ve
1.50000007944109e-07
-10.5027939006138 48 34.9109468933235
0 0

0101101
*
Ve
1.50000014321447e-07
-11.8580410737498 48 64.4335048147439
0 0

0101101
*
Ed
 1.5e-07 1 1 0
1  95 0 1.94956395836239 31.5032121447356
2  300 34 0 1.94956395836239 31.5032121447356
2  301 67 0 1.94956395836239 31.5032121447356
0

0101000
+74 0 -73 0 *
Ve
1.50000004440892e-07
6.57022020923717 48 68.8761804931807
0 0

0101101
*
Ed
 1.5e-07 1 1 0
1  96 0 12.4805686626185 31.4367861412668
2  302 34 0 12.4805686626185 31.4367861412668
2  303 66 0 12.4805686626185 31.4367861412668
0

0101000
+73 0 -71 0 *
Ve
1.50000007105427e-07
16.8846530780072 48 62.5801526320724
0 0

0101101
*
Ed
 1.5e-07 1 1 0
1  97 0 -3.46969176094185 8.61449179576629
2  304 34 0 -3.46969176094185 8.61449179576629
2  305 65 0 -3.46969176094185 8.61449179576629
0

0101000
+71 0 -69 0 *
Ve
1.50000003552714e-07
11.7563002403107 48 40.8767589361626
0 0

0101101
*
Ed
 1.5e-07 1 1 0
1  98 0 -48.3151034296331 -26.014042899973
2  306 34 0 -48.3151034296331 -26.014042899973
2  307 64 0 -48.3151034296331 -26.014042899973
0

0101000
+69 0 -67 0 *
Ve
1.50000007944109e-07
8.26880008483234 48 30.9748264686132
0 0

0101101
*
Ed
 1.5e-07 1 1 0
1  99 0 -33.3726378133274 -22.8744987436459
2  308 34 0 -33.3726378133274 -22.8744987436459
2  309 63 0 -33.3726378133274 -22.8744987436459
0

0101000
+67 0 -65 0 *
Ed
 1.5e-07 1 1 0
1  100 0 -30.7663049380692 -11.5864773905583
2  310 34 0 -30.7663049380692 -11.5864773905583
2  311 62 0 -30.7663049380692 -11.5864773905583
0

0101000
+65 0 -74 0 *
Wi

0101100
-72 0 -70 0 -68 0 -66 0 -64 0 -63 0 *
Fa
0  1e-07 34 0

0101000
+75 0 +62 0 *
Ed
 1e-07 1 1 0
1  101 0 0 100
2  312 39 0 0 100
2  313 78 0 0 100
2  314 38 0 0 100
0

0101000
-237 0 +207 0 *
Wi

0101100
-79 0 -234 0 +204 0 +60 0 *
Ve
1.50000014321447e-07
48 -11.8580410737498 64.4335048147439
0 0

0101101
*
Ve
1.50000007944109e-07
48 -10.5027939006138 34.9109468933235
0 0

0101101
*
Ed
 1.5e-07 1 1 0
1  102 0 -31.5032121447356 -1.94956395836239
2  315 39 0 -31.5032121447356 -1.94956395836239
2  316 74 0 -31.5032121447356 -1.94956395836239
0

0101000
+58 0 -57 0 *
Ve
1.50000007944109e-07
48 8.26880008483234 30.9748264686132
0 0

0101101
*
Ed
 1.5e-07 1 1 0
1  103 0 11.5864773905583 30.7663049380692
2  317 39 0 11.5864773905583 30.7663049380692
2  318 73 0 11.5864773905583 30.7663049380692
0

0101000
+57 0 -55 0 *
Ve
1.50000003552714e-07
48 11.7563002403107 40.8767589361626
0 0

0101101
*
Ed
 1.5e-07 1 1 0
1  104 0 22.8744987436459 33.3726378133274
2  319 39 0 22.8744987436459 33.3726378133274
2  320 72 0 22.8744987436459 33.3726378133274
0

0101000
+55 0 -53 0 *
Ve
1.5e-07
48 16.8846530780072 62.5801526320724
0 0

0101101
*
Ed
 1.5e-07 1 1 0
1  105 0 26.014042899973 48.3151034296331
2  321 39 0 26.014042899973 48.3151034296331
2  322 71 0 26.014042899973 48.3151034296331
0

0101000
+53 0 -51 0 *
Ve
1.50000005329071e-07
48 6.57022020923718 68.8761804931807
0 0

0101101
*
Ed
 1.5e-07 1 1 0
1  106 0 -8.61449179576629 3.46969176094185
2  323 39 0 -8.61449179576629 3.46969176094185
2  324 70 0 -8.61449179576629 3.46969176094185
0

0101000
+51 0 -49 0 *
Ed
 1.5e-07 1 1 0
1  107 0 -31.4367861412668 -12.4805686626185
2  325 39 0 -31.4367861412668 -12.4805686626185
2  326 69 0 -31.4367861412668 -12.4805686626185
0

0101000
+49 0 -58 0 *
Wi

0101100
-56 0 -54 0 -52 0 -50 0 -48 0 -47 0 *
Fa
0  1e-07 39 0

0101000
+59 0 +46 0 *
Ed
 1e-07 1 1 0
1  108 0 3 5
2  327 67 0 3 5
2  328 62 0 3 5
0

0101000
+74 0 -116 0 *
Ed
 1e-07 1 1 0
1  109 0 3 5
2  329 67 0 3 5
2  330 66 0 3 5
0

0101000
+73 0 -108 0 *
Wi

0101100
+72 0 -44 0 -106 0 +43 0 *
Fa
0  1e-07 67 0

0101000
+42 0 *
Ed
 1e-07 1 1 0
1  110 0 3 5
2  331 65 0 3 5
2  332 66 0 3 5
0

0101000
+71 0 -110 0 *
Wi

0101100
+70 0 -43 0 -107 0 +40 0 *
Fa
0  1e-07 66 0

0101000
+39 0 *
Ed
 1e-07 1 1 0
1  111 0 3 5
2  333 64 0 3 5
2  334 65 0 3 5
0

0101000
+69 0 -112 0 *
Wi

0101100
+68 0 -40 0 -109 0 +37 0 *
Fa
0  1e-07 65 0

0101000
+36 0 *
Ed
 1e-07 1 1 0
1  112 0 3 5
2  335 63 0 3 5
2  336 64 0 3 5
0

0101000
+67 0 -114 0 *
Wi

0101100
+66 0 -37 0 -111 0 +34 0 *
Fa
0  1e-07 64 0

0101000
+33 0 *
Ed
 1e-07 1 1 0
1  113 0 3 5
2  337 62 0 3 5
2  338 63 0 3 5
0

0101000
+65 0 -117 0 *
Wi

0101100
+64 0 -34 0 -113 0 +31 0 *
Fa
0  1e-07 63 0

0101000
+30 0 *
Wi

0101100
+63 0 -31 0 -115 0 +44 0 *
Fa
0  1e-07 62 0

0101000
+28 0 *
Ed
 1e-07 1 1 0
1  114 0 3 5
2  339 74 0 3 5
2  340 73 0 3 5
0

0101000
+93 0 -57 0 *
Ed
 1e-07 1 1 0
1  115 0 3 5
2  341 74 0 3 5
2  342 69 0 3 5
0

0101000
+101 0 -58 0 *
Wi

0101100
-91 0 -26 0 +56 0 +25 0 *
Fa
0  1e-07 74 0

0101000
+24 0 *
Ed
 1e-07 1 1 0
1  116 0 3 5
2  343 73 0 3 5
2  344 72 0 3 5
0

0101000
+95 0 -55 0 *
Wi

0101100
-92 0 -22 0 +54 0 +26 0 *
Fa
0  1e-07 73 0

0101000
+21 0 *
Ed
 1e-07 1 1 0
1  117 0 3 5
2  345 72 0 3 5
2  346 71 0 3 5
0

0101000
+97 0 -53 0 *
Wi

0101100
-94 0 -19 0 +52 0 +22 0 *
Fa
0  1e-07 72 0

0101000
+18 0 *
Ed
 1e-07 1 1 0
1  118 0 3 5
2  347 71 0 3 5
2  348 70 0 3 5
0

0101000
+99 0 -51 0 *
Wi

0101100
-96 0 -16 0 +50 0 +19 0 *
Fa
0  1e-07 71 0

0101000
+15 0 *
Ed
 1e-07 1 1 0
1  119 0 3 5
2  349 70 0 3 5
2  350 69 0 3 5
0

0101000
+102 0 -49 0 *
Wi

0101100
-98 0 -13 0 +48 0 +16 0 *
Fa
0  1e-07 70 0

0101000
+12 0 *
Wi

0101100
-100 0 -25 0 +47 0 +13 0 *
Fa
0  1e-07 69 0

0101000
+10 0 *
Ed
 1e-07 1 1 0
1  120 0 0 100
2  351 36 0 0 100
2  352 38 0 0 100
0

0101000
-239 0 +209 0 *
Wi

0101100
-238 0 +76 0 +208 0 -8 0 *
Fa
0  1e-07 36 0

0101000
+7 0 *
Wi

0101100
-206 0 -60 0 +236 0 +8 0 *
Fa
0  1e-07 38 0

0101000
+5 0 *
Sh

0101100
-275 0 -255 0 +225 0 -195 0 +191 0 +188 0 -181 0 -176 0 -171 0 -166 0 
-161 0 -158 0 -151 0 -146 0 -141 0 -136 0 -131 0 -128 0 +124 0 +120 0 
+104 0 +89 0 +85 0 -83 0 -80 0 +77 0 -61 0 -45 0 -41 0 -38 0 
-35 0 -32 0 -29 0 -27 0 -23 0 -20 0 -17 0 -14 0 -11 0 -9 0 
-6 0 -4 0 *
So

0100000
+3 0 *
Co

1100000
+2 0 *

+1 0 