DBRep_DrawableShape

CASCADE Topology V1, (c) Matra-Datavision
Locations 0
Curve2ds 320
1 0 0 1 0 
1 0 0 1 0 
1 0 0 1 0 
1 0 0 1 0 
1 0 -100 0 1 
1 0 100 0 -1 
1 0 -8.5 1 0 
1 0 0 1 0 
1 0 -100 1 0 
1 0 -100 1 0 
1 0 0 1 0 
1 100 0 0 -1 
1 0 0 0 1 
8 -27.376771927159918 0.37528086991489218
1 70.25758234327462 -33.671307105401581 0.087743802912341531 0.99614307458842488 
8 -27.376771927159918 0.37528086991489218
1 27.376771927159918 -4.9999999999999973 1 1.105940977228964e-16 
1 70.25758234327462 -42.171307105401581 0.087743802912341531 0.99614307458842488 
1 70.25758234327462 -42.171307105401581 0.087743802912341531 0.99614307458842488 
8 31.680851533947017 46.148201470343153
1 22.480697283463741 -52.528857158557393 0.98323968288596963 -0.18231765136238995 
8 31.680851533947017 46.148201470343153
1 -31.680851533947017 -4.9999999999999991 1 -2.0241325433810733e-17 
1 22.480697283463741 -61.028857158557393 0.98323968288596963 -0.18231765136238995 
1 22.480697283463741 -61.028857158557393 0.98323968288596963 -0.18231765136238995 
8 24.005237324468649 49.211825269748743
1 9.0092714672402892 -37.550470545532761 0.90671898446019206 -0.42173532365629285 
8 24.005237324468649 49.211825269748743
1 -24.005237324468649 -4.9999999999999991 1 -4.6822026662095878e-17 
1 9.0092714672402892 -46.050470545532761 0.90671898446019206 -0.42173532365629285 
1 9.0092714672402892 -46.050470545532761 0.90671898446019206 -0.42173532365629285 
8 12.883472113416603 27.253042450303084
1 36.506342482743122 -21.030693723215755 -0.21029089201271867 -0.9776388600789635 
8 12.883472113416603 27.253042450303084
1 -12.883472113416603 -4.9999999999999982 1 -1.0853971722279571e-16 
1 36.506342482743122 -29.530693723215755 -0.21029089201271867 -0.9776388600789635 
1 36.506342482743122 -29.530693723215755 -0.21029089201271867 -0.9776388600789635 
8 -34.993924276628825 1.5010004108137096
1 35.298005203790481 -33.612561593382267 -0.99995946249277767 -0.0090040752526391703 
8 -34.993924276628825 1.5010004108137096
1 34.993924276628825 -5 1 -9.9965316609375801e-19 
1 35.298005203790481 -42.112561593382267 -0.99995946249277767 -0.0090040752526391703 
1 35.298005203790481 -42.112561593382267 -0.99995946249277767 -0.0090040752526391703 
1 0 0 1 0 
1 0 0 0 1 
1 100 0 -1 0 
1 100 100 0 -1 
1 0 0 1 0 
1 0 8.5 1 0 
1 0 100 1 0 
1 0 100 1 0 
1 0 0 1 0 
8 -27.253042450303084 -12.883472113416603
1 36.506342482743122 21.030693723215755 0.21029089201271867 -0.9776388600789635 
8 -27.253042450303084 -12.883472113416603
1 -12.883472113416603 -3 -1 0 
1 36.506342482743122 29.530693723215755 0.21029089201271867 -0.9776388600789635 
1 36.506342482743122 29.530693723215755 0.21029089201271867 -0.9776388600789635 
8 -49.211825269748743 -24.005237324468649
1 9.0092714672402892 37.550470545532761 -0.90671898446019206 -0.42173532365629285 
8 -49.211825269748743 -24.005237324468649
1 -24.005237324468649 -3 -1 -0 
1 9.0092714672402892 46.050470545532761 -0.90671898446019206 -0.42173532365629285 
1 9.0092714672402892 46.050470545532761 -0.90671898446019206 -0.42173532365629285 
8 -46.148201470343153 -31.68085153394702
1 22.480697283463741 52.528857158557386 -0.98323968288596963 -0.18231765136238995 
8 -46.148201470343153 -31.68085153394702
1 -31.68085153394702 -3 -1 -0 
1 22.480697283463741 61.028857158557386 -0.98323968288596963 -0.18231765136238995 
1 22.480697283463741 61.028857158557386 -0.98323968288596963 -0.18231765136238995 
8 -0.37528086991489218 27.376771927159918
1 70.25758234327462 33.671307105401581 -0.087743802912341531 0.99614307458842488 
8 -0.37528086991489218 27.376771927159918
1 27.376771927159918 -3 -1 -0 
1 70.25758234327462 42.171307105401581 -0.087743802912341531 0.99614307458842488 
1 70.25758234327462 42.171307105401581 -0.087743802912341531 0.99614307458842488 
8 -1.5010004108137096 34.993924276628825
1 35.298005203790481 33.612561593382267 0.99995946249277767 -0.0090040752526391703 
8 -1.5010004108137096 34.993924276628825
1 34.993924276628825 -3 -1 0 
1 35.298005203790481 42.112561593382267 0.99995946249277767 -0.0090040752526391703 
1 35.298005203790481 42.112561593382267 0.99995946249277767 -0.0090040752526391703 
1 100 0 0 1 
1 100 0 0 -1 
1 100 100 -1 0 
1 100 100 0 -1 
1 100 0 0 1 
1 0 8.5 1 0 
1 0 8.5 1 0 
1 100 0 0 -1 
1 2 0 0 1 
1 2 8.5 0 1 
1 2 8.5 0 1 
1 100 0 0 1 
1 0 0 1 0 
1 0 91.5 1 0 
1 0 91.5 1 0 
1 100 0 0 -1 
1 8.5 0 0 1 
1 8.5 91.5 0 1 
1 8.5 91.5 0 1 
1 100 0 0 1 
1 0 0 1 0 
1 8.5 98 1 0 
1 8.5 98 1 0 
1 100 0 0 -1 
1 0 0 0 1 
1 91.5 91.5 0 1 
1 91.5 91.5 0 1 
1 100 0 0 1 
1 0 0 1 0 
1 91.5 91.5 1 0 
1 91.5 91.5 1 0 
1 100 0 0 -1 
1 0 0 0 1 
1 98 8.5 0 1 
1 98 8.5 0 1 
1 100 0 0 1 
1 0 8.5 1 0 
1 91.5 8.5 1 0 
1 91.5 8.5 1 0 
1 100 0 0 -1 
1 0 0 0 1 
1 91.5 0 0 1 
1 91.5 0 0 1 
1 100 0 0 1 
1 0 2 1 0 
1 8.5 2 1 0 
1 8.5 2 1 0 
1 100 0 0 -1 
1 8.5 0 0 1 
1 8.5 0 0 1 
1 100 100 0 -1 
1 0 -100 0 1 
1 0 100 1 0 
1 0 0 0 1 
1 0 0 0 1 
1 0 8.5 1 0 
1 0 8.5 1 0 
1 0 0 0 -1 
1 2 0 0 1 
1 2 8.5 0 1 
1 2 8.5 0 1 
1 0 0 0 1 
1 0 0 1 0 
1 0 91.5 1 0 
1 0 91.5 1 0 
1 0 0 0 -1 
1 8.5 0 0 1 
1 8.5 91.5 0 1 
1 8.5 91.5 0 1 
1 0 0 0 1 
1 0 0 1 0 
1 8.5 98 1 0 
1 8.5 98 1 0 
1 0 0 0 -1 
1 0 0 0 1 
1 91.5 91.5 0 1 
1 91.5 91.5 0 1 
1 0 0 0 1 
1 0 0 1 0 
1 91.5 91.5 1 0 
1 91.5 91.5 1 0 
1 0 0 0 -1 
1 0 0 0 1 
1 98 8.5 0 1 
1 98 8.5 0 1 
1 0 0 0 1 
1 0 8.5 1 0 
1 91.5 8.5 1 0 
1 91.5 8.5 1 0 
1 0 0 0 -1 
1 0 0 0 1 
1 91.5 0 0 1 
1 91.5 0 0 1 
1 0 0 0 1 
1 0 2 1 0 
1 8.5 2 1 0 
1 8.5 2 1 0 
1 0 0 0 -1 
1 8.5 0 0 1 
1 8.5 0 0 1 
1 0 -8.5 1 0 
1 0 8.5 1 0 
1 0 0 1 0 
1 0 2 1 0 
1 0 2 1 0 
1 0 -2 1 0 
1 0 0 1 0 
1 0 -2 1 0 
8 -34.993924276628825 1.5010004108137096
1 35.298005203790481 -33.612561593382267 -0.99995946249277767 -0.0090040752526391703 
8 -34.993924276628825 1.5010004108137096
1 34.993924276628825 -3 1 -9.9965316609375801e-19 
1 36.494924687442534 -3.6482267010155183e-17 0 -1 
1 0 0 0 -1 
1 0 0 0 -1 
1 27.752052797074811 3.0692132390506716e-15 0 -1 
8 12.883472113416603 27.253042450303084
1 36.506342482743122 -21.030693723215755 -0.21029089201271867 -0.9776388600789635 
8 12.883472113416603 27.253042450303084
1 -12.883472113416603 -2.9999999999999987 1 -1.0853971722279571e-16 
1 14.369570336886483 -1.559669100978732e-15 0 -1 
1 0 0 0 -1 
8 24.005237324468649 49.211825269748743
1 9.0092714672402892 -37.550470545532761 0.90671898446019206 -0.42173532365629285 
8 24.005237324468649 49.211825269748743
1 -24.005237324468649 -2.9999999999999987 1 -4.6822026662095878e-17 
1 25.206587945280098 -1.1802235328343692e-15 0 -1 
1 0 0 0 -1 
8 31.680851533947017 46.148201470343153
1 22.480697283463741 -52.528857158557393 0.98323968288596963 -0.18231765136238995 
8 31.680851533947017 46.148201470343153
1 -31.680851533947017 -2.9999999999999996 1 -2.0241325433810733e-17 
1 14.467349936396134 -2.9283833822741509e-16 0 -1 
1 0 0 0 -1 
8 -27.376771927159918 0.37528086991489218
1 70.25758234327462 -33.671307105401581 0.087743802912341531 0.99614307458842488 
8 -27.376771927159918 0.37528086991489218
1 27.376771927159918 -2.9999999999999969 1 1.105940977228964e-16 
1 36.494924687442534 0 0 -1 
1 0 0 0 -1 
8 -1.5010004108137096 34.993924276628825
1 35.298005203790481 33.612561593382267 0.99995946249277767 -0.0090040752526391703 
8 -1.5010004108137096 34.993924276628825
1 34.993924276628825 -5 -1 0 
1 0 0 0 -1 
1 27.752052797074811 0 0 -1 
8 -0.37528086991489218 27.376771927159918
1 70.25758234327462 33.671307105401581 -0.087743802912341531 0.99614307458842488 
8 -0.37528086991489218 27.376771927159918
1 27.376771927159918 -5 -1 -0 
1 14.467349936396134 0 0 -1 
1 0 0 0 -1 
8 -46.148201470343153 -31.68085153394702
1 22.480697283463741 52.528857158557386 -0.98323968288596963 -0.18231765136238995 
8 -46.148201470343153 -31.68085153394702
1 -31.68085153394702 -5 -1 -0 
1 25.206587945280098 0 0 -1 
1 0 0 0 -1 
8 -49.211825269748743 -24.005237324468649
1 9.0092714672402892 37.550470545532761 -0.90671898446019206 -0.42173532365629285 
8 -49.211825269748743 -24.005237324468649
1 -24.005237324468649 -5 -1 -0 
1 14.369570336886483 0 0 -1 
1 0 0 0 -1 
8 -27.253042450303084 -12.883472113416603
1 36.506342482743122 21.030693723215755 0.21029089201271867 -0.9776388600789635 
8 -27.253042450303084 -12.883472113416603
1 -12.883472113416603 -5 -1 0 
1 0 -83 1 0 
1 0 2 1 0 
1 0 2 1 0 
1 0 -2 1 0 
1 0 83 1 0 
1 0 -2 1 0 
1 0 -8.5 1 0 
1 0 8.5 1 0 
1 0 100 1 0 
1 0 -100 1 0 
1 0 -100 1 0 
1 0 100 1 0 
8 -27.253042450303084 -12.883472113416603
1 36.506342482743122 21.030693723215755 0.21029089201271867 -0.9776388600789635 
8 -27.253042450303084 -12.883472113416603
1 -12.883472113416603 -5 -1 0 
1 36.506342482743122 29.530693723215755 0.21029089201271867 -0.9776388600789635 
1 36.506342482743122 29.530693723215755 0.21029089201271867 -0.9776388600789635 
8 -49.211825269748743 -24.005237324468649
1 9.0092714672402892 37.550470545532761 -0.90671898446019206 -0.42173532365629285 
8 -49.211825269748743 -24.005237324468649
1 -24.005237324468649 -5 -1 -0 
1 9.0092714672402892 46.050470545532761 -0.90671898446019206 -0.42173532365629285 
1 9.0092714672402892 46.050470545532761 -0.90671898446019206 -0.42173532365629285 
8 -46.148201470343153 -31.68085153394702
1 22.480697283463741 52.528857158557386 -0.98323968288596963 -0.18231765136238995 
8 -46.148201470343153 -31.68085153394702
1 -31.68085153394702 -5 -1 -0 
1 22.480697283463741 61.028857158557386 -0.98323968288596963 -0.18231765136238995 
1 22.480697283463741 61.028857158557386 -0.98323968288596963 -0.18231765136238995 
8 -0.37528086991489218 27.376771927159918
1 70.25758234327462 33.671307105401581 -0.087743802912341531 0.99614307458842488 
8 -0.37528086991489218 27.376771927159918
1 27.376771927159918 -5 -1 -0 
1 70.25758234327462 42.171307105401581 -0.087743802912341531 0.99614307458842488 
1 70.25758234327462 42.171307105401581 -0.087743802912341531 0.99614307458842488 
8 -1.5010004108137096 34.993924276628825
1 35.298005203790481 33.612561593382267 0.99995946249277767 -0.0090040752526391703 
8 -1.5010004108137096 34.993924276628825
1 34.993924276628825 -5 -1 0 
1 35.298005203790481 42.112561593382267 0.99995946249277767 -0.0090040752526391703 
1 35.298005203790481 42.112561593382267 0.99995946249277767 -0.0090040752526391703 
8 -27.376771927159918 0.37528086991489218
1 70.25758234327462 -33.671307105401581 0.087743802912341531 0.99614307458842488 
8 -27.376771927159918 0.37528086991489218
1 27.376771927159918 -2.9999999999999969 1 1.105940977228964e-16 
1 70.25758234327462 -42.171307105401581 0.087743802912341531 0.99614307458842488 
1 70.25758234327462 -42.171307105401581 0.087743802912341531 0.99614307458842488 
8 31.68085153394702 46.148201470343153
1 22.480697283463741 -52.528857158557386 0.98323968288596963 -0.18231765136238995 
8 31.68085153394702 46.148201470343153
1 -31.68085153394702 -2.9999999999999996 1 -2.0241325433810733e-17 
1 22.480697283463741 -61.028857158557386 0.98323968288596963 -0.18231765136238995 
1 22.480697283463741 -61.028857158557386 0.98323968288596963 -0.18231765136238995 
8 24.005237324468649 49.211825269748743
1 9.0092714672402892 -37.550470545532761 0.90671898446019206 -0.42173532365629285 
8 24.005237324468649 49.211825269748743
1 -24.005237324468649 -2.9999999999999987 1 -4.6822026662095878e-17 
1 9.0092714672402892 -46.050470545532761 0.90671898446019206 -0.42173532365629285 
1 9.0092714672402892 -46.050470545532761 0.90671898446019206 -0.42173532365629285 
8 12.883472113416603 27.253042450303084
1 36.506342482743122 -21.030693723215755 -0.21029089201271867 -0.9776388600789635 
8 12.883472113416603 27.253042450303084
1 -12.883472113416603 -2.9999999999999987 1 -1.0853971722279571e-16 
1 36.506342482743122 -29.530693723215755 -0.21029089201271867 -0.9776388600789635 
1 36.506342482743122 -29.530693723215755 -0.21029089201271867 -0.9776388600789635 
8 -34.993924276628825 1.5010004108137096
1 35.298005203790481 -33.612561593382267 -0.99995946249277767 -0.0090040752526391703 
8 -34.993924276628825 1.5010004108137096
1 34.993924276628825 -3 1 -9.9965316609375801e-19 
1 35.298005203790481 -42.112561593382267 -0.99995946249277767 -0.0090040752526391703 
1 35.298005203790481 -42.112561593382267 -0.99995946249277767 -0.0090040752526391703 
1 0 0 1 0 
1 0 0 1 0 
1 0 -6.5 1 0 
1 0 0 1 0 
1 0 8.5 1 0 
1 0 -8.5 1 0 
1 0 0 1 0 
1 0 0 1 0 
1 0 0 1 0 
1 0 6.5 1 0 
1 0 0 1 0 
1 0 83 1 0 
1 0 -6.5 1 0 
8 -1.5010004108137096 34.993924276628825
1 35.298005203790481 33.612561593382267 0.99995946249277767 -0.0090040752526391703 
8 -1.5010004108137096 34.993924276628825
1 34.993924276628825 -3 -1 0 
8 -0.37528086991489218 27.376771927159918
1 70.25758234327462 33.671307105401581 -0.087743802912341531 0.99614307458842488 
8 -0.37528086991489218 27.376771927159918
1 27.376771927159918 -3 -1 -0 
8 -46.148201470343153 -31.68085153394702
1 22.480697283463741 52.528857158557386 -0.98323968288596963 -0.18231765136238995 
8 -46.148201470343153 -31.68085153394702
1 -31.68085153394702 -3 -1 -0 
8 -49.211825269748743 -24.005237324468649
1 9.0092714672402892 37.550470545532761 -0.90671898446019206 -0.42173532365629285 
8 -49.211825269748743 -24.005237324468649
1 -24.005237324468649 -3 -1 -0 
8 -27.253042450303084 -12.883472113416603
1 36.506342482743122 21.030693723215755 0.21029089201271867 -0.9776388600789635 
8 -27.253042450303084 -12.883472113416603
1 -12.883472113416603 -3 -1 0 
1 0 -83 1 0 
1 0 0 1 0 
1 0 6.5 1 0 
8 -34.993924276628825 1.5010004108137096
1 35.298005203790481 -33.612561593382267 -0.99995946249277767 -0.0090040752526391703 
8 -34.993924276628825 1.5010004108137096
1 34.993924276628825 -5 1 -9.9965316609375801e-19 
8 12.883472113416603 27.253042450303084
1 36.506342482743122 -21.030693723215755 -0.21029089201271867 -0.9776388600789635 
8 12.883472113416603 27.253042450303084
1 -12.883472113416603 -4.9999999999999982 1 -1.0853971722279571e-16 
8 24.005237324468649 49.211825269748743
1 9.0092714672402892 -37.550470545532761 0.90671898446019206 -0.42173532365629285 
8 24.005237324468649 49.211825269748743
1 -24.005237324468649 -4.9999999999999991 1 -4.6822026662095878e-17 
8 31.68085153394702 46.148201470343153
1 22.480697283463741 -52.528857158557386 0.98323968288596963 -0.18231765136238995 
8 31.68085153394702 46.148201470343153
1 -31.68085153394702 -4.9999999999999991 1 -2.0241325433810733e-17 
8 -27.376771927159918 0.37528086991489218
1 70.25758234327462 -33.671307105401581 0.087743802912341531 0.99614307458842488 
8 -27.376771927159918 0.37528086991489218
1 27.376771927159918 -4.9999999999999973 1 1.105940977228964e-16 
1 36.494924687442534 0 0 -1 
1 0 0 0 -1 
1 0 0 0 -1 
1 27.752052797074811 0 0 -1 
1 14.467349936396134 0 0 -1 
1 0 0 0 -1 
1 25.206587945280098 0 0 -1 
1 0 0 0 -1 
1 14.369570336886483 0 0 -1 
1 0 0 0 -1 
1 36.494924687442534 -3.6482267010155183e-17 0 -1 
1 0 0 0 -1 
1 0 0 0 -1 
1 27.752052797074811 3.0692132390506716e-15 0 -1 
1 14.369570336886483 -1.559669100978732e-15 0 -1 
1 0 0 0 -1 
1 25.206587945280098 -1.1802235328343692e-15 0 -1 
1 0 0 0 -1 
1 14.467349936396134 -2.9283833822741509e-16 0 -1 
1 0 0 0 -1 
1 0 0 1 0 
1 0 0 1 0 
Curves 108
1 -50 -50 0 0 0 1 
8 0 100
1 -50 50 0 0 -1 0 
1 -50 50 0 0 0 1 
8 0 100
1 -50 -50 100 0 1 0 
1 -50 -7.8286928945984151 70.25758234327462 0 -0.99614307458842488 0.087743802912341531 
1 -50 11.028857158557393 22.480697283463741 0 0.18231765136238995 0.98323968288596963 
1 -50 -3.9495294544672386 9.0092714672402892 0 0.42173532365629285 0.90671898446019206 
1 -50 -20.469306276784245 36.506342482743122 -0 0.9776388600789635 -0.21029089201271867 
1 -50 -7.8874384066177319 35.298005203790481 -0 0.0090040752526391703 -0.99995946249277767 
8 0 100
1 -50 -50 0 1 0 0 
8 0 100
1 50 -50 100 -1 0 0 
1 50 -50 0 0 0 1 
1 -20.469306276784245 -50 36.506342482743122 -0.9776388600789635 -0 0.21029089201271867 
1 -3.9495294544672408 -50 9.0092714672402892 -0.42173532365629285 0 -0.90671898446019206 
1 11.02885715855739 -50 22.480697283463741 -0.18231765136238995 0 -0.98323968288596963 
1 -7.8286928945984151 -50 70.25758234327462 0.99614307458842488 0 -0.087743802912341531 
1 -7.8874384066177319 -50 35.298005203790481 -0.0090040752526391703 -0 0.99995946249277767 
8 0 100
1 50 -50 100 0 1 0 
8 0 100
1 50 50 100 -1 0 0 
1 -50 -41.5 100 1 0 -0 
1 -48 -41.5 100 -0 1 0 
1 -50 41.5 100 1 0 -0 
1 -41.5 41.5 100 -0 1 0 
1 -41.5 48 100 1 0 -0 
1 41.5 41.5 100 -0 1 0 
1 41.5 41.5 100 1 0 -0 
1 48 -41.5 100 -0 1 0 
1 41.5 -41.5 100 1 0 -0 
1 41.5 -50 100 -0 1 0 
1 -41.5 -48 100 1 0 -0 
1 -41.5 -50 100 -0 1 0 
8 0 100
1 50 50 0 0 -1 0 
8 0 100
1 -50 50 0 1 0 0 
1 -50 -41.5 0 1 0 -0 
1 -48 -41.5 0 -0 1 0 
1 -50 41.5 0 1 0 -0 
1 -41.5 41.5 0 -0 1 0 
1 -41.5 48 0 1 0 -0 
1 41.5 41.5 0 -0 1 0 
1 41.5 41.5 0 1 0 -0 
1 48 -41.5 0 -0 1 0 
1 41.5 -41.5 0 1 0 -0 
1 41.5 -50 0 -0 1 0 
1 -41.5 -48 0 1 0 -0 
1 -41.5 -50 0 -0 1 0 
1 -41.5 -41.5 0 0 0 1 
1 -48 -41.5 0 0 0 1 
1 -41.5 -48 0 0 0 1 
1 -48 -7.8874384066177319 35.298005203790481 -0 0.0090040752526391703 -0.99995946249277767 
1 -45 -7.8739232859645227 33.797065639791761 -1 1.1102230246251565e-16 0 
1 -45 -8.2025263341896544 70.290510913961199 -1 1.1102230246251565e-16 0 
1 -48 -20.469306276784245 36.506342482743122 -0 0.9776388600789635 -0.21029089201271867 
1 -45 6.1743270780136648 30.775275875808401 -1 1.1102230246251565e-16 0 
1 -48 -3.949529454467239 9.0092714672402892 0 0.42173532365629285 0.90671898446019206 
1 -45 16.804835603387176 53.630567699259288 -1 1.1102230246251565e-16 0 
1 -48 11.028857158557393 22.480697283463741 0 0.18231765136238995 0.98323968288596963 
1 -45 19.442488865228739 67.855440262921775 -1 1.1102230246251565e-16 0 
1 -48 -7.8286928945984151 70.25758234327462 0 -0.99614307458842488 0.087743802912341531 
1 -7.8739232859645227 -53 33.797065639791761 0 1 0 
1 -7.8874384066177319 -48 35.298005203790481 -0.0090040752526391703 -0 0.99995946249277767 
1 -8.2025263341896544 -53 70.290510913961199 0 1 0 
1 -7.8286928945984151 -48 70.25758234327462 0.99614307458842488 0 -0.087743802912341531 
1 19.442488865228739 -53 67.855440262921775 0 1 0 
1 11.02885715855739 -48 22.480697283463741 -0.18231765136238995 0 -0.98323968288596963 
1 16.804835603387176 -53 53.630567699259288 0 1 0 
1 -3.9495294544672408 -48 9.0092714672402892 -0.42173532365629285 0 -0.90671898446019206 
1 6.1743270780136648 -53 30.775275875808401 0 1 0 
1 -20.469306276784245 -48 36.506342482743122 -0.9776388600789635 -0 0.21029089201271867 
1 -48 41.5 0 0 0 1 
1 41.5 -48 0 0 0 1 
1 50 50 0 0 0 1 
1 -20.469306276784245 50 36.506342482743122 -0.9776388600789635 -0 0.21029089201271867 
1 -3.9495294544672408 50 9.0092714672402892 -0.42173532365629285 0 -0.90671898446019206 
1 11.02885715855739 50 22.480697283463741 -0.18231765136238995 0 -0.98323968288596963 
1 -7.8286928945984151 50 70.25758234327462 0.99614307458842488 0 -0.087743802912341531 
1 -7.8874384066177319 50 35.298005203790481 -0.0090040752526391703 -0 0.99995946249277767 
1 50 -7.8286928945984151 70.25758234327462 0 -0.99614307458842488 0.087743802912341531 
1 50 11.02885715855739 22.480697283463741 0 0.18231765136238995 0.98323968288596963 
1 50 -3.9495294544672408 9.0092714672402892 0 0.42173532365629285 0.90671898446019206 
1 50 -20.469306276784245 36.506342482743122 -0 0.9776388600789635 -0.21029089201271867 
1 50 -7.8874384066177319 35.298005203790481 -0 0.0090040752526391703 -0.99995946249277767 
1 -41.5 48 0 0 0 1 
1 -41.5 41.5 0 0 0 1 
1 41.5 -41.5 0 0 0 1 
1 48 -41.5 0 0 0 1 
1 41.5 48 0 0 0 1 
1 -7.8874384066177319 48 35.298005203790481 -0.0090040752526391703 -0 0.99995946249277767 
1 -7.8286928945984151 48 70.25758234327462 0.99614307458842488 0 -0.087743802912341531 
1 11.02885715855739 48 22.480697283463741 -0.18231765136238995 0 -0.98323968288596963 
1 -3.9495294544672408 48 9.0092714672402892 -0.42173532365629285 0 -0.90671898446019206 
1 -20.469306276784245 48 36.506342482743122 -0.9776388600789635 -0 0.21029089201271867 
1 48 41.5 0 0 0 1 
1 48 -7.8874384066177319 35.298005203790481 -0 0.0090040752526391703 -0.99995946249277767 
1 48 -20.469306276784245 36.506342482743122 -0 0.9776388600789635 -0.21029089201271867 
1 48 -3.9495294544672404 9.0092714672402892 0 0.42173532365629285 0.90671898446019206 
1 48 11.02885715855739 22.480697283463741 0 0.18231765136238995 0.98323968288596963 
1 48 -7.8286928945984151 70.25758234327462 0 -0.99614307458842488 0.087743802912341531 
1 -7.8739232859645227 45 33.797065639791761 0 1 0 
1 -8.2025263341896544 45 70.290510913961199 0 1 0 
1 19.442488865228739 45 67.855440262921775 0 1 0 
1 16.804835603387176 45 53.630567699259288 0 1 0 
1 6.1743270780136648 45 30.775275875808401 0 1 0 
1 53 -7.8739232859645227 33.797065639791761 -1 1.1102230246251565e-16 0 
1 53 -8.2025263341896544 70.290510913961199 -1 1.1102230246251565e-16 0 
1 53 6.1743270780136648 30.775275875808401 -1 1.1102230246251565e-16 0 
1 53 16.804835603387176 53.630567699259288 -1 1.1102230246251565e-16 0 
1 53 19.442488865228739 67.855440262921775 -1 1.1102230246251565e-16 0 
1 41.5 41.5 0 0 0 1 
Polygon3D 0
PolygonOnTriangulations 0
Surfaces 74
1 -50 -50 0 1 0 -0 0 0 1 0 -1 0 
1 -50 -50 0 1 0 -0 0 0 1 0 -1 0 
1 -50 -50 0 -0 1 0 0 0 1 1 0 -0 
1 -50 -50 0 -0 1 0 0 0 1 1 0 -0 
1 -50 -50 0 0 0 1 1 0 -0 -0 1 0 
1 -50 41.5 0 1 0 -0 0 0 1 0 -1 0 
1 -50 50 0 -0 1 0 0 0 1 1 0 -0 
1 -50 50 0 -0 1 0 0 0 1 1 0 -0 
1 -50 -50 100 0 0 1 1 0 -0 -0 1 0 
1 -50 -41.5 0 1 0 -0 0 0 1 0 -1 0 
1 -45 19.442488865228739 67.855440262921775 9.7415190261453434e-18 0.087743802912341531 0.99614307458842488 -1.105940977228964e-16 -0.99614307458842488 0.087743802912341531 1 -1.1102230246251565e-16 0 
1 -45 16.804835603387176 53.630567699259288 1.091615334665141e-16 0.98323968288596963 -0.18231765136238995 2.0241325433810736e-17 0.18231765136238995 0.98323968288596963 1 -1.1102230246251565e-16 0 
1 -45 6.1743270780136648 30.775275875808401 1.0066602934124447e-16 0.90671898446019206 -0.42173532365629285 4.6822026662095878e-17 0.42173532365629285 0.90671898446019206 1 -1.1102230246251565e-16 0 
1 -45 -7.8739232859645227 33.797065639791761 -2.3346979018148269e-17 -0.21029089201271867 -0.9776388600789635 1.0853971722279571e-16 0.9776388600789635 -0.21029089201271867 1 -1.1102230246251565e-16 0 
1 -45 -8.2025263341896544 70.290510913961199 -1.1101780189512774e-16 -0.99995946249277767 -0.0090040752526391703 9.9965316609375801e-19 0.0090040752526391703 -0.99995946249277767 1 -1.1102230246251565e-16 0 
1 50 -50 0 1 0 -0 0 0 1 0 -1 0 
1 41.5 -50 0 -0 1 0 0 0 1 1 0 -0 
1 50 -50 0 1 0 -0 0 0 1 0 -1 0 
1 -41.5 -50 0 -0 1 0 0 0 1 1 0 -0 
1 -7.8739232859645227 -53 33.797065639791761 -0.21029089201271867 0 -0.9776388600789635 0.9776388600789635 0 -0.21029089201271867 0 -1 -0 
1 6.1743270780136648 -53 30.775275875808401 0.90671898446019206 0 -0.42173532365629285 0.42173532365629285 0 0.90671898446019206 0 -1 0 
1 16.804835603387176 -53 53.630567699259288 0.98323968288596963 0 -0.18231765136238995 0.18231765136238995 0 0.98323968288596963 0 -1 0 
1 19.442488865228739 -53 67.855440262921775 0.087743802912341531 -0 0.99614307458842488 -0.99614307458842488 0 0.087743802912341531 -0 -1 0 
1 -8.2025263341896544 -53 70.290510913961199 -0.99995946249277767 0 -0.0090040752526391703 0.0090040752526391703 0 -0.99995946249277767 0 -1 -0 
1 -50 -41.5 0 -0 1 0 0 0 1 1 0 -0 
1 -50 -50 100 0 0 1 1 0 -0 -0 1 0 
1 -48 -41.5 0 1 0 -0 0 0 1 0 -1 0 
1 -50 -41.5 100 0 0 1 1 0 -0 -0 1 0 
1 -50 41.5 0 -0 1 0 0 0 1 1 0 -0 
1 -50 41.5 100 0 0 1 1 0 -0 -0 1 0 
1 -41.5 41.5 0 1 0 -0 0 0 1 0 -1 0 
1 -41.5 48 0 -0 1 0 0 0 1 1 0 -0 
1 -41.5 48 100 0 0 1 1 0 -0 -0 1 0 
1 41.5 41.5 0 1 0 -0 0 0 1 0 -1 0 
1 41.5 41.5 100 0 0 1 1 0 -0 -0 1 0 
1 41.5 41.5 0 -0 1 0 0 0 1 1 0 -0 
1 48 -41.5 0 1 0 -0 0 0 1 0 -1 0 
1 48 -41.5 100 0 0 1 1 0 -0 -0 1 0 
1 41.5 -41.5 0 -0 1 0 0 0 1 1 0 -0 
1 41.5 -50 100 0 0 1 1 0 -0 -0 1 0 
1 41.5 -50 0 1 0 -0 0 0 1 0 -1 0 
1 -41.5 -48 0 -0 1 0 0 0 1 1 0 -0 
1 -41.5 -50 100 0 0 1 1 0 -0 -0 1 0 
1 -41.5 -50 0 1 0 -0 0 0 1 0 -1 0 
1 -50 -50 0 0 0 1 1 0 -0 -0 1 0 
1 -50 -41.5 0 0 0 1 1 0 -0 -0 1 0 
1 -50 41.5 0 0 0 1 1 0 -0 -0 1 0 
1 -41.5 48 0 0 0 1 1 0 -0 -0 1 0 
1 41.5 41.5 0 0 0 1 1 0 -0 -0 1 0 
1 48 -41.5 0 0 0 1 1 0 -0 -0 1 0 
1 41.5 -50 0 0 0 1 1 0 -0 -0 1 0 
1 -41.5 -50 0 0 0 1 1 0 -0 -0 1 0 
1 -50 -41.5 0 -0 1 0 0 0 1 1 0 -0 
1 -41.5 -50 0 1 0 -0 0 0 1 0 -1 0 
1 -50 41.5 0 -0 1 0 0 0 1 1 0 -0 
1 41.5 -50 0 1 0 -0 0 0 1 0 -1 0 
1 50 41.5 0 1 0 -0 0 0 1 0 -1 0 
1 41.5 50 0 -0 1 0 0 0 1 1 0 -0 
1 -41.5 50 0 -0 1 0 0 0 1 1 0 -0 
1 -7.8739232859645227 45 33.797065639791761 -0.21029089201271867 0 -0.9776388600789635 0.9776388600789635 0 -0.21029089201271867 0 -1 -0 
1 6.1743270780136648 45 30.775275875808401 0.90671898446019206 0 -0.42173532365629285 0.42173532365629285 0 0.90671898446019206 0 -1 0 
1 16.804835603387176 45 53.630567699259288 0.98323968288596963 0 -0.18231765136238995 0.18231765136238995 0 0.98323968288596963 0 -1 0 
1 19.442488865228739 45 67.855440262921775 0.087743802912341531 -0 0.99614307458842488 -0.99614307458842488 0 0.087743802912341531 -0 -1 0 
1 -8.2025263341896544 45 70.290510913961199 -0.99995946249277767 0 -0.0090040752526391703 0.0090040752526391703 0 -0.99995946249277767 0 -1 -0 
1 50 -41.5 0 1 0 -0 0 0 1 0 -1 0 
1 53 19.442488865228739 67.855440262921775 9.7415190261453434e-18 0.087743802912341531 0.99614307458842488 -1.105940977228964e-16 -0.99614307458842488 0.087743802912341531 1 -1.1102230246251565e-16 0 
1 53 16.804835603387176 53.630567699259288 1.091615334665141e-16 0.98323968288596963 -0.18231765136238995 2.0241325433810736e-17 0.18231765136238995 0.98323968288596963 1 -1.1102230246251565e-16 0 
1 53 6.1743270780136648 30.775275875808401 1.0066602934124447e-16 0.90671898446019206 -0.42173532365629285 4.6822026662095878e-17 0.42173532365629285 0.90671898446019206 1 -1.1102230246251565e-16 0 
1 53 -7.8739232859645227 33.797065639791761 -2.3346979018148269e-17 -0.21029089201271867 -0.9776388600789635 1.0853971722279571e-16 0.9776388600789635 -0.21029089201271867 1 -1.1102230246251565e-16 0 
1 53 -8.2025263341896544 70.290510913961199 -1.1101780189512774e-16 -0.99995946249277767 -0.0090040752526391703 9.9965316609375801e-19 0.0090040752526391703 -0.99995946249277767 1 -1.1102230246251565e-16 0 
1 -41.5 48 0 1 0 -0 0 0 1 0 -1 0 
1 48 -41.5 0 -0 1 0 0 0 1 1 0 -0 
1 41.5 48 0 1 0 -0 0 0 1 0 -1 0 
1 48 41.5 0 -0 1 0 0 0 1 1 0 -0 
Triangulations 0

TShapes 269
Ve
1e-07
-50 -50 100
0 0

0101101
*
Ve
1e-07
-50 -50 0
0 0

0101101
*
Ed
 1e-07 1 1 0
1  1 0 0 100
2  1 2 0 0 100
2  2 3 0 0 100
2  3 1 0 0 100
2  4 4 0 0 100
0

0101000
-269 0 +268 0 *
Ve
1e-07
-50 50 0
0 0

0101101
*
Ed
 1e-07 1 1 0
1  2 0 0 100
2  5 1 0 0 100
2  6 5 0 0 100
0

0101000
+266 0 -268 0 *
Ve
1e-07
-50 50 100
0 0

0101101
*
Ed
 1e-07 1 1 0
1  3 0 0 100
2  7 6 0 0 100
2  8 7 0 0 100
2  9 2 0 0 100
2  10 1 0 0 100
2  11 8 0 0 100
0

0101000
-264 0 +266 0 *
Ed
 1e-07 1 1 0
1  4 0 0 100
2  12 1 0 0 100
2  13 9 0 0 100
0

0101000
+269 0 -264 0 *
Wi

0101100
-267 0 -265 0 +263 0 -262 0 *
Ve
1.50000007105427e-07
-50 19.4424888652287 67.8554402629218
0 0

0101101
*
Ve
1.50000014210855e-07
-50 -8.20252633418965 70.2905109139612
0 0

0101101
*
Ed
 1.5e-07 1 1 0
1  5 0 -27.3767719271599 0.375280869914892
2  14 10 0 -27.3767719271599 0.375280869914892
2  15 11 0 -27.3767719271599 0.375280869914892
2  16 2 0 -27.3767719271599 0.375280869914892
2  17 1 0 -27.3767719271599 0.375280869914892
0

0101000
+260 0 -259 0 *
Ve
1.50000007105427e-07
-50 16.8048356033872 53.6305676992593
0 0

0101101
*
Ed
 1.5e-07 1 1 0
1  6 0 31.680851533947 46.1482014703432
2  18 10 0 31.680851533947 46.1482014703432
2  19 12 0 31.680851533947 46.1482014703432
2  20 2 0 31.680851533947 46.1482014703432
2  21 1 0 31.680851533947 46.1482014703432
0

0101000
+257 0 -260 0 *
Ve
1.50000003662053e-07
-50 6.17432707801367 30.7752758758084
0 0

0101101
*
Ed
 1.5e-07 1 1 0
1  7 0 24.0052373244686 49.2118252697487
2  22 10 0 24.0052373244686 49.2118252697487
2  23 13 0 24.0052373244686 49.2118252697487
2  24 2 0 24.0052373244686 49.2118252697487
2  25 1 0 24.0052373244686 49.2118252697487
0

0101000
+255 0 -257 0 *
Ve
1.50000007160723e-07
-50 -7.87392328596452 33.7970656397918
0 0

0101101
*
Ed
 1.5e-07 1 1 0
1  8 0 12.8834721134166 27.2530424503031
2  26 10 0 12.8834721134166 27.2530424503031
2  27 14 0 12.8834721134166 27.2530424503031
2  28 2 0 12.8834721134166 27.2530424503031
2  29 1 0 12.8834721134166 27.2530424503031
0

0101000
+253 0 -255 0 *
Ed
 1.5e-07 1 1 0
1  9 0 -34.9939242766288 1.50100041081371
2  30 10 0 -34.9939242766288 1.50100041081371
2  31 15 0 -34.9939242766288 1.50100041081371
2  32 2 0 -34.9939242766288 1.50100041081371
2  33 1 0 -34.9939242766288 1.50100041081371
0

0101000
+259 0 -253 0 *
Wi

0101100
-258 0 -256 0 -254 0 -252 0 -251 0 *
Fa
0  0 1 0

0111000
+261 0 +250 0 *
Ve
1e-07
50 -50 0
0 0

0101101
*
Ed
 1e-07 1 1 0
1  10 0 0 100
2  34 5 0 0 100
2  35 4 0 0 100
0

0101000
+268 0 -248 0 *
Ve
1e-07
50 -50 100
0 0

0101101
*
Ed
 1e-07 1 1 0
1  11 0 0 100
2  36 9 0 0 100
2  37 4 0 0 100
0

0101000
+246 0 -269 0 *
Ed
 1e-07 1 1 0
1  12 0 0 100
2  38 16 0 0 100
2  39 17 0 0 100
2  40 3 0 0 100
2  41 4 0 0 100
2  42 18 0 0 100
0

0101000
-246 0 +248 0 *
Wi

0101100
-247 0 +267 0 -245 0 -244 0 *
Ve
1.50000003552714e-07
6.17432707801366 -50 30.7752758758084
0 0

0101101
*
Ve
1.50000007105427e-07
-7.87392328596452 -50 33.7970656397918
0 0

0101101
*
Ed
 1.5e-07 1 1 0
1  13 0 -27.2530424503031 -12.8834721134166
2  43 19 0 -27.2530424503031 -12.8834721134166
2  44 20 0 -27.2530424503031 -12.8834721134166
2  45 3 0 -27.2530424503031 -12.8834721134166
2  46 4 0 -27.2530424503031 -12.8834721134166
0

0101000
+242 0 -241 0 *
Ve
1.50000007944109e-07
16.8048356033872 -50 53.6305676992593
0 0

0101101
*
Ed
 1.5e-07 1 1 0
1  14 0 -49.2118252697487 -24.0052373244686
2  47 19 0 -49.2118252697487 -24.0052373244686
2  48 21 0 -49.2118252697487 -24.0052373244686
2  49 3 0 -49.2118252697487 -24.0052373244686
2  50 4 0 -49.2118252697487 -24.0052373244686
0

0101000
+239 0 -242 0 *
Ve
1.50000007105427e-07
19.4424888652287 -50 67.8554402629218
0 0

0101101
*
Ed
 1.5e-07 1 1 0
1  15 0 -46.1482014703432 -31.680851533947
2  51 19 0 -46.1482014703432 -31.680851533947
2  52 22 0 -46.1482014703432 -31.680851533947
2  53 3 0 -46.1482014703432 -31.680851533947
2  54 4 0 -46.1482014703432 -31.680851533947
0

0101000
+237 0 -239 0 *
Ve
1.50000014210855e-07
-8.20252633418965 -50 70.2905109139612
0 0

0101101
*
Ed
 1.5e-07 1 1 0
1  16 0 -0.375280869914892 27.3767719271599
2  55 19 0 -0.375280869914892 27.3767719271599
2  56 23 0 -0.375280869914892 27.3767719271599
2  57 3 0 -0.375280869914892 27.3767719271599
2  58 4 0 -0.375280869914892 27.3767719271599
0

0101000
+235 0 -237 0 *
Ed
 1.5e-07 1 1 0
1  17 0 -1.50100041081371 34.9939242766288
2  59 19 0 -1.50100041081371 34.9939242766288
2  60 24 0 -1.50100041081371 34.9939242766288
2  61 3 0 -1.50100041081371 34.9939242766288
2  62 4 0 -1.50100041081371 34.9939242766288
0

0101000
+241 0 -235 0 *
Wi

0101100
-240 0 -238 0 -236 0 -234 0 -233 0 *
Fa
0  0 4 0

0111000
+243 0 +232 0 *
Ve
1e-07
50 50 100
0 0

0101101
*
Ed
 1e-07 1 1 0
1  18 0 0 100
2  63 9 0 0 100
2  64 18 0 0 100
0

0101000
+246 0 -230 0 *
Ed
 1e-07 1 1 0
1  19 0 0 100
2  65 9 0 0 100
2  66 8 0 0 100
0

0101000
+230 0 -264 0 *
Wi

0101100
-262 0 -245 0 +229 0 +228 0 *
Ve
1e-07
-48 -41.5 100
0 0

0101101
*
Ve
1e-07
-41.5 -41.5 100
0 0

0101101
*
Ed
 1e-07 1 1 0
1  20 0 2 8.5
2  67 25 0 2 8.5
2  68 26 0 2 8.5
2  69 9 0 2 8.5
0

0101000
+226 0 -225 0 *
Ve
1e-07
-48 41.5 100
0 0

0101101
*
Ed
 1e-07 1 1 0
1  21 0 0 83
2  70 27 0 0 83
2  71 28 0 0 83
2  72 26 0 0 83
2  73 9 0 0 83
0

0101000
-223 0 +226 0 *
Ve
1e-07
-41.5 41.5 100
0 0

0101101
*
Ed
 1e-07 1 1 0
1  22 0 2 8.5
2  74 29 0 2 8.5
2  75 30 0 2 8.5
2  76 26 0 2 8.5
2  77 9 0 2 8.5
0

0101000
+223 0 -221 0 *
Ve
1e-07
-41.5 48 100
0 0

0101101
*
Ed
 1e-07 1 1 0
1  23 0 0 6.5
2  78 31 0 0 6.5
2  79 30 0 0 6.5
2  80 26 0 0 6.5
2  81 9 0 0 6.5
0

0101000
+221 0 -219 0 *
Ve
1e-07
41.5 48 100
0 0

0101101
*
Ed
 1e-07 1 1 0
1  24 0 0 83
2  82 32 0 0 83
2  83 33 0 0 83
2  84 26 0 0 83
2  85 9 0 0 83
0

0101000
-217 0 +219 0 *
Ve
1e-07
41.5 41.5 100
0 0

0101101
*
Ed
 1e-07 1 1 0
1  25 0 0 6.5
2  86 34 0 0 6.5
2  87 35 0 0 6.5
2  88 26 0 0 6.5
2  89 9 0 0 6.5
0

0101000
+215 0 -217 0 *
Ve
1e-07
48 41.5 100
0 0

0101101
*
Ed
 1e-07 1 1 0
1  26 0 0 6.5
2  90 36 0 0 6.5
2  91 35 0 0 6.5
2  92 26 0 0 6.5
2  93 9 0 0 6.5
0

0101000
+215 0 -213 0 *
Ve
1e-07
48 -41.5 100
0 0

0101101
*
Ed
 1e-07 1 1 0
1  27 0 0 83
2  94 37 0 0 83
2  95 38 0 0 83
2  96 26 0 0 83
2  97 9 0 0 83
0

0101000
-213 0 +211 0 *
Ve
1e-07
41.5 -41.5 100
0 0

0101101
*
Ed
 1e-07 1 1 0
1  28 0 0 6.5
2  98 39 0 0 6.5
2  99 40 0 0 6.5
2  100 26 0 0 6.5
2  101 9 0 0 6.5
0

0101000
+209 0 -211 0 *
Ve
1e-07
41.5 -48 100
0 0

0101101
*
Ed
 1e-07 1 1 0
1  29 0 2 8.5
2  102 41 0 2 8.5
2  103 40 0 2 8.5
2  104 26 0 2 8.5
2  105 9 0 2 8.5
0

0101000
+207 0 -209 0 *
Ve
1e-07
-41.5 -48 100
0 0

0101101
*
Ed
 1e-07 1 1 0
1  30 0 0 83
2  106 42 0 0 83
2  107 43 0 0 83
2  108 26 0 0 83
2  109 9 0 0 83
0

0101000
-207 0 +205 0 *
Ed
 1e-07 1 1 0
1  31 0 2 8.5
2  110 44 0 2 8.5
2  111 26 0 2 8.5
2  112 9 0 2 8.5
0

0101000
+205 0 -225 0 *
Wi

0101100
-224 0 +222 0 +220 0 +218 0 +216 0 -214 0 +212 0 -210 0 -208 0 -206 0 
-204 0 +203 0 *
Fa
0  0 9 0

0111000
+227 0 +202 0 *
Ve
1e-07
50 50 0
0 0

0101101
*
Ed
 1e-07 1 1 0
1  32 0 0 100
2  113 5 0 0 100
2  114 18 0 0 100
0

0101000
+200 0 -248 0 *
Ed
 1e-07 1 1 0
1  33 0 0 100
2  115 5 0 0 100
2  116 8 0 0 100
0

0101000
+266 0 -200 0 *
Wi

0101100
+247 0 -199 0 -198 0 +265 0 *
Ve
1e-07
-48 -41.5 0
0 0

0101101
*
Ve
1e-07
-41.5 -41.5 0
0 0

0101101
*
Ed
 1e-07 1 1 0
1  34 0 2 8.5
2  117 25 0 2 8.5
2  118 45 0 2 8.5
2  119 5 0 2 8.5
0

0101000
+196 0 -195 0 *
Ve
1e-07
-48 41.5 0
0 0

0101101
*
Ed
 1e-07 1 1 0
1  35 0 0 83
2  120 27 0 0 83
2  121 46 0 0 83
2  122 45 0 0 83
2  123 5 0 0 83
0

0101000
-193 0 +196 0 *
Ve
1e-07
-41.5 41.5 0
0 0

0101101
*
Ed
 1e-07 1 1 0
1  36 0 2 8.5
2  124 29 0 2 8.5
2  125 47 0 2 8.5
2  126 45 0 2 8.5
2  127 5 0 2 8.5
0

0101000
+193 0 -191 0 *
Ve
1e-07
-41.5 48 0
0 0

0101101
*
Ed
 1e-07 1 1 0
1  37 0 0 6.5
2  128 31 0 0 6.5
2  129 47 0 0 6.5
2  130 45 0 0 6.5
2  131 5 0 0 6.5
0

0101000
+191 0 -189 0 *
Ve
1e-07
41.5 48 0
0 0

0101101
*
Ed
 1e-07 1 1 0
1  38 0 0 83
2  132 32 0 0 83
2  133 48 0 0 83
2  134 45 0 0 83
2  135 5 0 0 83
0

0101000
-187 0 +189 0 *
Ve
1e-07
41.5 41.5 0
0 0

0101101
*
Ed
 1e-07 1 1 0
1  39 0 0 6.5
2  136 34 0 0 6.5
2  137 49 0 0 6.5
2  138 45 0 0 6.5
2  139 5 0 0 6.5
0

0101000
+185 0 -187 0 *
Ve
1e-07
48 41.5 0
0 0

0101101
*
Ed
 1e-07 1 1 0
1  40 0 0 6.5
2  140 36 0 0 6.5
2  141 49 0 0 6.5
2  142 45 0 0 6.5
2  143 5 0 0 6.5
0

0101000
+185 0 -183 0 *
Ve
1e-07
48 -41.5 0
0 0

0101101
*
Ed
 1e-07 1 1 0
1  41 0 0 83
2  144 37 0 0 83
2  145 50 0 0 83
2  146 45 0 0 83
2  147 5 0 0 83
0

0101000
-183 0 +181 0 *
Ve
1e-07
41.5 -41.5 0
0 0

0101101
*
Ed
 1e-07 1 1 0
1  42 0 0 6.5
2  148 39 0 0 6.5
2  149 51 0 0 6.5
2  150 45 0 0 6.5
2  151 5 0 0 6.5
0

0101000
+179 0 -181 0 *
Ve
1e-07
41.5 -48 0
0 0

0101101
*
Ed
 1e-07 1 1 0
1  43 0 2 8.5
2  152 41 0 2 8.5
2  153 51 0 2 8.5
2  154 45 0 2 8.5
2  155 5 0 2 8.5
0

0101000
+177 0 -179 0 *
Ve
1e-07
-41.5 -48 0
0 0

0101101
*
Ed
 1e-07 1 1 0
1  44 0 0 83
2  156 42 0 0 83
2  157 52 0 0 83
2  158 45 0 0 83
2  159 5 0 0 83
0

0101000
-177 0 +175 0 *
Ed
 1e-07 1 1 0
1  45 0 2 8.5
2  160 44 0 2 8.5
2  161 45 0 2 8.5
2  162 5 0 2 8.5
0

0101000
+175 0 -195 0 *
Wi

0101100
-194 0 +192 0 +190 0 +188 0 +186 0 -184 0 +182 0 -180 0 -178 0 -176 0 
-174 0 +173 0 *
Fa
0  0 5 0

0111000
+197 0 +172 0 *
Ed
 1e-07 1 1 0
1  46 0 0 100
2  163 44 0 0 100
2  164 25 0 0 100
0

0101000
-225 0 +195 0 *
Ed
 1e-07 1 1 0
1  47 0 0 100
2  165 27 0 0 100
2  166 53 0 0 100
2  167 25 0 0 100
0

0101000
-226 0 +196 0 *
Wi

0101100
-194 0 -170 0 +224 0 +169 0 *
Fa
0  1e-07 25 0

0101000
+168 0 *
Ed
 1e-07 1 1 0
1  48 0 0 100
2  168 54 0 0 100
2  169 42 0 0 100
2  170 44 0 0 100
0

0101000
-205 0 +175 0 *
Wi

0101100
-166 0 -203 0 +170 0 +173 0 *
Fa
0  1e-07 44 0

0101000
+165 0 *
Ve
1.50000014210855e-07
-48 -8.20252633418965 70.2905109139612
0 0

0101101
*
Ve
1.50000007105427e-07
-48 -7.87392328596452 33.7970656397918
0 0

0101101
*
Ed
 1.5e-07 1 1 0
1  49 0 -34.9939242766288 1.50100041081371
2  171 27 0 -34.9939242766288 1.50100041081371
2  172 15 0 -34.9939242766288 1.50100041081371
0

0101000
+163 0 -162 0 *
Ed
 1e-07 1 1 0
1  50 0 3 5
2  173 15 0 3 5
2  174 14 0 3 5
0

0101000
+162 0 -253 0 *
Ed
 1e-07 1 1 0
1  51 0 3 5
2  175 15 0 3 5
2  176 11 0 3 5
0

0101000
+163 0 -259 0 *
Wi

0101100
-161 0 -160 0 +251 0 +159 0 *
Fa
0  1e-07 15 0

0101000
+158 0 *
Ve
1.50000003552714e-07
-48 6.17432707801366 30.7752758758084
0 0

0101101
*
Ed
 1.5e-07 1 1 0
1  52 0 12.8834721134166 27.2530424503031
2  177 27 0 12.8834721134166 27.2530424503031
2  178 14 0 12.8834721134166 27.2530424503031
0

0101000
+162 0 -156 0 *
Ed
 1e-07 1 1 0
1  53 0 3 5
2  179 14 0 3 5
2  180 13 0 3 5
0

0101000
+156 0 -255 0 *
Wi

0101100
-155 0 -154 0 +252 0 +160 0 *
Fa
0  1e-07 14 0

0101000
+153 0 *
Ve
1.50000007105427e-07
-48 16.8048356033872 53.6305676992593
0 0

0101101
*
Ed
 1.5e-07 1 1 0
1  54 0 24.0052373244686 49.2118252697487
2  181 27 0 24.0052373244686 49.2118252697487
2  182 13 0 24.0052373244686 49.2118252697487
0

0101000
+156 0 -151 0 *
Ed
 1e-07 1 1 0
1  55 0 3 5
2  183 13 0 3 5
2  184 12 0 3 5
0

0101000
+151 0 -257 0 *
Wi

0101100
-150 0 -149 0 +254 0 +154 0 *
Fa
0  1e-07 13 0

0101000
+148 0 *
Ve
1.50000007105427e-07
-48 19.4424888652287 67.8554402629218
0 0

0101101
*
Ed
 1.5e-07 1 1 0
1  56 0 31.680851533947 46.1482014703432
2  185 27 0 31.680851533947 46.1482014703432
2  186 12 0 31.680851533947 46.1482014703432
0

0101000
+151 0 -146 0 *
Ed
 1e-07 1 1 0
1  57 0 3 5
2  187 12 0 3 5
2  188 11 0 3 5
0

0101000
+146 0 -260 0 *
Wi

0101100
-145 0 -144 0 +256 0 +149 0 *
Fa
0  1e-07 12 0

0101000
+143 0 *
Ed
 1.5e-07 1 1 0
1  58 0 -27.3767719271599 0.375280869914892
2  189 27 0 -27.3767719271599 0.375280869914892
2  190 11 0 -27.3767719271599 0.375280869914892
0

0101000
+146 0 -163 0 *
Wi

0101100
-141 0 -159 0 +258 0 +144 0 *
Fa
0  1e-07 11 0

0101000
+140 0 *
Ve
1.50000007105427e-07
-7.87392328596452 -48 33.7970656397918
0 0

0101101
*
Ed
 1e-07 1 1 0
1  59 0 3 5
2  191 24 0 3 5
2  192 20 0 3 5
0

0101000
+241 0 -138 0 *
Ve
1.50000014210855e-07
-8.20252633418965 -48 70.2905109139612
0 0

0101101
*
Ed
 1.5e-07 1 1 0
1  60 0 -1.50100041081371 34.9939242766288
2  193 42 0 -1.50100041081371 34.9939242766288
2  194 24 0 -1.50100041081371 34.9939242766288
0

0101000
+138 0 -136 0 *
Ed
 1e-07 1 1 0
1  61 0 3 5
2  195 24 0 3 5
2  196 23 0 3 5
0

0101000
+235 0 -136 0 *
Wi

0101100
+233 0 -137 0 -135 0 +134 0 *
Fa
0  1e-07 24 0

0101000
+133 0 *
Ve
1.50000007105427e-07
19.4424888652287 -48 67.8554402629218
0 0

0101101
*
Ed
 1.5e-07 1 1 0
1  62 0 -0.375280869914892 27.3767719271599
2  197 42 0 -0.375280869914892 27.3767719271599
2  198 23 0 -0.375280869914892 27.3767719271599
0

0101000
+136 0 -131 0 *
Ed
 1e-07 1 1 0
1  63 0 3 5
2  199 22 0 3 5
2  200 23 0 3 5
0

0101000
+237 0 -131 0 *
Wi

0101100
+234 0 -134 0 -130 0 +129 0 *
Fa
0  1e-07 23 0

0101000
+128 0 *
Ve
1.50000007944109e-07
16.8048356033872 -48 53.6305676992593
0 0

0101101
*
Ed
 1.5e-07 1 1 0
1  64 0 -46.1482014703432 -31.680851533947
2  201 42 0 -46.1482014703432 -31.680851533947
2  202 22 0 -46.1482014703432 -31.680851533947
0

0101000
+131 0 -126 0 *
Ed
 1e-07 1 1 0
1  65 0 3 5
2  203 21 0 3 5
2  204 22 0 3 5
0

0101000
+239 0 -126 0 *
Wi

0101100
+236 0 -129 0 -125 0 +124 0 *
Fa
0  1e-07 22 0

0101000
+123 0 *
Ve
1.50000003552714e-07
6.17432707801366 -48 30.7752758758084
0 0

0101101
*
Ed
 1.5e-07 1 1 0
1  66 0 -49.2118252697487 -24.0052373244686
2  205 42 0 -49.2118252697487 -24.0052373244686
2  206 21 0 -49.2118252697487 -24.0052373244686
0

0101000
+126 0 -121 0 *
Ed
 1e-07 1 1 0
1  67 0 3 5
2  207 20 0 3 5
2  208 21 0 3 5
0

0101000
+242 0 -121 0 *
Wi

0101100
+238 0 -124 0 -120 0 +119 0 *
Fa
0  1e-07 21 0

0101000
+118 0 *
Ed
 1.5e-07 1 1 0
1  68 0 -27.2530424503031 -12.8834721134166
2  209 42 0 -27.2530424503031 -12.8834721134166
2  210 20 0 -27.2530424503031 -12.8834721134166
0

0101000
+121 0 -138 0 *
Wi

0101100
+240 0 -119 0 -116 0 +137 0 *
Fa
0  1e-07 20 0

0101000
+115 0 *
Ed
 1e-07 1 1 0
1  69 0 0 100
2  211 27 0 0 100
2  212 55 0 0 100
2  213 29 0 0 100
0

0101000
-223 0 +193 0 *
Wi

0101100
-169 0 -222 0 +192 0 +113 0 *
Wi

0101100
-161 0 -155 0 -150 0 -145 0 -141 0 *
Fa
0  1e-07 27 0

0101000
+112 0 +111 0 *
Ed
 1e-07 1 1 0
1  70 0 0 100
2  214 56 0 0 100
2  215 42 0 0 100
2  216 41 0 0 100
0

0101000
-207 0 +177 0 *
Wi

0101100
-174 0 -109 0 +166 0 +204 0 *
Wi

0101100
-135 0 -130 0 -125 0 -120 0 -116 0 *
Fa
0  1e-07 42 0

0101000
+108 0 +107 0 *
Ed
 1e-07 1 1 0
1  71 0 0 100
2  217 57 0 0 100
2  218 58 0 0 100
2  219 7 0 0 100
2  220 16 0 0 100
2  221 18 0 0 100
2  222 8 0 0 100
0

0101000
-230 0 +200 0 *
Wi

0101100
-198 0 +263 0 -228 0 -105 0 *
Ve
1.50000003552714e-07
6.17432707801366 50 30.7752758758084
0 0

0101101
*
Ve
1.50000007105427e-07
-7.87392328596452 50 33.7970656397918
0 0

0101101
*
Ed
 1.5e-07 1 1 0
1  72 0 -27.2530424503031 -12.8834721134166
2  223 59 0 -27.2530424503031 -12.8834721134166
2  224 60 0 -27.2530424503031 -12.8834721134166
2  225 7 0 -27.2530424503031 -12.8834721134166
2  226 8 0 -27.2530424503031 -12.8834721134166
0

0101000
+103 0 -102 0 *
Ve
1.50000007944109e-07
16.8048356033872 50 53.6305676992593
0 0

0101101
*
Ed
 1.5e-07 1 1 0
1  73 0 -49.2118252697487 -24.0052373244686
2  227 59 0 -49.2118252697487 -24.0052373244686
2  228 61 0 -49.2118252697487 -24.0052373244686
2  229 7 0 -49.2118252697487 -24.0052373244686
2  230 8 0 -49.2118252697487 -24.0052373244686
0

0101000
+100 0 -103 0 *
Ve
1.50000007105427e-07
19.4424888652287 50 67.8554402629218
0 0

0101101
*
Ed
 1.5e-07 1 1 0
1  74 0 -46.1482014703432 -31.680851533947
2  231 59 0 -46.1482014703432 -31.680851533947
2  232 62 0 -46.1482014703432 -31.680851533947
2  233 7 0 -46.1482014703432 -31.680851533947
2  234 8 0 -46.1482014703432 -31.680851533947
0

0101000
+98 0 -100 0 *
Ve
1.50000014210855e-07
-8.20252633418965 50 70.2905109139612
0 0

0101101
*
Ed
 1.5e-07 1 1 0
1  75 0 -0.375280869914892 27.3767719271599
2  235 59 0 -0.375280869914892 27.3767719271599
2  236 63 0 -0.375280869914892 27.3767719271599
2  237 7 0 -0.375280869914892 27.3767719271599
2  238 8 0 -0.375280869914892 27.3767719271599
0

0101000
+96 0 -98 0 *
Ed
 1.5e-07 1 1 0
1  76 0 -1.50100041081371 34.9939242766288
2  239 59 0 -1.50100041081371 34.9939242766288
2  240 64 0 -1.50100041081371 34.9939242766288
2  241 7 0 -1.50100041081371 34.9939242766288
2  242 8 0 -1.50100041081371 34.9939242766288
0

0101000
+102 0 -96 0 *
Wi

0101100
-101 0 -99 0 -97 0 -95 0 -94 0 *
Fa
0  0 8 0

0111000
+104 0 +93 0 *
Wi

0101100
-244 0 -199 0 +105 0 -229 0 *
Ve
1.50000007105427e-07
50 19.4424888652287 67.8554402629218
0 0

0101101
*
Ve
1.50000014210855e-07
50 -8.20252633418965 70.2905109139612
0 0

0101101
*
Ed
 1.5e-07 1 1 0
1  77 0 -27.3767719271599 0.375280869914892
2  243 65 0 -27.3767719271599 0.375280869914892
2  244 66 0 -27.3767719271599 0.375280869914892
2  245 16 0 -27.3767719271599 0.375280869914892
2  246 18 0 -27.3767719271599 0.375280869914892
0

0101000
+90 0 -89 0 *
Ve
1.50000007944109e-07
50 16.8048356033872 53.6305676992593
0 0

0101101
*
Ed
 1.5e-07 1 1 0
1  78 0 31.680851533947 46.1482014703432
2  247 65 0 31.680851533947 46.1482014703432
2  248 67 0 31.680851533947 46.1482014703432
2  249 16 0 31.680851533947 46.1482014703432
2  250 18 0 31.680851533947 46.1482014703432
0

0101000
+87 0 -90 0 *
Ve
1.50000003552714e-07
50 6.17432707801366 30.7752758758084
0 0

0101101
*
Ed
 1.5e-07 1 1 0
1  79 0 24.0052373244686 49.2118252697487
2  251 65 0 24.0052373244686 49.2118252697487
2  252 68 0 24.0052373244686 49.2118252697487
2  253 16 0 24.0052373244686 49.2118252697487
2  254 18 0 24.0052373244686 49.2118252697487
0

0101000
+85 0 -87 0 *
Ve
1.50000007105427e-07
50 -7.87392328596452 33.7970656397918
0 0

0101101
*
Ed
 1.5e-07 1 1 0
1  80 0 12.8834721134166 27.2530424503031
2  255 65 0 12.8834721134166 27.2530424503031
2  256 69 0 12.8834721134166 27.2530424503031
2  257 16 0 12.8834721134166 27.2530424503031
2  258 18 0 12.8834721134166 27.2530424503031
0

0101000
+83 0 -85 0 *
Ed
 1.5e-07 1 1 0
1  81 0 -34.9939242766288 1.50100041081371
2  259 65 0 -34.9939242766288 1.50100041081371
2  260 70 0 -34.9939242766288 1.50100041081371
2  261 16 0 -34.9939242766288 1.50100041081371
2  262 18 0 -34.9939242766288 1.50100041081371
0

0101000
+89 0 -83 0 *
Wi

0101100
-88 0 -86 0 -84 0 -82 0 -81 0 *
Fa
0  0 18 0

0111000
+91 0 +80 0 *
Ed
 1e-07 1 1 0
1  82 0 0 100
2  263 71 0 0 100
2  264 32 0 0 100
2  265 31 0 0 100
0

0101000
-219 0 +189 0 *
Ed
 1e-07 1 1 0
1  83 0 0 100
2  266 31 0 0 100
2  267 29 0 0 100
0

0101000
-221 0 +191 0 *
Wi

0101100
-218 0 +78 0 +188 0 -77 0 *
Fa
0  1e-07 31 0

0101000
+76 0 *
Wi

0101100
-190 0 -77 0 +220 0 +113 0 *
Fa
0  1e-07 29 0

0101000
+74 0 *
Ed
 1e-07 1 1 0
1  84 0 0 100
2  268 41 0 0 100
2  269 39 0 0 100
0

0101000
-209 0 +179 0 *
Wi

0101100
-109 0 -206 0 +72 0 +176 0 *
Fa
0  1e-07 41 0

0101000
+71 0 *
Ed
 1e-07 1 1 0
1  85 0 0 100
2  270 37 0 0 100
2  271 72 0 0 100
2  272 39 0 0 100
0

0101000
-211 0 +181 0 *
Wi

0101100
-178 0 -69 0 +208 0 +72 0 *
Fa
0  1e-07 39 0

0101000
+68 0 *
Ed
 1e-07 1 1 0
1  86 0 0 100
2  273 73 0 0 100
2  274 32 0 0 100
2  275 34 0 0 100
0

0101000
-217 0 +187 0 *
Wi

0101100
-186 0 -66 0 +78 0 +216 0 *
Ve
1.50000007105427e-07
-7.87392328596452 48 33.7970656397918
0 0

0101101
*
Ve
1.50000014210855e-07
-8.20252633418965 48 70.2905109139612
0 0

0101101
*
Ed
 1.5e-07 1 1 0
1  87 0 -1.50100041081371 34.9939242766288
2  276 32 0 -1.50100041081371 34.9939242766288
2  277 64 0 -1.50100041081371 34.9939242766288
0

0101000
+64 0 -63 0 *
Ve
1.50000007105427e-07
19.4424888652287 48 67.8554402629218
0 0

0101101
*
Ed
 1.5e-07 1 1 0
1  88 0 -0.375280869914892 27.3767719271599
2  278 32 0 -0.375280869914892 27.3767719271599
2  279 63 0 -0.375280869914892 27.3767719271599
0

0101000
+63 0 -61 0 *
Ve
1.50000007944109e-07
16.8048356033872 48 53.6305676992593
0 0

0101101
*
Ed
 1.5e-07 1 1 0
1  89 0 -46.1482014703432 -31.680851533947
2  280 32 0 -46.1482014703432 -31.680851533947
2  281 62 0 -46.1482014703432 -31.680851533947
0

0101000
+61 0 -59 0 *
Ve
1.50000003552714e-07
6.17432707801366 48 30.7752758758084
0 0

0101101
*
Ed
 1.5e-07 1 1 0
1  90 0 -49.2118252697487 -24.0052373244686
2  282 32 0 -49.2118252697487 -24.0052373244686
2  283 61 0 -49.2118252697487 -24.0052373244686
0

0101000
+59 0 -57 0 *
Ed
 1.5e-07 1 1 0
1  91 0 -27.2530424503031 -12.8834721134166
2  284 32 0 -27.2530424503031 -12.8834721134166
2  285 60 0 -27.2530424503031 -12.8834721134166
0

0101000
+57 0 -64 0 *
Wi

0101100
-62 0 -60 0 -58 0 -56 0 -55 0 *
Fa
0  1e-07 32 0

0101000
+65 0 +54 0 *
Ed
 1e-07 1 1 0
1  92 0 0 100
2  286 37 0 0 100
2  287 74 0 0 100
2  288 36 0 0 100
0

0101000
-213 0 +183 0 *
Wi

0101100
-69 0 -210 0 +180 0 +52 0 *
Ve
1.50000014210855e-07
48 -8.20252633418965 70.2905109139612
0 0

0101101
*
Ve
1.50000007160723e-07
48 -7.87392328596452 33.7970656397918
0 0

0101101
*
Ed
 1.5e-07 1 1 0
1  93 0 -34.9939242766288 1.50100041081371
2  289 37 0 -34.9939242766288 1.50100041081371
2  290 70 0 -34.9939242766288 1.50100041081371
0

0101000
+50 0 -49 0 *
Ve
1.50000003662053e-07
48 6.17432707801367 30.7752758758084
0 0

0101101
*
Ed
 1.5e-07 1 1 0
1  94 0 12.8834721134166 27.2530424503031
2  291 37 0 12.8834721134166 27.2530424503031
2  292 69 0 12.8834721134166 27.2530424503031
0

0101000
+49 0 -47 0 *
Ve
1.50000007944109e-07
48 16.8048356033872 53.6305676992593
0 0

0101101
*
Ed
 1.5e-07 1 1 0
1  95 0 24.0052373244686 49.2118252697487
2  293 37 0 24.0052373244686 49.2118252697487
2  294 68 0 24.0052373244686 49.2118252697487
0

0101000
+47 0 -45 0 *
Ve
1.50000007105427e-07
48 19.4424888652287 67.8554402629218
0 0

0101101
*
Ed
 1.5e-07 1 1 0
1  96 0 31.680851533947 46.1482014703432
2  295 37 0 31.680851533947 46.1482014703432
2  296 67 0 31.680851533947 46.1482014703432
0

0101000
+45 0 -43 0 *
Ed
 1.5e-07 1 1 0
1  97 0 -27.3767719271599 0.375280869914892
2  297 37 0 -27.3767719271599 0.375280869914892
2  298 66 0 -27.3767719271599 0.375280869914892
0

0101000
+43 0 -50 0 *
Wi

0101100
-48 0 -46 0 -44 0 -42 0 -41 0 *
Fa
0  1e-07 37 0

0101000
+51 0 +40 0 *
Ed
 1e-07 1 1 0
1  98 0 3 5
2  299 64 0 3 5
2  300 60 0 3 5
0

0101000
+64 0 -102 0 *
Ed
 1e-07 1 1 0
1  99 0 3 5
2  301 64 0 3 5
2  302 63 0 3 5
0

0101000
+63 0 -96 0 *
Wi

0101100
+62 0 -38 0 -94 0 +37 0 *
Fa
0  1e-07 64 0

0101000
+36 0 *
Ed
 1e-07 1 1 0
1  100 0 3 5
2  303 62 0 3 5
2  304 63 0 3 5
0

0101000
+61 0 -98 0 *
Wi

0101100
+60 0 -37 0 -95 0 +34 0 *
Fa
0  1e-07 63 0

0101000
+33 0 *
Ed
 1e-07 1 1 0
1  101 0 3 5
2  305 61 0 3 5
2  306 62 0 3 5
0

0101000
+59 0 -100 0 *
Wi

0101100
+58 0 -34 0 -97 0 +31 0 *
Fa
0  1e-07 62 0

0101000
+30 0 *
Ed
 1e-07 1 1 0
1  102 0 3 5
2  307 60 0 3 5
2  308 61 0 3 5
0

0101000
+57 0 -103 0 *
Wi

0101100
+56 0 -31 0 -99 0 +28 0 *
Fa
0  1e-07 61 0

0101000
+27 0 *
Wi

0101100
+55 0 -28 0 -101 0 +38 0 *
Fa
0  1e-07 60 0

0101000
+25 0 *
Ed
 1e-07 1 1 0
1  103 0 3 5
2  309 70 0 3 5
2  310 69 0 3 5
0

0101000
+83 0 -49 0 *
Ed
 1e-07 1 1 0
1  104 0 3 5
2  311 70 0 3 5
2  312 66 0 3 5
0

0101000
+89 0 -50 0 *
Wi

0101100
-81 0 -23 0 +48 0 +22 0 *
Fa
0  1e-07 70 0

0101000
+21 0 *
Ed
 1e-07 1 1 0
1  105 0 3 5
2  313 69 0 3 5
2  314 68 0 3 5
0

0101000
+85 0 -47 0 *
Wi

0101100
-82 0 -19 0 +46 0 +23 0 *
Fa
0  1e-07 69 0

0101000
+18 0 *
Ed
 1e-07 1 1 0
1  106 0 3 5
2  315 68 0 3 5
2  316 67 0 3 5
0

0101000
+87 0 -45 0 *
Wi

0101100
-84 0 -16 0 +44 0 +19 0 *
Fa
0  1e-07 68 0

0101000
+15 0 *
Ed
 1e-07 1 1 0
1  107 0 3 5
2  317 67 0 3 5
2  318 66 0 3 5
0

0101000
+90 0 -43 0 *
Wi

0101100
-86 0 -13 0 +42 0 +16 0 *
Fa
0  1e-07 67 0

0101000
+12 0 *
Wi

0101100
-88 0 -22 0 +41 0 +13 0 *
Fa
0  1e-07 66 0

0101000
+10 0 *
Ed
 1e-07 1 1 0
1  108 0 0 100
2  319 34 0 0 100
2  320 36 0 0 100
0

0101000
-215 0 +185 0 *
Wi

0101100
-214 0 +66 0 +184 0 -8 0 *
Fa
0  1e-07 34 0

0101000
+7 0 *
Wi

0101100
-182 0 -52 0 +212 0 +8 0 *
Fa
0  1e-07 36 0

0101000
+5 0 *
Sh

0101100
-249 0 -231 0 +201 0 -171 0 +167 0 +164 0 -157 0 -152 0 -147 0 -142 0 
-139 0 -132 0 -127 0 -122 0 -117 0 -114 0 +110 0 +106 0 +92 0 +79 0 
+75 0 -73 0 -70 0 +67 0 -53 0 -39 0 -35 0 -32 0 -29 0 -26 0 
-24 0 -20 0 -17 0 -14 0 -11 0 -9 0 -6 0 -4 0 *
So

0100000
+3 0 *
Co

1100000
+2 0 *

+1 0 