DBRep_DrawableShape

CASCADE Topology V1, (c) Matra-Datavision
Locations 0
Curve2ds 352
1 0 0 1 0 
1 0 0 1 0 
1 0 0 1 0 
1 0 0 1 0 
1 0 -100 0 1 
1 0 100 0 -1 
1 0 -8.5 1 0 
1 0 0 1 0 
1 0 -100 1 0 
1 0 -100 1 0 
1 0 0 1 0 
1 100 0 0 -1 
1 0 0 0 1 
8 -33.978344017595695 -19.917399401209899
1 29.368328718311751 -18.867354123136977 -0.94278819549208071 0.33339228911416979 
8 -33.978344017595695 -19.917399401209899
1 33.978344017595695 -4.9999999999999991 1 3.7013979560703824e-17 
1 29.368328718311751 -27.367354123136977 -0.94278819549208071 0.33339228911416979 
1 29.368328718311751 -27.367354123136977 -0.94278819549208071 0.33339228911416979 
8 -33.398958391998917 -10.045743145960845
1 59.104009200593531 -20.416263032522359 -0.22882340574282523 0.97346794964408279 
8 -33.398958391998917 -10.045743145960845
1 33.398958391998917 -4.9999999999999964 1 1.0807665314295032e-16 
1 59.104009200593531 -28.916263032522359 -0.22882340574282523 0.97346794964408279 
1 59.104009200593531 -28.916263032522359 -0.22882340574282523 0.97346794964408279 
8 22.219750478828946 42.733215919314787
1 24.036800551363658 -54.347407035528398 0.99944905006425766 0.033190304693585207 
8 22.219750478828946 42.733215919314787
1 -22.219750478828946 -5 1 3.6848640465142698e-18 
1 24.036800551363658 -62.847407035528398 0.99944905006425766 0.033190304693585207 
1 24.036800551363658 -62.847407035528398 0.99944905006425766 0.033190304693585207 
8 23.406550659411746 40.057011282018365
1 9.3459010911579394 -38.019171723327432 0.92114730450446447 -0.38921413566847679 
8 23.406550659411746 40.057011282018365
1 -23.406550659411746 -4.9999999999999991 1 -4.3211449492872233e-17 
1 9.3459010911579394 -46.519171723327432 0.92114730450446447 -0.38921413566847679 
1 9.3459010911579394 -46.519171723327432 0.92114730450446447 -0.38921413566847679 
8 14.702461463132899 34.339906678122489
1 28.670047695449732 -12.862347855718909 0.065135134592474997 -0.99787645239359191 
8 14.702461463132899 34.339906678122489
1 -14.702461463132899 -4.9999999999999982 1 -1.1078654131786344e-16 
1 28.670047695449732 -21.362347855718909 0.065135134592474997 -0.99787645239359191 
1 28.670047695449732 -21.362347855718909 0.065135134592474997 -0.99787645239359191 
8 -22.543337654464246 -3.9143258299788037
1 25.736584516856404 -27.959275373290069 -0.99406900545533494 -0.10875114892745417 
8 -22.543337654464246 -3.9143258299788037
1 22.543337654464246 -5 1 -1.2073802949369902e-17 
1 25.736584516856404 -36.459275373290069 -0.99406900545533494 -0.10875114892745417 
1 25.736584516856404 -36.459275373290069 -0.99406900545533494 -0.10875114892745417 
1 0 0 1 0 
1 0 0 0 1 
1 100 0 -1 0 
1 100 100 0 -1 
1 0 0 1 0 
1 0 8.5 1 0 
1 0 100 1 0 
1 0 100 1 0 
1 0 0 1 0 
8 -34.339906678122489 -14.702461463132899
1 28.670047695449732 12.862347855718909 -0.065135134592474997 -0.99787645239359191 
8 -34.339906678122489 -14.702461463132899
1 -14.702461463132899 -3 -1 -0 
1 28.670047695449732 21.362347855718909 -0.065135134592474997 -0.99787645239359191 
1 28.670047695449732 21.362347855718909 -0.065135134592474997 -0.99787645239359191 
8 -40.057011282018372 -23.406550659411749
1 9.3459010911579412 38.019171723327425 -0.92114730450446447 -0.38921413566847679 
8 -40.057011282018372 -23.406550659411749
1 -23.406550659411749 -3 -1 -0 
1 9.3459010911579412 46.519171723327425 -0.92114730450446447 -0.38921413566847679 
1 9.3459010911579412 46.519171723327425 -0.92114730450446447 -0.38921413566847679 
8 -42.733215919314787 -22.219750478828946
1 24.036800551363658 54.347407035528398 -0.99944905006425766 0.033190304693585207 
8 -42.733215919314787 -22.219750478828946
1 -22.219750478828946 -3 -1 -0 
1 24.036800551363658 62.847407035528398 -0.99944905006425766 0.033190304693585207 
1 24.036800551363658 62.847407035528398 -0.99944905006425766 0.033190304693585207 
8 10.045743145960845 33.398958391998917
1 59.104009200593538 20.416263032522359 0.22882340574282523 0.97346794964408279 
8 10.045743145960845 33.398958391998917
1 33.398958391998917 -3 -1 0 
1 59.104009200593538 28.916263032522359 0.22882340574282523 0.97346794964408279 
1 59.104009200593538 28.916263032522359 0.22882340574282523 0.97346794964408279 
8 19.917399401209899 33.978344017595695
1 29.368328718311751 18.867354123136977 0.94278819549208071 0.33339228911416979 
8 19.917399401209899 33.978344017595695
1 33.978344017595695 -3 -1 0 
1 29.368328718311751 27.367354123136977 0.94278819549208071 0.33339228911416979 
1 29.368328718311751 27.367354123136977 0.94278819549208071 0.33339228911416979 
8 3.9143258299788037 22.543337654464246
1 25.736584516856404 27.959275373290069 0.99406900545533494 -0.10875114892745417 
8 3.9143258299788037 22.543337654464246
1 22.543337654464246 -3 -1 0 
1 25.736584516856404 36.459275373290069 0.99406900545533494 -0.10875114892745417 
1 25.736584516856404 36.459275373290069 0.99406900545533494 -0.10875114892745417 
1 100 0 0 1 
1 100 0 0 -1 
1 100 100 -1 0 
1 100 100 0 -1 
1 100 0 0 1 
1 0 8.5 1 0 
1 0 8.5 1 0 
1 100 0 0 -1 
1 2 0 0 1 
1 2 8.5 0 1 
1 2 8.5 0 1 
1 100 0 0 1 
1 0 0 1 0 
1 0 91.5 1 0 
1 0 91.5 1 0 
1 100 0 0 -1 
1 8.5 0 0 1 
1 8.5 91.5 0 1 
1 8.5 91.5 0 1 
1 100 0 0 1 
1 0 0 1 0 
1 8.5 98 1 0 
1 8.5 98 1 0 
1 100 0 0 -1 
1 0 0 0 1 
1 91.5 91.5 0 1 
1 91.5 91.5 0 1 
1 100 0 0 1 
1 0 0 1 0 
1 91.5 91.5 1 0 
1 91.5 91.5 1 0 
1 100 0 0 -1 
1 0 0 0 1 
1 98 8.5 0 1 
1 98 8.5 0 1 
1 100 0 0 1 
1 0 8.5 1 0 
1 91.5 8.5 1 0 
1 91.5 8.5 1 0 
1 100 0 0 -1 
1 0 0 0 1 
1 91.5 0 0 1 
1 91.5 0 0 1 
1 100 0 0 1 
1 0 2 1 0 
1 8.5 2 1 0 
1 8.5 2 1 0 
1 100 0 0 -1 
1 8.5 0 0 1 
1 8.5 0 0 1 
1 100 100 0 -1 
1 0 -100 0 1 
1 0 100 1 0 
1 0 0 0 1 
1 0 0 0 1 
1 0 8.5 1 0 
1 0 8.5 1 0 
1 0 0 0 -1 
1 2 0 0 1 
1 2 8.5 0 1 
1 2 8.5 0 1 
1 0 0 0 1 
1 0 0 1 0 
1 0 91.5 1 0 
1 0 91.5 1 0 
1 0 0 0 -1 
1 8.5 0 0 1 
1 8.5 91.5 0 1 
1 8.5 91.5 0 1 
1 0 0 0 1 
1 0 0 1 0 
1 8.5 98 1 0 
1 8.5 98 1 0 
1 0 0 0 -1 
1 0 0 0 1 
1 91.5 91.5 0 1 
1 91.5 91.5 0 1 
1 0 0 0 1 
1 0 0 1 0 
1 91.5 91.5 1 0 
1 91.5 91.5 1 0 
1 0 0 0 -1 
1 0 0 0 1 
1 98 8.5 0 1 
1 98 8.5 0 1 
1 0 0 0 1 
1 0 8.5 1 0 
1 91.5 8.5 1 0 
1 91.5 8.5 1 0 
1 0 0 0 -1 
1 0 0 0 1 
1 91.5 0 0 1 
1 91.5 0 0 1 
1 0 0 0 1 
1 0 2 1 0 
1 8.5 2 1 0 
1 8.5 2 1 0 
1 0 0 0 -1 
1 8.5 0 0 1 
1 8.5 0 0 1 
1 0 -8.5 1 0 
1 0 8.5 1 0 
1 0 0 1 0 
1 0 2 1 0 
1 0 2 1 0 
1 0 -2 1 0 
1 0 0 1 0 
1 0 -2 1 0 
8 -22.543337654464246 -3.9143258299788037
1 25.736584516856404 -27.959275373290069 -0.99406900545533494 -0.10875114892745417 
8 -22.543337654464246 -3.9143258299788037
1 22.543337654464246 -3.0000000000000004 1 -1.2073802949369902e-17 
1 18.629011824485442 -2.2492301791031906e-16 0 -1 
1 0 0 0 -1 
1 0 0 0 -1 
1 14.060944616385797 5.2045151663509244e-16 0 -1 
8 14.702461463132899 34.339906678122489
1 28.670047695449732 -12.862347855718909 0.065135134592474997 -0.99787645239359191 
8 14.702461463132899 34.339906678122489
1 -14.702461463132899 -2.9999999999999982 1 -1.1078654131786344e-16 
1 19.63744521498959 -2.175564635687724e-15 0 -1 
1 0 0 0 -1 
8 23.406550659411746 40.057011282018365
1 9.3459010911579394 -38.019171723327432 0.92114730450446447 -0.38921413566847679 
8 23.406550659411746 40.057011282018365
1 -23.406550659411746 -2.9999999999999991 1 -4.3211449492872233e-17 
1 16.650460622606623 -7.1949053822682398e-16 0 -1 
1 0 0 0 -1 
8 22.219750478828946 42.733215919314787
1 24.036800551363658 -54.347407035528398 0.99944905006425766 0.033190304693585207 
8 22.219750478828946 42.733215919314787
1 -22.219750478828946 -3 1 3.6848640465142698e-18 
1 20.513465440485842 7.5589331271059267e-17 0 -1 
1 -0 0 0 -1 
8 -33.398958391998917 -10.045743145960845
1 59.104009200593531 -20.416263032522359 -0.22882340574282523 0.97346794964408279 
8 -33.398958391998917 -10.045743145960845
1 33.398958391998917 -2.9999999999999964 1 1.0807665314295032e-16 
1 23.353215246038072 2.5239373439187157e-15 0 -1 
1 -0 0 0 -1 
8 -33.978344017595695 -19.917399401209899
1 29.368328718311751 -18.867354123136977 -0.94278819549208071 0.33339228911416979 
8 -33.978344017595695 -19.917399401209899
1 33.978344017595695 -2.9999999999999987 1 3.7013979560703824e-17 
1 18.629011824485442 0 0 -1 
1 0 0 0 -1 
8 3.9143258299788037 22.543337654464246
1 25.736584516856404 27.959275373290069 0.99406900545533494 -0.10875114892745417 
8 3.9143258299788037 22.543337654464246
1 22.543337654464246 -5 -1 0 
1 0 0 0 -1 
1 14.060944616385797 0 0 -1 
8 19.917399401209899 33.978344017595695
1 29.368328718311751 18.867354123136977 0.94278819549208071 0.33339228911416979 
8 19.917399401209899 33.978344017595695
1 33.978344017595695 -5 -1 0 
1 23.353215246038072 0 0 -1 
1 0 0 0 -1 
8 10.045743145960845 33.398958391998917
1 59.104009200593538 20.416263032522359 0.22882340574282523 0.97346794964408279 
8 10.045743145960845 33.398958391998917
1 33.398958391998917 -5 -1 0 
1 20.513465440485842 0 0 -1 
1 0 0 0 -1 
8 -42.733215919314787 -22.219750478828946
1 24.036800551363658 54.347407035528398 -0.99944905006425766 0.033190304693585207 
8 -42.733215919314787 -22.219750478828946
1 -22.219750478828946 -5 -1 -0 
1 16.650460622606623 0 0 -1 
1 0 0 0 -1 
8 -40.057011282018372 -23.406550659411749
1 9.3459010911579412 38.019171723327425 -0.92114730450446447 -0.38921413566847679 
8 -40.057011282018372 -23.406550659411749
1 -23.406550659411749 -5 -1 -0 
1 19.63744521498959 0 0 -1 
1 0 0 0 -1 
8 -34.339906678122489 -14.702461463132899
1 28.670047695449732 12.862347855718909 -0.065135134592474997 -0.99787645239359191 
8 -34.339906678122489 -14.702461463132899
1 -14.702461463132899 -5 -1 -0 
1 0 -83 1 0 
1 0 2 1 0 
1 0 2 1 0 
1 0 -2 1 0 
1 0 83 1 0 
1 0 -2 1 0 
1 0 -8.5 1 0 
1 0 8.5 1 0 
1 0 100 1 0 
1 0 -100 1 0 
1 0 -100 1 0 
1 0 100 1 0 
8 -34.339906678122489 -14.702461463132899
1 28.670047695449732 12.862347855718909 -0.065135134592474997 -0.99787645239359191 
8 -34.339906678122489 -14.702461463132899
1 -14.702461463132899 -5 -1 -0 
1 28.670047695449732 21.362347855718909 -0.065135134592474997 -0.99787645239359191 
1 28.670047695449732 21.362347855718909 -0.065135134592474997 -0.99787645239359191 
8 -40.057011282018372 -23.406550659411749
1 9.3459010911579412 38.019171723327425 -0.92114730450446447 -0.38921413566847679 
8 -40.057011282018372 -23.406550659411749
1 -23.406550659411749 -5 -1 -0 
1 9.3459010911579412 46.519171723327425 -0.92114730450446447 -0.38921413566847679 
1 9.3459010911579412 46.519171723327425 -0.92114730450446447 -0.38921413566847679 
8 -42.733215919314787 -22.219750478828946
1 24.036800551363658 54.347407035528398 -0.99944905006425766 0.033190304693585207 
8 -42.733215919314787 -22.219750478828946
1 -22.219750478828946 -5 -1 -0 
1 24.036800551363658 62.847407035528398 -0.99944905006425766 0.033190304693585207 
1 24.036800551363658 62.847407035528398 -0.99944905006425766 0.033190304693585207 
8 10.045743145960845 33.398958391998917
1 59.104009200593538 20.416263032522359 0.22882340574282523 0.97346794964408279 
8 10.045743145960845 33.398958391998917
1 33.398958391998917 -5 -1 0 
1 59.104009200593538 28.916263032522359 0.22882340574282523 0.97346794964408279 
1 59.104009200593538 28.916263032522359 0.22882340574282523 0.97346794964408279 
8 19.917399401209899 33.978344017595695
1 29.368328718311751 18.867354123136977 0.94278819549208071 0.33339228911416979 
8 19.917399401209899 33.978344017595695
1 33.978344017595695 -5 -1 0 
1 29.368328718311751 27.367354123136977 0.94278819549208071 0.33339228911416979 
1 29.368328718311751 27.367354123136977 0.94278819549208071 0.33339228911416979 
8 3.9143258299788037 22.543337654464246
1 25.736584516856404 27.959275373290069 0.99406900545533494 -0.10875114892745417 
8 3.9143258299788037 22.543337654464246
1 22.543337654464246 -5 -1 0 
1 25.736584516856404 36.459275373290069 0.99406900545533494 -0.10875114892745417 
1 25.736584516856404 36.459275373290069 0.99406900545533494 -0.10875114892745417 
8 -33.978344017595695 -19.917399401209899
1 29.368328718311751 -18.867354123136977 -0.94278819549208071 0.33339228911416979 
8 -33.978344017595695 -19.917399401209899
1 33.978344017595695 -2.9999999999999987 1 3.7013979560703824e-17 
1 29.368328718311751 -27.367354123136977 -0.94278819549208071 0.33339228911416979 
1 29.368328718311751 -27.367354123136977 -0.94278819549208071 0.33339228911416979 
8 -33.398958391998917 -10.045743145960845
1 59.104009200593538 -20.416263032522359 -0.22882340574282523 0.97346794964408279 
8 -33.398958391998917 -10.045743145960845
1 33.398958391998917 -2.9999999999999964 1 1.0807665314295032e-16 
1 59.104009200593538 -28.916263032522359 -0.22882340574282523 0.97346794964408279 
1 59.104009200593538 -28.916263032522359 -0.22882340574282523 0.97346794964408279 
8 22.219750478828946 42.733215919314787
1 24.036800551363658 -54.347407035528398 0.99944905006425766 0.033190304693585207 
8 22.219750478828946 42.733215919314787
1 -22.219750478828946 -3 1 3.6848640465142698e-18 
1 24.036800551363658 -62.847407035528398 0.99944905006425766 0.033190304693585207 
1 24.036800551363658 -62.847407035528398 0.99944905006425766 0.033190304693585207 
8 23.406550659411749 40.057011282018372
1 9.3459010911579412 -38.019171723327425 0.92114730450446447 -0.38921413566847679 
8 23.406550659411749 40.057011282018372
1 -23.406550659411749 -2.9999999999999991 1 -4.3211449492872233e-17 
1 9.3459010911579412 -46.519171723327425 0.92114730450446447 -0.38921413566847679 
1 9.3459010911579412 -46.519171723327425 0.92114730450446447 -0.38921413566847679 
8 14.702461463132899 34.339906678122489
1 28.670047695449732 -12.862347855718909 0.065135134592474997 -0.99787645239359191 
8 14.702461463132899 34.339906678122489
1 -14.702461463132899 -2.9999999999999982 1 -1.1078654131786344e-16 
1 28.670047695449732 -21.362347855718909 0.065135134592474997 -0.99787645239359191 
1 28.670047695449732 -21.362347855718909 0.065135134592474997 -0.99787645239359191 
8 -22.543337654464246 -3.9143258299788037
1 25.736584516856404 -27.959275373290069 -0.99406900545533494 -0.10875114892745417 
8 -22.543337654464246 -3.9143258299788037
1 22.543337654464246 -3.0000000000000004 1 -1.2073802949369902e-17 
1 25.736584516856404 -36.459275373290069 -0.99406900545533494 -0.10875114892745417 
1 25.736584516856404 -36.459275373290069 -0.99406900545533494 -0.10875114892745417 
1 0 0 1 0 
1 0 0 1 0 
1 0 -6.5 1 0 
1 0 0 1 0 
1 0 8.5 1 0 
1 0 -8.5 1 0 
1 0 0 1 0 
1 0 0 1 0 
1 0 0 1 0 
1 0 6.5 1 0 
1 0 0 1 0 
1 0 83 1 0 
1 0 -6.5 1 0 
8 3.9143258299788037 22.543337654464246
1 25.736584516856404 27.959275373290069 0.99406900545533494 -0.10875114892745417 
8 3.9143258299788037 22.543337654464246
1 22.543337654464246 -3 -1 0 
8 19.917399401209899 33.978344017595695
1 29.368328718311751 18.867354123136977 0.94278819549208071 0.33339228911416979 
8 19.917399401209899 33.978344017595695
1 33.978344017595695 -3 -1 0 
8 10.045743145960845 33.398958391998917
1 59.104009200593538 20.416263032522359 0.22882340574282523 0.97346794964408279 
8 10.045743145960845 33.398958391998917
1 33.398958391998917 -3 -1 0 
8 -42.733215919314787 -22.219750478828946
1 24.036800551363658 54.347407035528398 -0.99944905006425766 0.033190304693585207 
8 -42.733215919314787 -22.219750478828946
1 -22.219750478828946 -3 -1 -0 
8 -40.057011282018372 -23.406550659411749
1 9.3459010911579412 38.019171723327425 -0.92114730450446447 -0.38921413566847679 
8 -40.057011282018372 -23.406550659411749
1 -23.406550659411749 -3 -1 -0 
8 -34.339906678122489 -14.702461463132899
1 28.670047695449732 12.862347855718909 -0.065135134592474997 -0.99787645239359191 
8 -34.339906678122489 -14.702461463132899
1 -14.702461463132899 -3 -1 -0 
1 0 -83 1 0 
1 0 0 1 0 
1 0 6.5 1 0 
8 -22.543337654464246 -3.9143258299788037
1 25.736584516856404 -27.959275373290069 -0.99406900545533494 -0.10875114892745417 
8 -22.543337654464246 -3.9143258299788037
1 22.543337654464246 -5 1 -1.2073802949369902e-17 
8 14.702461463132899 34.339906678122489
1 28.670047695449732 -12.862347855718909 0.065135134592474997 -0.99787645239359191 
8 14.702461463132899 34.339906678122489
1 -14.702461463132899 -4.9999999999999982 1 -1.1078654131786344e-16 
8 23.406550659411749 40.057011282018372
1 9.3459010911579412 -38.019171723327425 0.92114730450446447 -0.38921413566847679 
8 23.406550659411749 40.057011282018372
1 -23.406550659411749 -4.9999999999999991 1 -4.3211449492872233e-17 
8 22.219750478828946 42.733215919314787
1 24.036800551363658 -54.347407035528398 0.99944905006425766 0.033190304693585207 
8 22.219750478828946 42.733215919314787
1 -22.219750478828946 -5 1 3.6848640465142698e-18 
8 -33.398958391998917 -10.045743145960845
1 59.104009200593538 -20.416263032522359 -0.22882340574282523 0.97346794964408279 
8 -33.398958391998917 -10.045743145960845
1 33.398958391998917 -4.9999999999999964 1 1.0807665314295032e-16 
8 -33.978344017595695 -19.917399401209899
1 29.368328718311751 -18.867354123136977 -0.94278819549208071 0.33339228911416979 
8 -33.978344017595695 -19.917399401209899
1 33.978344017595695 -4.9999999999999991 1 3.7013979560703824e-17 
1 18.629011824485442 0 0 -1 
1 0 0 0 -1 
1 0 0 0 -1 
1 14.060944616385797 0 0 -1 
1 23.353215246038072 0 0 -1 
1 0 0 0 -1 
1 20.513465440485842 0 0 -1 
1 0 0 0 -1 
1 16.650460622606623 0 0 -1 
1 0 0 0 -1 
1 19.63744521498959 0 0 -1 
1 0 0 0 -1 
1 18.629011824485442 -2.2492301791031906e-16 0 -1 
1 0 0 0 -1 
1 0 0 0 -1 
1 14.060944616385797 5.2045151663509244e-16 0 -1 
1 19.63744521498959 -2.175564635687724e-15 0 -1 
1 0 0 0 -1 
1 16.650460622606623 -7.1949053822682398e-16 0 -1 
1 0 0 0 -1 
1 20.513465440485842 7.5589331271059267e-17 0 -1 
1 -0 0 0 -1 
1 23.353215246038072 2.5239373439187157e-15 0 -1 
1 -0 0 0 -1 
1 0 0 1 0 
1 0 0 1 0 
Curves 120
1 -50 -50 0 0 0 1 
8 0 100
1 -50 50 0 0 -1 0 
1 -50 50 0 0 0 1 
8 0 100
1 -50 -50 100 0 1 0 
1 -50 -22.632645876863023 29.368328718311751 0 -0.33339228911416979 -0.94278819549208071 
1 -50 -21.083736967477641 59.104009200593531 0 -0.97346794964408279 -0.22882340574282523 
1 -50 12.847407035528398 24.036800551363658 0 -0.033190304693585207 0.99944905006425766 
1 -50 -3.4808282766725713 9.3459010911579394 0 0.38921413566847679 0.92114730450446447 
1 -50 -28.637652144281091 28.670047695449732 0 0.99787645239359191 0.065135134592474997 
1 -50 -13.540724626709931 25.736584516856404 -0 0.10875114892745417 -0.99406900545533494 
8 0 100
1 -50 -50 0 1 0 0 
8 0 100
1 50 -50 100 -1 0 0 
1 50 -50 0 0 0 1 
1 -28.637652144281091 -50 28.670047695449732 -0.99787645239359191 0 -0.065135134592474997 
1 -3.4808282766725736 -50 9.3459010911579412 -0.38921413566847679 0 -0.92114730450446447 
1 12.847407035528398 -50 24.036800551363658 0.033190304693585207 0 -0.99944905006425766 
1 -21.083736967477641 -50 59.104009200593538 0.97346794964408279 0 0.22882340574282523 
1 -22.632645876863023 -50 29.368328718311751 0.33339228911416979 0 0.94278819549208071 
1 -13.540724626709931 -50 25.736584516856404 -0.10875114892745417 -0 0.99406900545533494 
8 0 100
1 50 -50 100 0 1 0 
8 0 100
1 50 50 100 -1 0 0 
1 -50 -41.5 100 1 0 -0 
1 -48 -41.5 100 -0 1 0 
1 -50 41.5 100 1 0 -0 
1 -41.5 41.5 100 -0 1 0 
1 -41.5 48 100 1 0 -0 
1 41.5 41.5 100 -0 1 0 
1 41.5 41.5 100 1 0 -0 
1 48 -41.5 100 -0 1 0 
1 41.5 -41.5 100 1 0 -0 
1 41.5 -50 100 -0 1 0 
1 -41.5 -48 100 1 0 -0 
1 -41.5 -50 100 -0 1 0 
8 0 100
1 50 50 0 0 -1 0 
8 0 100
1 -50 50 0 1 0 0 
1 -50 -41.5 0 1 0 -0 
1 -48 -41.5 0 -0 1 0 
1 -50 41.5 0 1 0 -0 
1 -41.5 41.5 0 -0 1 0 
1 -41.5 48 0 1 0 -0 
1 41.5 41.5 0 -0 1 0 
1 41.5 41.5 0 1 0 -0 
1 48 -41.5 0 -0 1 0 
1 41.5 -41.5 0 1 0 -0 
1 41.5 -50 0 -0 1 0 
1 -41.5 -48 0 1 0 -0 
1 -41.5 -50 0 -0 1 0 
1 -41.5 -41.5 0 0 0 1 
1 -48 -41.5 0 0 0 1 
1 -41.5 -48 0 0 0 1 
1 -48 -13.540724626709931 25.736584516856404 -0 0.10875114892745417 -0.99406900545533494 
1 -45 -13.966412057996539 29.627694501691565 -1 1.1102230246251565e-16 0 
1 -45 -15.99233849729246 48.14621775867348 -1 1.1102230246251565e-16 0 
1 -48 -28.637652144281091 28.670047695449732 0 0.99787645239359191 0.065135134592474997 
1 -45 5.6293321072107858 30.906782138822265 -1 1.1102230246251565e-16 0 
1 -48 -3.4808282766725718 9.3459010911579394 0 0.38921413566847679 0.92114730450446447 
1 -45 12.10992674692063 46.244309060094082 -1 1.1102230246251565e-16 0 
1 -48 12.847407035528398 24.036800551363658 0 -0.033190304693585207 0.99944905006425766 
1 -45 11.429078578629575 66.746472608113635 -1 1.1102230246251565e-16 0 
1 -48 -21.083736967477641 59.104009200593531 0 -0.97346794964408279 -0.22882340574282523 
1 -45 -11.304527984528038 61.402710360469932 -1 1.1102230246251565e-16 0 
1 -48 -22.632645876863023 29.368328718311751 0 -0.33339228911416979 -0.94278819549208071 
1 -13.966412057996539 -53 29.627694501691565 0 1 0 
1 -13.540724626709931 -48 25.736584516856404 -0.10875114892745417 -0 0.99406900545533494 
1 -15.99233849729246 -53 48.14621775867348 0 1 0 
1 -22.632645876863023 -48 29.368328718311751 0.33339228911416979 0 0.94278819549208071 
1 -11.304527984528038 -53 61.402710360469932 0 1 0 
1 -21.083736967477641 -48 59.104009200593538 0.97346794964408279 0 0.22882340574282523 
1 11.429078578629575 -53 66.746472608113635 0 1 0 
1 12.847407035528398 -48 24.036800551363658 0.033190304693585207 0 -0.99944905006425766 
1 12.10992674692063 -53 46.244309060094082 0 1 0 
1 -3.4808282766725736 -48 9.3459010911579412 -0.38921413566847679 0 -0.92114730450446447 
1 5.6293321072107858 -53 30.906782138822265 0 1 0 
1 -28.637652144281091 -48 28.670047695449732 -0.99787645239359191 0 -0.065135134592474997 
1 -48 41.5 0 0 0 1 
1 41.5 -48 0 0 0 1 
1 50 50 0 0 0 1 
1 -28.637652144281091 50 28.670047695449732 -0.99787645239359191 0 -0.065135134592474997 
1 -3.4808282766725736 50 9.3459010911579412 -0.38921413566847679 0 -0.92114730450446447 
1 12.847407035528398 50 24.036800551363658 0.033190304693585207 0 -0.99944905006425766 
1 -21.083736967477641 50 59.104009200593538 0.97346794964408279 0 0.22882340574282523 
1 -22.632645876863023 50 29.368328718311751 0.33339228911416979 0 0.94278819549208071 
1 -13.540724626709931 50 25.736584516856404 -0.10875114892745417 -0 0.99406900545533494 
1 50 -22.632645876863023 29.368328718311751 0 -0.33339228911416979 -0.94278819549208071 
1 50 -21.083736967477641 59.104009200593538 0 -0.97346794964408279 -0.22882340574282523 
1 50 12.847407035528398 24.036800551363658 0 -0.033190304693585207 0.99944905006425766 
1 50 -3.4808282766725736 9.3459010911579412 0 0.38921413566847679 0.92114730450446447 
1 50 -28.637652144281091 28.670047695449732 0 0.99787645239359191 0.065135134592474997 
1 50 -13.540724626709931 25.736584516856404 -0 0.10875114892745417 -0.99406900545533494 
1 -41.5 48 0 0 0 1 
1 -41.5 41.5 0 0 0 1 
1 41.5 -41.5 0 0 0 1 
1 48 -41.5 0 0 0 1 
1 41.5 48 0 0 0 1 
1 -13.540724626709931 48 25.736584516856404 -0.10875114892745417 -0 0.99406900545533494 
1 -22.632645876863023 48 29.368328718311751 0.33339228911416979 0 0.94278819549208071 
1 -21.083736967477641 48 59.104009200593538 0.97346794964408279 0 0.22882340574282523 
1 12.847407035528398 48 24.036800551363658 0.033190304693585207 0 -0.99944905006425766 
1 -3.4808282766725736 48 9.3459010911579412 -0.38921413566847679 0 -0.92114730450446447 
1 -28.637652144281091 48 28.670047695449732 -0.99787645239359191 0 -0.065135134592474997 
1 48 41.5 0 0 0 1 
1 48 -13.540724626709931 25.736584516856404 -0 0.10875114892745417 -0.99406900545533494 
1 48 -28.637652144281091 28.670047695449732 0 0.99787645239359191 0.065135134592474997 
1 48 -3.4808282766725731 9.3459010911579412 0 0.38921413566847679 0.92114730450446447 
1 48 12.847407035528398 24.036800551363658 0 -0.033190304693585207 0.99944905006425766 
1 48 -21.083736967477641 59.104009200593538 0 -0.97346794964408279 -0.22882340574282523 
1 48 -22.632645876863023 29.368328718311751 0 -0.33339228911416979 -0.94278819549208071 
1 -13.966412057996539 45 29.627694501691565 0 1 0 
1 -15.99233849729246 45 48.14621775867348 0 1 0 
1 -11.304527984528038 45 61.402710360469932 0 1 0 
1 11.429078578629575 45 66.746472608113635 0 1 0 
1 12.10992674692063 45 46.244309060094082 0 1 0 
1 5.6293321072107858 45 30.906782138822265 0 1 0 
1 53 -13.966412057996539 29.627694501691565 -1 1.1102230246251565e-16 0 
1 53 -15.99233849729246 48.14621775867348 -1 1.1102230246251565e-16 0 
1 53 5.6293321072107858 30.906782138822265 -1 1.1102230246251565e-16 0 
1 53 12.10992674692063 46.244309060094082 -1 1.1102230246251565e-16 0 
1 53 11.429078578629575 66.746472608113635 -1 1.1102230246251565e-16 0 
1 53 -11.304527984528038 61.402710360469932 -1 1.1102230246251565e-16 0 
1 41.5 41.5 0 0 0 1 
Polygon3D 0
PolygonOnTriangulations 0
Surfaces 78
1 -50 -50 0 1 0 -0 0 0 1 0 -1 0 
1 -50 -50 0 1 0 -0 0 0 1 0 -1 0 
1 -50 -50 0 -0 1 0 0 0 1 1 0 -0 
1 -50 -50 0 -0 1 0 0 0 1 1 0 -0 
1 -50 -50 0 0 0 1 1 0 -0 -0 1 0 
1 -50 41.5 0 1 0 -0 0 0 1 0 -1 0 
1 -50 50 0 -0 1 0 0 0 1 1 0 -0 
1 -50 50 0 -0 1 0 0 0 1 1 0 -0 
1 -50 -50 100 0 0 1 1 0 -0 -0 1 0 
1 -50 -41.5 0 1 0 -0 0 0 1 0 -1 0 
1 -45 -11.304527984528038 61.402710360469932 -1.0467051619801112e-16 -0.94278819549208071 0.33339228911416979 -3.7013979560703824e-17 -0.33339228911416979 -0.94278819549208071 1 -1.1102230246251565e-16 0 
1 -45 11.429078578629575 66.746472608113635 -2.5404501362882884e-17 -0.22882340574282523 0.97346794964408279 -1.0807665314295032e-16 -0.97346794964408279 -0.22882340574282523 1 -1.1102230246251565e-16 0 
1 -45 12.10992674692063 46.244309060094082 1.1096113473210796e-16 0.99944905006425766 0.033190304693585207 -3.6848640465142698e-18 -0.033190304693585207 0.99944905006425766 1 -1.1102230246251565e-16 0 
1 -45 5.6293321072107858 30.906782138822265 1.0226789465322566e-16 0.92114730450446447 -0.38921413566847679 4.3211449492872233e-17 0.38921413566847679 0.92114730450446447 1 -1.1102230246251565e-16 0 
1 -45 -13.966412057996539 29.627694501691565 7.2314526136624254e-18 0.065135134592474997 -0.99787645239359191 1.1078654131786346e-16 0.99787645239359191 0.065135134592474997 1 -1.1102230246251565e-16 0 
1 -45 -15.99233849729246 48.14621775867348 -1.1036382979227432e-16 -0.99406900545533494 -0.10875114892745417 1.2073802949369902e-17 0.10875114892745417 -0.99406900545533494 1 -1.1102230246251565e-16 0 
1 50 -50 0 1 0 -0 0 0 1 0 -1 0 
1 41.5 -50 0 -0 1 0 0 0 1 1 0 -0 
1 50 -50 0 1 0 -0 0 0 1 0 -1 0 
1 -41.5 -50 0 -0 1 0 0 0 1 1 0 -0 
1 -13.966412057996539 -53 29.627694501691565 0.065135134592474997 0 -0.99787645239359191 0.99787645239359191 0 0.065135134592474997 0 -1 0 
1 5.6293321072107858 -53 30.906782138822265 0.92114730450446447 0 -0.38921413566847679 0.38921413566847679 0 0.92114730450446447 0 -1 0 
1 12.10992674692063 -53 46.244309060094082 0.99944905006425766 -0 0.033190304693585207 -0.033190304693585207 0 0.99944905006425766 -0 -1 0 
1 11.429078578629575 -53 66.746472608113635 -0.22882340574282523 0 0.97346794964408279 -0.97346794964408279 0 -0.22882340574282523 -0 -1 0 
1 -11.304527984528038 -53 61.402710360469932 -0.94278819549208071 0 0.33339228911416979 -0.33339228911416979 0 -0.94278819549208071 -0 -1 0 
1 -15.99233849729246 -53 48.14621775867348 -0.99406900545533494 0 -0.10875114892745417 0.10875114892745417 0 -0.99406900545533494 0 -1 -0 
1 -50 -41.5 0 -0 1 0 0 0 1 1 0 -0 
1 -50 -50 100 0 0 1 1 0 -0 -0 1 0 
1 -48 -41.5 0 1 0 -0 0 0 1 0 -1 0 
1 -50 -41.5 100 0 0 1 1 0 -0 -0 1 0 
1 -50 41.5 0 -0 1 0 0 0 1 1 0 -0 
1 -50 41.5 100 0 0 1 1 0 -0 -0 1 0 
1 -41.5 41.5 0 1 0 -0 0 0 1 0 -1 0 
1 -41.5 48 0 -0 1 0 0 0 1 1 0 -0 
1 -41.5 48 100 0 0 1 1 0 -0 -0 1 0 
1 41.5 41.5 0 1 0 -0 0 0 1 0 -1 0 
1 41.5 41.5 100 0 0 1 1 0 -0 -0 1 0 
1 41.5 41.5 0 -0 1 0 0 0 1 1 0 -0 
1 48 -41.5 0 1 0 -0 0 0 1 0 -1 0 
1 48 -41.5 100 0 0 1 1 0 -0 -0 1 0 
1 41.5 -41.5 0 -0 1 0 0 0 1 1 0 -0 
1 41.5 -50 100 0 0 1 1 0 -0 -0 1 0 
1 41.5 -50 0 1 0 -0 0 0 1 0 -1 0 
1 -41.5 -48 0 -0 1 0 0 0 1 1 0 -0 
1 -41.5 -50 100 0 0 1 1 0 -0 -0 1 0 
1 -41.5 -50 0 1 0 -0 0 0 1 0 -1 0 
1 -50 -50 0 0 0 1 1 0 -0 -0 1 0 
1 -50 -41.5 0 0 0 1 1 0 -0 -0 1 0 
1 -50 41.5 0 0 0 1 1 0 -0 -0 1 0 
1 -41.5 48 0 0 0 1 1 0 -0 -0 1 0 
1 41.5 41.5 0 0 0 1 1 0 -0 -0 1 0 
1 48 -41.5 0 0 0 1 1 0 -0 -0 1 0 
1 41.5 -50 0 0 0 1 1 0 -0 -0 1 0 
1 -41.5 -50 0 0 0 1 1 0 -0 -0 1 0 
1 -50 -41.5 0 -0 1 0 0 0 1 1 0 -0 
1 -41.5 -50 0 1 0 -0 0 0 1 0 -1 0 
1 -50 41.5 0 -0 1 0 0 0 1 1 0 -0 
1 41.5 -50 0 1 0 -0 0 0 1 0 -1 0 
1 50 41.5 0 1 0 -0 0 0 1 0 -1 0 
1 41.5 50 0 -0 1 0 0 0 1 1 0 -0 
1 -41.5 50 0 -0 1 0 0 0 1 1 0 -0 
1 -13.966412057996539 45 29.627694501691565 0.065135134592474997 0 -0.99787645239359191 0.99787645239359191 0 0.065135134592474997 0 -1 0 
1 5.6293321072107858 45 30.906782138822265 0.92114730450446447 0 -0.38921413566847679 0.38921413566847679 0 0.92114730450446447 0 -1 0 
1 12.10992674692063 45 46.244309060094082 0.99944905006425766 -0 0.033190304693585207 -0.033190304693585207 0 0.99944905006425766 -0 -1 0 
1 11.429078578629575 45 66.746472608113635 -0.22882340574282523 0 0.97346794964408279 -0.97346794964408279 0 -0.22882340574282523 -0 -1 0 
1 -11.304527984528038 45 61.402710360469932 -0.94278819549208071 0 0.33339228911416979 -0.33339228911416979 0 -0.94278819549208071 -0 -1 0 
1 -15.99233849729246 45 48.14621775867348 -0.99406900545533494 0 -0.10875114892745417 0.10875114892745417 0 -0.99406900545533494 0 -1 -0 
1 50 -41.5 0 1 0 -0 0 0 1 0 -1 0 
1 53 -11.304527984528038 61.402710360469932 -1.0467051619801112e-16 -0.94278819549208071 0.33339228911416979 -3.7013979560703824e-17 -0.33339228911416979 -0.94278819549208071 1 -1.1102230246251565e-16 0 
1 53 11.429078578629575 66.746472608113635 -2.5404501362882884e-17 -0.22882340574282523 0.97346794964408279 -1.0807665314295032e-16 -0.97346794964408279 -0.22882340574282523 1 -1.1102230246251565e-16 0 
1 53 12.10992674692063 46.244309060094082 1.1096113473210796e-16 0.99944905006425766 0.033190304693585207 -3.6848640465142698e-18 -0.033190304693585207 0.99944905006425766 1 -1.1102230246251565e-16 0 
1 53 5.6293321072107858 30.906782138822265 1.0226789465322566e-16 0.92114730450446447 -0.38921413566847679 4.3211449492872233e-17 0.38921413566847679 0.92114730450446447 1 -1.1102230246251565e-16 0 
1 53 -13.966412057996539 29.627694501691565 7.2314526136624254e-18 0.065135134592474997 -0.99787645239359191 1.1078654131786346e-16 0.99787645239359191 0.065135134592474997 1 -1.1102230246251565e-16 0 
1 53 -15.99233849729246 48.14621775867348 -1.1036382979227432e-16 -0.99406900545533494 -0.10875114892745417 1.2073802949369902e-17 0.10875114892745417 -0.99406900545533494 1 -1.1102230246251565e-16 0 
1 -41.5 48 0 1 0 -0 0 0 1 0 -1 0 
1 48 -41.5 0 -0 1 0 0 0 1 1 0 -0 
1 41.5 48 0 1 0 -0 0 0 1 0 -1 0 
1 48 41.5 0 -0 1 0 0 0 1 1 0 -0 
Triangulations 0

TShapes 297
Ve
1e-07
-50 -50 100
0 0

0101101
*
Ve
1e-07
-50 -50 0
0 0

0101101
*
Ed
 1e-07 1 1 0
1  1 0 0 100
2  1 2 0 0 100
2  2 3 0 0 100
2  3 1 0 0 100
2  4 4 0 0 100
0

0101000
-297 0 +296 0 *
Ve
1e-07
-50 50 0
0 0

0101101
*
Ed
 1e-07 1 1 0
1  2 0 0 100
2  5 1 0 0 100
2  6 5 0 0 100
0

0101000
+294 0 -296 0 *
Ve
1e-07
-50 50 100
0 0

0101101
*
Ed
 1e-07 1 1 0
1  3 0 0 100
2  7 6 0 0 100
2  8 7 0 0 100
2  9 2 0 0 100
2  10 1 0 0 100
2  11 8 0 0 100
0

0101000
-292 0 +294 0 *
Ed
 1e-07 1 1 0
1  4 0 0 100
2  12 1 0 0 100
2  13 9 0 0 100
0

0101000
+297 0 -292 0 *
Wi

0101100
-295 0 -293 0 +291 0 -290 0 *
Ve
1.50000001776357e-07
-50 -11.304527984528 61.4027103604699
0 0

0101101
*
Ve
1.50000001776357e-07
-50 -15.9923384972925 48.1462177586735
0 0

0101101
*
Ed
 1.5e-07 1 1 0
1  5 0 -33.9783440175957 -19.9173994012099
2  14 10 0 -33.9783440175957 -19.9173994012099
2  15 11 0 -33.9783440175957 -19.9173994012099
2  16 2 0 -33.9783440175957 -19.9173994012099
2  17 1 0 -33.9783440175957 -19.9173994012099
0

0101000
+288 0 -287 0 *
Ve
1.50000003552714e-07
-50 11.4290785786296 66.7464726081136
0 0

0101101
*
Ed
 1.5e-07 1 1 0
1  6 0 -33.3989583919989 -10.0457431459608
2  18 10 0 -33.3989583919989 -10.0457431459608
2  19 12 0 -33.3989583919989 -10.0457431459608
2  20 2 0 -33.3989583919989 -10.0457431459608
2  21 1 0 -33.3989583919989 -10.0457431459608
0

0101000
+285 0 -288 0 *
Ve
1.5e-07
-50 12.1099267469206 46.2443090600941
0 0

0101101
*
Ed
 1.5e-07 1 1 0
1  7 0 22.2197504788289 42.7332159193148
2  22 10 0 22.2197504788289 42.7332159193148
2  23 13 0 22.2197504788289 42.7332159193148
2  24 2 0 22.2197504788289 42.7332159193148
2  25 1 0 22.2197504788289 42.7332159193148
0

0101000
+283 0 -285 0 *
Ve
1.50000009441466e-07
-50 5.62933210721079 30.9067821388223
0 0

0101101
*
Ed
 1.5e-07 1 1 0
1  8 0 23.4065506594117 40.0570112820184
2  26 10 0 23.4065506594117 40.0570112820184
2  27 14 0 23.4065506594117 40.0570112820184
2  28 2 0 23.4065506594117 40.0570112820184
2  29 1 0 23.4065506594117 40.0570112820184
0

0101000
+281 0 -283 0 *
Ve
1.50000007944109e-07
-50 -13.9664120579965 29.6276945016916
0 0

0101101
*
Ed
 1.5e-07 1 1 0
1  9 0 14.7024614631329 34.3399066781225
2  30 10 0 14.7024614631329 34.3399066781225
2  31 15 0 14.7024614631329 34.3399066781225
2  32 2 0 14.7024614631329 34.3399066781225
2  33 1 0 14.7024614631329 34.3399066781225
0

0101000
+279 0 -281 0 *
Ed
 1.5e-07 1 1 0
1  10 0 -22.5433376544642 -3.9143258299788
2  34 10 0 -22.5433376544642 -3.9143258299788
2  35 16 0 -22.5433376544642 -3.9143258299788
2  36 2 0 -22.5433376544642 -3.9143258299788
2  37 1 0 -22.5433376544642 -3.9143258299788
0

0101000
+287 0 -279 0 *
Wi

0101100
-286 0 -284 0 -282 0 -280 0 -278 0 -277 0 *
Fa
0  0 1 0

0111000
+289 0 +276 0 *
Ve
1e-07
50 -50 0
0 0

0101101
*
Ed
 1e-07 1 1 0
1  11 0 0 100
2  38 5 0 0 100
2  39 4 0 0 100
0

0101000
+296 0 -274 0 *
Ve
1e-07
50 -50 100
0 0

0101101
*
Ed
 1e-07 1 1 0
1  12 0 0 100
2  40 9 0 0 100
2  41 4 0 0 100
0

0101000
+272 0 -297 0 *
Ed
 1e-07 1 1 0
1  13 0 0 100
2  42 17 0 0 100
2  43 18 0 0 100
2  44 3 0 0 100
2  45 4 0 0 100
2  46 19 0 0 100
0

0101000
-272 0 +274 0 *
Wi

0101100
-273 0 +295 0 -271 0 -270 0 *
Ve
1.50000010048592e-07
5.62933210721079 -50 30.9067821388223
0 0

0101101
*
Ve
1.50000007944109e-07
-13.9664120579965 -50 29.6276945016916
0 0

0101101
*
Ed
 1.5e-07 1 1 0
1  14 0 -34.3399066781225 -14.7024614631329
2  47 20 0 -34.3399066781225 -14.7024614631329
2  48 21 0 -34.3399066781225 -14.7024614631329
2  49 3 0 -34.3399066781225 -14.7024614631329
2  50 4 0 -34.3399066781225 -14.7024614631329
0

0101000
+268 0 -267 0 *
Ve
1.50000007105427e-07
12.1099267469206 -50 46.2443090600941
0 0

0101101
*
Ed
 1.5e-07 1 1 0
1  15 0 -40.0570112820184 -23.4065506594117
2  51 20 0 -40.0570112820184 -23.4065506594117
2  52 22 0 -40.0570112820184 -23.4065506594117
2  53 3 0 -40.0570112820184 -23.4065506594117
2  54 4 0 -40.0570112820184 -23.4065506594117
0

0101000
+265 0 -268 0 *
Ve
1.50000014648214e-07
11.4290785786296 -50 66.7464726081136
0 0

0101101
*
Ed
 1.5e-07 1 1 0
1  16 0 -42.7332159193148 -22.2197504788289
2  55 20 0 -42.7332159193148 -22.2197504788289
2  56 23 0 -42.7332159193148 -22.2197504788289
2  57 3 0 -42.7332159193148 -22.2197504788289
2  58 4 0 -42.7332159193148 -22.2197504788289
0

0101000
+263 0 -265 0 *
Ve
1.50000007324107e-07
-11.304527984528 -50 61.4027103604699
0 0

0101101
*
Ed
 1.5e-07 1 1 0
1  17 0 10.0457431459608 33.3989583919989
2  59 20 0 10.0457431459608 33.3989583919989
2  60 24 0 10.0457431459608 33.3989583919989
2  61 3 0 10.0457431459608 33.3989583919989
2  62 4 0 10.0457431459608 33.3989583919989
0

0101000
+261 0 -263 0 *
Ve
1.50000001776357e-07
-15.9923384972925 -50 48.1462177586735
0 0

0101101
*
Ed
 1.5e-07 1 1 0
1  18 0 19.9173994012099 33.9783440175957
2  63 20 0 19.9173994012099 33.9783440175957
2  64 25 0 19.9173994012099 33.9783440175957
2  65 3 0 19.9173994012099 33.9783440175957
2  66 4 0 19.9173994012099 33.9783440175957
0

0101000
+259 0 -261 0 *
Ed
 1.5e-07 1 1 0
1  19 0 3.9143258299788 22.5433376544642
2  67 20 0 3.9143258299788 22.5433376544642
2  68 26 0 3.9143258299788 22.5433376544642
2  69 3 0 3.9143258299788 22.5433376544642
2  70 4 0 3.9143258299788 22.5433376544642
0

0101000
+267 0 -259 0 *
Wi

0101100
-266 0 -264 0 -262 0 -260 0 -258 0 -257 0 *
Fa
0  0 4 0

0111000
+269 0 +256 0 *
Ve
1e-07
50 50 100
0 0

0101101
*
Ed
 1e-07 1 1 0
1  20 0 0 100
2  71 9 0 0 100
2  72 19 0 0 100
0

0101000
+272 0 -254 0 *
Ed
 1e-07 1 1 0
1  21 0 0 100
2  73 9 0 0 100
2  74 8 0 0 100
0

0101000
+254 0 -292 0 *
Wi

0101100
-290 0 -271 0 +253 0 +252 0 *
Ve
1e-07
-48 -41.5 100
0 0

0101101
*
Ve
1e-07
-41.5 -41.5 100
0 0

0101101
*
Ed
 1e-07 1 1 0
1  22 0 2 8.5
2  75 27 0 2 8.5
2  76 28 0 2 8.5
2  77 9 0 2 8.5
0

0101000
+250 0 -249 0 *
Ve
1e-07
-48 41.5 100
0 0

0101101
*
Ed
 1e-07 1 1 0
1  23 0 0 83
2  78 29 0 0 83
2  79 30 0 0 83
2  80 28 0 0 83
2  81 9 0 0 83
0

0101000
-247 0 +250 0 *
Ve
1e-07
-41.5 41.5 100
0 0

0101101
*
Ed
 1e-07 1 1 0
1  24 0 2 8.5
2  82 31 0 2 8.5
2  83 32 0 2 8.5
2  84 28 0 2 8.5
2  85 9 0 2 8.5
0

0101000
+247 0 -245 0 *
Ve
1e-07
-41.5 48 100
0 0

0101101
*
Ed
 1e-07 1 1 0
1  25 0 0 6.5
2  86 33 0 0 6.5
2  87 32 0 0 6.5
2  88 28 0 0 6.5
2  89 9 0 0 6.5
0

0101000
+245 0 -243 0 *
Ve
1e-07
41.5 48 100
0 0

0101101
*
Ed
 1e-07 1 1 0
1  26 0 0 83
2  90 34 0 0 83
2  91 35 0 0 83
2  92 28 0 0 83
2  93 9 0 0 83
0

0101000
-241 0 +243 0 *
Ve
1e-07
41.5 41.5 100
0 0

0101101
*
Ed
 1e-07 1 1 0
1  27 0 0 6.5
2  94 36 0 0 6.5
2  95 37 0 0 6.5
2  96 28 0 0 6.5
2  97 9 0 0 6.5
0

0101000
+239 0 -241 0 *
Ve
1e-07
48 41.5 100
0 0

0101101
*
Ed
 1e-07 1 1 0
1  28 0 0 6.5
2  98 38 0 0 6.5
2  99 37 0 0 6.5
2  100 28 0 0 6.5
2  101 9 0 0 6.5
0

0101000
+239 0 -237 0 *
Ve
1e-07
48 -41.5 100
0 0

0101101
*
Ed
 1e-07 1 1 0
1  29 0 0 83
2  102 39 0 0 83
2  103 40 0 0 83
2  104 28 0 0 83
2  105 9 0 0 83
0

0101000
-237 0 +235 0 *
Ve
1e-07
41.5 -41.5 100
0 0

0101101
*
Ed
 1e-07 1 1 0
1  30 0 0 6.5
2  106 41 0 0 6.5
2  107 42 0 0 6.5
2  108 28 0 0 6.5
2  109 9 0 0 6.5
0

0101000
+233 0 -235 0 *
Ve
1e-07
41.5 -48 100
0 0

0101101
*
Ed
 1e-07 1 1 0
1  31 0 2 8.5
2  110 43 0 2 8.5
2  111 42 0 2 8.5
2  112 28 0 2 8.5
2  113 9 0 2 8.5
0

0101000
+231 0 -233 0 *
Ve
1e-07
-41.5 -48 100
0 0

0101101
*
Ed
 1e-07 1 1 0
1  32 0 0 83
2  114 44 0 0 83
2  115 45 0 0 83
2  116 28 0 0 83
2  117 9 0 0 83
0

0101000
-231 0 +229 0 *
Ed
 1e-07 1 1 0
1  33 0 2 8.5
2  118 46 0 2 8.5
2  119 28 0 2 8.5
2  120 9 0 2 8.5
0

0101000
+229 0 -249 0 *
Wi

0101100
-248 0 +246 0 +244 0 +242 0 +240 0 -238 0 +236 0 -234 0 -232 0 -230 0 
-228 0 +227 0 *
Fa
0  0 9 0

0111000
+251 0 +226 0 *
Ve
1e-07
50 50 0
0 0

0101101
*
Ed
 1e-07 1 1 0
1  34 0 0 100
2  121 5 0 0 100
2  122 19 0 0 100
0

0101000
+224 0 -274 0 *
Ed
 1e-07 1 1 0
1  35 0 0 100
2  123 5 0 0 100
2  124 8 0 0 100
0

0101000
+294 0 -224 0 *
Wi

0101100
+273 0 -223 0 -222 0 +293 0 *
Ve
1e-07
-48 -41.5 0
0 0

0101101
*
Ve
1e-07
-41.5 -41.5 0
0 0

0101101
*
Ed
 1e-07 1 1 0
1  36 0 2 8.5
2  125 27 0 2 8.5
2  126 47 0 2 8.5
2  127 5 0 2 8.5
0

0101000
+220 0 -219 0 *
Ve
1e-07
-48 41.5 0
0 0

0101101
*
Ed
 1e-07 1 1 0
1  37 0 0 83
2  128 29 0 0 83
2  129 48 0 0 83
2  130 47 0 0 83
2  131 5 0 0 83
0

0101000
-217 0 +220 0 *
Ve
1e-07
-41.5 41.5 0
0 0

0101101
*
Ed
 1e-07 1 1 0
1  38 0 2 8.5
2  132 31 0 2 8.5
2  133 49 0 2 8.5
2  134 47 0 2 8.5
2  135 5 0 2 8.5
0

0101000
+217 0 -215 0 *
Ve
1e-07
-41.5 48 0
0 0

0101101
*
Ed
 1e-07 1 1 0
1  39 0 0 6.5
2  136 33 0 0 6.5
2  137 49 0 0 6.5
2  138 47 0 0 6.5
2  139 5 0 0 6.5
0

0101000
+215 0 -213 0 *
Ve
1e-07
41.5 48 0
0 0

0101101
*
Ed
 1e-07 1 1 0
1  40 0 0 83
2  140 34 0 0 83
2  141 50 0 0 83
2  142 47 0 0 83
2  143 5 0 0 83
0

0101000
-211 0 +213 0 *
Ve
1e-07
41.5 41.5 0
0 0

0101101
*
Ed
 1e-07 1 1 0
1  41 0 0 6.5
2  144 36 0 0 6.5
2  145 51 0 0 6.5
2  146 47 0 0 6.5
2  147 5 0 0 6.5
0

0101000
+209 0 -211 0 *
Ve
1e-07
48 41.5 0
0 0

0101101
*
Ed
 1e-07 1 1 0
1  42 0 0 6.5
2  148 38 0 0 6.5
2  149 51 0 0 6.5
2  150 47 0 0 6.5
2  151 5 0 0 6.5
0

0101000
+209 0 -207 0 *
Ve
1e-07
48 -41.5 0
0 0

0101101
*
Ed
 1e-07 1 1 0
1  43 0 0 83
2  152 39 0 0 83
2  153 52 0 0 83
2  154 47 0 0 83
2  155 5 0 0 83
0

0101000
-207 0 +205 0 *
Ve
1e-07
41.5 -41.5 0
0 0

0101101
*
Ed
 1e-07 1 1 0
1  44 0 0 6.5
2  156 41 0 0 6.5
2  157 53 0 0 6.5
2  158 47 0 0 6.5
2  159 5 0 0 6.5
0

0101000
+203 0 -205 0 *
Ve
1e-07
41.5 -48 0
0 0

0101101
*
Ed
 1e-07 1 1 0
1  45 0 2 8.5
2  160 43 0 2 8.5
2  161 53 0 2 8.5
2  162 47 0 2 8.5
2  163 5 0 2 8.5
0

0101000
+201 0 -203 0 *
Ve
1e-07
-41.5 -48 0
0 0

0101101
*
Ed
 1e-07 1 1 0
1  46 0 0 83
2  164 44 0 0 83
2  165 54 0 0 83
2  166 47 0 0 83
2  167 5 0 0 83
0

0101000
-201 0 +199 0 *
Ed
 1e-07 1 1 0
1  47 0 2 8.5
2  168 46 0 2 8.5
2  169 47 0 2 8.5
2  170 5 0 2 8.5
0

0101000
+199 0 -219 0 *
Wi

0101100
-218 0 +216 0 +214 0 +212 0 +210 0 -208 0 +206 0 -204 0 -202 0 -200 0 
-198 0 +197 0 *
Fa
0  0 5 0

0111000
+221 0 +196 0 *
Ed
 1e-07 1 1 0
1  48 0 0 100
2  171 46 0 0 100
2  172 27 0 0 100
0

0101000
-249 0 +219 0 *
Ed
 1e-07 1 1 0
1  49 0 0 100
2  173 29 0 0 100
2  174 55 0 0 100
2  175 27 0 0 100
0

0101000
-250 0 +220 0 *
Wi

0101100
-218 0 -194 0 +248 0 +193 0 *
Fa
0  1e-07 27 0

0101000
+192 0 *
Ed
 1e-07 1 1 0
1  50 0 0 100
2  176 56 0 0 100
2  177 44 0 0 100
2  178 46 0 0 100
0

0101000
-229 0 +199 0 *
Wi

0101100
-190 0 -227 0 +194 0 +197 0 *
Fa
0  1e-07 46 0

0101000
+189 0 *
Ve
1.50000001776357e-07
-48 -15.9923384972925 48.1462177586735
0 0

0101101
*
Ve
1.50000007944109e-07
-48 -13.9664120579965 29.6276945016916
0 0

0101101
*
Ed
 1.5e-07 1 1 0
1  51 0 -22.5433376544642 -3.9143258299788
2  179 29 0 -22.5433376544642 -3.9143258299788
2  180 16 0 -22.5433376544642 -3.9143258299788
0

0101000
+187 0 -186 0 *
Ed
 1e-07 1 1 0
1  52 0 3 5
2  181 16 0 3 5
2  182 15 0 3 5
0

0101000
+186 0 -279 0 *
Ed
 1e-07 1 1 0
1  53 0 3 5
2  183 16 0 3 5
2  184 11 0 3 5
0

0101000
+187 0 -287 0 *
Wi

0101100
-185 0 -184 0 +277 0 +183 0 *
Fa
0  1e-07 16 0

0101000
+182 0 *
Ve
1.50000010048592e-07
-48 5.62933210721079 30.9067821388223
0 0

0101101
*
Ed
 1.5e-07 1 1 0
1  54 0 14.7024614631329 34.3399066781225
2  185 29 0 14.7024614631329 34.3399066781225
2  186 15 0 14.7024614631329 34.3399066781225
0

0101000
+186 0 -180 0 *
Ed
 1e-07 1 1 0
1  55 0 3 5
2  187 15 0 3 5
2  188 14 0 3 5
0

0101000
+180 0 -281 0 *
Wi

0101100
-179 0 -178 0 +278 0 +184 0 *
Fa
0  1e-07 15 0

0101000
+177 0 *
Ve
1.5e-07
-48 12.1099267469206 46.2443090600941
0 0

0101101
*
Ed
 1.5e-07 1 1 0
1  56 0 23.4065506594117 40.0570112820184
2  189 29 0 23.4065506594117 40.0570112820184
2  190 14 0 23.4065506594117 40.0570112820184
0

0101000
+180 0 -175 0 *
Ed
 1e-07 1 1 0
1  57 0 3 5
2  191 14 0 3 5
2  192 13 0 3 5
0

0101000
+175 0 -283 0 *
Wi

0101100
-174 0 -173 0 +280 0 +178 0 *
Fa
0  1e-07 14 0

0101000
+172 0 *
Ve
1.50000003552714e-07
-48 11.4290785786296 66.7464726081136
0 0

0101101
*
Ed
 1.5e-07 1 1 0
1  58 0 22.2197504788289 42.7332159193148
2  193 29 0 22.2197504788289 42.7332159193148
2  194 13 0 22.2197504788289 42.7332159193148
0

0101000
+175 0 -170 0 *
Ed
 1e-07 1 1 0
1  59 0 3 5
2  195 13 0 3 5
2  196 12 0 3 5
0

0101000
+170 0 -285 0 *
Wi

0101100
-169 0 -168 0 +282 0 +173 0 *
Fa
0  1e-07 13 0

0101000
+167 0 *
Ve
1.50000001776357e-07
-48 -11.304527984528 61.4027103604699
0 0

0101101
*
Ed
 1.5e-07 1 1 0
1  60 0 -33.3989583919989 -10.0457431459608
2  197 29 0 -33.3989583919989 -10.0457431459608
2  198 12 0 -33.3989583919989 -10.0457431459608
0

0101000
+170 0 -165 0 *
Ed
 1e-07 1 1 0
1  61 0 3 5
2  199 12 0 3 5
2  200 11 0 3 5
0

0101000
+165 0 -288 0 *
Wi

0101100
-164 0 -163 0 +284 0 +168 0 *
Fa
0  1e-07 12 0

0101000
+162 0 *
Ed
 1.5e-07 1 1 0
1  62 0 -33.9783440175957 -19.9173994012099
2  201 29 0 -33.9783440175957 -19.9173994012099
2  202 11 0 -33.9783440175957 -19.9173994012099
0

0101000
+165 0 -187 0 *
Wi

0101100
-160 0 -183 0 +286 0 +163 0 *
Fa
0  1e-07 11 0

0101000
+159 0 *
Ve
1.50000007944109e-07
-13.9664120579965 -48 29.6276945016916
0 0

0101101
*
Ed
 1e-07 1 1 0
1  63 0 3 5
2  203 26 0 3 5
2  204 21 0 3 5
0

0101000
+267 0 -157 0 *
Ve
1.50000001776357e-07
-15.9923384972925 -48 48.1462177586735
0 0

0101101
*
Ed
 1.5e-07 1 1 0
1  64 0 3.9143258299788 22.5433376544642
2  205 44 0 3.9143258299788 22.5433376544642
2  206 26 0 3.9143258299788 22.5433376544642
0

0101000
+157 0 -155 0 *
Ed
 1e-07 1 1 0
1  65 0 3 5
2  207 26 0 3 5
2  208 25 0 3 5
0

0101000
+259 0 -155 0 *
Wi

0101100
+257 0 -156 0 -154 0 +153 0 *
Fa
0  1e-07 26 0

0101000
+152 0 *
Ve
1.50000007324107e-07
-11.304527984528 -48 61.4027103604699
0 0

0101101
*
Ed
 1.5e-07 1 1 0
1  66 0 19.9173994012099 33.9783440175957
2  209 44 0 19.9173994012099 33.9783440175957
2  210 25 0 19.9173994012099 33.9783440175957
0

0101000
+155 0 -150 0 *
Ed
 1e-07 1 1 0
1  67 0 3 5
2  211 24 0 3 5
2  212 25 0 3 5
0

0101000
+261 0 -150 0 *
Wi

0101100
+258 0 -153 0 -149 0 +148 0 *
Fa
0  1e-07 25 0

0101000
+147 0 *
Ve
1.50000014648214e-07
11.4290785786296 -48 66.7464726081136
0 0

0101101
*
Ed
 1.5e-07 1 1 0
1  68 0 10.0457431459608 33.3989583919989
2  213 44 0 10.0457431459608 33.3989583919989
2  214 24 0 10.0457431459608 33.3989583919989
0

0101000
+150 0 -145 0 *
Ed
 1e-07 1 1 0
1  69 0 3 5
2  215 23 0 3 5
2  216 24 0 3 5
0

0101000
+263 0 -145 0 *
Wi

0101100
+260 0 -148 0 -144 0 +143 0 *
Fa
0  1e-07 24 0

0101000
+142 0 *
Ve
1.50000007105427e-07
12.1099267469206 -48 46.2443090600941
0 0

0101101
*
Ed
 1.5e-07 1 1 0
1  70 0 -42.7332159193148 -22.2197504788289
2  217 44 0 -42.7332159193148 -22.2197504788289
2  218 23 0 -42.7332159193148 -22.2197504788289
0

0101000
+145 0 -140 0 *
Ed
 1e-07 1 1 0
1  71 0 3 5
2  219 22 0 3 5
2  220 23 0 3 5
0

0101000
+265 0 -140 0 *
Wi

0101100
+262 0 -143 0 -139 0 +138 0 *
Fa
0  1e-07 23 0

0101000
+137 0 *
Ve
1.50000010048592e-07
5.62933210721079 -48 30.9067821388223
0 0

0101101
*
Ed
 1.5e-07 1 1 0
1  72 0 -40.0570112820184 -23.4065506594117
2  221 44 0 -40.0570112820184 -23.4065506594117
2  222 22 0 -40.0570112820184 -23.4065506594117
0

0101000
+140 0 -135 0 *
Ed
 1e-07 1 1 0
1  73 0 3 5
2  223 21 0 3 5
2  224 22 0 3 5
0

0101000
+268 0 -135 0 *
Wi

0101100
+264 0 -138 0 -134 0 +133 0 *
Fa
0  1e-07 22 0

0101000
+132 0 *
Ed
 1.5e-07 1 1 0
1  74 0 -34.3399066781225 -14.7024614631329
2  225 44 0 -34.3399066781225 -14.7024614631329
2  226 21 0 -34.3399066781225 -14.7024614631329
0

0101000
+135 0 -157 0 *
Wi

0101100
+266 0 -133 0 -130 0 +156 0 *
Fa
0  1e-07 21 0

0101000
+129 0 *
Ed
 1e-07 1 1 0
1  75 0 0 100
2  227 29 0 0 100
2  228 57 0 0 100
2  229 31 0 0 100
0

0101000
-247 0 +217 0 *
Wi

0101100
-193 0 -246 0 +216 0 +127 0 *
Wi

0101100
-185 0 -179 0 -174 0 -169 0 -164 0 -160 0 *
Fa
0  1e-07 29 0

0101000
+126 0 +125 0 *
Ed
 1e-07 1 1 0
1  76 0 0 100
2  230 58 0 0 100
2  231 44 0 0 100
2  232 43 0 0 100
0

0101000
-231 0 +201 0 *
Wi

0101100
-198 0 -123 0 +190 0 +228 0 *
Wi

0101100
-154 0 -149 0 -144 0 -139 0 -134 0 -130 0 *
Fa
0  1e-07 44 0

0101000
+122 0 +121 0 *
Ed
 1e-07 1 1 0
1  77 0 0 100
2  233 59 0 0 100
2  234 60 0 0 100
2  235 7 0 0 100
2  236 17 0 0 100
2  237 19 0 0 100
2  238 8 0 0 100
0

0101000
-254 0 +224 0 *
Wi

0101100
-222 0 +291 0 -252 0 -119 0 *
Ve
1.50000010048592e-07
5.62933210721079 50 30.9067821388223
0 0

0101101
*
Ve
1.50000007944109e-07
-13.9664120579965 50 29.6276945016916
0 0

0101101
*
Ed
 1.5e-07 1 1 0
1  78 0 -34.3399066781225 -14.7024614631329
2  239 61 0 -34.3399066781225 -14.7024614631329
2  240 62 0 -34.3399066781225 -14.7024614631329
2  241 7 0 -34.3399066781225 -14.7024614631329
2  242 8 0 -34.3399066781225 -14.7024614631329
0

0101000
+117 0 -116 0 *
Ve
1.50000007105427e-07
12.1099267469206 50 46.2443090600941
0 0

0101101
*
Ed
 1.5e-07 1 1 0
1  79 0 -40.0570112820184 -23.4065506594117
2  243 61 0 -40.0570112820184 -23.4065506594117
2  244 63 0 -40.0570112820184 -23.4065506594117
2  245 7 0 -40.0570112820184 -23.4065506594117
2  246 8 0 -40.0570112820184 -23.4065506594117
0

0101000
+114 0 -117 0 *
Ve
1.50000014648214e-07
11.4290785786296 50 66.7464726081136
0 0

0101101
*
Ed
 1.5e-07 1 1 0
1  80 0 -42.7332159193148 -22.2197504788289
2  247 61 0 -42.7332159193148 -22.2197504788289
2  248 64 0 -42.7332159193148 -22.2197504788289
2  249 7 0 -42.7332159193148 -22.2197504788289
2  250 8 0 -42.7332159193148 -22.2197504788289
0

0101000
+112 0 -114 0 *
Ve
1.50000007324107e-07
-11.304527984528 50 61.4027103604699
0 0

0101101
*
Ed
 1.5e-07 1 1 0
1  81 0 10.0457431459608 33.3989583919989
2  251 61 0 10.0457431459608 33.3989583919989
2  252 65 0 10.0457431459608 33.3989583919989
2  253 7 0 10.0457431459608 33.3989583919989
2  254 8 0 10.0457431459608 33.3989583919989
0

0101000
+110 0 -112 0 *
Ve
1.50000001776357e-07
-15.9923384972925 50 48.1462177586735
0 0

0101101
*
Ed
 1.5e-07 1 1 0
1  82 0 19.9173994012099 33.9783440175957
2  255 61 0 19.9173994012099 33.9783440175957
2  256 66 0 19.9173994012099 33.9783440175957
2  257 7 0 19.9173994012099 33.9783440175957
2  258 8 0 19.9173994012099 33.9783440175957
0

0101000
+108 0 -110 0 *
Ed
 1.5e-07 1 1 0
1  83 0 3.9143258299788 22.5433376544642
2  259 61 0 3.9143258299788 22.5433376544642
2  260 67 0 3.9143258299788 22.5433376544642
2  261 7 0 3.9143258299788 22.5433376544642
2  262 8 0 3.9143258299788 22.5433376544642
0

0101000
+116 0 -108 0 *
Wi

0101100
-115 0 -113 0 -111 0 -109 0 -107 0 -106 0 *
Fa
0  0 8 0

0111000
+118 0 +105 0 *
Wi

0101100
-270 0 -223 0 +119 0 -253 0 *
Ve
1.50000007324107e-07
50 -11.304527984528 61.4027103604699
0 0

0101101
*
Ve
1.50000001776357e-07
50 -15.9923384972925 48.1462177586735
0 0

0101101
*
Ed
 1.5e-07 1 1 0
1  84 0 -33.9783440175957 -19.9173994012099
2  263 68 0 -33.9783440175957 -19.9173994012099
2  264 69 0 -33.9783440175957 -19.9173994012099
2  265 17 0 -33.9783440175957 -19.9173994012099
2  266 19 0 -33.9783440175957 -19.9173994012099
0

0101000
+102 0 -101 0 *
Ve
1.50000014648214e-07
50 11.4290785786296 66.7464726081136
0 0

0101101
*
Ed
 1.5e-07 1 1 0
1  85 0 -33.3989583919989 -10.0457431459608
2  267 68 0 -33.3989583919989 -10.0457431459608
2  268 70 0 -33.3989583919989 -10.0457431459608
2  269 17 0 -33.3989583919989 -10.0457431459608
2  270 19 0 -33.3989583919989 -10.0457431459608
0

0101000
+99 0 -102 0 *
Ve
1.50000007105427e-07
50 12.1099267469206 46.2443090600941
0 0

0101101
*
Ed
 1.5e-07 1 1 0
1  86 0 22.2197504788289 42.7332159193148
2  271 68 0 22.2197504788289 42.7332159193148
2  272 71 0 22.2197504788289 42.7332159193148
2  273 17 0 22.2197504788289 42.7332159193148
2  274 19 0 22.2197504788289 42.7332159193148
0

0101000
+97 0 -99 0 *
Ve
1.50000010048592e-07
50 5.62933210721079 30.9067821388223
0 0

0101101
*
Ed
 1.5e-07 1 1 0
1  87 0 23.4065506594117 40.0570112820184
2  275 68 0 23.4065506594117 40.0570112820184
2  276 72 0 23.4065506594117 40.0570112820184
2  277 17 0 23.4065506594117 40.0570112820184
2  278 19 0 23.4065506594117 40.0570112820184
0

0101000
+95 0 -97 0 *
Ve
1.50000007944109e-07
50 -13.9664120579965 29.6276945016916
0 0

0101101
*
Ed
 1.5e-07 1 1 0
1  88 0 14.7024614631329 34.3399066781225
2  279 68 0 14.7024614631329 34.3399066781225
2  280 73 0 14.7024614631329 34.3399066781225
2  281 17 0 14.7024614631329 34.3399066781225
2  282 19 0 14.7024614631329 34.3399066781225
0

0101000
+93 0 -95 0 *
Ed
 1.5e-07 1 1 0
1  89 0 -22.5433376544642 -3.9143258299788
2  283 68 0 -22.5433376544642 -3.9143258299788
2  284 74 0 -22.5433376544642 -3.9143258299788
2  285 17 0 -22.5433376544642 -3.9143258299788
2  286 19 0 -22.5433376544642 -3.9143258299788
0

0101000
+101 0 -93 0 *
Wi

0101100
-100 0 -98 0 -96 0 -94 0 -92 0 -91 0 *
Fa
0  0 19 0

0111000
+103 0 +90 0 *
Ed
 1e-07 1 1 0
1  90 0 0 100
2  287 75 0 0 100
2  288 34 0 0 100
2  289 33 0 0 100
0

0101000
-243 0 +213 0 *
Ed
 1e-07 1 1 0
1  91 0 0 100
2  290 33 0 0 100
2  291 31 0 0 100
0

0101000
-245 0 +215 0 *
Wi

0101100
-242 0 +88 0 +212 0 -87 0 *
Fa
0  1e-07 33 0

0101000
+86 0 *
Wi

0101100
-214 0 -87 0 +244 0 +127 0 *
Fa
0  1e-07 31 0

0101000
+84 0 *
Ed
 1e-07 1 1 0
1  92 0 0 100
2  292 43 0 0 100
2  293 41 0 0 100
0

0101000
-233 0 +203 0 *
Wi

0101100
-123 0 -230 0 +82 0 +200 0 *
Fa
0  1e-07 43 0

0101000
+81 0 *
Ed
 1e-07 1 1 0
1  93 0 0 100
2  294 39 0 0 100
2  295 76 0 0 100
2  296 41 0 0 100
0

0101000
-235 0 +205 0 *
Wi

0101100
-202 0 -79 0 +232 0 +82 0 *
Fa
0  1e-07 41 0

0101000
+78 0 *
Ed
 1e-07 1 1 0
1  94 0 0 100
2  297 77 0 0 100
2  298 34 0 0 100
2  299 36 0 0 100
0

0101000
-241 0 +211 0 *
Wi

0101100
-210 0 -76 0 +88 0 +240 0 *
Ve
1.50000007944109e-07
-13.9664120579965 48 29.6276945016916
0 0

0101101
*
Ve
1.50000001776357e-07
-15.9923384972925 48 48.1462177586735
0 0

0101101
*
Ed
 1.5e-07 1 1 0
1  95 0 3.9143258299788 22.5433376544642
2  300 34 0 3.9143258299788 22.5433376544642
2  301 67 0 3.9143258299788 22.5433376544642
0

0101000
+74 0 -73 0 *
Ve
1.50000007324107e-07
-11.304527984528 48 61.4027103604699
0 0

0101101
*
Ed
 1.5e-07 1 1 0
1  96 0 19.9173994012099 33.9783440175957
2  302 34 0 19.9173994012099 33.9783440175957
2  303 66 0 19.9173994012099 33.9783440175957
0

0101000
+73 0 -71 0 *
Ve
1.50000014648214e-07
11.4290785786296 48 66.7464726081136
0 0

0101101
*
Ed
 1.5e-07 1 1 0
1  97 0 10.0457431459608 33.3989583919989
2  304 34 0 10.0457431459608 33.3989583919989
2  305 65 0 10.0457431459608 33.3989583919989
0

0101000
+71 0 -69 0 *
Ve
1.50000007105427e-07
12.1099267469206 48 46.2443090600941
0 0

0101101
*
Ed
 1.5e-07 1 1 0
1  98 0 -42.7332159193148 -22.2197504788289
2  306 34 0 -42.7332159193148 -22.2197504788289
2  307 64 0 -42.7332159193148 -22.2197504788289
0

0101000
+69 0 -67 0 *
Ve
1.50000010048592e-07
5.62933210721079 48 30.9067821388223
0 0

0101101
*
Ed
 1.5e-07 1 1 0
1  99 0 -40.0570112820184 -23.4065506594117
2  308 34 0 -40.0570112820184 -23.4065506594117
2  309 63 0 -40.0570112820184 -23.4065506594117
0

0101000
+67 0 -65 0 *
Ed
 1.5e-07 1 1 0
1  100 0 -34.3399066781225 -14.7024614631329
2  310 34 0 -34.3399066781225 -14.7024614631329
2  311 62 0 -34.3399066781225 -14.7024614631329
0

0101000
+65 0 -74 0 *
Wi

0101100
-72 0 -70 0 -68 0 -66 0 -64 0 -63 0 *
Fa
0  1e-07 34 0

0101000
+75 0 +62 0 *
Ed
 1e-07 1 1 0
1  101 0 0 100
2  312 39 0 0 100
2  313 78 0 0 100
2  314 38 0 0 100
0

0101000
-237 0 +207 0 *
Wi

0101100
-79 0 -234 0 +204 0 +60 0 *
Ve
1.50000001776357e-07
48 -15.9923384972925 48.1462177586735
0 0

0101101
*
Ve
1.50000007944109e-07
48 -13.9664120579965 29.6276945016916
0 0

0101101
*
Ed
 1.5e-07 1 1 0
1  102 0 -22.5433376544642 -3.9143258299788
2  315 39 0 -22.5433376544642 -3.9143258299788
2  316 74 0 -22.5433376544642 -3.9143258299788
0

0101000
+58 0 -57 0 *
Ve
1.50000009441466e-07
48 5.62933210721079 30.9067821388223
0 0

0101101
*
Ed
 1.5e-07 1 1 0
1  103 0 14.7024614631329 34.3399066781225
2  317 39 0 14.7024614631329 34.3399066781225
2  318 73 0 14.7024614631329 34.3399066781225
0

0101000
+57 0 -55 0 *
Ve
1.50000007105427e-07
48 12.1099267469206 46.2443090600941
0 0

0101101
*
Ed
 1.5e-07 1 1 0
1  104 0 23.4065506594117 40.0570112820184
2  319 39 0 23.4065506594117 40.0570112820184
2  320 72 0 23.4065506594117 40.0570112820184
0

0101000
+55 0 -53 0 *
Ve
1.50000014648214e-07
48 11.4290785786296 66.7464726081136
0 0

0101101
*
Ed
 1.5e-07 1 1 0
1  105 0 22.2197504788289 42.7332159193148
2  321 39 0 22.2197504788289 42.7332159193148
2  322 71 0 22.2197504788289 42.7332159193148
0

0101000
+53 0 -51 0 *
Ve
1.50000007324107e-07
48 -11.304527984528 61.4027103604699
0 0

0101101
*
Ed
 1.5e-07 1 1 0
1  106 0 -33.3989583919989 -10.0457431459608
2  323 39 0 -33.3989583919989 -10.0457431459608
2  324 70 0 -33.3989583919989 -10.0457431459608
0

0101000
+51 0 -49 0 *
Ed
 1.5e-07 1 1 0
1  107 0 -33.9783440175957 -19.9173994012099
2  325 39 0 -33.9783440175957 -19.9173994012099
2  326 69 0 -33.9783440175957 -19.9173994012099
0

0101000
+49 0 -58 0 *
Wi

0101100
-56 0 -54 0 -52 0 -50 0 -48 0 -47 0 *
Fa
0  1e-07 39 0

0101000
+59 0 +46 0 *
Ed
 1e-07 1 1 0
1  108 0 3 5
2  327 67 0 3 5
2  328 62 0 3 5
0

0101000
+74 0 -116 0 *
Ed
 1e-07 1 1 0
1  109 0 3 5
2  329 67 0 3 5
2  330 66 0 3 5
0

0101000
+73 0 -108 0 *
Wi

0101100
+72 0 -44 0 -106 0 +43 0 *
Fa
0  1e-07 67 0

0101000
+42 0 *
Ed
 1e-07 1 1 0
1  110 0 3 5
2  331 65 0 3 5
2  332 66 0 3 5
0

0101000
+71 0 -110 0 *
Wi

0101100
+70 0 -43 0 -107 0 +40 0 *
Fa
0  1e-07 66 0

0101000
+39 0 *
Ed
 1e-07 1 1 0
1  111 0 3 5
2  333 64 0 3 5
2  334 65 0 3 5
0

0101000
+69 0 -112 0 *
Wi

0101100
+68 0 -40 0 -109 0 +37 0 *
Fa
0  1e-07 65 0

0101000
+36 0 *
Ed
 1e-07 1 1 0
1  112 0 3 5
2  335 63 0 3 5
2  336 64 0 3 5
0

0101000
+67 0 -114 0 *
Wi

0101100
+66 0 -37 0 -111 0 +34 0 *
Fa
0  1e-07 64 0

0101000
+33 0 *
Ed
 1e-07 1 1 0
1  113 0 3 5
2  337 62 0 3 5
2  338 63 0 3 5
0

0101000
+65 0 -117 0 *
Wi

0101100
+64 0 -34 0 -113 0 +31 0 *
Fa
0  1e-07 63 0

0101000
+30 0 *
Wi

0101100
+63 0 -31 0 -115 0 +44 0 *
Fa
0  1e-07 62 0

0101000
+28 0 *
Ed
 1e-07 1 1 0
1  114 0 3 5
2  339 74 0 3 5
2  340 73 0 3 5
0

0101000
+93 0 -57 0 *
Ed
 1e-07 1 1 0
1  115 0 3 5
2  341 74 0 3 5
2  342 69 0 3 5
0

0101000
+101 0 -58 0 *
Wi

0101100
-91 0 -26 0 +56 0 +25 0 *
Fa
0  1e-07 74 0

0101000
+24 0 *
Ed
 1e-07 1 1 0
1  116 0 3 5
2  343 73 0 3 5
2  344 72 0 3 5
0

0101000
+95 0 -55 0 *
Wi

0101100
-92 0 -22 0 +54 0 +26 0 *
Fa
0  1e-07 73 0

0101000
+21 0 *
Ed
 1e-07 1 1 0
1  117 0 3 5
2  345 72 0 3 5
2  346 71 0 3 5
0

0101000
+97 0 -53 0 *
Wi

0101100
-94 0 -19 0 +52 0 +22 0 *
Fa
0  1e-07 72 0

0101000
+18 0 *
Ed
 1e-07 1 1 0
1  118 0 3 5
2  347 71 0 3 5
2  348 70 0 3 5
0

0101000
+99 0 -51 0 *
Wi

0101100
-96 0 -16 0 +50 0 +19 0 *
Fa
0  1e-07 71 0

0101000
+15 0 *
Ed
 1e-07 1 1 0
1  119 0 3 5
2  349 70 0 3 5
2  350 69 0 3 5
0

0101000
+102 0 -49 0 *
Wi

0101100
-98 0 -13 0 +48 0 +16 0 *
Fa
0  1e-07 70 0

0101000
+12 0 *
Wi

0101100
-100 0 -25 0 +47 0 +13 0 *
Fa
0  1e-07 69 0

0101000
+10 0 *
Ed
 1e-07 1 1 0
1  120 0 0 100
2  351 36 0 0 100
2  352 38 0 0 100
0

0101000
-239 0 +209 0 *
Wi

0101100
-238 0 +76 0 +208 0 -8 0 *
Fa
0  1e-07 36 0

0101000
+7 0 *
Wi

0101100
-206 0 -60 0 +236 0 +8 0 *
Fa
0  1e-07 38 0

0101000
+5 0 *
Sh

0101100
-275 0 -255 0 +225 0 -195 0 +191 0 +188 0 -181 0 -176 0 -171 0 -166 0 
-161 0 -158 0 -151 0 -146 0 -141 0 -136 0 -131 0 -128 0 +124 0 +120 0 
+104 0 +89 0 +85 0 -83 0 -80 0 +77 0 -61 0 -45 0 -41 0 -38 0 
-35 0 -32 0 -29 0 -27 0 -23 0 -20 0 -17 0 -14 0 -11 0 -9 0 
-6 0 -4 0 *
So

0100000
+3 0 *
Co

1100000
+2 0 *

+1 0 